<svg width="72" height="72" xmlns="http://www.w3.org/2000/svg"><g fill="none" fill-rule="evenodd"><path d="M0 26.88c0-9.409 0-14.113 1.831-17.707a16.8 16.8 0 0 1 7.342-7.342C12.767 0 17.471 0 26.88 0h18.24c9.409 0 14.113 0 17.707 1.831a16.8 16.8 0 0 1 7.342 7.342C72 12.767 72 17.471 72 26.88v18.24c0 9.409 0 14.113-1.831 17.707a16.8 16.8 0 0 1-7.342 7.342C59.233 72 54.529 72 45.12 72H26.88c-9.409 0-14.113 0-17.707-1.831a16.8 16.8 0 0 1-7.342-7.342C0 59.233 0 54.529 0 45.12V26.88Z" fill="#FF9500"/><path d="M60 28.157s0 .125-.097.449c-.086.353-.273.689-.401.92-.09.16-.15.27-.13.3a76.2 76.2 0 0 0-.388.45l-.387.448-8.007 8.771c-.218.25-.29.698-.17.997l1.67 4.061c.12.3.145.823.024 1.122l-.46 1.27a6.105 6.105 0 0 1-1.886 2.742l-1.621 1.37c-.242.2-.678.274-.968.125l-5.152-2.517c-.29-.125-.726-.424-.968-.648l-3.677-3.414c-.532-.498-.58-1.37-.073-1.894l7.717-5.382a.716.716 0 0 0 .218-.872l-3.41-6.579c-.17-.274-.17-.772-.05-1.071l.412-.972c.12-.324.484-.648.774-.772l9.942-3.888c.315-.124.29-.249-.024-.274l-6.41-.623c-.315-.025-.823 0-1.137.1l-5.71 1.645c-.314.074-.507.423-.459.747l1.96 11.189c.072.323.048.797-.025 1.021-.072.224-.387.474-.701.548l-3.701.873a2.91 2.91 0 0 1-1.137 0l-3.967-.873c-.315-.074-.63-.299-.702-.548-.073-.249-.073-.698-.024-1.021l1.983-11.189a.682.682 0 0 0-.46-.747l-5.708-1.645a4.391 4.391 0 0 0-1.137-.1l-6.41.623c-.315.025-.315.15-.025.274l9.943 3.838c.29.124.653.473.774.772l.41.972c.122.3.098.773-.047 1.072l-3.387 6.578c-.145.3-.048.698.218.872l7.716 5.358c.484.548.46 1.395-.072 1.894l-3.677 3.413a5.219 5.219 0 0 1-.968.673L24.9 51.132c-.29.15-.726.075-.968-.125l-1.62-1.345A6.352 6.352 0 0 1 20.4 46.92l-.46-1.271c-.12-.324-.096-.822.025-1.121l1.67-4.062c.12-.3.048-.748-.17-.997L13.458 30.7a13.83 13.83 0 0 1-.774-.897s-.411-.549-.58-1.147c-.098-.348-.098-.448-.098-.448-.024-.324.025-.872.073-1.196l.242-.723c.145-.299.411-.772.58-1.046l2.734-4.162.059-.083c.193-.275.467-.663.642-.889l3.532-4.56c.194-.249.387-.448.412-.448h.048s.266.025.58.1l5.443 1.046c.158.025.363.068.569.112.205.044.411.087.568.112l.097.025c.314.05.822.025 1.137-.075l4.524-1.495c.29-.1.798-.249 1.112-.324 0 0 .92-.2 1.67-.2.75-.024 1.669.2 1.669.2.29.075.798.225 1.112.324l4.524 1.495c.314.1.822.125 1.137.075l.097-.025c.314-.05.822-.15 1.137-.224l5.394-1.097c.314-.05.58-.1.58-.1h.049c.024-.024.218.2.411.45l3.532 4.56c.218.274.532.697.701.971l2.734 4.162c.193.274.435.747.58 1.046l.242.723c.049.324.073.872.073 1.196Z" fill="#FFF"/><path d="M36.508 49.125c.097 0 .411.1.702.224l3.144 1.345c.29.125.774.35 1.065.499l4.74 2.492c.291.15.315.423.05.623l-4.186 3.065c-.266.199-.677.523-.919.747l-1.863 1.67c-.12.112-.278.255-.435.398-.157.144-.314.287-.435.4l-1.839 1.644a.648.648 0 0 1-.87 0l-1.79-1.645a75.564 75.564 0 0 0-.436-.399c-.157-.143-.315-.286-.436-.398l-1.862-1.645a13.532 13.532 0 0 0-.92-.747l-4.184-3.04c-.266-.2-.242-.474.048-.623l4.741-2.542c.29-.15.774-.374 1.065-.499l3.144-1.345c.29-.125.605-.224.702-.224h.774Z" fill="#FFF"/></g></svg>