<svg width="72" height="72" xmlns="http://www.w3.org/2000/svg"><g fill="none" fill-rule="evenodd"><path d="M0 26.88c0-9.409 0-14.113 1.831-17.707a16.8 16.8 0 0 1 7.342-7.342C12.767 0 17.471 0 26.88 0h18.24c9.409 0 14.113 0 17.707 1.831a16.8 16.8 0 0 1 7.342 7.342C72 12.767 72 17.471 72 26.88v18.24c0 9.409 0 14.113-1.831 17.707a16.8 16.8 0 0 1-7.342 7.342C59.233 72 54.529 72 45.12 72H26.88c-9.409 0-14.113 0-17.707-1.831a16.8 16.8 0 0 1-7.342-7.342C0 59.233 0 54.529 0 45.12V26.88Z" fill="#8E8E93"/><path d="M36 12c-13.255 0-24 10.745-24 24 0 1.705.178 3.37.516 4.974.147.697.8.529.684-.174 0-6.627 5.373-12 12-12a11.98 11.98 0 0 1 9.5 4.668c.613.792 1.987.792 2.6 0a11.98 11.98 0 0 1 9.5-4.668c6.627 0 12 5.373 12 12-.117.703.537.871.684.174A24.1 24.1 0 0 0 60 36c0-13.255-10.745-24-24-24ZM22.416 47.99c3.53-.992 9.268-2.39 13.584-2.39 4.316 0 10.055 1.398 13.584 2.39 1.086.306 1.151 1.818.125 2.285-3.389 1.543-8.768 4.306-11.967 7.541-.891.902-2.593.902-3.484 0-3.199-3.235-8.578-5.998-11.967-7.54-1.026-.468-.961-1.98.125-2.285ZM28.8 39.6a2.4 2.4 0 1 1-4.8 0 2.4 2.4 0 0 1 4.8 0ZM45.6 42a2.4 2.4 0 1 0 0-4.8 2.4 2.4 0 0 0 0 4.8Z" fill="#FFF"/></g></svg>