<svg width="284" height="578" viewBox="0 0 284 578" fill="none" xmlns="http://www.w3.org/2000/svg">
<path opacity="0.5" fill-rule="evenodd" clip-rule="evenodd" d="M233.32 0.281264C239.512 0.281006 244.932 0.280782 249.411 0.646737C254.162 1.03492 258.999 1.89942 263.684 4.28679C270.599 7.81013 276.221 13.4322 279.745 20.3471C282.132 25.0326 282.996 29.8694 283.385 34.6206C283.751 39.0996 283.75 44.5187 283.75 50.7112V527.351C283.75 533.544 283.751 538.963 283.385 543.442C282.996 548.193 282.132 553.03 279.745 557.715C276.221 564.63 270.599 570.252 263.684 573.776C258.999 576.163 254.162 577.028 249.411 577.416C244.932 577.782 239.513 577.782 233.32 577.781H50.68C44.4875 577.782 39.0684 577.782 34.5894 577.416C29.8382 577.028 25.0013 576.163 20.3159 573.776C13.4009 570.252 7.77888 564.63 4.25554 557.715C1.86817 553.03 1.00367 548.193 0.615487 543.442C0.249532 538.963 0.249756 533.544 0.250014 527.351V50.7115C0.249756 44.5189 0.249532 39.0997 0.615487 34.6206C1.00367 29.8694 1.86817 25.0326 4.25554 20.3471C7.77888 13.4322 13.4009 7.81013 20.3159 4.28679C25.0013 1.89942 29.8382 1.03492 34.5894 0.646737C39.0685 0.280782 44.4876 0.281006 50.6803 0.281264H233.32ZM15.95 26.3057C13.375 31.3594 13.375 37.975 13.375 51.2063V526.856C13.375 540.088 13.375 546.703 15.95 551.757C18.215 556.202 21.8292 559.816 26.2745 562.081C31.3282 564.656 37.9438 564.656 51.175 564.656H232.825C246.056 564.656 252.672 564.656 257.726 562.081C262.171 559.816 265.785 556.202 268.05 551.757C270.625 546.703 270.625 540.088 270.625 526.856V51.2063C270.625 37.975 270.625 31.3594 268.05 26.3057C265.785 21.8604 262.171 18.2463 257.726 15.9812C252.672 13.4063 246.056 13.4063 232.825 13.4063H51.175C37.9438 13.4063 31.3282 13.4063 26.2745 15.9812C21.8292 18.2463 18.215 21.8604 15.95 26.3057Z" fill="black"/>
<path fill-rule="evenodd" clip-rule="evenodd" d="M233.196 4.21876C239.496 4.21862 244.774 4.21851 249.09 4.57114C253.598 4.93944 257.859 5.73771 261.897 7.79511C268.071 10.941 273.09 15.9606 276.236 22.1347C278.294 26.1726 279.092 30.4336 279.46 34.9412C279.813 39.2573 279.813 44.5354 279.813 50.8354V527.227C279.813 533.527 279.813 538.805 279.46 543.121C279.092 547.629 278.294 551.89 276.236 555.928C273.09 562.102 268.071 567.122 261.897 570.267C257.859 572.325 253.598 573.123 249.09 573.491C244.774 573.844 239.495 573.844 233.195 573.844H50.8051C44.5047 573.844 39.2262 573.844 34.91 573.491C30.4023 573.123 26.1413 572.325 22.1034 570.267C15.9294 567.122 10.9097 562.102 7.76386 555.928C5.70646 551.89 4.90819 547.629 4.53989 543.121C4.18726 538.805 4.18737 533.527 4.18751 527.227V50.8356C4.18737 44.5355 4.18726 39.2573 4.53989 34.9412C4.90819 30.4336 5.70646 26.1726 7.76386 22.1347C10.9097 15.9606 15.9294 10.941 22.1034 7.79511C26.1413 5.73771 30.4023 4.93944 34.91 4.57114C39.2261 4.21851 44.5042 4.21862 50.8043 4.21876H233.196ZM15.95 26.3057C13.375 31.3594 13.375 37.975 13.375 51.2062V526.856C13.375 540.087 13.375 546.703 15.95 551.757C18.215 556.202 21.8292 559.816 26.2745 562.081C31.3281 564.656 37.9438 564.656 51.175 564.656H232.825C246.056 564.656 252.672 564.656 257.726 562.081C262.171 559.816 265.785 556.202 268.05 551.757C270.625 546.703 270.625 540.087 270.625 526.856V51.2063C270.625 37.975 270.625 31.3594 268.05 26.3057C265.785 21.8604 262.171 18.2462 257.726 15.9812C252.672 13.4063 246.056 13.4063 232.825 13.4063H51.175C37.9438 13.4063 31.3281 13.4063 26.2745 15.9812C21.8292 18.2462 18.215 21.8604 15.95 26.3057Z" fill="black"/>
<circle cx="142" cy="23.9062" r="6.5625" fill="black"/>
</svg>
