<svg width="32" height="32" viewBox="0 0 32 32" fill="none" xmlns="http://www.w3.org/2000/svg">
<path fill-rule="evenodd" clip-rule="evenodd" d="M22.0383 19.7139C21.7257 18.9733 18.8699 16.9701 18.0434 16.8556C17.5312 16.7846 16.415 18.2067 16.1413 19.8246C15.9733 20.8174 16.2209 21.81 16.8961 22.4129C18.6717 23.9983 22.351 20.4546 22.0383 19.7139ZM26.3572 7.22842C24.5742 6.62499 20.3579 8.74054 19.1894 14.9306C19.1894 15.2314 21.6203 16.9738 23.2952 17.5755C24.1503 17.8827 27.2917 14.6979 27.9631 11.5094C28.363 9.60974 27.2686 7.53689 26.3572 7.22842ZM11.6516 21.8097C11.1613 21.3904 7.50032 20.3232 6.79835 20.6606C6.09639 20.998 5.8308 25.3063 8.4321 25.8826C11.0334 26.4588 12.142 22.229 11.6516 21.8097ZM7.3738 18.2653C7.8641 18.6845 11.6074 19.9798 12.3094 19.6424C13.0114 19.3049 17.4904 10.042 12.9081 9.07884C11.4585 8.77415 8.62607 10.6618 7.77039 13.1382C6.93613 15.5526 7.13175 18.0583 7.3738 18.2653Z" fill="white"/>
</svg>
