<svg width="32" height="32" viewBox="0 0 32 32" fill="none" xmlns="http://www.w3.org/2000/svg">
<path fill-rule="evenodd" clip-rule="evenodd" d="M25.9431 21.6456C27.4332 21.6857 27.7374 21.2341 27.7374 20.5076C27.7374 18.239 27.1709 16.0675 26.1648 14.1834L23.6474 17.0423C23.9605 18.1516 24.1212 19.3489 24.1212 20.5854C24.1212 21.3118 24.453 21.6055 25.9431 21.6456ZM22.9008 10.2546C20.9911 8.75039 18.6244 7.84753 16.002 7.84753C9.29914 7.84753 4.2666 13.7335 4.2666 20.4949C4.2666 21.5779 4.65406 21.6438 5.30003 21.6478H5.54718C6.18185 21.6438 6.47326 21.5779 6.47326 20.4949C6.47326 15.1864 10.6338 10.6908 15.8964 10.6908C17.6083 10.6908 19.0768 11.1761 20.2791 12.0137L22.9008 10.2546ZM18.5812 15.961C18.9954 16.1768 19.331 16.4439 19.5877 16.7621C19.8433 17.0787 20.0582 17.4421 20.2324 17.8522C20.3191 18.0561 20.5547 18.1512 20.7586 18.0645C20.8101 18.0426 20.8565 18.0102 20.8934 17.9682L28.4039 9.92015C28.7063 9.59615 28.6888 9.08839 28.3648 8.78603C28.0813 8.52151 27.6493 8.49748 27.3382 8.72895L18.529 15.2847C18.3498 15.415 18.3126 15.6663 18.4446 15.8443C18.4807 15.893 18.5274 15.9329 18.5812 15.961ZM16.1059 22.4C17.7582 22.4 19.0976 21.041 19.0976 19.3646C19.0976 17.6882 17.7582 16.3292 16.1059 16.3292C14.4537 16.3292 13.1143 17.6882 13.1143 19.3646C13.1143 21.041 14.4537 22.4 16.1059 22.4Z" fill="white"/>
</svg>
