<svg width="32" height="32" viewBox="0 0 32 32" fill="none" xmlns="http://www.w3.org/2000/svg">
<path d="M0 16C0 10.3995 0 7.59921 1.08993 5.46009C2.04867 3.57847 3.57847 2.04867 5.46009 1.08993C7.59921 0 10.3995 0 16 0C21.6005 0 24.4008 0 26.5399 1.08993C28.4215 2.04867 29.9513 3.57847 30.9101 5.46009C32 7.59921 32 10.3995 32 16C32 21.6005 32 24.4008 30.9101 26.5399C29.9513 28.4215 28.4215 29.9513 26.5399 30.9101C24.4008 32 21.6005 32 16 32C10.3995 32 7.59921 32 5.46009 30.9101C3.57847 29.9513 2.04867 28.4215 1.08993 26.5399C0 24.4008 0 21.6005 0 16Z" fill="#A34ED0"/>
<path d="M16 25.2504C16.2472 25.2504 16.5988 25.0698 16.884 24.8892C22.1973 21.4675 25.6 17.4564 25.6 13.3883C25.6 9.89994 23.1953 7.46667 20.1632 7.46667C18.2717 7.46667 16.8555 8.51222 16 10.0805C15.1636 8.52172 13.7378 7.46667 11.8464 7.46667C8.81428 7.46667 6.40002 9.89994 6.40002 13.3883C6.40002 17.4564 9.8028 21.4675 15.1161 24.8892C15.4107 25.0698 15.7624 25.2504 16 25.2504Z" fill="white"/>
</svg>
