<svg width="32" height="32" viewBox="0 0 32 32" fill="none" xmlns="http://www.w3.org/2000/svg">
<path fill-rule="evenodd" clip-rule="evenodd" d="M20.9239 6.98158L23.2126 9.17218C22.7018 9.0588 22.1754 9.00001 21.6415 9.00001H12.4019C9.36436 9.00001 6.90192 11.4624 6.90192 14.5V20.2677C6.26941 19.7553 5.81176 19.0213 5.65931 18.1567L4.44377 11.263C4.10811 9.3594 5.3792 7.5441 7.28283 7.20844L16.3821 5.60399C18.029 5.31359 19.7158 5.82521 20.9239 6.98158ZM8.90198 21.0438V21.5C8.90198 23.433 10.469 25 12.402 25H21.6416C23.314 25 24.8863 24.2033 25.8752 22.8547L27.9175 20.0698C28.8209 18.8378 28.8209 17.1622 27.9175 15.9302L25.8752 13.1453C24.8863 11.7967 23.314 11 21.6416 11H12.402C12.1471 11 11.8986 11.0272 11.6593 11.079C10.083 11.4195 8.90192 12.8218 8.90192 14.5V21.0437C8.90194 21.0437 8.90196 21.0438 8.90198 21.0438ZM25.0021 18C25.0021 18.9665 24.2186 19.75 23.2521 19.75C22.2856 19.75 21.5021 18.9665 21.5021 18C21.5021 17.0335 22.2856 16.25 23.2521 16.25C24.2186 16.25 25.0021 17.0335 25.0021 18Z" fill="white"/>
</svg>
