<svg xmlns="http://www.w3.org/2000/svg" width="32" height="32" viewBox="0 0 72 72"><path  d="m42.967 9.658 5.377 5.327c.145.143.326.247.526.3l7.335 1.96c4.884 1.306 7.792 6.307 6.482 11.182l-1.958 7.288c-.05.187-.05.383 0 .57l1.958 7.288c1.31 4.875-1.598 9.876-6.482 11.181l-7.335 1.96c-.2.054-.381.158-.526.301l-5.377 5.327c-3.577 3.544-9.357 3.544-12.934 0l-5.377-5.327a1.2 1.2 0 0 0-.526-.3l-7.335-1.96c-4.884-1.306-7.792-6.307-6.482-11.182l1.958-7.288c.05-.187.05-.383 0-.57l-1.958-7.288c-1.31-4.875 1.598-9.876 6.482-11.181l7.335-1.96c.2-.054.381-.158.526-.301l5.377-5.327c3.577-3.544 9.357-3.544 12.934 0"/></svg>