<svg xmlns="http://www.w3.org/2000/svg" width="32" height="32" viewBox="0 0 72 72"><path  d="m42.992 9.395 3.545 3.277c.155.144.35.235.56.262l4.79.609a9.014 9.014 0 0 1 7.87 8.588l.189 4.824c.008.211.082.415.211.582l2.956 3.817a9.014 9.014 0 0 1-.508 11.638l-3.277 3.545a1 1 0 0 0-.262.56l-.609 4.79a9.014 9.014 0 0 1-8.588 7.87l-4.824.189a1 1 0 0 0-.582.211l-3.817 2.956a9.014 9.014 0 0 1-11.638-.508l-3.545-3.277a1 1 0 0 0-.56-.262l-4.79-.609a9.014 9.014 0 0 1-7.87-8.588l-.189-4.824a1 1 0 0 0-.211-.582l-2.956-3.817a9.014 9.014 0 0 1 .508-11.638l3.277-3.545c.144-.155.235-.35.262-.56l.609-4.79a9.014 9.014 0 0 1 8.588-7.87l4.824-.189c.211-.008.415-.082.582-.211l3.817-2.956a9.014 9.014 0 0 1 11.638.508"/></svg>