<svg xmlns="http://www.w3.org/2000/svg" width="32" height="32" viewBox="0 0 72 72"><path  d="m53.1 13.65 1.873 5.163c.106.292.3.534.547.69l4.601 2.89c4.31 2.708 5.66 8.401 3.055 12.785l-2.798 4.709c-.16.27-.229.591-.191.91l.648 5.464c.603 5.086-2.952 9.74-8.01 10.41l-5.361.709c-.273.036-.53.166-.732.375l-3.793 3.922a9.215 9.215 0 0 1-13.113.165l-3.888-3.825a1.24 1.24 0 0 0-.739-.355l-5.377-.573c-5.074-.54-8.744-5.106-8.266-10.206l.514-5.479a1.45 1.45 0 0 0-.212-.904l-2.913-4.636c-2.712-4.317-1.501-10.042 2.738-12.857L16.212 20c.244-.162.433-.41.532-.705l1.746-5.208C20.124 9.21 25.357 6.563 30.215 8.2l5.134 1.729c.258.087.536.083.793-.01l5.09-1.86c4.816-1.758 10.115.757 11.868 5.592"/></svg>