<svg width="36" height="36" viewBox="0 0 36 36" fill="none" xmlns="http://www.w3.org/2000/svg">
<path d="M21.116 16.8597C21.8886 16.8597 22.5149 16.0768 22.5149 15.1111C22.5149 14.1453 21.8886 13.3625 21.116 13.3625C20.3434 13.3625 19.7171 14.1453 19.7171 15.1111C19.7171 16.0768 20.3434 16.8597 21.116 16.8597Z" fill="black"/>
<path d="M14.8791 16.8597C15.6517 16.8597 16.278 16.0768 16.278 15.1111C16.278 14.1454 15.6517 13.3625 14.8791 13.3625C14.1065 13.3625 13.4802 14.1454 13.4802 15.1111C13.4802 16.0768 14.1065 16.8597 14.8791 16.8597Z" fill="black"/>
<path fill-rule="evenodd" clip-rule="evenodd" d="M27.0395 21.2574V15.3174C27.0395 10.3252 22.9925 6.27826 18.0004 6.27826C13.0082 6.27826 8.96124 10.3252 8.96124 15.3174V21.2574C8.96124 24.1502 8.96124 25.5966 9.52422 26.7015C10.0194 27.6734 10.8096 28.4636 11.7815 28.9588C12.8864 29.5217 14.3328 29.5217 17.2256 29.5217H18.7752C21.6679 29.5217 23.1143 29.5217 24.2192 28.9588C25.1911 28.4636 25.9813 27.6734 26.4765 26.7015C27.0395 25.5966 27.0395 24.1502 27.0395 21.2574ZM11.5434 15.3174C11.5434 11.7516 14.4341 8.86088 17.9999 8.86088C21.5658 8.86088 24.4565 11.7516 24.4565 15.3174V16.7772C24.4565 18.2549 23.608 19.6077 22.1748 19.9675C21.0836 20.2414 19.6533 20.4826 17.9999 20.4826C16.3466 20.4826 14.9163 20.2414 13.8251 19.9675C12.3919 19.6077 11.5434 18.2549 11.5434 16.7772V15.3174Z" fill="black"/>
<path d="M30.2676 16.4C31.096 16.4 31.7676 17.0716 31.7676 17.9V24.3565C31.7676 25.1849 31.096 25.8565 30.2676 25.8565C29.4392 25.8565 28.7676 25.1849 28.7676 24.3565V17.9C28.7676 17.0716 29.4392 16.4 30.2676 16.4Z" fill="black"/>
<path d="M7.23291 17.9C7.23291 17.0716 6.56134 16.4 5.73291 16.4C4.90448 16.4 4.23291 17.0716 4.23291 17.9V24.3565C4.23291 25.1849 4.90448 25.8565 5.73291 25.8565C6.56134 25.8565 7.23291 25.1849 7.23291 24.3565V17.9Z" fill="black"/>
</svg>
