<svg width="36" height="36" viewBox="0 0 36 36" fill="none" xmlns="http://www.w3.org/2000/svg">
<path d="M12.1765 22.708H15.5855C16.0157 22.708 16.2308 22.708 16.4395 22.7306C17.0143 22.7929 17.568 22.9829 18.0601 23.2866C18.2387 23.3969 18.4085 23.5289 18.7481 23.7931L22.3164 26.5684C24.4611 28.2365 25.5335 29.0706 26.4338 29.0629C27.217 29.0562 27.9551 28.6953 28.4412 28.0811C29 27.3751 29 26.0166 29 23.2996V11.7634C29 9.04635 29 7.68782 28.4412 6.98185C27.9551 6.3677 27.217 6.00672 26.4338 6.00005C25.5335 5.99239 24.4611 6.82644 22.3164 8.49455L18.7481 11.2699C18.4085 11.534 18.2387 11.6661 18.0601 11.7763C17.568 12.0801 17.0143 12.27 16.4395 12.3324C16.2308 12.355 16.0157 12.355 15.5855 12.355H12.1765C9.31759 12.355 7 14.6726 7 17.5315C7 20.3904 9.31758 22.708 12.1765 22.708Z" fill="black"/>
<path d="M12.2982 25.1742C12.1764 25.4348 12.1764 25.7709 12.1764 26.4431V27.8844C12.1764 29.3139 13.3352 30.4727 14.7646 30.4727C16.1941 30.4727 17.3529 29.3139 17.3529 27.8844V26.4431C17.3529 25.7709 17.3529 25.4348 17.231 25.1742C17.1026 24.8995 16.8817 24.6786 16.6069 24.5501C16.3464 24.4283 16.0103 24.4283 15.3381 24.4283H14.1912C13.519 24.4283 13.1829 24.4283 12.9224 24.5501C12.6476 24.6786 12.4267 24.8995 12.2982 25.1742Z" fill="black"/>
</svg>
