<svg width="36" height="36" viewBox="0 0 36 36" fill="none" xmlns="http://www.w3.org/2000/svg">
<path d="M22.3902 9.03227C20.3914 7.162 17.595 6 14.5 6C8.42487 6 3.5 10.4772 3.5 16C3.5 19.1499 4.97133 21.7318 7.47498 23.5647C7.79515 23.7991 8.09005 25.1016 7.37638 26.1956C7.08455 26.643 6.76327 26.991 6.51594 27.2589C6.15843 27.6462 5.95542 27.8661 6.21917 27.9767C6.49426 28.0921 8.11974 28.1492 9.29294 27.4912C10.2112 26.9763 10.7674 26.4625 11.1419 26.1166C11.4516 25.8305 11.6371 25.6592 11.8005 25.6967C12.3863 25.831 12.9908 25.9227 13.6098 25.9677C13.6182 25.9683 13.6267 25.9689 13.6351 25.9695C13.9205 25.9897 14.2089 26 14.5 26C20.5751 26 25.5 21.5228 25.5 16C25.5 13.2908 24.3149 10.8332 22.3902 9.03227Z" fill="black"/>
<path d="M32.5 19C32.5 15.0932 30.0356 11.7097 26.4429 10.0641C26.0059 9.86387 25.6121 10.3758 25.8411 10.7985C26.6828 12.3527 27.16 14.1145 27.16 16C27.16 21.6043 22.944 26.1149 17.4721 27.3341C16.9915 27.4412 16.8851 28.0914 17.3467 28.2627C18.6282 28.738 20.0305 29 21.5 29C22.4314 29 23.3358 28.8948 24.1995 28.6967C24.3629 28.6592 24.5484 28.8305 24.8581 29.1166C25.2326 29.4625 25.7888 29.9763 26.7071 30.4912C27.8803 31.1492 29.5057 31.0921 29.7808 30.9767C30.0446 30.8661 29.8416 30.6462 29.4841 30.2589C29.2367 29.991 28.9155 29.643 28.6236 29.1956C27.91 28.1016 28.2048 26.7991 28.525 26.5647C31.0287 24.7318 32.5 22.1499 32.5 19Z" fill="black"/>
</svg>
