<svg width="36" height="36" viewBox="0 0 36 36" fill="none" xmlns="http://www.w3.org/2000/svg">
<path d="M14.3333 17.3333C16.9107 17.3333 19 15.244 19 12.6667C19 10.0893 16.9107 8 14.3333 8C11.756 8 9.66667 10.0893 9.66667 12.6667C9.66667 15.244 11.756 17.3333 14.3333 17.3333Z" fill="black"/>
<path d="M5 25.3654C5 26.8204 6.17955 28 7.63461 28H21.0376C22.4901 27.997 23.6667 26.8186 23.6667 25.3654C23.6667 24.5819 23.4961 23.799 23.0277 23.1928C22.9608 23.1062 22.8879 23.0232 22.8084 22.9443C22.4728 22.611 22.0286 22.2323 21.4585 21.8601C21.4277 21.8399 21.3965 21.8198 21.365 21.7998C19.9048 20.8708 17.6512 20 14.3333 20C9.6174 20 7.05162 21.7592 5.85822 22.9443C5.22282 23.5753 5 24.4699 5 25.3654Z" fill="black"/>
<path d="M25.1023 28H30.823C32.0253 28 33 27.0253 33 25.823C33 25.0652 32.806 24.3089 32.2604 23.7831C31.2358 22.7956 29.037 21.3333 25 21.3333C24.7745 21.3333 24.5548 21.3379 24.3406 21.3467L24.368 21.3738C25.5844 22.5817 25.88 24.1575 25.88 25.3654C25.88 26.3368 25.5943 27.2415 25.1023 28Z" fill="black"/>
<path d="M25 18.6667C27.2091 18.6667 29 16.8758 29 14.6667C29 12.4575 27.2091 10.6667 25 10.6667C22.7909 10.6667 21 12.4575 21 14.6667C21 16.8758 22.7909 18.6667 25 18.6667Z" fill="black"/>
</svg>
