<svg width="36" height="36" viewBox="0 0 36 36" fill="none" xmlns="http://www.w3.org/2000/svg">
<path fill-rule="evenodd" clip-rule="evenodd" d="M16.8151 27.4314C17.4066 27.0754 18.1464 27.0754 18.7379 27.4314L23.2643 30.1558C24.6767 31.0059 26.4164 29.739 26.0409 28.1338L24.8434 23.0146C24.6854 22.3394 24.9152 21.6324 25.4399 21.1792L29.4253 17.7361C30.6744 16.6571 30.0084 14.6069 28.3637 14.4678L23.1107 14.0233C22.4222 13.9651 21.8224 13.5308 21.5521 12.8949L19.4922 8.04816C18.849 6.53473 16.7039 6.53473 16.0607 8.04816L14.0008 12.8949C13.7306 13.5308 13.1307 13.9651 12.4422 14.0233L7.18921 14.4678C5.54451 14.6069 4.8786 16.6571 6.12762 17.7361L10.1131 21.1792C10.6377 21.6324 10.8675 22.3394 10.7096 23.0146L9.51201 28.1338C9.1365 29.739 10.8762 31.0059 12.2887 30.1558L16.8151 27.4314Z" fill="black"/>
</svg>
