<svg width="28" height="28" viewBox="0 0 28 28" xmlns="http://www.w3.org/2000/svg"><path d="m10.09 8.06 13.94 13.7a2.38 2.38 0 1 1-3.63 3.05L9.33 8.7l.76-.64Z" fill="#BBD9FB"/><path d="M6.02 2.55a1 1 0 0 0-1.41 1.18l.72 2.3a1 1 0 0 1-.26 1l-1.7 1.69a1 1 0 0 0 .69 1.71l2.4.03a1 1 0 0 1 .88.55l1.07 2.15a1 1 0 0 0 1.85-.13l.76-2.28a1 1 0 0 1 .8-.67l2.37-.36a1 1 0 0 0 .45-1.79L12.7 6.5a1 1 0 0 1-.39-.96l.4-2.37a1 1 0 0 0-1.57-.98L9.19 3.58a1 1 0 0 1-1.04.07l-2.13-1.1Z" fill="#FFB74D"/><path fill-rule="evenodd" d="m5.56 3.43.72 2.3a2 2 0 0 1-.5 2.02L4.07 9.43l2.4.03a2 2 0 0 1 1.76 1.1l1.08 2.15.76-2.28a2 2 0 0 1 1.6-1.34l2.37-.36-1.92-1.43a2 2 0 0 1-.79-1.93l.4-2.37-1.96 1.4a2 2 0 0 1-2.08.14l-2.13-1.1Zm.46-.88a1 1 0 0 0-1.41 1.18l.72 2.3a1 1 0 0 1-.26 1l-1.7 1.69a1 1 0 0 0 .69 1.71l2.4.03a1 1 0 0 1 .88.55l1.07 2.15a1 1 0 0 0 1.85-.13l.47-1.41 9.26 13.47a2.88 2.88 0 1 0 4.39-3.69L12.72 9.95l1.47-.23a1 1 0 0 0 .45-1.79L12.7 6.5a1 1 0 0 1-.39-.96l.4-2.37a1 1 0 0 0-1.57-.98L9.19 3.58a1 1 0 0 1-1.04.07l-2.13-1.1Zm5.5 7.62 12.16 11.95a1.88 1.88 0 1 1-2.87 2.4l-9.65-14.04a1 1 0 0 1 .37-.3Z" fill="#131722"/></svg>