<svg xmlns="http://www.w3.org/2000/svg" width="88" height="84" fill="none"><path fill="#fff" d="M41.307 70.48 21.729 82.472a3.49 3.49 0 0 1-5.205-3.835l3.03-11.929a14.17 14.17 0 0 1 7.6-9.282l21.358-10.255a2.834 2.834 0 0 0-1.71-5.346l-23.774 4.116c-4.592.795-9.3-.473-12.871-3.466l-7.511-6.294a3.49 3.49 0 0 1 1.969-6.153l22.947-1.796a5.16 5.16 0 0 0 4.362-3.167l8.852-21.37a3.49 3.49 0 0 1 6.448 0l8.852 21.37a5.16 5.16 0 0 0 4.362 3.167l23.073 1.806a3.49 3.49 0 0 1 1.992 6.134L67.906 51.175a5.16 5.16 0 0 0-1.668 5.13l5.41 22.474a3.49 3.49 0 0 1-5.216 3.792L46.693 70.48a5.16 5.16 0 0 0-5.386 0"/><path fill="url(#a)" d="M41.307 70.48 21.729 82.472a3.49 3.49 0 0 1-5.205-3.835l3.03-11.929a14.17 14.17 0 0 1 7.6-9.282l21.358-10.255a2.834 2.834 0 0 0-1.71-5.346l-23.774 4.116c-4.592.795-9.3-.473-12.871-3.466l-7.511-6.294a3.49 3.49 0 0 1 1.969-6.153l22.947-1.796a5.16 5.16 0 0 0 4.362-3.167l8.852-21.37a3.49 3.49 0 0 1 6.448 0l8.852 21.37a5.16 5.16 0 0 0 4.362 3.167l23.073 1.806a3.49 3.49 0 0 1 1.992 6.134L67.906 51.175a5.16 5.16 0 0 0-1.668 5.13l5.41 22.474a3.49 3.49 0 0 1-5.216 3.792L46.693 70.48a5.16 5.16 0 0 0-5.386 0"/><path fill="url(#b)" d="M41.307 70.48 21.729 82.472a3.49 3.49 0 0 1-5.205-3.835l3.03-11.929a14.17 14.17 0 0 1 7.6-9.282l21.358-10.255a2.834 2.834 0 0 0-1.71-5.346l-23.774 4.116c-4.592.795-9.3-.473-12.871-3.466l-7.511-6.294a3.49 3.49 0 0 1 1.969-6.153l22.947-1.796a5.16 5.16 0 0 0 4.362-3.167l8.852-21.37a3.49 3.49 0 0 1 6.448 0l8.852 21.37a5.16 5.16 0 0 0 4.362 3.167l23.073 1.806a3.49 3.49 0 0 1 1.992 6.134L67.906 51.175a5.16 5.16 0 0 0-1.668 5.13l5.41 22.474a3.49 3.49 0 0 1-5.216 3.792L46.693 70.48a5.16 5.16 0 0 0-5.386 0"/><path stroke="url(#c)" stroke-width="1.667" d="M41.307 70.48 21.729 82.472a3.49 3.49 0 0 1-5.205-3.835l3.03-11.929a14.17 14.17 0 0 1 7.6-9.282l21.358-10.255a2.834 2.834 0 0 0-1.71-5.346l-23.774 4.116c-4.592.795-9.3-.473-12.871-3.466l-7.511-6.294a3.49 3.49 0 0 1 1.969-6.153l22.947-1.796a5.16 5.16 0 0 0 4.362-3.167l8.852-21.37a3.49 3.49 0 0 1 6.448 0l8.852 21.37a5.16 5.16 0 0 0 4.362 3.167l23.073 1.806a3.49 3.49 0 0 1 1.992 6.134L67.906 51.175a5.16 5.16 0 0 0-1.668 5.13l5.41 22.474a3.49 3.49 0 0 1-5.216 3.792L46.693 70.48a5.16 5.16 0 0 0-5.386 0Z" style="mix-blend-mode:soft-light"/><defs><linearGradient id="a" x1="3" x2="84.148" y1="63.5" y2="-1.323" gradientUnits="userSpaceOnUse"><stop stop-color="#6B93FF"/><stop offset=".439" stop-color="#976FFF"/><stop offset="1" stop-color="#E46ACE"/></linearGradient><linearGradient id="b" x1="-7" x2="80.569" y1="102" y2="-4.497" gradientUnits="userSpaceOnUse"><stop stop-color="#FDEB32"/><stop offset=".439" stop-color="#FEBD04"/><stop offset="1" stop-color="#D75902"/></linearGradient><linearGradient id="c" x1="94.417" x2="44.063" y1="26.667" y2="42.313" gradientUnits="userSpaceOnUse"><stop stop-color="#fff" stop-opacity="0"/><stop offset=".396" stop-color="#fff" stop-opacity=".85"/><stop offset=".521" stop-color="#fff"/><stop offset=".646" stop-color="#fff" stop-opacity=".85"/><stop offset="1" stop-color="#fff" stop-opacity="0"/></linearGradient></defs></svg>