<svg xmlns="http://www.w3.org/2000/svg" width="84" height="84"><defs><linearGradient id="a" x1="50%" x2="50%" y1="0%" y2="100%"><stop offset="0%" stop-color="#A5A5A5"/><stop offset="100%" stop-color="#616161"/></linearGradient><linearGradient id="b" x1="50%" x2="50%" y1="0%" y2="99.396%"><stop offset="0%" stop-color="#737373"/><stop offset="100%" stop-color="#565656"/></linearGradient></defs><g fill="none" fill-rule="evenodd"><path fill="url(#a)" stroke="url(#b)" stroke-width="2.947" d="M42 4.474c10.654 0 20.303 3.968 27.286 10.398 6.937 6.387 11.24 15.208 11.24 24.958 0 9.751-4.303 18.572-11.24 24.96C62.303 71.22 52.654 75.186 42 75.186a41.582 41.582 0 0 1-13.414-2.202c-.191.122-.386.244-.584.368-1.822 1.138-3.425 2.065-4.812 2.78-3.227 1.664-7.306 2.762-12.221 3.324l-.636.07c.515-.989.983-1.9 1.403-2.737l.35-.699c1.069-2.154 1.789-3.757 2.143-4.842.586-1.799.88-3.579 1.007-5.216.019-.24.034-.485.045-.734a37.536 37.536 0 0 1-.518-.466c-6.966-6.39-11.29-15.23-11.29-25.003 0-9.75 4.304-18.57 11.24-24.958C21.698 8.442 31.347 4.474 42 4.474Z"/><path fill="#B8B8B8" d="M9.68 24.614a.501.501 0 0 0 .73-.006C20.518 13.728 31.314 8.501 42.8 8.93c11.46.427 22.125 6.44 31.995 18.037a.693.693 0 0 0 .941.106.705.705 0 0 0 .174-.944C67.782 13.338 56.745 6.691 42.8 6.188 28.822 5.686 17.759 11.55 9.607 23.78a.669.669 0 0 0 .074.834Z" opacity=".375"/></g></svg>