<svg width="16" height="16" viewBox="0 0 16 16" fill="none" xmlns="http://www.w3.org/2000/svg">
<g clip-path="url(#clip0_2137_6329)">
<path d="M8 16C12.4183 16 16 12.4183 16 8C16 3.58172 12.4183 0 8 0C3.58172 0 0 3.58172 0 8C0 12.4183 3.58172 16 8 16Z" fill="url(#paint0_linear_2137_6329)"/>
<path fill-rule="evenodd" clip-rule="evenodd" d="M6.9448 4.85835L5.1632 4.52475C4.94 4.48315 4.7232 4.61915 4.6632 4.83835L4.0336 7.07035L4.0008 7.20315C3.9808 7.31915 3.9896 7.40875 4.0216 7.47755C4.1312 7.71915 4.4528 7.80715 4.8528 7.91595C5.0208 7.96155 7.8016 8.51755 7.9296 8.62875C7.9448 8.64155 8.0136 8.68875 7.9984 8.76875C7.984 8.84475 7.9136 8.85195 7.8488 8.86075C7.7136 8.87915 6.4872 8.85355 4.3056 8.86235C4.0968 8.86315 3.9176 9.01195 3.8792 9.21755L3.764 9.83195C3.72 10.068 3.8752 10.296 4.1112 10.34L10.7992 11.5936C11.0352 11.6376 11.2632 11.4824 11.3072 11.2464L12.2352 6.29355C12.2792 6.05755 12.124 5.82955 11.888 5.78555L10.1392 5.45755C10.288 4.66555 9.752 3.96315 8.9736 3.75435C8.8864 3.73115 8.7432 3.70395 8.648 3.69355C7.8472 3.60315 7.0928 4.06715 6.9448 4.85915V4.85835ZM9.4416 5.32635L7.644 4.98955C7.7272 4.54555 8.148 4.29835 8.5984 4.33675C8.648 4.34075 8.7384 4.35915 8.7888 4.37275C9.2264 4.48555 9.5248 4.88315 9.4416 5.32715V5.32635Z" fill="white"/>
<path d="M13.5 5C14.8807 5 16 3.88071 16 2.5C16 1.11929 14.8807 0 13.5 0C12.1193 0 11 1.11929 11 2.5C11 3.88071 12.1193 5 13.5 5Z" fill="#F72A0F"/>
</g>
<defs>
<linearGradient id="paint0_linear_2137_6329" x1="12.0008" y1="1.0704" x2="3.9992" y2="14.9296" gradientUnits="userSpaceOnUse">
<stop stop-color="#474A4E"/>
<stop offset="1" stop-color="#111111"/>
</linearGradient>
<clipPath id="clip0_2137_6329">
<rect width="16" height="16" fill="white"/>
</clipPath>
</defs>
</svg>
