<svg width="16" height="16" viewBox="0 0 16 16" fill="none" xmlns="http://www.w3.org/2000/svg">
<g clip-path="url(#clip0_2137_6334)">
<path d="M8 16C12.4183 16 16 12.4183 16 8C16 3.58172 12.4183 0 8 0C3.58172 0 0 3.58172 0 8C0 12.4183 3.58172 16 8 16Z" fill="url(#paint0_linear_2137_6334)"/>
<path fill-rule="evenodd" clip-rule="evenodd" d="M6.94482 4.85835L5.16322 4.52475C4.94002 4.48315 4.72322 4.61915 4.66322 4.83835L4.03362 7.07035L4.00082 7.20315C3.98082 7.31915 3.98962 7.40875 4.02162 7.47755C4.13122 7.71915 4.45282 7.80715 4.85282 7.91595C5.02082 7.96155 7.80162 8.51755 7.92962 8.62875C7.94482 8.64155 8.01362 8.68875 7.99842 8.76875C7.98402 8.84475 7.91362 8.85195 7.84882 8.86075C7.71362 8.87915 6.48722 8.85355 4.30562 8.86235C4.09682 8.86315 3.91762 9.01195 3.87922 9.21755L3.76402 9.83195C3.72002 10.068 3.87522 10.296 4.11122 10.34L10.7992 11.5936C11.0352 11.6376 11.2632 11.4824 11.3072 11.2464L12.2352 6.29355C12.2792 6.05755 12.124 5.82955 11.888 5.78555L10.1392 5.45755C10.288 4.66555 9.75202 3.96315 8.97362 3.75435C8.88642 3.73115 8.74322 3.70395 8.64802 3.69355C7.84722 3.60315 7.09282 4.06715 6.94482 4.85915V4.85835ZM9.44162 5.32635L7.64402 4.98955C7.72722 4.54555 8.14802 4.29835 8.59842 4.33675C8.64802 4.34075 8.73842 4.35915 8.78882 4.37275C9.22642 4.48555 9.52482 4.88315 9.44162 5.32715V5.32635Z" fill="white"/>
</g>
<defs>
<linearGradient id="paint0_linear_2137_6334" x1="12.0008" y1="1.0704" x2="3.9992" y2="14.9296" gradientUnits="userSpaceOnUse">
<stop stop-color="#474A4E"/>
<stop offset="1" stop-color="#111111"/>
</linearGradient>
<clipPath id="clip0_2137_6334">
<rect width="16" height="16" fill="white"/>
</clipPath>
</defs>
</svg>
