<svg width="56" height="56" viewBox="0 0 56 56" fill="none" xmlns="http://www.w3.org/2000/svg">
<path d="M28 56C43.464 56 56 43.464 56 28C56 12.536 43.464 0 28 0C12.536 0 0 12.536 0 28C0 43.464 12.536 56 28 56Z" fill="#5B5B5A"/>
<path d="M42.838 40.4376H40.6875V25.1251C40.6875 24.5449 40.457 23.9885 40.0468 23.5783C39.6365 23.168 39.0801 22.9376 38.5 22.9376H32.4843C32.3393 22.9376 32.2002 22.9952 32.0976 23.0977C31.9951 23.2003 31.9375 23.3394 31.9375 23.4844V40.4376H29.75V16.4311C29.7536 16.0904 29.6796 15.7533 29.5337 15.4454C29.3878 15.1374 29.1738 14.8667 28.9078 14.6538C28.5452 14.3711 28.1028 14.2098 27.6433 14.1929C27.1839 14.176 26.7308 14.3042 26.3484 14.5594L15.4109 21.8438C15.1109 22.044 14.865 22.3153 14.6951 22.6335C14.5253 22.9517 14.4368 23.3069 14.4375 23.6676V40.4376H12.2869C12.0042 40.4334 11.7305 40.5364 11.5207 40.7259C11.311 40.9154 11.1807 41.1772 11.1562 41.4588C11.1463 41.6085 11.1672 41.7585 11.2177 41.8997C11.2682 42.0409 11.3472 42.1702 11.4498 42.2795C11.5523 42.3889 11.6763 42.476 11.814 42.5354C11.9516 42.5949 12.1 42.6254 12.25 42.6251H42.875C43.0249 42.6254 43.1733 42.5949 43.311 42.5354C43.4486 42.476 43.5726 42.3889 43.6752 42.2795C43.7777 42.1702 43.8567 42.0409 43.9072 41.8997C43.9577 41.7585 43.9786 41.6085 43.9687 41.4588C43.9442 41.1772 43.814 40.9154 43.6042 40.7259C43.3944 40.5364 43.1207 40.4334 42.838 40.4376ZM20.4531 37.1563C20.4534 37.3062 20.4229 37.4547 20.3635 37.5923C20.304 37.73 20.2169 37.8539 20.1076 37.9565C19.9982 38.0591 19.8689 38.1381 19.7277 38.1886C19.5865 38.2391 19.4365 38.26 19.2869 38.2501C19.005 38.2255 18.7429 38.0951 18.5534 37.885C18.3639 37.675 18.2611 37.4009 18.2656 37.118V35.0057C18.2617 34.7232 18.3649 34.4496 18.5543 34.2399C18.7437 34.0302 19.0054 33.8999 19.2869 33.8751C19.4365 33.8651 19.5865 33.8861 19.7277 33.9366C19.8689 33.9871 19.9982 34.066 20.1076 34.1686C20.2169 34.2712 20.304 34.3952 20.3635 34.5328C20.4229 34.6705 20.4534 34.8189 20.4531 34.9688V37.1563ZM20.4531 29.5001C20.4534 29.65 20.4229 29.7984 20.3635 29.9361C20.304 30.0737 20.2169 30.1977 20.1076 30.3002C19.9982 30.4028 19.8689 30.4818 19.7277 30.5323C19.5865 30.5828 19.4365 30.6037 19.2869 30.5938C19.0051 30.569 18.7433 30.4385 18.5538 30.2285C18.3644 30.0185 18.2614 29.7446 18.2656 29.4618V27.3495C18.2617 27.0669 18.3649 26.7934 18.5543 26.5837C18.7437 26.374 19.0054 26.2436 19.2869 26.2188C19.4365 26.2089 19.5865 26.2298 19.7277 26.2803C19.8689 26.3308 19.9982 26.4098 20.1076 26.5124C20.2169 26.6149 20.304 26.7389 20.3635 26.8766C20.4229 27.0142 20.4534 27.1626 20.4531 27.3126V29.5001ZM25.9218 37.1563C25.9222 37.3062 25.8917 37.4547 25.8322 37.5923C25.7728 37.73 25.6857 37.8539 25.5763 37.9565C25.4669 38.0591 25.3377 38.1381 25.1965 38.1886C25.0553 38.2391 24.9052 38.26 24.7556 38.2501C24.4743 38.2256 24.2126 38.0955 24.0231 37.886C23.8337 37.6766 23.7305 37.4032 23.7343 37.1208V35.0057C23.7308 34.7234 23.8341 34.4502 24.0235 34.2408C24.2129 34.0314 24.4744 33.9012 24.7556 33.8764C24.9052 33.8665 25.0553 33.8874 25.1965 33.9379C25.3377 33.9884 25.4669 34.0674 25.5763 34.17C25.6857 34.2726 25.7728 34.3965 25.8322 34.5342C25.8917 34.6718 25.9222 34.8202 25.9218 34.9702V37.1563ZM25.9218 29.5001C25.9222 29.65 25.8917 29.7984 25.8322 29.9361C25.7728 30.0737 25.6857 30.1977 25.5763 30.3002C25.4669 30.4028 25.3377 30.4818 25.1965 30.5323C25.0553 30.5828 24.9052 30.6037 24.7556 30.5938C24.4744 30.569 24.2129 30.4389 24.0235 30.2295C23.8341 30.0201 23.7308 29.7468 23.7343 29.4645V27.3495C23.7308 27.0672 23.8341 26.7939 24.0235 26.5845C24.2129 26.3751 24.4744 26.245 24.7556 26.2202C24.9052 26.2102 25.0553 26.2312 25.1965 26.2817C25.3377 26.3322 25.4669 26.4112 25.5763 26.5137C25.6857 26.6163 25.7728 26.7403 25.8322 26.8779C25.8917 27.0156 25.9222 27.164 25.9218 27.3139V29.5001Z" fill="#AAAAAA"/>
</svg>
