<svg width="11" height="10" viewBox="0 0 11 10" fill="none" xmlns="http://www.w3.org/2000/svg">
<path fill-rule="evenodd" clip-rule="evenodd" d="M1.98411 4.16665C1.98853 4.16665 1.99296 4.16665 1.9974 4.16665H2.33073C2.33517 4.16665 2.3396 4.16665 2.34402 4.16665C2.44918 4.16664 2.55159 4.16662 2.63833 4.17371C2.73357 4.18149 2.84596 4.19985 2.95906 4.25748C3.11586 4.33737 3.24334 4.46486 3.32324 4.62166C3.38086 4.73475 3.39922 4.84714 3.407 4.94239C3.41409 5.02912 3.41408 5.13153 3.41407 5.23669C3.41407 5.24112 3.41406 5.24555 3.41406 5.24998L3.41407 8.09661C3.41408 8.20177 3.41409 8.30418 3.407 8.39091C3.39922 8.48616 3.38086 8.59855 3.32324 8.71164C3.24334 8.86844 3.11586 8.99593 2.95906 9.07582C2.84596 9.13344 2.73357 9.15181 2.63833 9.15959C2.55159 9.16668 2.44918 9.16666 2.34402 9.16665H1.98411C1.87895 9.16666 1.77654 9.16668 1.6898 9.15959C1.59456 9.15181 1.48217 9.13344 1.36907 9.07582C1.21227 8.99593 1.08479 8.86844 1.00489 8.71164C0.947269 8.59855 0.928907 8.48616 0.921125 8.39091C0.914039 8.30418 0.914051 8.20177 0.914064 8.09661L0.914065 5.24998C0.914065 5.24555 0.914064 5.24112 0.914064 5.23669C0.914051 5.13153 0.914039 5.02912 0.921125 4.94239C0.928907 4.84714 0.947269 4.73475 1.00489 4.62166C1.08479 4.46486 1.21227 4.33737 1.36907 4.25748C1.48217 4.19985 1.59456 4.18149 1.6898 4.17371C1.77653 4.16662 1.87895 4.16664 1.98411 4.16665Z" fill="#686A6D"/>
<path fill-rule="evenodd" clip-rule="evenodd" d="M5.31745 2.49998C5.32187 2.49998 5.3263 2.49998 5.33074 2.49998H5.66407C5.6685 2.49998 5.67293 2.49998 5.67736 2.49998C5.78252 2.49997 5.88493 2.49996 5.97166 2.50704C6.06691 2.51482 6.1793 2.53319 6.2924 2.59081C6.4492 2.6707 6.57668 2.79819 6.65657 2.95499C6.7142 3.06808 6.73256 3.18047 6.74034 3.27572C6.74743 3.36245 6.74742 3.46487 6.7474 3.57003C6.7474 3.57445 6.7474 3.57888 6.7474 3.58332L6.7474 8.09661C6.74742 8.20177 6.74743 8.30418 6.74034 8.39091C6.73256 8.48616 6.7142 8.59855 6.65657 8.71164C6.57668 8.86844 6.4492 8.99593 6.29239 9.07582C6.1793 9.13344 6.06691 9.15181 5.97166 9.15959C5.88493 9.16668 5.78251 9.16666 5.67735 9.16665H5.31745C5.21229 9.16666 5.10987 9.16668 5.02314 9.15959C4.92789 9.15181 4.8155 9.13344 4.70241 9.07582C4.54561 8.99593 4.41812 8.86844 4.33823 8.71164C4.28061 8.59855 4.26225 8.48616 4.25446 8.39091C4.24738 8.30418 4.24739 8.20177 4.2474 8.09661L4.2474 3.58332C4.2474 3.57888 4.2474 3.57445 4.2474 3.57003C4.24739 3.46487 4.24738 3.36245 4.25446 3.27572C4.26225 3.18047 4.28061 3.06808 4.33823 2.95499C4.41812 2.79819 4.54561 2.67071 4.70241 2.59081C4.8155 2.53319 4.92789 2.51483 5.02314 2.50704C5.10987 2.49996 5.21229 2.49997 5.31745 2.49998Z" fill="#686A6D"/>
<path fill-rule="evenodd" clip-rule="evenodd" d="M8.65078 0.833314C8.65521 0.833315 8.65964 0.833315 8.66407 0.833315L8.99741 0.833315C9.00184 0.833315 9.00627 0.833315 9.0107 0.833314C9.11586 0.833302 9.21827 0.833289 9.305 0.840376C9.40025 0.848158 9.51264 0.866519 9.62573 0.924143C9.78253 1.00404 9.91002 1.13152 9.98991 1.28832C10.0475 1.40142 10.0659 1.51381 10.0737 1.60905C10.0808 1.69579 10.0808 1.7982 10.0807 1.90336C10.0807 1.90778 10.0807 1.91221 10.0807 1.91665L10.0807 8.09661C10.0808 8.20176 10.0808 8.30418 10.0737 8.39091C10.0659 8.48616 10.0475 8.59855 9.98991 8.71164C9.91002 8.86844 9.78253 8.99593 9.62573 9.07582C9.51264 9.13344 9.40025 9.15181 9.305 9.15959C9.21827 9.16667 9.11586 9.16666 9.0107 9.16665H8.65078C8.54562 9.16666 8.44321 9.16667 8.35648 9.15959C8.26123 9.15181 8.14884 9.13344 8.03575 9.07582C7.87895 8.99593 7.75146 8.86844 7.67157 8.71164C7.61394 8.59855 7.59558 8.48616 7.5878 8.39091C7.58071 8.30418 7.58073 8.20176 7.58074 8.0966L7.58074 1.91665C7.58074 1.91221 7.58074 1.90778 7.58074 1.90336C7.58073 1.7982 7.58071 1.69579 7.5878 1.60905C7.59558 1.51381 7.61394 1.40142 7.67157 1.28832C7.75146 1.13152 7.87895 1.00404 8.03575 0.924143C8.14884 0.866519 8.26123 0.848158 8.35648 0.840376C8.44321 0.833289 8.54562 0.833302 8.65078 0.833314Z" fill="#686A6D"/>
</svg>
