<svg width="11" height="10" viewBox="0 0 11 10" fill="none" xmlns="http://www.w3.org/2000/svg">
<path d="M5.66833 4.3053C5.2856 4.3053 4.97363 4.61725 4.97363 4.99999C5.01278 5.92203 6.3243 5.92164 6.36337 4.99999C6.36337 4.61726 6.05141 4.3053 5.66867 4.3053H5.66833Z" fill="#929292"/>
<path d="M5.66776 8.02617C3.99886 8.02617 2.64152 6.66883 2.64152 4.99993C2.63045 2.4643 5.64215 1.0437 7.58737 2.65885L8.39475 1.85225C5.75203 -0.476184 1.48617 1.44461 1.50003 4.99995C1.4862 8.55486 5.75284 10.4764 8.39475 8.14766L7.58737 7.34106C7.04807 7.78508 6.37629 8.02617 5.66776 8.02617Z" fill="#929292"/>
<path d="M5.66763 2.56872C4.32689 2.56872 3.23636 3.65885 3.23636 5C3.22647 7.0097 5.59202 8.16035 7.16294 6.91647L6.3441 6.09764C5.50469 6.62943 4.3672 5.99998 4.37701 4.99961C4.36713 3.99968 5.5051 3.36979 6.3441 3.90159L7.16294 3.08275C6.7379 2.74944 6.21678 2.56836 5.66723 2.56836L5.66763 2.56872Z" fill="#929292"/>
<path d="M8.81571 2.27301L6.76562 4.3231C7.01907 4.71097 7.01907 5.28942 6.76562 5.6769L8.81571 7.72698C10.1656 6.2332 10.1652 3.76639 8.81571 2.27301Z" fill="#929292"/>
</svg>
