<svg width="11" height="10" viewBox="0 0 11 10" fill="none" xmlns="http://www.w3.org/2000/svg">
<g clip-path="url(#clip0_5523_8501)">
<path d="M4.03893 4.79165C4.9556 4.79165 5.7056 4.04165 5.7056 3.12498C5.7056 2.20831 4.9556 1.45831 4.03893 1.45831C3.12226 1.45831 2.37226 2.20831 2.37226 3.12498C2.37226 4.04165 3.12226 4.79165 4.03893 4.79165ZM5.91393 4.41665C6.62226 4.99998 7.66393 4.87498 8.24726 4.16665C8.8306 3.45831 8.7056 2.41665 7.99726 1.83331C7.7056 1.58331 7.3306 1.45831 6.9556 1.45831C6.5806 1.45831 6.2056 1.58331 5.91393 1.83331C6.62226 2.41665 6.74726 3.41665 6.16393 4.16665C6.12226 4.24998 5.99726 4.33331 5.91393 4.41665ZM10.0389 8.08331C9.78894 6.54165 8.49726 5.41665 6.9556 5.41665C6.5806 5.41665 6.24726 5.45831 5.91393 5.58331C6.99726 5.95831 7.78893 6.91665 7.9556 8.04165C7.99726 8.24998 7.8306 8.49998 7.5806 8.49998H7.53893H9.62227C9.87227 8.49998 10.0389 8.33331 10.0389 8.08331ZM4.03893 5.41665C2.49726 5.41665 1.16393 6.54165 0.9556 8.08331C0.913933 8.29165 1.0806 8.54165 1.3306 8.54165H1.37226H6.7056C6.9556 8.54165 7.12226 8.37498 7.12226 8.12498V8.08331C6.91393 6.54165 5.5806 5.41665 4.03893 5.41665Z" fill="#686A6D"/>
</g>
<defs>
<clipPath id="clip0_5523_8501">
<rect width="10" height="10" fill="white" transform="translate(0.49707)"/>
</clipPath>
</defs>
</svg>
