<svg width="11" height="10" viewBox="0 0 11 10" fill="none" xmlns="http://www.w3.org/2000/svg">
<path fill-rule="evenodd" clip-rule="evenodd" d="M1.33017 6.24989L1.33018 6.25222V7.43272C1.33017 7.65236 1.33017 7.84184 1.34292 7.99791C1.35638 8.16264 1.38609 8.32648 1.46642 8.48413C1.58626 8.71934 1.77749 8.91056 2.01269 9.0304C2.17035 9.11073 2.33419 9.14045 2.49892 9.15391C2.65499 9.16666 2.84448 9.16665 3.06411 9.16665L7.92959 9.16665C8.14922 9.16665 8.33871 9.16666 8.49478 9.15391C8.6595 9.14045 8.82334 9.11074 8.981 9.03041C9.21621 8.91056 9.40743 8.71934 9.52727 8.48414C9.6076 8.32648 9.63732 8.16264 9.65078 7.99791C9.66353 7.84184 9.66352 7.65236 9.66351 7.43272V4.65058C9.66352 4.43094 9.66353 4.24146 9.65078 4.08539C9.63732 3.92066 9.6076 3.75682 9.52727 3.59916C9.40743 3.36396 9.21621 3.17273 8.981 3.05289C8.82334 2.97256 8.6595 2.94284 8.49478 2.92939C8.3387 2.91663 8.14922 2.91664 7.92957 2.91665H7.58017L7.58017 1.85825C7.58019 1.69955 7.5802 1.55324 7.56932 1.43409C7.55805 1.31061 7.53124 1.15484 7.43417 1.01324C7.3066 0.827159 7.10904 0.700754 6.88664 0.662908C6.71739 0.634107 6.56472 0.675045 6.44788 0.716554C6.33514 0.756607 6.20229 0.817935 6.05821 0.884449L2.29809 2.61984C2.06609 2.72653 1.86214 2.82033 1.70649 2.97245C1.57021 3.10563 1.46618 3.26822 1.40236 3.44777C1.32947 3.65284 1.32978 3.87732 1.33013 4.13268L1.33017 6.24989ZM6.72686 1.5018C6.65444 1.52753 6.55674 1.57217 6.39208 1.64817L3.64371 2.91665L6.74684 2.91665V1.87516C6.74684 1.6938 6.74643 1.58638 6.73944 1.50985L6.73825 1.49786L6.72686 1.5018ZM7.37185 5.41665C7.02667 5.41665 6.74685 5.69647 6.74685 6.04165C6.74685 6.38682 7.02667 6.66665 7.37185 6.66665C7.71702 6.66665 7.99685 6.38682 7.99685 6.04165C7.99685 5.69647 7.71702 5.41665 7.37185 5.41665Z" fill="#686A6D"/>
</svg>
