<svg width="16" height="16" viewBox="0 0 16 16" fill="none" xmlns="http://www.w3.org/2000/svg">
<g clip-path="url(#clip0_2360_22130)">
<path d="M0.196066 9.84364C0.160466 9.69188 0.341262 9.5963 0.451486 9.70652L6.29347 15.5485C6.4037 15.6587 6.30811 15.8395 6.15635 15.8039C3.20824 15.1123 0.887646 12.7918 0.196066 9.84364ZM0.000302615 7.50225C-0.00252038 7.54758 0.0145222 7.59184 0.0466341 7.62395L8.37605 15.9534C8.40816 15.9855 8.45242 16.0026 8.49774 15.9997C8.87682 15.9761 9.24875 15.9261 9.61173 15.8515C9.73405 15.8264 9.77654 15.6761 9.68824 15.5879L0.412152 6.31176C0.323854 6.22345 0.173565 6.26595 0.148444 6.38827C0.0738978 6.75125 0.023913 7.12318 0.000302615 7.50225ZM0.673749 4.75286C0.64711 4.81267 0.660678 4.88256 0.706973 4.92886L11.0711 15.293C11.1174 15.3393 11.1873 15.3529 11.2471 15.3263C11.5329 15.199 11.8099 15.0554 12.0768 14.8968C12.1652 14.8443 12.1788 14.7229 12.1061 14.6503L1.34971 3.89387C1.27705 3.82121 1.15567 3.83485 1.10319 3.92318C0.944576 4.19013 0.801038 4.46709 0.673749 4.75286ZM2.02539 2.89184C1.96618 2.83262 1.96251 2.73765 2.0183 2.67518C3.48472 1.03349 5.61782 0 7.9923 0C12.4148 0 16 3.58517 16 8.00769C16 10.3822 14.9665 12.5153 13.3248 13.9817C13.2624 14.0375 13.1674 14.0338 13.1081 13.9746L2.02539 2.89184Z" fill="#AAAAAA"/>
</g>
<defs>
<clipPath id="clip0_2360_22130">
<rect width="16" height="16" fill="white"/>
</clipPath>
</defs>
</svg>
