<svg xmlns="http://www.w3.org/2000/svg" width="32" height="32"><path d="M7.867 2.667h-.165c-.954 0-1.663-.001-2.28.147a5.333 5.333 0 0 0-3.941 3.941c-.148.617-.148 1.326-.147 2.28v8.597c0 .954-.001 1.663.147 2.28a5.333 5.333 0 0 0 3.941 3.941c.617.148 1.326.148 2.28.147h5.632v2.667h-2a1.333 1.333 0 0 0 0 2.666h6.667a1.333 1.333 0 0 0 0-2.666h-2V24h2a1.333 1.333 0 0 0 0-2.666H7.868c-1.193 0-1.554-.009-1.823-.074a2.665 2.665 0 0 1-1.97-1.97c-.064-.268-.074-.63-.074-1.823V9.2c0-1.193.009-1.554.074-1.823a2.665 2.665 0 0 1 1.97-1.97c.268-.064.63-.074 1.823-.074h13.6c1.193 0 1.554.009 1.823.074a2.665 2.665 0 0 1 1.97 1.97c.064.268.074.63.074 1.823v2.133a1.333 1.333 0 0 0 2.666 0V9.035c.001-.954.001-1.663-.147-2.28a5.333 5.333 0 0 0-3.941-3.941c-.617-.148-1.326-.148-2.28-.147H7.868zm18 12h-.048c-.519 0-.986 0-1.374.032-.416.034-.858.111-1.291.332a3.336 3.336 0 0 0-1.457 1.457c-.221.433-.298.875-.332 1.291-.032.388-.032.855-.032 1.374v5.696c0 .519 0 .986.032 1.374.034.416.111.858.332 1.291.32.627.829 1.137 1.457 1.457.433.221.875.298 1.291.332.388.032.855.032 1.374.032h.363c.519 0 .986 0 1.374-.032.416-.034.858-.111 1.291-.332a3.336 3.336 0 0 0 1.457-1.457c.221-.433.298-.875.332-1.291.032-.388.032-.855.032-1.374v-5.696c0-.519 0-.986-.032-1.374-.034-.416-.111-.858-.332-1.291a3.336 3.336 0 0 0-1.457-1.457c-.433-.221-.875-.298-1.291-.332-.388-.032-.855-.032-1.374-.032h-.315zm-1.503 2.739.01-.004.042-.012a1.8 1.8 0 0 1 .245-.034c.267-.022.623-.023 1.205-.023h.267c.582 0 .938.001 1.205.023a1.648 1.648 0 0 1 .287.046l.01.004a.67.67 0 0 1 .291.291l.004.01.012.042c.011.046.024.121.034.245.022.267.023.623.023 1.205v5.6c0 .582-.001.938-.023 1.205a1.648 1.648 0 0 1-.046.287l-.003.007-.001.003a.67.67 0 0 1-.291.291l-.002.001-.008.003-.042.012a1.8 1.8 0 0 1-.245.034c-.267.022-.623.023-1.205.023h-.267c-.582 0-.938-.001-1.205-.023a1.648 1.648 0 0 1-.287-.046l-.01-.004a.67.67 0 0 1-.291-.291l-.004-.01-.012-.042a1.8 1.8 0 0 1-.034-.245c-.022-.267-.023-.623-.023-1.205v-5.6c0-.582.001-.938.023-1.205a1.648 1.648 0 0 1 .046-.287l.004-.01a.67.67 0 0 1 .291-.291z"/></svg>