<svg xmlns="http://www.w3.org/2000/svg" width="32" height="32"><path d="M12 17.333c4.431 0 7.671 1.112 9.63 3.427a4.384 4.384 0 0 1 1.037 2.83v1.743A2.667 2.667 0 0 1 20 28H4a2.667 2.667 0 0 1-2.667-2.667V23.59c0-1.036.367-2.039 1.037-2.83 1.959-2.315 5.199-3.427 9.63-3.427zm13.178-7.991.155-.009c.684 0 1.247.515 1.324 1.178l.009.155v2.667h2.667c.684 0 1.247.515 1.324 1.178l.009.155c0 .684-.515 1.247-1.178 1.324l-.155.009h-2.667v2.667c0 .684-.515 1.247-1.178 1.324l-.155.009a1.333 1.333 0 0 1-1.324-1.178L24 18.666v-2.667h-2.667a1.333 1.333 0 0 1-1.324-1.178L20 14.666c0-.684.515-1.247 1.178-1.324l.155-.009H24v-2.667c0-.684.515-1.247 1.178-1.324zM12 4a5.333 5.333 0 1 1 0 10.666A5.333 5.333 0 0 1 12 4z"/></svg>