<svg xmlns="http://www.w3.org/2000/svg" width="32" height="32"><path d="M15.639 3.6c.239-.033.482-.033.722 0s.485.113 1.325.409l6.357 2.244c1.13.399 1.348.499 1.492.622.167.143.296.326.375.531.068.176.09.415.09 1.613v6.994c0 2.757-.015 3.84-.321 4.79a6.642 6.642 0 0 1-1.239 2.241c-2.231-1.175-5.075-1.71-8.439-1.71s-6.209.536-8.44 1.711a6.676 6.676 0 0 1-1.24-2.242C6.015 19.853 6 18.77 6 16.013V9.019c0-1.198.022-1.437.09-1.614.079-.205.208-.388.376-.531.143-.123.361-.223 1.492-.622l6.357-2.244c.84-.296 1.087-.377 1.325-.409zM9.965 24.892c1.574-.577 3.571-.892 6.036-.892s4.461.314 6.035.891c-.466.284-1.02.611-1.689 1.005l-1.778 1.046c-1.26.741-1.637.944-2.006 1.024-.371.08-.755.08-1.126 0-.369-.08-.746-.283-2.006-1.024l-1.778-1.046c-.669-.393-1.223-.721-1.688-1.004zM16.722.958a5.363 5.363 0 0 0-1.443 0c-.542.074-1.059.257-1.743.498L6.891 3.801c-.845.297-1.588.558-2.161 1.049-.501.43-.888.977-1.127 1.592-.273.704-.271 1.491-.27 2.387v7.422c0 2.44-.001 3.972.45 5.37a9.329 9.329 0 0 0 1.912 3.343c.977 1.097 2.297 1.874 4.4 3.11l2.15 1.265c1.018.6 1.785 1.052 2.628 1.234.742.16 1.51.16 2.252 0 .843-.182 1.611-.634 2.628-1.234l2.15-1.265c2.103-1.237 3.424-2.013 4.4-3.11a9.329 9.329 0 0 0 1.912-3.343c.451-1.398.45-2.93.45-5.37V8.829c.001-.896.003-1.683-.27-2.387a3.98 3.98 0 0 0-1.127-1.592c-.573-.491-1.315-.752-2.161-1.049l-.179-.063-6.466-2.282c-.684-.242-1.201-.424-1.743-.498zM16 10.667a2.667 2.667 0 1 0 0 5.334 2.667 2.667 0 0 0 0-5.334zm-5.333 2.666a5.333 5.333 0 1 1 10.666 0 5.333 5.333 0 0 1-10.666 0z"/></svg>