<svg xmlns="http://www.w3.org/2000/svg" viewBox="0 0 32 32"><path d="m27.044 8.987-.824-.824c-.79-.791-1.843-1.227-2.96-1.227s-2.17.435-2.96 1.227l-1.525 1.523-.002.002-.002.003L7.098 21.363a2.52 2.52 0 0 0-.731 1.635l-.19 3.38a2.517 2.517 0 0 0 2.652 2.652l3.378-.19a2.5 2.5 0 0 0 1.637-.733l13.2-13.2a4.19 4.19 0 0 0 0-5.92M12.32 26.582a.36.36 0 0 1-.233.105l-3.38.19a.32.32 0 0 1-.275-.104.35.35 0 0 1-.103-.273l.19-3.38a.36.36 0 0 1 .103-.234l10.912-10.911 3.697 3.696zm13.2-13.199-.765.764-3.696-3.697.763-.763a2.02 2.02 0 0 1 1.436-.595c.542 0 1.052.211 1.436.595l.825.825c.79.791.79 2.08 0 2.871M7.813 17.985a3.65 3.65 0 0 1 3.648-3.648v-.554a3.66 3.66 0 0 1-3.648-3.649h-.639a3.64 3.64 0 0 1-3.639 3.64v.563a3.65 3.65 0 0 1 3.648 3.648zM24.817 21.116h-.64a3.64 3.64 0 0 1-3.638 3.64v.562a3.65 3.65 0 0 1 3.648 3.649h.63a3.65 3.65 0 0 1 3.648-3.649v-.553a3.66 3.66 0 0 1-3.648-3.649M13.762 9.384h.509a2.95 2.95 0 0 1 2.95-2.951v-.448a2.96 2.96 0 0 1-2.95-2.95h-.517a2.943 2.943 0 0 1-2.943 2.942v.456a2.95 2.95 0 0 1 2.95 2.95"/></svg>