<svg xmlns="http://www.w3.org/2000/svg" viewBox="0 0 32 32"><path d="m28.671 27.086-5.173-5.173a11.48 11.48 0 0 0 2.634-7.347c0-3.09-1.203-5.994-3.388-8.178A11.5 11.5 0 0 0 14.565 3a11.49 11.49 0 0 0-8.177 3.388A11.49 11.49 0 0 0 3 14.566c0 3.09 1.203 5.993 3.388 8.178a11.49 11.49 0 0 0 8.177 3.388c2.713 0 5.283-.93 7.348-2.634l5.174 5.173a1.117 1.117 0 0 0 1.585 0 1.12 1.12 0 0 0 0-1.585M7.973 21.158a9.26 9.26 0 0 1-2.73-6.592c0-2.49.969-4.832 2.73-6.592a9.3 9.3 0 0 1 6.592-2.727c2.388 0 4.776.909 6.594 2.727a9.26 9.26 0 0 1 2.73 6.592c0 2.49-.97 4.831-2.73 6.592-3.636 3.636-9.552 3.635-13.186 0"/><path d="m17.915 10.455-4.58 5.843-2.209-2.207a1.12 1.12 0 1 0-1.584 1.586l2.994 2.995c.532.532 1.41.48 1.874-.113l5.269-6.72a1.12 1.12 0 1 0-1.764-1.384"/></svg>