<svg xmlns="http://www.w3.org/2000/svg" viewBox="0 0 32 32"><path d="M12.106 12.97h.652a3.713 3.713 0 0 1 3.713-3.714v-.574a3.72 3.72 0 0 1-3.723-3.723h-.642a3.723 3.723 0 0 1-3.723 3.723v.565a3.734 3.734 0 0 1 3.723 3.722M8.232 12.351h-.52a3.01 3.01 0 0 1-3.01 3.01v.458a3.02 3.02 0 0 1 3.01 3.01h.528a3.003 3.003 0 0 1 3.002-3.002v-.465a3.01 3.01 0 0 1-3.01-3.01M18.522 12.394c-.022-.05-.061-.083-.09-.128-.038-.061-.07-.125-.122-.177-.062-.062-.137-.104-.211-.147-.035-.02-.06-.051-.098-.068q-.006 0-.012-.002a1 1 0 0 0-.276-.06c-.037-.003-.073-.02-.11-.02-.036 0-.071.016-.108.02a1 1 0 0 0-.277.06q-.006 0-.012.002c-.036.016-.06.046-.094.066-.076.043-.152.086-.214.149-.052.052-.084.115-.123.176-.028.045-.067.08-.09.13l-5.39 12.448a1 1 0 0 0 1.835.795l1.644-3.796h5.659l1.643 3.796a1 1 0 0 0 1.316.52 1 1 0 0 0 .52-1.315zm-2.881 7.448 1.963-4.533 1.962 4.533zM26.298 17.673a1 1 0 0 0-1 1v6.567a1 1 0 1 0 2 0v-6.567a1 1 0 0 0-1-1M26.298 13.948a1 1 0 0 0-1 1v.393a1 1 0 1 0 2 0v-.393a1 1 0 0 0-1-1"/></svg>