<svg xmlns="http://www.w3.org/2000/svg" width="32" height="32"><path d="M11.587 19.947c-4.36 0-7.907-3.547-7.907-7.907s3.547-7.907 7.907-7.907 7.907 3.547 7.907 7.907-3.547 7.907-7.907 7.907zm0-13.16a5.241 5.241 0 0 0 0 10.48c2.893 0 5.24-2.347 5.24-5.24s-2.36-5.24-5.24-5.24zm11.053 12.08c-.373 0-.747-.16-1-.453a1.33 1.33 0 0 1 .133-1.88 4.983 4.983 0 0 0 1.707-3.747c0-1.507-.667-2.92-1.84-3.867a1.336 1.336 0 1 1 1.68-2.08 7.614 7.614 0 0 1 2.84 5.933c0 2.213-.96 4.307-2.627 5.76a1.379 1.379 0 0 1-.893.333z"/><path d="M26.587 22.72a1.332 1.332 0 0 1-.866-2.347 10.078 10.078 0 0 0 3.56-7.667c0-2.88-1.253-5.64-3.44-7.56a1.331 1.331 0 0 1-.12-1.88 1.343 1.343 0 0 1 1.88-.12 12.747 12.747 0 0 1 4.333 9.56c0 3.72-1.64 7.253-4.493 9.693-.24.213-.547.32-.853.32zm-4.48 7.453c-.733 0-1.333-.6-1.333-1.333 0-2.16-1.76-3.92-3.92-3.92H6.521c-2.16 0-3.92 1.76-3.92 3.92 0 .733-.6 1.333-1.333 1.333s-1.333-.6-1.333-1.333c0-3.64 2.96-6.587 6.587-6.587h10.32c3.64 0 6.587 2.96 6.587 6.587a1.318 1.318 0 0 1-1.32 1.333z"/></svg>