<svg xmlns="http://www.w3.org/2000/svg" viewBox="0 0 32 32"><path d="M14.208 22.56c-.291 0-.585-.06-.867-.185a2.1 2.1 0 0 1-1.268-1.945v-2.494c-.763.057-2.06.256-4.032.864-2.019.622-3.629 2.002-4.625 3.05a1.89 1.89 0 0 1-2.18.404 1.89 1.89 0 0 1-1.07-1.947c.36-2.833 1.353-6.764 4.045-9.409 2.795-2.748 6.058-3.36 7.862-3.468V4.838c0-.855.487-1.599 1.268-1.944a2.1 2.1 0 0 1 2.29.374l8.694 7.931a1.95 1.95 0 0 1 0 2.871L15.632 22c-.404.369-.908.56-1.424.56m-1.65-6.944q.162 0 .3.007a1.58 1.58 0 0 1 1.516 1.582v2.83l8.111-7.4-8.111-7.4v2.89a1.58 1.58 0 0 1-1.578 1.585l-.045-.001c-1.002 0-4.272.218-6.928 2.83-1.931 1.897-2.799 4.776-3.187 6.861 1.174-1.062 2.78-2.198 4.727-2.798 2.583-.796 4.22-.986 5.196-.986m.198 2.304h.003zM20.365 29.29c-.316 0-.633-.121-.874-.363l-3.289-3.289a1.15 1.15 0 0 1 1.627-1.627l2.57 2.57 9.524-8.689a1.151 1.151 0 0 1 1.55 1.7l-10.276 9.375a1.23 1.23 0 0 1-.832.323" /></svg>