<svg xmlns="http://www.w3.org/2000/svg" width="32" height="32"><path d="M12 12a8 8 0 1 1 16 0 8 8 0 0 1-16 0zm-2.636-.811a10.62 10.62 0 0 0 2.21 7.352l-8.516 8.516a1.333 1.333 0 1 0 1.886 1.886l8.516-8.516a10.62 10.62 0 0 0 7.352 2.21l-4.421 4.421a1.333 1.333 0 1 0 1.886 1.886l9.333-9.333a1.33 1.33 0 0 0 .296-.448 10.628 10.628 0 0 0 2.762-7.162c0-5.891-4.776-10.667-10.667-10.667a10.63 10.63 0 0 0-7.162 2.762 1.33 1.33 0 0 0-.448.296l-9.333 9.333a1.333 1.333 0 1 0 1.886 1.886l4.421-4.421z"/></svg>