<svg xmlns="http://www.w3.org/2000/svg" width="32" height="32"><path d="M25.106 2.016c2.955 0 5.013 4.994 3.948 10.941.34.911.653 1.905.882 2.839l.522-.099a1.3 1.3 0 0 1 .629 2.52l-.147.037-.634.119-.003.219a8.61 8.61 0 0 1-.405 2.286l.801.001a1.301 1.301 0 0 1 .152 2.593l-.152.009h-2.073C26.071 27.292 20.98 29.985 16 29.985S5.929 27.292 3.374 23.481H1.301a1.301 1.301 0 0 1-.152-2.593l.152-.009.801-.001a8.59 8.59 0 0 1-.41-2.504l-.632-.119a1.3 1.3 0 0 1 .332-2.576l.151.02.523.099c.229-.934.542-1.928.882-2.84-.987-5.683 1.432-10.94 3.947-10.94.529 0 .842.162 1.372.62l.348.311 1.581 1.51.379.347c.381.339.704.599.97.774l.225.136.117.058c1.666-.384 2.577-.504 4.114-.504 1.392 0 2.272.099 3.728.42l.357.081.058-.026.154-.084c.245-.145.547-.373.907-.681l.223-.194c.177-.157.364-.33.575-.529l1.381-1.312.349-.309c.532-.455.846-.618 1.373-.618zm.164 2.731-.136.122-1.227 1.166-.55.513-.448.397c-1.372 1.187-2.309 1.693-3.3 1.38-1.537-.356-2.265-.455-3.609-.455-1.328 0-2.052.096-3.554.443-1.061.329-2.002-.178-3.346-1.342l-.463-.412-.441-.412-1.295-1.242c-.299.347-.598.82-.852 1.385-.767 1.705-1.005 3.905-.48 6.533l.075.373-.263.682a24.608 24.608 0 0 0-.753 2.403l3.809.717a1.3 1.3 0 0 1-.332 2.576l-.151-.02-3.63-.684c.072.683.267 1.356.565 2.007l3.305.001a1.301 1.301 0 0 1 .152 2.593l-.152.009-1.463-.001c2.267 2.299 5.806 3.903 9.268 3.903s7.001-1.604 9.268-3.903l-1.463.001a1.301 1.301 0 0 1-.152-2.593l.152-.009 3.305-.001a6.447 6.447 0 0 0 .565-2.007l-3.63.684a1.3 1.3 0 0 1-.629-2.52l.147-.037 3.809-.717a24.627 24.627 0 0 0-.753-2.404l-.263-.682.075-.373c.542-2.712.392-4.958-.257-6.583-.27-.676-.602-1.153-.826-1.408l-.078-.085zm-9.83 13.529h1.211l.138.007.145.024.139.04.138.056.072.037.059.035.094.065.127.109c.052.053.098.105.138.16l.057.084c.026.042.05.086.071.131l.049.12.047.166.023.154.005.112-.008.144-.036.19-.023.077-.565 1.695.035.103a.65.65 0 0 0 1.247-.258 1.301 1.301 0 0 1 2.602 0 3.252 3.252 0 0 1-5.204 2.601 3.252 3.252 0 0 1-5.202-2.601 1.301 1.301 0 0 1 2.602 0 .65.65 0 0 0 1.247.258l.035-.103-.537-1.609a1.366 1.366 0 0 1 .864-1.728l.145-.039.101-.018.186-.013zm5.113-5.203a1.951 1.951 0 1 1 0 3.902 1.951 1.951 0 0 1 0-3.902zm-9.106 0a1.951 1.951 0 1 1 0 3.902 1.951 1.951 0 0 1 0-3.902zm8.737-7.281-.098-.022-.048.019.054-.005.05.002.042.006z"/></svg>