<svg xmlns="http://www.w3.org/2000/svg" width="32" height="32"><path d="M29.321 8.988a5.337 5.337 0 0 0-1.054-2.854l-2-2.667-.196-.246A5.332 5.332 0 0 0 22 1.334l-12.313.008a5.339 5.339 0 0 0-3.954 2.125l-2 2.667-.2.283a5.357 5.357 0 0 0-.867 2.917v14.667a5.333 5.333 0 0 0 5.333 5.333h16a5.332 5.332 0 0 0 5.333-5.333V9.334l-.012-.346zm-8.288 7.833-.113.125-4 4a1.336 1.336 0 0 1-1.758.113l-.125-.113-4-4a1.334 1.334 0 0 1 0-1.887 1.336 1.336 0 0 1 1.758-.113l.125.113 3.058 3.058 3.058-3.058a1.334 1.334 0 0 1 1.887 0c.475.483.512 1.242.108 1.763zM24 6.667H8c-.517 0-1.021.075-1.492.213l1.358-1.813.146-.175A2.65 2.65 0 0 1 10 4l12.229.008c.754.067 1.45.446 1.904 1.058l1.358 1.813a5.337 5.337 0 0 0-1.492-.213z"/></svg>