<svg xmlns="http://www.w3.org/2000/svg" width="32" height="32"><path d="M16 6.44c-5.28 0-9.56 4.28-9.56 9.56s4.28 9.56 9.56 9.56 9.56-4.28 9.56-9.56A9.56 9.56 0 0 0 16 6.44zM4.227 16C4.227 9.498 9.498 4.227 16 4.227S27.773 9.498 27.773 16 22.502 27.773 16 27.773 4.227 22.502 4.227 16zM16 10.093c.611 0 1.107.495 1.107 1.107v6.928l2.377-2.377a1.107 1.107 0 0 1 1.565 1.565l-4.267 4.267a1.107 1.107 0 0 1-1.565 0l-4.267-4.267a1.107 1.107 0 0 1 1.565-1.565l2.377 2.377V11.2c0-.611.495-1.107 1.107-1.107z"/></svg>