<svg xmlns="http://www.w3.org/2000/svg" viewBox="0 0 32 32"><path d="M16 1.33c-8.046 0-14.667 6.006-14.667 13.552l.007.434c.116 3.6 1.671 6.751 4.393 9.131l.199.167-.097.133-.222.265-.614.685c-.395.465-.636.84-.771 1.492-.301 1.449.51 2.688 1.708 3.19 1.309.547 3.955.306 5.685-.662l.398-.231c.51-.308.945-.619 1.369-.968l.298-.253.524.069c.59.066 1.188.1 1.79.1 8.045 0 14.666-6.007 14.666-13.552C30.666 7.336 24.045 1.33 16 1.33Zm0 2.667c6.627 0 12 4.873 12 10.885s-5.373 10.885-12 10.885c-1.016 0-2.003-.115-2.945-.33-.113-.026-.235.039-.395.169l-.271.239-.349.318-.286.246-.336.265a9.433 9.433 0 0 1-1.099.716c-1.28.716-3.053.654-3.353.529-.205-.086-.151-.232.037-.462l.263-.294.219-.239.242-.275c.165-.196.338-.418.501-.669.779-1.191.457-2.609.108-2.864C5.605 21.121 4 18.31 4 14.882 4 8.87 9.372 3.997 16 3.997Z"/><path d="M11.333 14.667a2 2 0 1 1-3.999.001 2 2 0 0 1 3.999-.001ZM18 14.667a2 2 0 1 1-3.999.001A2 2 0 0 1 18 14.667ZM24.667 14.667a2 2 0 1 1-3.999.001 2 2 0 0 1 3.999-.001Z"/></svg>