<svg xmlns="http://www.w3.org/2000/svg" width="32" height="32"><path d="M15.246 4.741a7.803 7.803 0 0 1 11.145 0 6.511 6.511 0 0 1 .219 8.881l-.219.234-9.608 9.799a4.16 4.16 0 0 1-5.942 0 5.197 5.197 0 0 1-.198-7.063l.198-.213 4.702-4.796a1.334 1.334 0 0 1 2.014 1.74l-.11.127-4.702 4.796a2.53 2.53 0 0 0 0 3.543 1.494 1.494 0 0 0 2.002.119l.131-.119 9.608-9.8a3.843 3.843 0 0 0 0-5.381 5.138 5.138 0 0 0-7.131-.199l-.206.199-8.339 8.506a7.005 7.005 0 0 0 9.764 10.04l.24-.233 4.903-5.001a1.334 1.334 0 0 1 2.014 1.74l-.11.127-4.903 5.001c-3.792 3.868-10.02 3.868-13.812 0a9.672 9.672 0 0 1-.246-13.281l.246-.26 8.339-8.506z"/></svg>