<svg xmlns="http://www.w3.org/2000/svg" width="32" height="32"><path d="m17.219 12.759-5.271 5.376q-2.199 2.242 0 4.484.6.614 1.457.614t1.458-.612L25.63 11.636q3.21-3.272 0-6.545-1.8-1.835-4.372-1.835T16.885 5.09l-9.347 9.533q-3.414 3.388-2.148 8.012t5.914 5.799 7.958-2.295l5.507-5.616q.327-.334.795-.338.467-.004.8.322.334.326.339.794.004.467-.323.8l-5.485 5.595q-4.218 4.42-10.143 2.925-5.924-1.497-7.537-7.39-1.613-5.894 2.712-10.187l9.35-9.533Q17.74 1 21.256 1q3.519 0 5.985 2.512 1.981 2.02 1.981 4.851t-1.981 4.852L16.474 24.196q-1.262 1.292-3.069 1.292t-3.067-1.29q-3.747-3.82 0-7.643l5.27-5.375q.326-.335.794-.338.467-.004.8.321.335.328.338.795.004.468-.321.8"/></svg>