<svg xmlns="http://www.w3.org/2000/svg" viewBox="0 0 32 32"><path d="M29.556 13.557C29.556 6.082 23.474 0 16 0S2.444 6.082 2.444 13.557v.543l9.13 6.917a3.67 3.67 0 0 0-1.453 2.911v4.387A3.69 3.69 0 0 0 13.806 32h4.387a3.69 3.69 0 0 0 3.685-3.685v-4.387a3.67 3.67 0 0 0-1.453-2.91l9.131-6.918zm-18.558.848 1.859 4.842-7.25-5.493c.06-.035.127-.071.183-.105.492-.3.818-.498 1.591-.498s1.099.198 1.59.498c.486.294 1.086.634 2.027.756m4.583 5.839-2.314-6.03a5.7 5.7 0 0 0 1.154-.567c.492-.298.816-.496 1.587-.496s1.095.198 1.587.496a5.7 5.7 0 0 0 1.157.57l-2.313 6.027zm5.44-5.84c.938-.122 1.536-.462 2.018-.757.492-.298.816-.496 1.587-.496s1.094.198 1.585.496c.056.035.123.071.182.106l-7.221 5.472zM16 2.187c5.637 0 10.32 4.126 11.21 9.514-.574-.347-1.299-.735-2.583-.735-1.384 0-2.127.453-2.724.816-.49.299-.814.496-1.585.496s-1.094-.197-1.585-.496c-.597-.363-1.34-.816-2.724-.816s-2.126.453-2.723.816c-.492.299-.816.496-1.587.496-.773 0-1.098-.197-1.59-.497-.598-.363-1.341-.815-2.727-.815-1.288 0-2.014.39-2.591.737.89-5.39 5.573-9.516 11.21-9.516m3.693 26.13a1.5 1.5 0 0 1-1.5 1.498h-4.386a1.5 1.5 0 0 1-1.499-1.499v-4.387a1.5 1.5 0 0 1 1.499-1.498h4.387a1.5 1.5 0 0 1 1.499 1.498z"/></svg>