<svg xmlns="http://www.w3.org/2000/svg" x="0" y="0" viewBox="0 0 32 32"><path d="M20.989 22.53q-.163 0-.322-.02a2.53 2.53 0 0 1-1.641-.914l-.954-1.171-1.468.258a2.52 2.52 0 0 1-2.919-1.952 2.5 2.5 0 0 1 .4-1.963l.73-1.033.028-.04a4 4 0 0 1-.194-.291l-.526-.885a2.52 2.52 0 0 1-.264-1.946 2.47 2.47 0 0 1 1.217-1.529l.182-.087a2.56 2.56 0 0 1 1.727-.115l1.43.413.972-1.013c.933-.975 2.511-1.029 3.52-.117a2.52 2.52 0 0 1 .829 1.735l.072 1.403 1.366.629c.61.28 1.09.803 1.322 1.433a2.47 2.47 0 0 1-.085 1.909 2.5 2.5 0 0 1-1.457 1.304l-1.32.45-.145 1.323a2.47 2.47 0 0 1-.934 1.681 2.55 2.55 0 0 1-1.566.539m-2.083-4.347 1.72 2.11a.48.48 0 0 0 .306.172c.13.012.252-.02.35-.097a.4.4 0 0 0 .156-.285l.291-2.625 2.56-.872a.44.44 0 0 0 .253-.225.4.4 0 0 0 .017-.327.48.48 0 0 0-.247-.269l-2.5-1.15-.137-2.649a.45.45 0 0 0-.148-.31c-.168-.15-.46-.187-.649.012l-1.836 1.916-2.631-.76a.47.47 0 0 0-.311.015l-.089.044c-.088.049-.142.159-.164.238a.44.44 0 0 0 .048.343l.526.882c.12.204.284.38.482.526l1.175.862-1.203.822q-.221.151-.375.37l-.73 1.032a.43.43 0 0 0-.068.337c.058.268.327.39.544.357z" class="st3"/><path d="M20.139 27.861c-6.54 0-11.862-5.321-11.862-11.861S13.6 4.139 20.14 4.139 32 9.46 32 16s-5.321 11.861-11.861 11.861m0-21.66c-5.403 0-9.799 4.396-9.799 9.799s4.396 9.798 9.799 9.798 9.798-4.395 9.798-9.798-4.395-9.798-9.798-9.798M8.169 9.296H2.797a.604.604 0 0 1-.604-.605v-.854c0-.333.27-.604.604-.604H8.17c.333 0 .604.27.604.604v.854c0 .334-.27.605-.604.605M8.169 24.767H2.797a.604.604 0 0 1-.604-.604v-.854c0-.334.27-.605.604-.605H8.17c.333 0 .604.27.604.605v.854c0 .333-.27.604-.604.604M5.975 17.031H.605A.604.604 0 0 1 0 16.427v-.854c0-.334.27-.604.604-.604h5.37c.335 0 .605.27.605.604v.854c0 .334-.27.604-.604.604"/></svg>