<svg xmlns="http://www.w3.org/2000/svg" x="0" y="0" viewBox="0 0 32 32"><path d="m23.632 12.635-6.73 6.73a.697.697 0 0 1-.986 0l-6.149-6.15a.697.697 0 0 1 0-.986l6.73-6.73a.697.697 0 0 1 .986 0l6.149 6.15a.697.697 0 0 1 0 .986M28.447 11.533a2.34 2.34 0 0 1-3.307 0L17.6 3.992A2.338 2.338 0 1 1 20.906.685l7.54 7.541a2.34 2.34 0 0 1 0 3.307M31.159 26.892a2.87 2.87 0 0 1-4.06 0l-7.528-7.527a.697.697 0 0 1 0-.987l3.075-3.074a.697.697 0 0 1 .986 0l7.527 7.527a2.87 2.87 0 0 1 0 4.06M15.771 24.209a2.34 2.34 0 0 1-3.306 0l-7.542-7.542A2.338 2.338 0 1 1 8.23 13.36l7.541 7.542a2.34 2.34 0 0 1 0 3.307M18.896 29.805v1.498A.697.697 0 0 1 18.2 32H.697A.697.697 0 0 1 0 31.303v-1.498c0-1.37 1.11-2.481 2.481-2.481h13.934c1.37 0 2.481 1.11 2.481 2.48"/></svg>