<svg xmlns="http://www.w3.org/2000/svg" width="32" height="32" fill="none"><path d="M5.274 24.224c-1.958 0-3.575 1.616-3.575 3.575v1.1a1.375 1.375 0 0 0 1.375 1.376A1.375 1.375 0 0 0 4.45 28.9v-1.101c0-.473.353-.825.825-.825h8.8c.472 0 .825.352.825.825v1.1a1.375 1.375 0 0 0 1.375 1.376 1.375 1.375 0 0 0 1.375-1.375v-1.101c0-1.959-1.617-3.575-3.575-3.575z" style="color:#000;fill:#000;stroke-width:1.375;stroke-linecap:round;-inkscape-stroke:none"/><path d="M19.28 1.727c-.778 0-1.557.292-2.141.877a3.03 3.03 0 0 0-.864 2.42L9.45 11.851a3.018 3.018 0 0 0-2.422.863c-1.168 1.168-1.168 3.109 0 4.277l5.448 5.445c1.168 1.169 3.107 1.169 4.275 0 .654-.653.94-1.549.863-2.416l.889-.888 6.807 6.805a3.59 3.59 0 0 0 5.052 0c1.385-1.385 1.385-3.67 0-5.055l-6.802-6.807.886-.887a3.02 3.02 0 0 0 2.416-.863c1.169-1.168 1.17-3.109.002-4.277l-5.445-5.447a3 3 0 0 0-2.139-.875m0 2.726q.098 0 .193.094l5.447 5.445c.124.125.123.264-.002.389-.123.123-.26.123-.383.004l-.006-.004-5.445-5.445v-.002c-.123-.125-.124-.261 0-.385.062-.062.13-.095.195-.096m-1.555 3.012 4.277 4.28-.389.386v.002l-.972.97-4.086 4.085.002.002-.387.386-4.28-4.277zm-8.559 7.1q.1-.002.195.093l5.448 5.446v.002c.123.124.122.264-.002.388-.125.125-.265.125-.39 0l-5.444-5.447c-.125-.125-.125-.262 0-.387q.093-.094.193-.096m12.447 1.456 6.805 6.807a.8.8 0 0 1 0 1.164.804.804 0 0 1-1.166 0l-6.805-6.805Z" style="color:#000;fill:#000;stroke-width:1.375;-inkscape-stroke:none"/><path d="M1.973 27.522a1.375 1.375 0 0 0-1.375 1.375 1.375 1.375 0 0 0 1.375 1.375h15.402a1.375 1.375 0 0 0 1.375-1.375 1.375 1.375 0 0 0-1.375-1.375z" style="color:#000;fill:#000;stroke-width:1.375;stroke-linecap:round;-inkscape-stroke:none"/></svg>