<svg xmlns="http://www.w3.org/2000/svg" width="32" height="32" fill="none"><path fill="#fff" fill-rule="evenodd" d="m27.42 15.209 2.462 3.17a.559.559 0 0 1-.252.871c-.847.292-1.635.669-2.366 1.13-.733.463-1.347.973-1.841 1.53a.563.563 0 0 0 .091.829l.811.576a.558.558 0 0 1-.152.987 35.953 35.953 0 0 0-6.33 2.636c-1.726.923-3.261 1.905-4.606 2.948a.536.536 0 0 1-.51.083.559.559 0 0 1-.335-.708l.071-.202a15.37 15.37 0 0 1 3.017-5.077c1.782-2.005 3.998-3.508 6.648-4.511v-3.139c0-.145.108-.266.25-.278a5.583 5.583 0 0 0 2.682-.907.269.269 0 0 1 .36.062zm-22.102-.103 2.006.626c.446 2.05 1.18 3.841 2.203 5.374.947 1.419 2.268 2.805 3.96 4.159.23.183.278.518.11.76l-.556.793a.539.539 0 0 1-.686.174L5.836 23.69a.563.563 0 0 1-.065-.957l.592-.411a.562.562 0 0 0-.02-.932l-4.085-2.58a.564.564 0 0 1-.101-.863l2.614-2.7a.538.538 0 0 1 .547-.14zm17.107.975c.17.292.265.617.265.96 0 1.272-1.309 2.303-2.923 2.303-1.615 0-2.924-1.031-2.924-2.303 0-.171.024-.338.069-.498a42.01 42.01 0 0 0 5.415-.447zm-12.858.02c1.673.253 3.543.41 5.525.444l.014.054c.035.143.054.29.054.442 0 1.272-1.31 2.303-2.924 2.303-1.614 0-2.923-1.031-2.923-2.303 0-.335.09-.653.254-.94zM19.395 2c1.547 0 2.543 2.451 2.99 7.354 2.903.587 4.804 1.565 4.804 2.673 0 1.796-4.997 3.252-11.161 3.252-6.165 0-11.162-1.456-11.162-3.252 0-1.108 1.903-2.087 4.809-2.674C10.215 4.45 11.218 2 12.685 2c2.237 0 1.38 2.822 3.268 2.822S17.038 2 19.395 2Z" clip-rule="evenodd" style="fill:#000;stroke-width:.805101"/></svg>