<svg xmlns="http://www.w3.org/2000/svg" width="32" height="32"><path d="M3.692 13.98c0-4.017 0-6.025.705-7.591a7.995 7.995 0 0 1 4.012-4.012c1.566-.705 3.574-.705 7.591-.705s6.025 0 7.591.705a7.995 7.995 0 0 1 4.012 4.012c.705 1.566.705 3.574.705 7.591v10.075c0 3.045 0 4.568-.613 5.308a2.669 2.669 0 0 1-2.17.963c-.96-.042-2.089-1.064-4.347-3.108l-2.314-2.095c-1.012-.916-1.517-1.374-2.09-1.547a2.664 2.664 0 0 0-1.547 0c-.573.174-1.078.631-2.09 1.547l-2.314 2.095c-2.258 2.044-3.386 3.066-4.347 3.108a2.666 2.666 0 0 1-2.17-.963c-.613-.74-.613-2.263-.613-5.308V13.98z"/></svg>