<svg xmlns="http://www.w3.org/2000/svg" width="32" height="32"><path d="M16 3.693a9.45 9.45 0 0 0-9.451 9.451v11.189c0 .646 0 .97.095 1.165a.945.945 0 0 0 1 .52c.215-.034.479-.219 1.009-.59.287-.201.43-.301.574-.345a.943.943 0 0 1 .807.124c.124.085.231.224.445.501l1.321 1.717c.363.472.544.707.771.804.199.085.421.1.629.041.237-.067.447-.277.868-.698l.863-.863c.374-.374.561-.561.777-.631a.94.94 0 0 1 .584 0c.216.07.403.257.777.631l.863.863c.421.421.631.631.868.698.208.059.43.044.629-.041.227-.097.408-.333.771-.804l1.321-1.717c.213-.278.32-.416.445-.501a.947.947 0 0 1 .807-.124c.144.044.287.144.574.345.53.371.794.556 1.009.59a.945.945 0 0 0 1-.52c.095-.195.095-.519.095-1.165V13.144A9.45 9.45 0 0 0 16 3.693zm5.671 9.451a1.89 1.89 0 1 1-3.78 0 1.89 1.89 0 0 1 3.78 0zm-7.561 0a1.89 1.89 0 1 1-3.78 0 1.89 1.89 0 0 1 3.78 0z"/></svg>