<svg xmlns="http://www.w3.org/2000/svg" width="32" height="32"><path d="M12.858 8.889h6.283a2.37 2.37 0 0 1 1.962 1.04l.07.11 1.007 1.678c.196.327.311.697.334 1.077l.004.143v7.804a2.37 2.37 0 0 1-2.37 2.37h-8.296a2.37 2.37 0 0 1-2.37-2.37v-7.804c0-.382.092-.757.268-1.095l.07-.125 1.007-1.678a2.372 2.372 0 0 1 1.902-1.147l.131-.004zm7.29 3.555h-8.296c-.655 0-1.185.531-1.185 1.185v7.111c0 .655.531 1.185 1.185 1.185h8.296c.655 0 1.185-.531 1.185-1.185v-7.111c0-.655-.531-1.185-1.185-1.185zm-6.345 3.73a.592.592 0 0 1 .782-.049l.056.049L16 17.533l1.359-1.359a.593.593 0 0 1 .887.782l-.049.056-1.778 1.778a.592.592 0 0 1-.782.049l-.056-.049-1.778-1.778a.593.593 0 0 1 0-.838zm5.339-6.1h-6.283c-.384 0-.743.186-.964.496l-.052.08-.386.643c.129-.022.261-.033.396-.033h8.296c.135 0 .267.011.396.033l-.386-.643a1.187 1.187 0 0 0-.921-.572l-.095-.004z"/></svg>