<svg xmlns="http://www.w3.org/2000/svg" width="32" height="32"><path d="m22.105 16.416-3.054 4.283-1.477 8.992c-.195 1.189 1.425 1.807 2.134.814l11.086-15.562a1.175 1.129 0 0 0-.972-1.768h-4.878a1.175 1.129 0 0 1-1.162-1.303l1.57-9.56c.197-1.192-1.423-1.81-2.132-.817l-6.463 9.073h2.134c3.13 0 4.978 3.366 3.21 5.848zm-3.065-3.233c.855.1 1.33 1.05.825 1.76L8.78 30.505c-.706.993-2.33.375-2.131-.814l1.569-9.56a1.175 1.129 0 0 0-1.162-1.304H2.18a1.175 1.129 0 0 1-.972-1.77L12.294 1.495c.709-.993 2.33-.375 2.134.816l-1.572 9.558c-.111.686.44 1.306 1.162 1.306h4.875z" style="stroke-width:2.66026"/></svg>