<svg xmlns="http://www.w3.org/2000/svg" viewBox="0 0 32 32"><path d="M12.36 25.174c-1.506 0-2.732-1.226-2.732-2.732s1.226-2.731 2.732-2.731 2.731 1.226 2.731 2.731-1.225 2.732-2.731 2.732m0-3.463a.732.732 0 1 0 .002 1.464.732.732 0 0 0-.002-1.464M19.76 31.458c-1.507 0-2.732-1.226-2.732-2.731s1.225-2.732 2.731-2.732 2.732 1.226 2.732 2.732-1.226 2.731-2.732 2.731m0-3.463a.732.732 0 1 0 0 1.465.732.732 0 0 0 0-1.465M11.334 31.31a1 1 0 0 1-.707-1.707l9.452-9.452a1 1 0 1 1 1.414 1.414l-9.452 9.453a1 1 0 0 1-.707.293M22.315 17.215a1 1 0 0 1-.495-.132l-5.607-3.205-5.606 3.205a1 1 0 0 1-.992-1.736l6.598-3.772 6.599 3.772a1 1 0 0 1-.497 1.868"/><path d="M22.315 11.88a1 1 0 0 1-.495-.132l-5.607-3.204-5.606 3.204a1 1 0 1 1-.992-1.736l6.598-3.77 6.599 3.77a1 1 0 0 1-.497 1.868"/><path d="M24.819 27.818a1 1 0 0 1-.623-1.783c3.17-2.52 4.99-6.278 4.99-10.308 0-7.27-5.916-13.185-13.185-13.185-7.271 0-13.186 5.915-13.186 13.185 0 4.03 1.818 7.788 4.99 10.308a1 1 0 0 1-1.245 1.566C2.91 24.698.815 20.37.815 15.727.815 7.354 7.627.542 16 .542s15.185 6.812 15.185 15.185c0 4.643-2.094 8.971-5.745 11.874a1 1 0 0 1-.621.217"/></svg>