<svg xmlns="http://www.w3.org/2000/svg" width="32" height="32" fill="none"><path fill="#000" d="m20.9 10.884.862-5.46c.635-4.018-4.62-6.107-6.918-2.75L6.311 15.146c-1.732 2.533.081 5.97 3.15 5.97H11.1l-.862 5.46c-.635 4.019 4.62 6.108 6.918 2.75l8.533-12.47c1.732-2.533-.081-5.97-3.15-5.97zm-3.807-6.67c.657-.96 2.158-.363 1.977.786l-1.16 7.35a1.09 1.09 0 0 0 1.076 1.26h3.553c.877 0 1.395.982.9 1.705l-8.532 12.471c-.657.96-2.158.362-1.977-.786l.08-.511 1.08-6.838a1.09 1.09 0 0 0-1.076-1.26H9.46a1.09 1.09 0 0 1-.9-1.706z" style="stroke-width:1.36275"/></svg>