<svg xmlns="http://www.w3.org/2000/svg" width="32" height="32"><path d="M24.667 1.333a6 6 0 0 1 .282 11.993l-.282.007h-3.333v5.333h3.333a6 6 0 0 1 5.993 5.718l.007.282a6 6 0 0 1-11.993.282l-.007-.282v-3.333h-5.333v3.333a6 6 0 0 1-5.718 5.993l-.282.007a6 6 0 0 1-.282-11.993l.282-.007h3.333v-5.333H7.334a6 6 0 0 1-5.993-5.718l-.007-.282a6 6 0 0 1 11.993-.282l.007.282v3.333h5.333V7.333a6 6 0 0 1 5.718-5.993l.282-.007zm-14 20H7.334a3.333 3.333 0 1 0 3.326 3.552l.007-.219v-3.333zm14 0h-3.333v3.333a3.333 3.333 0 1 0 3.552-3.326l-.219-.007zm-6-8h-5.333v5.333h5.333v-5.333zM7.333 4a3.333 3.333 0 0 0-.219 6.659l.219.007h3.333V7.333a3.333 3.333 0 0 0-2.899-3.305l-.215-.021L7.333 4zm17.334 0a3.333 3.333 0 0 0-3.326 3.114l-.007.219v3.333h3.333a3.333 3.333 0 0 0 3.305-2.899l.021-.215.007-.219A3.333 3.333 0 0 0 24.667 4z"/></svg>