<svg xmlns="http://www.w3.org/2000/svg" width="32" height="32"><path d="M21.818 0C27.441 0 32 4.559 32 10.182v11.636C32 27.441 27.441 32 21.818 32H10.182C4.559 32 0 27.441 0 21.818V10.182C0 4.559 4.559 0 10.182 0zm1.663 20.364-15.106.01c-.62.084-1.101.699-1.101 1.445 0 .803.558 1.455 1.247 1.455l15.106-.01c.62-.084 1.101-.699 1.101-1.445 0-.803-.558-1.455-1.247-1.455zm0-5.819-15.106.01c-.62.084-1.101.699-1.101 1.445 0 .803.558 1.455 1.247 1.455l15.106-.01c.62-.084 1.101-.699 1.101-1.445 0-.803-.558-1.455-1.247-1.455zm0-5.818-15.106.01c-.62.084-1.101.699-1.101 1.445 0 .803.558 1.455 1.247 1.455l15.106-.01c.62-.084 1.101-.699 1.101-1.445 0-.803-.558-1.455-1.247-1.455z"/></svg>