<svg xmlns="http://www.w3.org/2000/svg" width="32" height="32"><path d="M16 1.333c.684 0 1.247.515 1.324 1.178l.009.155v1.333H18a8 8 0 0 1 7.994 7.7l.006.3v2.667h.667l.235.007a4 4 0 0 1 3.758 3.758l.007.235v4l-.009.155a1.334 1.334 0 0 1-2.648 0l-.009-.155v-4l-.009-.155a1.334 1.334 0 0 0-1.169-1.169l-.155-.009h-.667V24a5.334 5.334 0 0 1-5.067 5.327l-.266.007h-9.333a5.334 5.334 0 0 1-5.327-5.067l-.007-.266v-6.667h-.667c-.684 0-1.247.515-1.324 1.178l-.009.155v4a1.333 1.333 0 0 1-2.657.155l-.009-.155v-4A4 4 0 0 1 5.1 14.674l.235-.007h.667V12a8 8 0 0 1 7.7-7.994l.3-.006h.667V2.667c0-.736.597-1.333 1.333-1.333zm6.235 15.994-.235.007H10c-.467 0-.916-.08-1.333-.228V24a2.666 2.666 0 0 0 2.468 2.659l.199.007h9.333a2.666 2.666 0 0 0 2.659-2.468l.007-.199.001-6.895a3.967 3.967 0 0 1-1.099.221zM18 6.667h-4a5.334 5.334 0 0 0-5.327 5.067L8.666 12v1.333c0 .684.515 1.247 1.178 1.324l.155.009h12c.684 0 1.247-.515 1.324-1.178l.009-.155V12a5.334 5.334 0 0 0-5.067-5.327l-.266-.007zM12.667 10a1.333 1.333 0 1 1 0 2.667 1.333 1.333 0 0 1 0-2.667zm6.666 0a1.333 1.333 0 1 1 0 2.667 1.333 1.333 0 0 1 0-2.667z"/></svg>