<svg xmlns="http://www.w3.org/2000/svg" width="24" height="24" viewBox="0 0 24 24"><path fill="#aaa" d="M6.75 15c.872 0 1.653.3 2.284.9.632.602.966 1.369.966 2.242 0 1.07-.413 2.001-1.191 2.742A3.96 3.96 0 0 1 6 22c-.723 0-1.425-.17-2.098-.49a4.66 4.66 0 0 1-1.687-1.32A1 1 0 0 1 3 18.571c.063 0 .194-.022.409-.177.044-.032.091-.067.091-.252 0-.873.335-1.64.967-2.242.63-.6 1.412-.9 2.283-.9m0 2c-.377 0-.66.117-.904.35-.242.23-.345.476-.346.792 0 .613-.199 1.178-.622 1.614.386.166.757.244 1.122.244.573 0 1.031-.185 1.43-.564.395-.377.57-.792.57-1.294 0-.316-.103-.562-.345-.793-.245-.233-.527-.35-.905-.35M16.88 3.707a3 3 0 0 1 4.242 0l.171.172a3 3 0 0 1 0 4.242l-7.171 7.172a3 3 0 0 1-4.243 0l-.172-.172a3 3 0 0 1 0-4.242zm2.828 1.414a1 1 0 0 0-1.415 0l-7.171 7.172a1 1 0 0 0 0 1.414l.171.172a1 1 0 0 0 1.415 0l7.171-7.172a1 1 0 0 0 0-1.414z"/></svg>