<svg xmlns="http://www.w3.org/2000/svg" width="32" height="32"><path d="m11.484 1.613.126.111 1.62 1.618c.813-.43 1.764-.676 2.77-.676s1.958.245 2.77.676l1.62-1.618a1.333 1.333 0 0 1 1.997 1.76l-.111.126-1.549 1.551a4.198 4.198 0 0 1 .402 3.459c1.05.887 1.95 2.042 2.644 3.384l3.805-1.269.15-.041.151-.023a1.334 1.334 0 0 1 .686 2.536l-.145.058-3.667 1.223c.26.904.437 1.857.522 2.845l4.057.001.155.009a1.334 1.334 0 0 1 0 2.648l-.155.009h-4.057a14.934 14.934 0 0 1-.522 2.846l3.667 1.223.145.058a1.334 1.334 0 0 1-.837 2.513l-.15-.041-3.805-1.269c-1.656 3.204-4.485 5.337-7.773 5.337s-6.116-2.132-7.773-5.336l-3.806 1.268a1.334 1.334 0 0 1-.988-2.472l.145-.058 3.667-1.223A14.934 14.934 0 0 1 6.723 20H2.666a1.333 1.333 0 0 1-.155-2.657l.155-.009 4.057-.001c.085-.987.262-1.941.522-2.845l-3.667-1.223a1.333 1.333 0 0 1 .542-2.594l.151.023.15.041 3.806 1.268c.694-1.342 1.593-2.496 2.646-3.384a4.05 4.05 0 0 1-.207-1.285c0-.792.22-1.529.606-2.173L9.723 3.61a1.333 1.333 0 0 1 1.76-1.997zM16 9.333c-3.585 0-6.667 4.109-6.667 9.333s3.082 9.333 6.667 9.333 6.667-4.109 6.667-9.333S19.585 9.333 16 9.333zm0-4c-1.433 0-2.533.847-2.655 1.82a7.51 7.51 0 0 1 5.309-.002c-.121-.97-1.221-1.818-2.654-1.818z"/></svg>