<svg xmlns="http://www.w3.org/2000/svg" width="32" height="32"><path d="M21.333 5.56c.564 0 1.03.422 1.098.968l.009.139v1.56h.227a3.773 3.773 0 0 1 3.766 3.543l.007.23v10.667a3.773 3.773 0 0 1-3.543 3.766l-.23.007H9.334a3.773 3.773 0 0 1-3.766-3.543l-.007-.23V12a3.773 3.773 0 0 1 3.543-3.766l.23-.007h.227v-1.56a1.107 1.107 0 0 1 2.205-.139l.009.139v1.56h8.453v-1.56c0-.611.495-1.107 1.107-1.107zm2.894 10.213H7.774v6.893a1.56 1.56 0 0 0 1.39 1.551l.17.009h13.333a1.56 1.56 0 0 0 1.551-1.39l.009-.17v-6.893zm-1.56-5.333H9.334a1.56 1.56 0 0 0-1.551 1.39l-.009.17v1.56h16.453V12a1.56 1.56 0 0 0-1.39-1.551l-.17-.009z"/></svg>