<svg xmlns="http://www.w3.org/2000/svg" width="32" height="32"><path d="M22.667 1.333c.684 0 1.247.515 1.324 1.178l.009.155v1.333h1.333a4 4 0 0 1 3.993 3.765l.007.235v16a4 4 0 0 1-3.765 3.993l-.235.007H6.666a4 4 0 0 1-3.993-3.765l-.007-.235v-16a4 4 0 0 1 3.765-3.993l.235-.007h1.333V2.666a1.333 1.333 0 0 1 2.657-.155l.009.155v1.333h10.667V2.666c0-.736.597-1.333 1.333-1.333zm4 13.334H5.334V24c0 .684.515 1.247 1.178 1.324l.155.009h18.667c.684 0 1.247-.515 1.324-1.178l.009-.155v-9.333zm-1.334-8H6.666c-.684 0-1.247.515-1.324 1.178L5.333 8v4h21.333V8c0-.684-.515-1.247-1.178-1.324l-.155-.009z"/></svg>