<svg xmlns="http://www.w3.org/2000/svg" width="32" height="32"><path d="m26.511 21.342.155-.009c.684 0 1.247.515 1.324 1.178l.009.155v2.667h2.667c.684 0 1.247.515 1.324 1.178l.009.155c0 .684-.515 1.247-1.178 1.324l-.155.009h-2.667v2.667c0 .684-.515 1.247-1.178 1.324l-.155.009a1.333 1.333 0 0 1-1.324-1.178l-.009-.155v-2.667h-2.667a1.333 1.333 0 0 1-1.324-1.178l-.009-.155c0-.684.515-1.247 1.178-1.324l.155-.009h2.667v-2.667c0-.684.515-1.247 1.178-1.324zM11.219 2.667h6.895c.629 0 1.234.222 1.713.623l.173.159 1.886 1.886H24A4 4 0 0 1 27.993 9.1l.007.235v6.667a1.333 1.333 0 0 1-2.657.155l-.009-.155V9.335c0-.684-.515-1.247-1.178-1.324l-.155-.009h-2.114a2.667 2.667 0 0 1-1.713-.623l-.173-.159-1.886-1.886H11.22L9.334 7.22a2.667 2.667 0 0 1-1.651.771l-.234.01H5.335c-.684 0-1.247.515-1.324 1.178l-.009.155v14.667c0 .684.515 1.247 1.178 1.324l.155.009h12a1.333 1.333 0 0 1 .155 2.657l-.155.009h-12a4 4 0 0 1-3.993-3.765L1.335 24V9.333A4 4 0 0 1 5.1 5.34l.235-.007h2.114l1.886-1.886a2.667 2.667 0 0 1 1.651-.771l.234-.01zm3.448 6.666a6.667 6.667 0 1 1 0 13.334 6.667 6.667 0 0 1 0-13.334zm0 2.667a4 4 0 1 0 0 8 4 4 0 0 0 0-8z"/></svg>