<svg xmlns="http://www.w3.org/2000/svg" width="32" height="32"><path d="M30.667 26.667a4 4 0 0 1-8 0H9.334a4 4 0 0 1-7.993.235l-.007-.235v-9.353c0-1.015.166-2.023.49-2.985l2.371-7.024a8 8 0 0 1 6.091-5.302c2.349-.445 4.249-.67 5.715-.67s3.365.225 5.715.67a8 8 0 0 1 6.091 5.302l2.371 7.024c.325.962.49 1.97.49 2.985v9.353zM4 25.953v.714a1.333 1.333 0 0 0 2.657.155l.009-.155a5.31 5.31 0 0 1-2.667-.714zm21.333.714a1.333 1.333 0 0 0 2.666 0l.001-.714a5.312 5.312 0 0 1-2.668.714zm2.317-11.485-.293-.866c-.46.231-.963.372-1.482.413l-.313.012H6.438a4.002 4.002 0 0 1-1.795-.425l-.293.866A6.663 6.663 0 0 0 4 17.314v4.02a2.667 2.667 0 0 0 2.667 2.667h18.667a2.667 2.667 0 0 0 2.667-2.667v-4.02c0-.725-.118-1.445-.35-2.132zM8.667 17.333a2 2 0 1 1 .001 3.999 2 2 0 0 1-.001-3.999zm14.666 0a2 2 0 1 1 .001 3.999 2 2 0 0 1-.001-3.999zM16 4c-1.274 0-3.019.206-5.219.623A5.333 5.333 0 0 0 6.72 8.158L5.521 11.71c.206.195.468.318.747.354l.169.011h9.734a4.669 4.669 0 0 1 8.99 0h.401c.295 0 .579-.098.811-.275l.103-.093-1.197-3.549a5.335 5.335 0 0 0-4.061-3.535C19.018 4.206 17.273 4 15.999 4zm4.667 7.333c-.627 0-1.186.288-1.553.739h3.105a1.997 1.997 0 0 0-1.553-.739z"/></svg>