<svg width="32" height="32" viewBox="0 0 20 20" fill="none" xmlns="http://www.w3.org/2000/svg">
<path fill-rule="evenodd" clip-rule="evenodd" d="M2.50166 10C2.50166 5.85878 5.85878 2.50166 10 2.50166C14.1412 2.50166 17.4983 5.85878 17.4983 10C17.4983 14.1412 14.1412 17.4983 10 17.4983C5.85878 17.4983 2.50166 14.1412 2.50166 10ZM10 0.831665C4.93647 0.831665 0.831665 4.93647 0.831665 10C0.831665 15.0635 4.93647 19.1683 10 19.1683C15.0635 19.1683 19.1683 15.0635 19.1683 10C19.1683 4.93647 15.0635 0.831665 10 0.831665ZM10.831 4.16656C10.831 3.70541 10.4572 3.33156 9.99605 3.33156C9.53489 3.33156 9.16105 3.70541 9.16105 4.16656V4.83875C7.7101 5.09895 6.609 6.3676 6.609 7.89342V8.1249C6.609 9.62159 7.82231 10.8349 9.319 10.8349H10.6732C11.2475 10.8349 11.7132 11.3005 11.7132 11.8749V12.1064C11.7132 12.8981 11.0714 13.5399 10.2796 13.5399H9.99732L9.99605 13.5399L9.99477 13.5399H9.6315C8.88453 13.5399 8.279 12.9344 8.279 12.1874C8.279 11.7262 7.90516 11.3524 7.444 11.3524C6.98284 11.3524 6.609 11.7262 6.609 12.1874C6.609 13.6967 7.7152 14.9475 9.16105 15.1735V15.8332C9.16105 16.2944 9.53489 16.6682 9.99605 16.6682C10.4572 16.6682 10.831 16.2944 10.831 15.8332V15.1611C12.282 14.9009 13.3832 13.6322 13.3832 12.1064V11.8749C13.3832 10.3782 12.1699 9.1649 10.6732 9.1649H9.319C8.74462 9.1649 8.279 8.69927 8.279 8.1249V7.89342C8.279 7.1017 8.92081 6.4599 9.71252 6.4599H9.99605H10.4127C11.1309 6.4599 11.7132 7.04211 11.7132 7.76031C11.7132 8.22147 12.087 8.59531 12.5482 8.59531C13.0093 8.59531 13.3832 8.22147 13.3832 7.76031C13.3832 6.26178 12.2735 5.02242 10.831 4.81912V4.16656Z" fill="black"/>
</svg>
