<svg xmlns="http://www.w3.org/2000/svg" width="32" height="32"><path d="M24.667 2.238A3.333 3.333 0 0 1 28 5.571v20.857a3.334 3.334 0 0 1-5.452 2.573L16 23.608v2.391a4 4 0 0 1-3.765 3.993l-.235.007a4 4 0 0 1-3.993-3.765L8 25.999v-3.467a6.669 6.669 0 0 1 1.334-13.2h5.522l7.693-6.335a3.336 3.336 0 0 1 2.119-.76zm-14 20.428V26a1.333 1.333 0 0 0 2.657.155l.009-.155v-3.334h-2.667zm14-17.761a.67.67 0 0 0-.424.152l-7.693 6.335a2.667 2.667 0 0 1-1.695.608H9.333a4 4 0 0 0 0 8h5.522c.619 0 1.218.215 1.695.608l7.693 6.335a.666.666 0 0 0 1.09-.515V5.571a.667.667 0 0 0-.667-.667z"/></svg>