<svg xmlns="http://www.w3.org/2000/svg" width="29" height="32"><path d="M7.549 22.149h4.252a6.164 6.164 0 0 1 3.712 1.274l.068.053 5.586 4.345c2.228 1.733 3.342 2.599 4.277 2.591a2.686 2.686 0 0 0 2.085-1.02c.581-.733.581-2.145.581-4.967V7.221c0-2.823 0-4.234-.581-4.967a2.69 2.69 0 0 0-2.085-1.02c-.935-.008-2.049.859-4.277 2.591l-5.654 4.398a6.177 6.177 0 0 1-3.712 1.274H7.548a6.327 6.327 0 0 0 0 12.654zm.024 3.841c-.025.158-.025.347-.025.724v1.762a3.163 3.163 0 1 0 6.326 0v-1.762c0-.377 0-.566-.025-.724a2.058 2.058 0 0 0-1.714-1.714c-.158-.025-.347-.025-.724-.025h-1.402c-.377 0-.566 0-.724.025a2.058 2.058 0 0 0-1.714 1.714z"/></svg>