<svg xmlns="http://www.w3.org/2000/svg" width="32" height="32"><rect width="11.497" height="11.497" x="1" y="4.834" rx="1.791" ry="1.791"/><rect width="8.069" height="8.069" x="4.428" y="19.272" rx="1.791" ry="1.791"/><rect width="9.798" height="9.798" x="15.67" y="19.272" rx="1.791" ry="1.791"/><path d="M30.21 0H17.46c-.984 0-1.79.806-1.79 1.79v12.748c0 .985.806 1.79 1.79 1.79h12.75c.984 0 1.79-.805 1.79-1.79V1.791C32 .806 31.194 0 30.21 0m-.804 4.857-5.993 8.56a.94.94 0 0 1-1.435.127L18.43 9.997a1.492 1.492 0 1 1 2.11-2.11l1.826 1.823 4.596-6.564a1.492 1.492 0 1 1 2.444 1.711"/></svg>