<svg xmlns="http://www.w3.org/2000/svg" width="32" height="32" viewBox="0 0 24 24"><path d="M12 6.2a.8.8 0 0 0-.8.8v4.668l-2.766 2.766a.8.8 0 0 0 0 1.132.8.8 0 0 0 1.132 0l3-3a.8.8 0 0 0 .235-.566V7A.8.8 0 0 0 12 6.2" style="stroke-linecap:round;stroke-linejoin:round;-inkscape-stroke:none"/><path d="M12 3.2c-4.85 0-8.8 3.95-8.8 8.8a8.81 8.81 0 0 0 5.866 8.299.8.8 0 0 0 1.022-.488.8.8 0 0 0-.488-1.02A7.2 7.2 0 0 1 4.8 12c0-3.986 3.214-7.2 7.2-7.2a7.2 7.2 0 0 1 6.791 4.8.8.8 0 0 0 1.02.488.8.8 0 0 0 .488-1.022A8.81 8.81 0 0 0 12 3.2" style="stroke-linecap:round;-inkscape-stroke:none"/><path fill="#000" d="m20.529 13.195-.39-.39a.667.667 0 0 0-.944 0L11.89 20.11a1.3 1.3 0 0 0-.322.521l-.398 1.195a.267.267 0 0 0 .337.338l1.195-.399c.197-.065.375-.175.522-.322l7.306-7.306a.667.667 0 0 0 0-.943M22.195 12.471l-.39.39a.667.667 0 0 1-.943 0l-.39-.39a.667.667 0 0 1 0-.942l.39-.39c.26-.261.682-.261.943 0l.39.39c.26.26.26.682 0 .942"/></svg>