<svg xmlns="http://www.w3.org/2000/svg" width="32" height="32"><path d="M4 16C4 9.371 9.371 4 16 4s12 5.371 12 12-5.371 12-12 12S4 22.629 4 16zM16 1.333C7.9 1.333 1.333 7.9 1.333 16S7.9 30.667 16 30.667 30.667 24.1 30.667 16 24.1 1.333 16 1.333z"/><path d="M13.733 9.954c.417 0 .754.338.754.754v10.583a.754.754 0 0 1-.754.754h-2.267a.753.753 0 0 1-.754-.754V10.708c0-.417.338-.754.754-.754h2.267zm6.8 0c.417 0 .754.338.754.754v10.583a.753.753 0 0 1-.754.754h-2.267a.753.753 0 0 1-.754-.754V10.708c0-.417.337-.754.754-.754h2.267z"/></svg>