<svg xmlns="http://www.w3.org/2000/svg" viewBox="0 0 32 32"><path d="M19.4 0C21.9 0 24 2.1 24 4.7c0 .7-.2 1.4-.5 2h2.8c.6 0 1.2.1 1.7.4 1 .5 1.8 1.3 2.2 2.2.3.5.4 1.1.4 1.7v3.5q0 .6-.3 1.2c-.3.6-.8 1.1-1.4 1.5v10.3c-.1.6-.2 1.3-.5 1.8-.4.9-1.2 1.6-2 2-.6.3-1.2.4-1.8.5s-1.4 0-2.3 0h-15c-.6-.1-1.3-.2-1.8-.5-.9-.4-1.6-1.2-2-2-.4-.4-.5-1-.5-1.7V17.3c-.6-.3-1.1-.9-1.4-1.5q-.3-.6-.3-1.2v-3.5c0-.6.1-1.2.4-1.7.5-1 1.3-1.8 2.2-2.2.5-.3 1.1-.4 1.7-.4h2.8C8.1 6.1 8 5.4 8 4.7 8 2.1 10.1 0 12.6 0 14 0 15.1.5 16 1.4 16.9.5 18 0 19.4 0m6.9 17.8h-8.9v11.6h7.1c.5 0 .7-.1.8-.2q.6-.3.9-.9c.1-.1.1-.4.2-.8v-9.6zM5.6 25.3v2.1c0 .5.1.7.2.8q.3.6.9.9c.1.1.4.1.8.2h7.1V17.8h-9zm11.7-10.2h10.2c.1-.1.3-.2.3-.3v-3.3c0-.4-.1-.7-.2-.8-.2-.4-.5-.8-1-1-.1-.1-.3-.1-.8-.2H17v5.6zM7.8 9.4h-2c-.4 0-.7.1-.8.2-.4.2-.8.5-1 1 .1.1 0 .3 0 .7v3.3c.1.1.2.3.3.3h10.2V9.4zm4.8-6.7c-1.1 0-2 .9-2 2s.9 2 2 2h2v-2c.1-1.1-.8-2-2-2m6.8 0c-1.1 0-2 .9-2 2v2h2c1.1 0 2-.9 2-2s-.9-2-2-2"/></svg>