<svg xmlns="http://www.w3.org/2000/svg" xml:space="preserve" viewBox="0 0 32 32"><path d="M18.5 4.1c1.9 0 3.5 1.6 3.5 3.5q0 .75-.3 1.5h2c.4 0 .9.1 1.3.3.7.3 1.3.9 1.7 1.7.2.4.3.8.3 1.3V15c0 .3-.1.6-.2.9-.2.5-.6.8-1 1.1v7.7c0 .5-.1.9-.3 1.4-.3.7-.9 1.2-1.5 1.5-.4.2-.9.3-1.4.3H9.7c-.5 0-.9-.1-1.4-.3-.8-.4-1.3-.9-1.7-1.6-.2-.4-.3-.9-.3-1.4v-7.7c-.4-.3-.8-.6-1-1.1-.2-.2-.3-.5-.3-.8v-2.6c0-.4.1-.9.3-1.3.4-.8 1-1.4 1.7-1.7.4-.2.8-.3 1.3-.3h2q-.3-.75-.3-1.5c0-1.9 1.6-3.5 3.5-3.5 1 0 1.9.4 2.5 1.1.6-.7 1.5-1.1 2.5-1.1m5.2 13.2H17v8.6h5.4c.4 0 .5-.1.6-.1.3-.1.5-.4.7-.7.1-.1.1-.3.1-.6v-1.6zM8.2 22.9v1.5c0 .4.1.5.1.6.1.3.4.5.7.7.1.1.3.1.6.1H15v-8.6H8.2zm8.8-7.6h7.7c.1 0 .2-.1.2-.2v-2.5c0-.3-.1-.5-.1-.6-.1-.3-.4-.6-.7-.7-.1 0-.3-.1-.6-.1H17zm-7.1-4.2H8.4c-.3 0-.5.1-.6.1-.3.1-.6.4-.7.7 0 .1-.1.3-.1.6V15c0 .1.1.2.2.2H15V11H9.9zm3.6-5c-.8 0-1.5.7-1.5 1.5s.7 1.5 1.5 1.5H15V7.6c0-.9-.7-1.5-1.5-1.5m5 0c-.8 0-1.5.7-1.5 1.5v1.5h1.5c.8 0 1.5-.7 1.5-1.5 0-.9-.7-1.5-1.5-1.5"/></svg>