<svg xmlns="http://www.w3.org/2000/svg" width="32" height="32"><path d="M16 1.333C7.9 1.333 1.333 7.9 1.333 16S7.9 30.667 16 30.667 30.667 24.1 30.667 16 24.1 1.333 16 1.333zM16 28C9.371 28 4 22.629 4 16S9.371 4 16 4s12 5.371 12 12-5.371 12-12 12z"/><path d="M21.608 19.725a1.334 1.334 0 0 1-1.884 1.887l-3.725-3.725-3.725 3.725c-.258.258-.6.392-.942.392s-.683-.129-.942-.392a1.334 1.334 0 0 1 0-1.887L14.115 16l-3.725-3.725a1.334 1.334 0 0 1 1.887-1.887l3.725 3.725 3.725-3.725a1.334 1.334 0 0 1 1.887 1.887L17.885 16l3.721 3.725z"/></svg>