<svg xmlns="http://www.w3.org/2000/svg" width="32" height="32"><path d="M19.53 0A4.703 4.703 0 0 1 23.6 7.06h1.44c.74 0 1.249-.003 1.692.067a5.41 5.41 0 0 1 4.497 4.497c.07.443.066.951.066 1.693 0 .48.003.856-.05 1.19a4 4 0 0 1-1.362 2.42v4.863c0 1.562 0 2.805-.08 3.806-.085 1.014-.258 1.882-.664 2.68a6.82 6.82 0 0 1-2.98 2.98c-.798.406-1.667.579-2.68.664-1.002.08-2.246.08-3.806.08h-7.344c-1.562 0-2.804 0-3.805-.082-1.014-.082-1.883-.254-2.68-.66a6.82 6.82 0 0 1-2.982-2.982c-.405-.798-.579-1.666-.66-2.68-.083-1.001-.083-2.244-.083-3.806v-4.864a4 4 0 0 1-1.362-2.419c-.053-.334-.05-.711-.05-1.19 0-.742-.004-1.25.066-1.693a5.41 5.41 0 0 1 4.495-4.497c.444-.07.952-.066 1.695-.066h1.44A4.703 4.703 0 0 1 16 1.596 4.69 4.69 0 0 1 19.53 0m8.008 17.864c-.238.014-.502.014-.805.014h-9.56v11.778h2.499c1.6 0 2.73 0 3.615-.074.868-.07 1.395-.204 1.807-.415a4.48 4.48 0 0 0 1.955-1.954c.21-.413.344-.94.415-1.808.072-.884.074-2.015.074-3.615zM4.462 21.79c0 1.6 0 2.731.074 3.615.07.869.205 1.395.415 1.808a4.48 4.48 0 0 0 1.956 1.954c.41.21.938.345 1.808.415.882.074 2.013.074 3.613.074h2.5V17.878h-9.56c-.304 0-.568 0-.806-.014zm12.71-6.256h9.56c.568 0 .718-.004.824-.021a1.65 1.65 0 0 0 1.373-1.373c.016-.106.02-.254.02-.823 0-.833-.002-1.112-.036-1.328a3.06 3.06 0 0 0-2.548-2.546c-.214-.035-.495-.038-1.327-.038h-7.866zM6.962 9.405c-.832 0-1.111.003-1.327.038a3.06 3.06 0 0 0-2.547 2.546c-.035.216-.038.496-.038 1.328 0 .568.005.717.021.823a1.65 1.65 0 0 0 1.373 1.373c.106.017.256.021.825.021h9.559V9.405zm5.508-7.06a2.358 2.358 0 0 0 0 4.716h2.358V4.703a2.36 2.36 0 0 0-2.358-2.359m7.06 0a2.36 2.36 0 0 0-2.358 2.359V7.06h2.358a2.358 2.358 0 0 0 0-4.717"/></svg>