<svg xmlns="http://www.w3.org/2000/svg" width="32" height="32"><path d="M16 5.333c5 0 9.056 4.086 9.379 9.227l.005.106h.883c3.095 0 5.583 2.542 5.727 5.71l.007.29c0 3.205-2.397 5.841-5.454 5.993l-.28.007h-3.6a1.333 1.333 0 0 1-.155-2.657l.155-.009h3.6c1.68 0 3.067-1.471 3.067-3.333 0-1.785-1.273-3.21-2.858-3.326l-.208-.008h-2.2a1.333 1.333 0 0 1-1.324-1.178L22.735 16v-.778c0-4.009-3.029-7.222-6.733-7.222-3.011 0-5.638 2.142-6.471 5.236a1.335 1.335 0 0 1-1.125.977l-.162.01H7.203c-2.487 0-4.533 2.171-4.533 4.889 0 2.628 1.912 4.744 4.286 4.882l.247.007h2.133a1.333 1.333 0 0 1 .155 2.657l-.155.009H7.203c-3.996 0-7.2-3.398-7.2-7.556 0-4.058 3.053-7.393 6.916-7.55l.357-.007.006-.015c1.368-3.58 4.615-6.057 8.377-6.199l.343-.006zm0 8c.684 0 1.247.515 1.324 1.178l.009.155v7.445l1.724-1.721a1.333 1.333 0 0 1 1.76-.111l.126.111c.481.481.518 1.237.111 1.76l-.111.126-4 4a1.333 1.333 0 0 1-1.76.111l-.126-.111-4-4a1.333 1.333 0 0 1 1.76-1.997l.126.111 1.724 1.721v-7.445c0-.736.597-1.333 1.333-1.333z"/></svg>