<svg xmlns="http://www.w3.org/2000/svg" width="32" height="32"><path d="M28.929 28.929c-.258.258-.6.392-.942.392s-.683-.129-.942-.392l-5.7-5.696v2.113c0 .738-.596 1.333-1.333 1.333a1.338 1.338 0 0 1-1.325-1.179l-.008-.154v-5.333c0-.683.517-1.246 1.179-1.325l.154-.008h5.333a1.334 1.334 0 0 1 .154 2.658l-.154.008h-2.113l5.7 5.7a1.333 1.333 0 0 1-.004 1.883zM3.071 3.071c.258-.258.6-.392.942-.392s.683.129.942.392l5.7 5.7V6.659c0-.737.596-1.333 1.333-1.333.683 0 1.246.517 1.325 1.179l.008.154v5.333c0 .683-.517 1.246-1.179 1.325l-.154.008H6.655a1.332 1.332 0 0 1-1.333-1.333c0-.683.517-1.246 1.179-1.325l.154-.008h2.113L3.072 4.955a1.33 1.33 0 0 1 0-1.883z"/></svg>