<svg xmlns="http://www.w3.org/2000/svg" width="32" height="32"><path d="m25.716 3.844.17.156L28 6.114a2.668 2.668 0 0 1 .156 3.602l-.156.17-4.781 4.78 1.057 1.058a1.333 1.333 0 0 1-1.76 1.997l-.126-.111-1.057-1.057L10.276 27.61a1.334 1.334 0 0 1-.768.379l-.175.012h-4a1.333 1.333 0 0 1-1.324-1.178L4 26.668v-4c0-.295.098-.579.275-.811l.116-.132 11.056-11.058-1.056-1.056a1.333 1.333 0 0 1 1.76-1.997l.126.111 1.057 1.056 4.781-4.78a2.668 2.668 0 0 1 3.602-.156zm-8.383 8.709L6.666 23.218v2.113h2.113l10.667-10.665-2.113-2.113zM24 5.886l-4.781 4.78 2.115 2.115 4.781-4.78-2.114-2.114z"/></svg>