<svg xmlns="http://www.w3.org/2000/svg" viewBox="0 0 32 32"><path d="M22.155.843H9.845C4.882.843.844 4.881.844 9.844v12.312c0 4.962 4.038 9 9 9h12.311c4.964 0 9.002-4.038 9.002-9V9.844c0-4.963-4.038-9.001-9.002-9.001m7.002 9.001V15h-2.404c-.437-1.552-1.864-2.692-3.554-2.692s-3.118 1.14-3.555 2.692H17v-4.507h-1a1.694 1.694 0 0 1-1.692-1.692c0-.933.76-1.691 1.692-1.691h1V2.843h5.155c3.861 0 7.002 3.14 7.002 7.001M9.845 2.843H15v2.404c-1.55.437-2.692 1.865-2.692 3.554S13.45 11.918 15 12.356V15h-4.507v1c0 .933-.759 1.692-1.692 1.692A1.693 1.693 0 0 1 7.109 16v-1H2.844V9.844c0-3.86 3.14-7.001 7-7.001M2.844 22.156V17h2.403c.436 1.551 1.864 2.692 3.554 2.692S11.918 18.55 12.355 17H15v4.507h1c.933 0 1.692.759 1.692 1.691 0 .934-.759 1.693-1.692 1.693h-1v4.265H9.845a7.01 7.01 0 0 1-7.001-7m19.311 7H17v-2.403c1.552-.436 2.692-1.865 2.692-3.555s-1.14-3.117-2.692-3.553V17h4.507v-1c0-.933.759-1.692 1.692-1.692s1.692.759 1.692 1.692v1h4.266v5.155c0 3.86-3.14 7.001-7.002 7.001" /></svg>