<svg xmlns="http://www.w3.org/2000/svg" width="32" height="32"><path d="M16 1.333c-8.045 0-14.667 6.006-14.667 13.552l.007.434c.116 3.6 1.671 6.751 4.393 9.131l.198.167-.096.133-.222.264-.614.686c-.395.465-.636.839-.771 1.491-.301 1.449.51 2.688 1.708 3.19 1.308.548 3.955.307 5.685-.661l.398-.231c.51-.308.945-.619 1.369-.968l.298-.253.523.069c.591.066 1.188.1 1.79.1 8.045 0 14.667-6.006 14.667-13.552S24.045 1.333 15.999 1.333zM16 4c6.627 0 12 4.873 12 10.885S22.627 25.77 16 25.77c-1.016 0-2.003-.115-2.945-.33-.113-.026-.235.039-.394.169l-.271.24-.349.318-.286.246-.336.266a9.565 9.565 0 0 1-1.099.716c-1.28.716-3.053.654-3.353.528-.205-.086-.152-.232.037-.461l.263-.294.219-.239.241-.275c.166-.196.338-.418.502-.669.779-1.191.457-2.609.108-2.864-2.731-1.995-4.336-4.806-4.336-8.234 0-6.012 5.373-10.885 12-10.885z"/></svg>