<svg xmlns="http://www.w3.org/2000/svg" width="32" height="32"><path d="M10.442 2.667h-.054c-1.075 0-1.958 0-2.679.058-.75.063-1.438.192-2.088.521a5.328 5.328 0 0 0-2.329 2.329c-.333.65-.462 1.342-.525 2.087-.058.725-.058 1.608-.058 2.683v14.988a1.332 1.332 0 1 0 2.666 0V10.4c0-1.142 0-1.917.05-2.517.046-.583.133-.883.242-1.092.254-.5.662-.908 1.167-1.167.208-.108.508-.192 1.092-.242.6-.05 1.375-.05 2.517-.05h14.892a1.332 1.332 0 1 0 0-2.666H10.443z"/><path d="M25.975 6.667c1.879 0 3.4 1.521 3.4 3.4v15.867c0 1.879-1.521 3.4-3.4 3.4H10.108a3.398 3.398 0 0 1-3.4-3.4V10.067c0-1.879 1.521-3.4 3.4-3.4h15.867zM14.746 20.671l-.067-.05a.546.546 0 0 0-.688.1l-.058.079-3.604 5.858.063.004h8.133l-3.671-5.871a.757.757 0 0 0-.108-.121zm7.258-2.463a.543.543 0 0 0-.688.108l-.058.079-2.621 4.367 2.442 3.904h4.546c.587 0 1.063-.467 1.083-1.046l-4.525-7.233a.495.495 0 0 0-.179-.179zm3.621-8.875H10.458c-.6 0-1.083.483-1.083 1.083v13.658l2.713-4.408a2.71 2.71 0 0 1 3.567-.979l.162.092c.296.183.554.421.758.7l.117.171.658 1.05 2.054-3.421a2.707 2.707 0 0 1 3.554-1.017l.163.092c.304.183.571.425.783.708l.121.175 2.683 4.3V10.416c0-.6-.483-1.083-1.083-1.083z"/></svg>