<svg xmlns="http://www.w3.org/2000/svg" width="32" height="32"><path d="M11.733 2.667h-.055c-1.073 0-1.959 0-2.681.059-.749.061-1.438.193-2.086.522A5.331 5.331 0 0 0 4.58 5.579c-.33.647-.461 1.336-.522 2.086-.059.722-.059 1.607-.059 2.681v12.322a1.333 1.333 0 0 0 2.666 0V10.401c0-1.142.001-1.918.05-2.519.048-.585.134-.883.241-1.092.256-.502.664-.91 1.165-1.165.209-.106.507-.193 1.092-.241.6-.049 1.377-.05 2.519-.05h6.933a1.333 1.333 0 0 0 0-2.666h-6.933zm1.867 4h-.051c-.703 0-1.309 0-1.809.041-.527.043-1.051.138-1.556.395a3.991 3.991 0 0 0-1.748 1.748c-.257.505-.352 1.029-.395 1.556C8 10.906 8 11.513 8 12.216v11.569c0 .703 0 1.309.041 1.809.043.527.138 1.051.395 1.556a3.991 3.991 0 0 0 1.748 1.748c.505.257 1.029.352 1.556.395.499.041 1.106.041 1.809.041h7.57c.703 0 1.309 0 1.809-.041.527-.043 1.051-.138 1.556-.395a3.991 3.991 0 0 0 1.748-1.748c.257-.505.352-1.029.395-1.556.041-.499.041-1.106.041-1.809v-11.57c0-.703 0-1.309-.041-1.809-.043-.527-.138-1.051-.395-1.556a3.991 3.991 0 0 0-1.748-1.748c-.505-.257-1.029-.352-1.556-.395-.499-.041-1.106-.041-1.809-.041h-7.518zm-2.205 2.812c.066-.034.2-.084.562-.113.378-.031.874-.032 1.643-.032h7.467c.769 0 1.265.001 1.643.032.362.03.496.08.562.113.251.128.455.332.583.583.034.066.084.2.113.562.031.378.032.874.032 1.643v11.467c0 .769-.001 1.265-.032 1.643-.03.362-.08.496-.113.562a1.335 1.335 0 0 1-.583.583c-.066.034-.2.084-.562.113-.378.031-.874.032-1.643.032H13.6c-.769 0-1.265-.001-1.643-.032-.362-.03-.496-.08-.562-.113a1.335 1.335 0 0 1-.583-.583c-.034-.066-.084-.2-.113-.562-.031-.378-.032-.874-.032-1.643V12.267c0-.769.001-1.265.032-1.643.03-.362.08-.497.113-.562.128-.251.332-.455.583-.583z"/></svg>