<svg xmlns="http://www.w3.org/2000/svg" width="32" height="32"><path d="M11.945 19.473V15.37a.49.49 0 0 0-.484-.5H3.598a.494.494 0 0 0-.489.5c0 .113.04.223.106.309q1.553 2.016 3.41 3.02c1.285.695 2.504 1.167 4.45 1.417l.144.016c.36.047.68-.215.722-.582l.004-.04zM13.723 14.871h12.902a.49.49 0 0 1 .484.5v1.2a.497.497 0 0 1-.437.5q-1.745.17-2.969 1.109c-1.375 1.058-1.82 1.949-1.848 3.53-.015.962.426 1.892 1.325 2.782l.062.063a.66.66 0 0 1 .203.484v1.336c0 .367-.289.668-.648.668h-8.91c-.36 0-.649-.3-.649-.668v-1.21c0-.243.13-.466.336-.583q1.113-.634 1.114-1.953 0-1.354-1.176-1.942a.5.5 0 0 1-.274-.449v-4.867c0-.277.219-.5.485-.5M12.996 9.402l-.262-1.117a.664.664 0 0 1 .48-.805l.024-.007L25.2 5.07a1.224 1.224 0 0 1 1.426.934c.145.621-.227 1.246-.832 1.398l-.02.004-12.02 2.492a.643.643 0 0 1-.75-.464zM9.355 13.441l2.13-.55a1.17 1.17 0 0 0 .828-1.395l-.688-3.066a2.7 2.7 0 0 0-.375-.89l-.102-.157q-1.85-2.78-2.683-2.547-.846.239-1.211 3.707l-.008.094a2.7 2.7 0 0 0 .055.879l.687 3.054c.14.625.754 1.02 1.367.871m0 0"/></svg>