<svg xmlns="http://www.w3.org/2000/svg" width="32" height="32" fill="none"><path fill="#000" d="M5.452 25.987c.363 2.18 2.362 3.635 4.543 3.635h12.357c2.18 0 3.997-1.636 4.543-3.635l.181-1.09H5.27zM29.075 5.816c-1.635 0-3.089 1.454-3.089 3.09 0 .908.363 1.635.909 2.18l-4.725 5.452-4.543-8.723c.908-.545 1.635-1.454 1.635-2.726C19.262 3.454 17.81 2 16.173 2c-1.817 0-3.09 1.454-3.09 3.09 0 1.09.728 2.18 1.636 2.725l-4.724 8.723-4.725-5.452a3 3 0 0 0 .908-2.18c0-1.636-1.453-3.09-3.089-3.09S0 7.27 0 8.906c0 1.453 1.09 2.725 2.544 3.089l1.999 10.358H27.44l1.999-10.358c1.453-.182 2.544-1.454 2.544-3.09.181-1.635-1.09-3.089-2.908-3.089"/></svg>