<svg xmlns="http://www.w3.org/2000/svg" width="32" height="32" fill="none"><path fill="#000" d="M24.2 25.2H7.6c-.8 0-1.4.6-1.4 1.4S6.8 28 7.6 28h16.6c.8 0 1.4-.6 1.4-1.4s-.6-1.4-1.4-1.4M27.7 7.8c-1.2 0-2.1.9-2.1 2.1 0 .5.1.9.4 1.2h-4.5l-4.4-4.4c.3-.2.5-.4.6-.7.2-.3.2-.6.2-1q0-.9-.6-1.5c-.4-.3-.8-.5-1.4-.5q-.9 0-1.5.6t-.6 1.5c0 .3.1.7.2 1 .2.3.4.5.6.7l-4.3 4.4H5.8c.2-.3.4-.8.4-1.2 0-1.2-.9-2.1-2.1-2.1S2 8.8 2 9.9 2.9 12 4.1 12h.3l1.4 8.9c.2 1.3 1.3 2.2 2.6 2.2h15c1.3 0 2.4-.9 2.6-2.2l1.3-8.9h.3c1.2 0 2.1-.9 2.1-2.1s-.9-2.1-2-2.1m-4.5 12.5H8.5l-.9-5.8h3.5l4.7-4.8 4.7 4.8H24z"/></svg>