<svg xmlns="http://www.w3.org/2000/svg" width="32" height="32" fill="none"><path fill="#000" fill-rule="evenodd" d="M2.17 1.348a1.206 1.206 0 0 0-1.694 0 1.18 1.18 0 0 0 0 1.68L29.35 31.652a1.206 1.206 0 0 0 1.694 0 1.18 1.18 0 0 0 0-1.68l-4.523-4.484q.072-.228.12-.466l.23-1.146h-1.976l-2.529-2.508h5.012l2.04-10.11A3.03 3.03 0 0 0 32 8.27c0-1.669-1.364-3.022-3.047-3.022s-3.048 1.353-3.048 3.022c0 .812.324 1.55.85 2.093l-4.66 5.46-4.66-8.664a3.02 3.02 0 0 0 1.613-2.666c0-1.669-1.365-3.022-3.048-3.022s-3.048 1.353-3.048 3.022c0 1.154.654 2.158 1.614 2.666l-2.272 4.224zm7.818 14.321-1.4-1.387L.713 6.329c.07.163-.135-.133 0 0A3 3 0 0 0 0 8.27a3.03 3.03 0 0 0 2.583 2.986l2.04 10.112h11.113zm-4.859 8.207h13.137l4.75 4.71q-.42.079-.859.08H9.843c-2.18 0-4.055-1.526-4.483-3.644z" clip-rule="evenodd"/></svg>