<svg xmlns="http://www.w3.org/2000/svg" width="32" height="32"><path fill="#000" d="M27.3 12.375h.3c1.2 0 2.1-.9 2.1-2.1s-.9-2.1-2.1-2.1-2.1.9-2.1 2.1c0 .5.1.9.4 1.2h-4.5l-4.4-4.4c.3-.2.5-.4.6-.7.2-.3.2-.6.2-1q0-.9-.6-1.5t-1.5-.6-1.5.6-.6 1.5c0 .3.1.7.2 1 .2.3.4.5.6.7l-1.6 1.9-5.7-5.6c-.5-.5-1.3-.5-1.8 0s-.5 1.3 0 1.8l20.9 20.9c.5.5 1.3.5 1.8 0s.5-1.3 0-1.8l-2.3-2.3c.1-.2.2-.4.2-.7zm-12.4-1.2 1-1 4.7 4.8h3.5l-.7 4.7zM8.5 20.675l-.9-5.8h1.7c.7 0 1-.8.5-1.3l-2-2.1h-2c.3-.5.5-1.1.3-1.8-.2-.6-.7-1.2-1.5-1.4-1.4-.4-2.6.7-2.6 2 0 1.2.9 2.1 2.1 2.1h.3l1.4 8.9c.2 1.3 1.3 2.2 2.6 2.2h9.5c.7 0 1-.8.5-1.3l-1.5-1.5zM24.2 25.575H7.6c-.8 0-1.4.6-1.4 1.4s.6 1.4 1.4 1.4h16.6c.8 0 1.4-.6 1.4-1.4s-.6-1.4-1.4-1.4"/></svg>
