<svg xmlns="http://www.w3.org/2000/svg" width="32" height="32"><path d="M5.973 2.667c-.205 0-.37.16-.37.357v.199c0 1.227-1.153 2.392-2.38 2.392h-.167c-.215 0-.389.168-.389.374s.174.374.389.374h.167c1.227 0 2.38 1.188 2.38 2.415v.199c0 .197.166.357.37.357s.37-.16.37-.357v-.199c0-1.227 1.208-2.415 2.435-2.415h.167c.215 0 .389-.168.389-.374s-.174-.374-.389-.374h-.167c-1.227 0-2.435-1.164-2.435-2.392v-.199a.364.364 0 0 0-.37-.357zM11.317 8a.218.218 0 0 0-.222.214v.119c0 .736-.692 1.435-1.428 1.435h-.1c-.129 0-.233.101-.233.225s.104.225.233.225h.1c.736 0 1.428.713 1.428 1.449v.119c0 .118.099.214.222.214s.222-.096.222-.214v-.119c0-.736.725-1.449 1.461-1.449h.1c.129 0 .233-.101.233-.225s-.104-.225-.233-.225H13c-.736 0-1.461-.699-1.461-1.435v-.119A.218.218 0 0 0 11.317 8zm10.49 1.89c0 3.479-1.151 6.453-3.313 8.556-2.158 2.1-5.197 3.21-8.75 3.21-1.311 0-2.529-.148-3.641-.46 1.88 3.434 5.364 5.471 9.77 5.471 6.563 0 11.126-4.629 11.126-10.864 0-4.452-2.345-8.349-5.781-10.081.371 1.145.589 2.674.589 4.169zm-3.144-6.534c.815-.901 1.994-.755 2.749-.466l.01.004c5.003 1.962 8.244 7.181 8.244 12.908 0 7.741-5.791 13.531-13.793 13.531-5.706 0-10.37-2.899-12.591-7.827-.351-.765-.509-1.944.358-2.758l.004-.003c.768-.717 1.797-.594 2.435-.368l.044.016c.979.385 2.177.596 3.622.596 2.995 0 5.32-.927 6.89-2.455 1.566-1.524 2.506-3.766 2.506-6.645 0-1.702-.334-3.205-.651-3.836l-.007-.014c-.343-.703-.558-1.758.125-2.619.018-.022.036-.044.056-.066z"/></svg>