<svg xmlns="http://www.w3.org/2000/svg" width="32" height="32"><path d="M7.13 8.444c.381-.394.997-.81 1.862-1.189C10.717 6.5 13.194 6 16 6s5.283.5 7.008 1.255c.865.378 1.481.794 1.862 1.189.375.388.463.687.463.89s-.089.502-.463.89c-.381.394-.997.81-1.862 1.189-1.725.755-4.202 1.255-7.008 1.255s-5.283-.5-7.008-1.255c-.865-.378-1.481-.794-1.862-1.189-.375-.388-.463-.687-.463-.89s.088-.502.463-.89zM5.213 6.59C4.508 7.319 4 8.248 4 9.333v13.333c0 1.085.508 2.015 1.213 2.743.698.722 1.644 1.312 2.71 1.778 2.135.934 4.992 1.479 8.077 1.479s5.942-.544 8.077-1.479c1.066-.466 2.012-1.056 2.71-1.778.705-.729 1.213-1.658 1.213-2.743V9.333c0-1.085-.508-2.014-1.213-2.743-.698-.722-1.645-1.312-2.71-1.778-2.135-.934-4.992-1.479-8.077-1.479s-5.942.544-8.077 1.479c-1.066.466-2.012 1.056-2.71 1.778zM25.333 16c0 .203-.089.502-.463.89-.381.394-.997.81-1.862 1.189-1.725.755-4.202 1.255-7.008 1.255s-5.283-.5-7.008-1.255c-.865-.378-1.481-.794-1.862-1.189-.375-.388-.463-.687-.463-.89v-2.791c.392.237.814.452 1.256.645 2.135.934 4.992 1.479 8.077 1.479s5.942-.544 8.077-1.479c.442-.194.864-.408 1.256-.645V16zM6.667 19.876c.392.237.814.452 1.256.645C10.058 21.455 12.915 22 16 22s5.942-.544 8.077-1.479c.442-.194.864-.408 1.256-.645v2.791c0 .203-.089.502-.463.89-.381.394-.997.81-1.862 1.189-1.725.755-4.202 1.255-7.008 1.255s-5.283-.5-7.008-1.255c-.865-.378-1.481-.794-1.862-1.189-.375-.388-.463-.687-.463-.89v-2.791z"/></svg>