<svg xmlns="http://www.w3.org/2000/svg" width="32" height="32"><path d="M28 4H9.478a4 4 0 0 0-3.392 1.88l-5 8a3.999 3.999 0 0 0 0 4.24l5 8A4 4 0 0 0 9.478 28H28a4 4 0 0 0 4-4V8a4 4 0 0 0-4-4zm0 2.667c.736 0 1.333.597 1.333 1.333v16c0 .736-.597 1.333-1.333 1.333H9.478c-.46 0-.887-.237-1.131-.627l-5-8a1.334 1.334 0 0 1 0-1.413l5-8c.244-.39.671-.627 1.131-.627H28zm-15.06 3.606a1.33 1.33 0 0 0 0 1.88L16.787 16l-3.847 3.847a1.33 1.33 0 0 0 1.88 1.88l3.847-3.847 3.847 3.847a1.33 1.33 0 0 0 1.88-1.88L20.547 16l3.847-3.847a1.33 1.33 0 0 0-1.88-1.88l-3.847 3.847-3.847-3.847a1.33 1.33 0 0 0-1.88 0z"/></svg>