<svg xmlns="http://www.w3.org/2000/svg" width="32" height="32"><path d="M13.333 2.667c-.354 0-.693.14-.943.391l-.943.943H5.999a1.333 1.333 0 0 0 0 2.666h20a1.333 1.333 0 0 0 0-2.666h-5.448l-.943-.943a1.334 1.334 0 0 0-.943-.391h-5.333zm-6 6a1.335 1.335 0 0 0-1.334 1.334v11.655c0 1.073 0 1.959.059 2.681.061.749.193 1.438.522 2.086a5.337 5.337 0 0 0 2.331 2.331c.647.33 1.336.461 2.085.522.722.059 1.607.059 2.681.059h4.643c1.073 0 1.959 0 2.681-.059.749-.061 1.438-.193 2.086-.522a5.337 5.337 0 0 0 2.331-2.331c.33-.647.461-1.336.522-2.086.059-.722.059-1.607.059-2.681V10.001c0-.736-.597-1.333-1.333-1.333H7.333z"/></svg>