<svg xmlns="http://www.w3.org/2000/svg" width="32" height="32"><path d="M24.522 10.409a1.073 1.073 0 0 1 .947 1.185l-1.325 11.932c-.107.958-.194 1.74-.313 2.37-.122.643-.295 1.214-.614 1.735a4.95 4.95 0 0 1-2.124 1.9c-.555.262-1.14.37-1.793.42-.64.049-1.424.049-2.39.049h-1.82c-.966 0-1.75 0-2.39-.049-.653-.052-1.238-.157-1.792-.417a4.95 4.95 0 0 1-2.126-1.9c-.318-.524-.49-1.095-.613-1.739-.12-.63-.207-1.41-.313-2.37l-1.325-11.93a1.073 1.073 0 0 1 2.133-.237l1.327 11.93c.109.994.185 1.678.287 2.207.098.518.206.805.336 1.018.287.47.706.843 1.203 1.076.227.107.526.182 1.05.223.537.042 1.225.043 2.222.043h1.821c.997 0 1.686 0 2.223-.043.525-.04.823-.116 1.049-.222a2.8 2.8 0 0 0 1.204-1.077c.13-.213.239-.501.336-1.018.102-.529.178-1.213.288-2.205l1.326-11.931a1.073 1.073 0 0 1 1.186-.95M13.02 12.344a1.073 1.073 0 0 1 1.142.998l.647 9.695a1.073 1.073 0 0 1-2.141.145l-.646-9.695a1.073 1.073 0 0 1 .998-1.143m5.962 0a1.073 1.073 0 0 1 .998 1.143l-.646 9.695a1.073 1.073 0 0 1-2.141-.144l.646-9.695a1.073 1.073 0 0 1 1.143-.999M16 2c.586 0 1.082 0 1.487.027.416.029.815.09 1.205.252a3.66 3.66 0 0 1 1.98 1.98c.162.39.224.79.252 1.205.02.303.023.656.026 1.06h5.392a1.073 1.073 0 0 1 0 2.146H5.658a1.073 1.073 0 0 1 0-2.145h5.394c0-.406.003-.758.026-1.06.026-.416.088-.816.25-1.207a3.66 3.66 0 0 1 1.98-1.979c.39-.163.791-.223 1.205-.254.405-.023.9-.025 1.487-.025m0 2.146c-.617 0-1.026 0-1.342.022-.305.02-.443.058-.53.093a1.51 1.51 0 0 0-.818.82c-.035.085-.072.223-.093.528-.017.237-.02.526-.02.916h5.608c0-.39-.004-.68-.02-.916-.02-.305-.058-.443-.094-.53a1.51 1.51 0 0 0-.82-.818c-.084-.035-.223-.073-.528-.093-.315-.022-.724-.022-1.342-.022"/></svg>