<svg xmlns="http://www.w3.org/2000/svg" width="32" height="32"><path d="M14 8.667a3.333 3.333 0 1 1 6.665 0 3.333 3.333 0 0 1-6.665 0zm3.333-6a6 6 0 1 0 0 12 6 6 0 0 0 0-12zm-6.691 17.515c1.458-.801 3.613-1.515 6.691-1.515 5.363 0 7.968 2.17 8.966 3.282.223.249.367.652.367 1.234a2.151 2.151 0 0 1-2.151 2.151h-9.182a1.333 1.333 0 0 0 0 2.666h9.182a4.818 4.818 0 0 0 4.818-4.818c0-.97-.236-2.109-1.049-3.015C26.835 18.553 23.532 16 17.333 16c-3.512 0-6.11.82-7.975 1.844a1.334 1.334 0 0 0 1.284 2.338zm1.634 2.209a1.333 1.333 0 0 1 0 1.886l-2.391 2.391 2.391 2.391a1.333 1.333 0 1 1-1.886 1.886l-2.391-2.391-2.391 2.391a1.333 1.333 0 1 1-1.886-1.886l2.391-2.391-2.391-2.391a1.333 1.333 0 1 1 1.886-1.886l2.391 2.391 2.391-2.391a1.333 1.333 0 0 1 1.886 0z"/></svg>