<svg xmlns="http://www.w3.org/2000/svg" width="32" height="32"><path d="M25.066 5.333c1.494 0 2.241 0 2.812.29.501.256.91.664 1.165 1.166.29.57.29 1.318.29 2.811v12.8c0 1.493 0 2.24-.29 2.81-.256.503-.664.91-1.165 1.166-.57.29-1.318.29-2.812.29H21.6c-1.493 0-2.24 0-2.81-.29a2.67 2.67 0 0 1-1.166-1.165c-.29-.57-.29-1.318-.29-2.811V9.6c0-1.493 0-2.24.29-2.81.255-.503.663-.91 1.165-1.166.57-.291 1.318-.29 2.811-.29zm-3.733 18.333a.667.667 0 0 0 0 1.333h4a.667.667 0 0 0 0-1.333zm-9.833-1a.5.5 0 0 1 .49.4l.02.2a.5.5 0 0 0 .49.4h2.632q.008.353.032.665.022.266.066.548H4.327a1.66 1.66 0 0 1-1.66-1.66c0-.306.247-.553.553-.553zm3.643-14.664c-.023.48-.023 1.024-.023 1.597v10.84H5.066c-.372 0-.559 0-.701-.073a.67.67 0 0 1-.292-.292C4 19.933 4 19.747 4 19.374v-7.107c0-1.494 0-2.24.29-2.811.256-.502.664-.91 1.166-1.166C6.026 8 6.773 8 8.266 8H14.4q.406 0 .743.003m7.19-.89a.887.887 0 0 0 0 1.774h2a.887.887 0 0 0 0-1.774z"/></svg>