<svg xmlns="http://www.w3.org/2000/svg" width="32" height="32" fill="none"><path d="M8.332 2.201a3.58 3.58 0 0 0-2.908 1.496L1.525 9.152a3.59 3.59 0 0 0 .07 4.25L13.16 28.525c1.41 1.844 4.27 1.844 5.68 0l11.564-15.123c.95-1.243.98-2.976.07-4.25l-3.898-5.455a3.58 3.58 0 0 0-2.908-1.496H15.25Zm0 2.75h3.383L9.754 9.525H4.639l3.021-4.23a.82.82 0 0 1 .672-.344m6.918 0h1.5c.334 0 .626.192.758.498l1.746 4.076h-6.508l1.746-4.076a.815.815 0 0 1 .758-.498m5.035 0h3.383a.82.82 0 0 1 .672.344l3.021 4.23h-5.115Zm-16.09 7.324h5.172q.017.074.037.147l3.186 10.832zm8.034 0h7.542L16 25.104Zm10.404 0h5.172L19.41 23.254l3.186-10.832q.02-.074.037-.147" style="color:#000;fill:#000;-inkscape-stroke:none"/></svg>