<svg xmlns="http://www.w3.org/2000/svg" width="32" height="32"><path d="M14.667 5.336v4.319c0 1.073 0 1.959.059 2.681.061.749.193 1.438.522 2.086a5.331 5.331 0 0 0 2.331 2.331c.647.33 1.336.461 2.086.522.721.059 1.607.059 2.68.059h4.319c.002.242.003.527.003.868v1.265c0 1.515-.001 2.572-.068 3.394-.066.807-.189 1.271-.368 1.622a3.996 3.996 0 0 1-1.748 1.748c-.351.179-.815.302-1.622.368-.822.067-1.879.068-3.394.068h-6.933c-1.515 0-2.572-.001-3.394-.068-.807-.066-1.27-.189-1.622-.368a4.001 4.001 0 0 1-1.748-1.748c-.179-.351-.302-.815-.368-1.622-.067-.822-.068-1.879-.068-3.394v-6.933c0-1.515.001-2.572.068-3.394.066-.807.189-1.27.368-1.622A3.991 3.991 0 0 1 7.518 5.77c.351-.179.815-.302 1.622-.368.822-.067 1.879-.068 3.394-.068h1.265c.341 0 .626.001.868.003zM26 14.667h-3.6c-1.142 0-1.919-.001-2.519-.05-.585-.048-.884-.134-1.092-.241a2.666 2.666 0 0 1-1.165-1.165c-.106-.209-.193-.507-.241-1.092-.049-.6-.05-1.377-.05-2.519V6c.332.228.693.578 1.557 1.442l5.668 5.668c.864.864 1.214 1.224 1.442 1.557zM16.68 2.851c-.77-.185-1.572-.185-2.73-.184h-1.474c-1.445 0-2.611 0-3.554.077-.972.079-1.825.247-2.615.65a6.667 6.667 0 0 0-2.913 2.913c-.402.79-.57 1.643-.65 2.615-.077.944-.077 2.109-.077 3.554v7.047c0 1.445 0 2.611.077 3.554.079.972.247 1.825.65 2.615a6.667 6.667 0 0 0 2.913 2.913c.79.402 1.643.57 2.615.649.944.077 2.109.077 3.554.077h7.048c1.445 0 2.611 0 3.554-.077.972-.079 1.825-.247 2.615-.649a6.667 6.667 0 0 0 2.913-2.913c.402-.79.57-1.643.65-2.615.077-.944.077-2.109.077-3.554v-1.475c0-1.158 0-1.96-.184-2.73a6.67 6.67 0 0 0-.798-1.927c-.414-.675-.981-1.242-1.8-2.061l-5.883-5.883c-.819-.819-1.386-1.386-2.061-1.8a6.642 6.642 0 0 0-1.927-.798z"/></svg>