<svg xmlns="http://www.w3.org/2000/svg" width="32" height="32"><path d="M10.901 1.912a1.333 1.333 0 0 1 1.854-.344c1.045.718 2.036 1.708 2.978 2.965.292.39.546.758.76 1.109.236-.388.545-.811.926-1.268 1.276-1.531 3.054-2.42 5.333-2.667-.276 1.52-.81 2.804-1.602 3.854l.201-.027c1.893-.198 3.517.152 4.83 1.218l.512.441c6.897 6.134 3.941 20.445-4.938 23.405l-.133.037c-1.375.305-2.284.245-3.411-.115l-.786-.272c-.551-.184-.9-.248-1.425-.248s-.873.064-1.424.249l-.787.272c-1.128.361-2.037.42-3.412.114l-.132-.037C1.197 27.582-1.622 12.923 5.927 6.89c2.419-1.613 4.416-1.742 7.182-.975l.416.119c-.754-.989-1.517-1.744-2.281-2.269a1.333 1.333 0 0 1-.344-1.854zM7.5 9.041c-5.771 4.617-3.487 16.6 3.524 19.005.817.176 1.263.154 1.928-.057l.261-.088.566-.198c.784-.259 1.38-.37 2.222-.37s1.438.111 2.222.37l.826.285c.582.185.997.225 1.639.115l.29-.056.304-.112c6.63-2.591 8.885-13.983 3.653-18.736l-.428-.369c-.741-.584-1.656-.772-2.877-.644-.602.063-1.204.188-2.081.417l-1.62.431-.468.116c-.555.131-.857.171-1.233.18l-.368.002c-.546-.008-.903-.071-1.761-.327l-1.397-.432c-2.253-.671-3.562-.619-5.202.468z"/></svg>