<svg width="32" height="32" viewBox="0 0 24 24" fill="none" xmlns="http://www.w3.org/2000/svg">
<path d="M9 15L12 12V7" stroke="black" stroke-width="1.6" stroke-linecap="round" stroke-linejoin="round"/>
<path d="M9.33333 19.5448C6.22615 18.4466 4 15.4833 4 12C4 7.58172 7.58172 4 12 4C15.4833 4 18.4466 6.22615 19.5448 9.33333" stroke="black" stroke-width="1.6" stroke-linecap="round"/>
<path d="M20.5286 13.1953L20.1381 12.8048C19.8777 12.5444 19.4556 12.5444 19.1953 12.8048L11.8892 20.1108C11.7429 20.2572 11.6326 20.4356 11.5671 20.632L11.1687 21.8274C11.0992 22.0359 11.2975 22.2342 11.506 22.1647L12.7014 21.7662C12.8978 21.7008 13.0762 21.5905 13.2226 21.4441L20.5286 14.1381C20.7889 13.8777 20.7889 13.4556 20.5286 13.1953Z" fill="black"/>
<path d="M22.1953 12.4714L21.8047 12.8619C21.5444 13.1223 21.1223 13.1223 20.8619 12.8619L20.4714 12.4714C20.2111 12.2111 20.2111 11.789 20.4714 11.5286L20.8619 11.1381C21.1223 10.8777 21.5444 10.8777 21.8047 11.1381L22.1953 11.5286C22.4556 11.789 22.4556 12.2111 22.1953 12.4714Z" fill="black"/>
</svg>
