<svg xmlns="http://www.w3.org/2000/svg" width="32" height="32"><path d="M25.333 5.333a4 4 0 0 1 3.993 3.765l.007.235v13.333a4 4 0 0 1-3.765 3.993l-.235.007H6.666a4 4 0 0 1-3.993-3.765l-.007-.235V9.333A4 4 0 0 1 6.431 5.34l.235-.007h18.667zm1.334 5.158-8.448 5.633a4 4 0 0 1-4.196.149l-.241-.149-8.448-5.631v12.175c0 .684.515 1.247 1.178 1.324l.155.009h18.667c.684 0 1.247-.515 1.324-1.178l.009-.155V10.492zM25.333 8H6.666a1.35 1.35 0 0 0-.231.02l8.824 5.885c.398.265.903.295 1.325.088l.154-.088 8.824-5.885-.114-.015L25.331 8z"/></svg>