<svg xmlns="http://www.w3.org/2000/svg" width="32" height="32"><path d="M25.333 4a1.333 1.333 0 0 0-2.666 0v13.067c0 .769-.001 1.265-.032 1.643-.03.362-.08.496-.113.562a1.335 1.335 0 0 1-.583.583c-.066.034-.2.084-.562.113-.378.031-.874.032-1.643.032H8.553l4.391-4.391a1.333 1.333 0 1 0-1.886-1.886L4.391 20.39a1.333 1.333 0 0 0 0 1.886l6.667 6.667a1.333 1.333 0 1 0 1.886-1.886l-4.391-4.391h11.233c.703 0 1.309 0 1.809-.041.527-.043 1.051-.138 1.556-.395a3.991 3.991 0 0 0 1.748-1.748c.257-.505.352-1.029.395-1.556.041-.499.041-1.106.041-1.809V3.999z"/></svg>