<svg xmlns="http://www.w3.org/2000/svg" width="32" height="32"><path d="M12.921 12.921c-.258.258-.6.392-.942.392s-.683-.129-.942-.392l-5.7-5.7v2.112c0 .738-.596 1.333-1.333 1.333a1.338 1.338 0 0 1-1.325-1.179l-.008-.154V4c0-.683.517-1.246 1.179-1.325l.154-.008h5.333c.738 0 1.333.596 1.333 1.333 0 .683-.517 1.246-1.179 1.325l-.154.008H7.225l5.7 5.7a1.338 1.338 0 0 1-.004 1.887zm6.15 6.15c.258-.258.6-.392.942-.392s.683.129.942.392l5.7 5.7v-2.113c0-.738.596-1.333 1.333-1.333.683 0 1.246.517 1.325 1.179l.008.154v5.333c0 .683-.517 1.246-1.179 1.325l-.154.008h-5.333a1.331 1.331 0 0 1-1.333-1.333c0-.683.517-1.246 1.179-1.325l.154-.008h2.113l-5.696-5.704a1.33 1.33 0 0 1 0-1.883z"/></svg>