<svg xmlns="http://www.w3.org/2000/svg" width="32" height="32"><path d="M15.093 7.467c-4.001.269-7.715 2.347-10.539 5.897-.605.761-.799 1.073-.959 1.548-.127.379-.139.479-.117.981.031.692.14.98.667 1.764 3.153 4.692 7.885 7.252 12.72 6.884 3.104-.236 5.764-1.428 8.275-3.709 1.348-1.224 2.987-3.331 3.275-4.207.213-.651.148-1.485-.165-2.109-.296-.591-1.261-1.777-2.22-2.729-3.103-3.083-6.92-4.591-10.936-4.32zm2.827 2.346c2.488.436 4.833 1.745 6.793 3.792.757.789 1.568 1.827 1.612 2.06.043.223-.079.456-.611 1.188-2.193 3.017-4.92 4.831-8.115 5.396-.539.095-2.661.095-3.2 0-3.195-.565-5.921-2.379-8.115-5.396-.532-.732-.653-.965-.611-1.188.044-.233.855-1.271 1.612-2.06 2.187-2.284 4.781-3.608 7.673-3.919.573-.061 2.311.013 2.96.127zm-2.88.862c-.455.075-1.283.377-1.72.628a5.616 5.616 0 0 0-2.143 2.263c-1.8 3.611.799 7.829 4.823 7.829 1.675 0 3.171-.719 4.224-2.029 1.821-2.268 1.484-5.635-.752-7.505-.715-.597-1.691-1.051-2.565-1.191-.413-.065-1.455-.063-1.867.005zm1.543 2.184c.931.155 1.86.868 2.287 1.755.433.899.433 1.872.001 2.773-.283.589-.895 1.215-1.452 1.484a3.26 3.26 0 0 1-2.837 0c-.557-.269-1.169-.895-1.452-1.484-.604-1.259-.364-2.645.625-3.629.791-.784 1.727-1.083 2.828-.899z"/></svg>