<svg xmlns="http://www.w3.org/2000/svg" width="32" height="32"><path d="M4.913 4.3c-.176.088-.36.239-.489.403-.328.416-.345.767-.056 1.18.087.123 5.013 5.075 10.948 11.003 7.525 7.517 10.853 10.807 10.999 10.873.449.203 1.016-.053 1.352-.612.219-.364.223-.58.017-.933-.097-.167-.881-.989-2.101-2.208l-1.945-1.94.541-.421c1.383-1.075 2.717-2.535 3.748-4.099.467-.707.607-1.112.607-1.747-.001-.752-.172-1.219-.708-1.945-1.745-2.359-4.068-4.26-6.479-5.304-1.772-.768-3.364-1.093-5.347-1.096-1.903-.003-3.553.325-5.211 1.036l-.507.219-2.168-2.165c-2.564-2.56-2.565-2.56-3.201-2.243zm12.234 5.408c2.828.313 5.405 1.641 7.567 3.897.757.789 1.568 1.827 1.612 2.06.043.223-.079.456-.611 1.188-.883 1.215-2.033 2.407-3.091 3.2l-.569.427-1.515-1.512.211-.383a5.246 5.246 0 0 0 .649-2.559c.003-.693-.052-1.047-.264-1.707-.551-1.708-1.869-2.977-3.669-3.528-.451-.137-.541-.147-1.467-.147-.921 0-1.019.009-1.467.145-.264.08-.712.261-.995.403l-.516.259-.521-.524c-.288-.288-.512-.535-.499-.548.013-.012.288-.105.611-.207a12.92 12.92 0 0 1 2.16-.461c.572-.064 1.812-.067 2.373-.004zM6.901 10.916c-.944.796-2.3 2.291-2.944 3.245a3.726 3.726 0 0 0-.36.747c-.128.383-.14.481-.119.985.031.692.14.98.667 1.764 3.153 4.692 7.885 7.252 12.72 6.884 1.207-.091 2.701-.405 3.481-.731l.204-.087-1.751-1.745-.293.079c-.804.212-1.245.259-2.48.261-1.309.001-1.6-.031-2.616-.292-2.713-.695-5.163-2.473-7.125-5.173-.532-.732-.653-.965-.611-1.188.073-.391 1.664-2.221 2.631-3.028.257-.215.504-.423.547-.461.068-.06-.029-.179-.692-.843-.425-.425-.787-.773-.804-.773-.019 0-.223.16-.455.356zm9.766 1.964c1.212.255 2.2 1.251 2.46 2.48a3.405 3.405 0 0 1-.088 1.621l-.115.369-4.26-4.257.175-.072c.513-.213 1.221-.268 1.828-.141zm-5.783 1.375c-.305.805-.376 2.015-.169 2.919a5.446 5.446 0 0 0 4.112 4.112c.904.207 2.113.136 2.919-.169.14-.053.131-.065-.788-.985-.86-.861-.944-.931-1.121-.931-.303 0-.985-.195-1.347-.384-.487-.255-1.091-.877-1.335-1.376-.191-.391-.352-.984-.353-1.307-.001-.137-.141-.301-.932-1.091-.92-.919-.932-.928-.985-.788z"/></svg>