<svg xmlns="http://www.w3.org/2000/svg" width="32" height="32"><path d="M4.33 5.789a1.334 1.334 0 0 1 1.749-.228l.133.102L27.545 24.33a1.333 1.333 0 0 1-1.624 2.109l-.133-.102-3.551-3.107c-1.821.863-3.926 1.437-6.232 1.437-7.767 0-13.338-6.612-13.338-8.667 0-1.153 1.769-3.743 4.687-5.793L4.455 7.67a1.333 1.333 0 0 1-.125-1.881zM10.667 16a5.333 5.333 0 0 0 8.341 4.404l-2.766-2.419A2 2 0 0 1 14 16.023l-2.766-2.42A5.315 5.315 0 0 0 10.666 16zm5.338-8.667c7.796 0 13.328 6.612 13.328 8.667 0 .848-.937 2.472-2.588 4.087l-5.456-4.775a5.335 5.335 0 0 0-5.02-4.639l-.291-.007-3.333-2.916a13.815 13.815 0 0 1 3.359-.418z"/></svg>