<svg xmlns="http://www.w3.org/2000/svg" width="32" height="32" fill="none"><path fill="#000" d="M16.35 21.8c1.6 0 3-.6 4.2-1.7 1.2-1.2 1.7-2.6 1.7-4.2s-.6-3-1.7-4.2-2.5-1.7-4.2-1.7-3 .6-4.2 1.7-1.7 2.5-1.7 4.2.6 3 1.7 4.2 2.6 1.7 4.2 1.7m0-2.4c-1 0-1.8-.3-2.5-1s-1-1.5-1-2.5.3-1.8 1-2.5 1.5-1 2.5-1 1.8.3 2.5 1 1 1.5 1 2.5-.3 1.8-1 2.5c-.6.7-1.5 1-2.5 1m0 6.4c-3.2 0-6.1-.9-8.8-2.7-2.4-1.6-4.2-3.8-5.4-6.4q-.3-.75 0-1.5c1.2-2.7 3-4.8 5.4-6.4 2.7-1.9 5.6-2.8 8.8-2.8s6.1.9 8.8 2.7c2.4 1.6 4.2 3.8 5.4 6.4q.3.75 0 1.5c-1.2 2.7-3 4.8-5.4 6.4-2.7 1.9-5.6 2.8-8.8 2.8m0-2.7c2.5 0 4.8-.7 6.8-2 1.7-1.1 3.1-2.5 4.2-4.3.4-.6.4-1.4 0-2-1.1-1.7-2.5-3.2-4.2-4.3-2.1-1.3-4.4-2-6.8-2s-4.8.7-6.8 2c-1.8 1.2-3.2 2.6-4.2 4.4-.4.6-.4 1.4 0 2 1.1 1.7 2.5 3.2 4.2 4.3 2.1 1.3 4.3 1.9 6.8 1.9"/></svg>