<svg xmlns="http://www.w3.org/2000/svg" width="32" height="32" fill="none"><path fill="#000" d="M2.765 2.19c-.208.103-.52.206-.623.412-.415.513-.415.924-.104 1.438.104.103 6.02 5.96 13.08 13.051 9.03 8.94 12.975 12.846 13.183 12.846.52.205 1.246-.103 1.66-.72.312-.41.312-.72 0-1.13-.103-.206-1.037-1.13-2.49-2.57l-2.284-2.26.623-.514c1.66-1.233 3.218-2.98 4.463-4.83.52-.822.727-1.336.727-2.055 0-.925-.208-1.439-.83-2.26-2.077-2.775-4.88-5.036-7.786-6.27-2.076-.924-4.048-1.335-6.436-1.335-2.284 0-4.256.41-6.228 1.233l-.52.103-2.594-2.467C3.49 1.78 3.49 1.78 2.765 2.19M17.4 8.562q5.138.615 9.032 4.624c.934.925 1.868 2.158 1.972 2.467 0 .308-.104.513-.727 1.438-1.038 1.439-2.387 2.877-3.737 3.802l-.726.514-1.765-1.747.207-.41c.52-.926.83-1.953.727-2.98 0-.823-.104-1.234-.311-2.056-.623-2.056-2.284-3.494-4.36-4.213-.52-.206-.623-.206-1.765-.206s-1.246 0-1.765.206c-.311.102-.83.308-1.142.513l-.622.103-.623-.617-.623-.616s.311-.103.727-.206c.83-.205 1.66-.41 2.595-.513.727-.206 2.18-.206 2.906-.103M5.152 10c-1.142.924-2.803 2.671-3.53 3.802-.207.308-.31.616-.414.925C1 15.138 1 15.24 1 15.858c0 .822.208 1.13.83 2.055 3.737 5.55 9.447 8.632 15.26 8.119 1.453-.103 3.218-.514 4.152-.823l.208-.102-2.076-2.056-.312.103c-.934.206-1.453.308-3.01.308s-1.869 0-3.114-.308c-3.218-.822-6.229-2.98-8.512-6.166-.623-.822-.83-1.13-.727-1.438.104-.514 1.972-2.672 3.114-3.597a5 5 0 0 0 .623-.514c.104-.103 0-.205-.83-1.027-.52-.412-.935-.823-.935-.823s-.311.206-.519.412m11.627 2.363c1.453.308 2.595 1.439 2.906 2.98.104.617.104 1.336-.104 1.953l-.104.41-5.086-5.035.208-.102a3.16 3.16 0 0 1 2.18-.206m-6.955 1.541c-.312 1.028-.416 2.467-.104 3.495.519 2.466 2.491 4.316 4.879 4.83 1.038.205 2.491.205 3.529-.206.208-.103.208-.103-.934-1.13-1.038-1.028-1.142-1.131-1.35-1.131-.311 0-1.142-.206-1.66-.411-.623-.308-1.35-1.028-1.558-1.644-.207-.514-.415-1.13-.415-1.542 0-.205-.207-.308-1.142-1.336-1.142-1.027-1.142-1.027-1.245-.925"/></svg>