<svg xmlns="http://www.w3.org/2000/svg" width="32" height="32"><path d="M15.125.954a1.793 1.793 0 0 0-.778.87l-3.574 8.486-9.14.781A1.793 1.793 0 0 0-.001 13.03l.028.196c.077.387.28.741.58 1.003l6.951 6.064-2.087 9.009a1.793 1.793 0 0 0 1.342 2.152l.197.034a1.79 1.79 0 0 0 1.139-.249l7.85-4.771 7.85 4.771c.846.514 1.95.245 2.464-.601l.094-.176c.168-.361.211-.769.12-1.16l-2.088-9.009 6.953-6.064a1.793 1.793 0 0 0 .173-2.53l-.138-.142a1.794 1.794 0 0 0-1.061-.466l-9.141-.781-3.572-8.486a1.794 1.794 0 0 0-2.349-.957l-.179.088zM16 4.769l2.972 7.061.078.163a1.79 1.79 0 0 0 1.422.928l7.616.649-5.795 5.056-.141.138a1.793 1.793 0 0 0-.427 1.619l1.737 7.498-6.53-3.968-.176-.094a1.794 1.794 0 0 0-1.687.094l-6.531 3.968 1.738-7.498.034-.194a1.795 1.795 0 0 0-.602-1.562l-5.796-5.056 7.617-.649a1.793 1.793 0 0 0 1.5-1.091l2.972-7.061z"/></svg>