<svg xmlns="http://www.w3.org/2000/svg" width="32" height="32"><path d="m31.392 14.229-6.95 6.063 2.087 9.008c.092.392.046.8-.121 1.158l-.096.175a1.79 1.79 0 0 1-2.462.6L16 26.466l-7.85 4.771a1.797 1.797 0 0 1-1.138.25l-.196-.033A1.793 1.793 0 0 1 5.474 29.3l2.083-9.008-6.95-6.063a1.788 1.788 0 0 1-.579-1.004l-.029-.196a1.797 1.797 0 0 1 1.633-1.942l9.142-.779 3.575-8.488c.154-.371.429-.675.779-.871l.179-.088a1.798 1.798 0 0 1 2.35.958l3.571 8.488 9.142.779c.396.033.771.2 1.063.467l.137.142c.646.75.567 1.883-.179 2.533z"/></svg>