<svg xmlns="http://www.w3.org/2000/svg" width="32" height="32"><path d="m15.638 3.98.698.382a9.804 9.804 0 0 0 8.16.406l1.675-.669a1.333 1.333 0 0 1 1.828 1.238v13.376c0 .548-.335 1.04-.846 1.241l-1.674.658a12.58 12.58 0 0 1-10.421-.555l-.717-.388a8.722 8.722 0 0 0-7.676-.129v9.794a1.333 1.333 0 0 1-2.657.155l-.009-.155v-24c0-.113.014-.223.041-.328l.052-.157c.125-.327.381-.594.704-.736l.467-.231a11.372 11.372 0 0 1 10.375.099zm-8.97 2.184-.001 10.502.402-.13a11.389 11.389 0 0 1 8.546.788l.718.389a9.916 9.916 0 0 0 8.172.417l.829-.326v-10.5l-.405.148a12.471 12.471 0 0 1-9.878-.753l-.702-.384a8.702 8.702 0 0 0-7.68-.151z"/></svg>