<svg xmlns="http://www.w3.org/2000/svg" width="24" height="24" fill="none" viewBox="0 0 24 24"><path fill="#fff" d="M12 1.17a.83.83 0 0 1 .83.83v20a.83.83 0 0 1-1.66 0V2a.83.83 0 0 1 .83-.83M16 19a1 1 0 1 1 0 2 1 1 0 0 1 0-2m4 0a1 1 0 1 1 0 2 1 1 0 0 1 0-2M8 3.17a.83.83 0 0 1 0 1.66H5a.17.17 0 0 0-.17.17v14c0 .094.076.17.17.17h3a.83.83 0 0 1 0 1.66H5A1.83 1.83 0 0 1 3.17 19V5c0-1.01.82-1.83 1.83-1.83zM20 15a1 1 0 1 1 0 2 1 1 0 0 1 0-2m0-4a1 1 0 1 1 0 2 1 1 0 0 1 0-2m0-4a1 1 0 1 1 0 2 1 1 0 0 1 0-2m-4-4a1 1 0 1 1 0 2 1 1 0 0 1 0-2m4 0a1 1 0 1 1 0 2 1 1 0 0 1 0-2"/></svg>