<svg xmlns="http://www.w3.org/2000/svg" width="32" height="32"><path d="M12.505 2.667a3.33 3.33 0 0 1 2.163.797l.194.179 2.828 2.828c.1.1.229.165.366.187l.105.008h7.172a5.334 5.334 0 0 1 5.327 5.067l.007.266v12a5.334 5.334 0 0 1-5.067 5.327l-.266.007H6.667a5.334 5.334 0 0 1-5.327-5.067L1.333 24V8A5.334 5.334 0 0 1 6.4 2.673l.266-.007h5.838zm0 2.666H6.667a2.666 2.666 0 0 0-2.659 2.468L4.001 8v16a2.666 2.666 0 0 0 2.468 2.659l.199.007h18.667a2.666 2.666 0 0 0 2.659-2.468l.007-.199v-12a2.666 2.666 0 0 0-2.468-2.659l-.199-.007h-7.172a3.33 3.33 0 0 1-2.163-.797l-.194-.179-2.828-2.828a.668.668 0 0 0-.367-.187l-.105-.008zm12.828 8a1.333 1.333 0 0 1 .155 2.657l-.155.009H6.666a1.333 1.333 0 0 1-.155-2.657l.155-.009h18.667z"/></svg>