<svg xmlns="http://www.w3.org/2000/svg" width="32" height="32"><path d="M15.089 2.647c-.514.263-.768.73-.886.957a12.35 12.35 0 0 0-.406.925l-5.032 12.3a1.334 1.334 0 0 0 2.468 1.01l1.297-3.171h6.937l1.297 3.171a1.333 1.333 0 1 0 2.468-1.01L18.2 4.529a12.125 12.125 0 0 0-.406-.925c-.117-.227-.372-.694-.886-.957a1.998 1.998 0 0 0-1.822 0zM16 6.188 18.378 12h-4.755l2.378-5.812zm-5.999-.855a1.333 1.333 0 0 0-.002-2.666c-.975.001-1.793.006-2.473.071-.696.066-1.339.2-1.947.51a5.331 5.331 0 0 0-2.331 2.331c-.33.647-.461 1.336-.522 2.085-.059.722-.059 1.607-.059 2.681v18.988a1.335 1.335 0 0 0 2.276.943l4.084-4.084c.506-.506.612-.599.715-.663.119-.073.249-.127.385-.16.118-.028.258-.037.974-.037h10.554c1.073 0 1.959 0 2.681-.059.749-.061 1.438-.193 2.086-.522a5.337 5.337 0 0 0 2.331-2.331c.33-.647.461-1.336.522-2.086.059-.722.059-1.607.059-2.681v-7.31c0-1.073 0-1.959-.059-2.681-.061-.749-.193-1.438-.522-2.085a5.331 5.331 0 0 0-2.331-2.331c-.608-.31-1.251-.444-1.947-.51-.68-.065-1.498-.07-2.473-.071A1.333 1.333 0 1 0 22 5.331c1.002.001 1.69.008 2.223.059.517.049.793.132.989.231.502.256.91.664 1.165 1.165.106.209.193.507.241 1.092.049.6.05 1.377.05 2.519v7.2c0 1.142-.001 1.919-.05 2.519-.048.585-.134.883-.241 1.092-.256.502-.664.91-1.165 1.165-.209.106-.507.193-1.092.241-.6.049-1.377.05-2.519.05h-10.61c-.543 0-1.021-.001-1.485.111-.408.098-.798.26-1.156.479-.407.25-.745.588-1.129.972l-.078.079-1.808 1.807V10.398c0-1.142.001-1.918.05-2.519.048-.585.134-.883.241-1.092.256-.502.664-.91 1.165-1.165.195-.099.471-.182.989-.231.533-.051 1.221-.058 2.223-.059z"/></svg>