<svg xmlns="http://www.w3.org/2000/svg" width="32" height="32"><path d="M5.333 8a1.333 1.333 0 0 0 0 2.666h1.333a1.333 1.333 0 0 0 0-2.666H5.333zM12 8a1.333 1.333 0 0 0 0 2.666h14.667a1.333 1.333 0 0 0 0-2.666H12zm0 6.667a1.333 1.333 0 0 0 0 2.666h14.667a1.333 1.333 0 0 0 0-2.666H12zm-1.333 8c0-.736.597-1.333 1.333-1.333h14.667a1.333 1.333 0 0 1 0 2.666H12a1.333 1.333 0 0 1-1.333-1.333zM4 16c0-.736.597-1.333 1.333-1.333h1.333a1.333 1.333 0 0 1 0 2.666H5.333A1.333 1.333 0 0 1 4 16zm1.333 5.333a1.333 1.333 0 0 0 0 2.666h1.333a1.333 1.333 0 0 0 0-2.666H5.333z"/></svg>