<svg xmlns="http://www.w3.org/2000/svg" width="32" height="32"><path d="m15.995 5.34-.095.12c-.36.481-.474.973-.509 1.978l-.011.547-.002.31-.001 1.416C7.729 10.232 3.69 15.294 2.362 22.55l-.193 1.064-.097.582-.043.305-.025.249-.008.204c0 .124.012.224.035.315l.042.13.059.126.165.279c.366.591.951.93 1.646.955l.293.008.125-.006a.992.992 0 0 0 .374-.111l.149-.084.174-.115.099-.071.492-.385 1.382-1.155.298-.243c2.016-1.596 4.606-2.633 7.868-2.876l.18-.011.001 1.323.007.597c.026 1.279.142 1.8.611 2.363a2.666 2.666 0 0 0 2.184.955l.235-.019c.409-.046.717-.169 1.183-.521l.271-.215.311-.266.564-.507 8.163-7.545.284-.275c.415-.417.559-.649.703-1.069a2.664 2.664 0 0 0 0-1.728c-.129-.378-.259-.604-.586-.949l-.25-.251-.513-.482-7.801-7.208-.564-.507-.312-.266a8.995 8.995 0 0 0-.14-.114l-.254-.192c-.399-.283-.687-.389-1.059-.431l-.235-.018a2.666 2.666 0 0 0-2.184.955zm2.088 1.8.327.264.268.236.708.649 7.974 7.379-.627.586-7.979 7.37-.396.349-.215.174-.06.045-.013-.158-.014-.258-.011-.527-.002-2.916c0-.736-.597-1.333-1.333-1.333-4.798 0-8.573 1.422-11.398 3.802l-.339.285.012-.056c1.197-6.54 4.728-10.697 11.726-10.697.736 0 1.333-.597 1.333-1.333l.002-2.919.011-.524.014-.257.013-.159z"/></svg>