<svg xmlns="http://www.w3.org/2000/svg" width="32" height="32" fill="none"><path d="M2.344 7.91c-.495 0-.639.78-.188.982l13.346 5.882c.33.149.71.149 1.041 0l13.346-5.882c.45-.203.307-.983-.188-.983zm-.64 3.034c-.568-.028-.882.494-.597.963l1.133 1.756.006.01.197.305.233.36L13.514 31.13c.514.75 1.411.586 1.425-.315l.028-13.37c0-.197-.02-.35-.086-.477a.75.75 0 0 0-.32-.303l-.067-.035-12.361-5.57a1.15 1.15 0 0 0-.43-.116m28.593 0q-.198.009-.43.115l-12.361 5.57c-.39.195-.473.415-.473.815l.028 13.371c.014.901.91 1.065 1.425.315l12.407-19.223c.285-.469-.029-.991-.596-.963" style="fill:#000;fill-opacity:1;stroke-width:0;stroke-dasharray:none"/></svg>