<svg xmlns="http://www.w3.org/2000/svg" viewBox="0 0 32 32"><path d="M21.525 15.999c4.1-2.084 6.721-6.484 6.721-11.361 0-2.42-1.846-4.388-4.115-4.388H7.865C5.595.25 3.75 2.219 3.75 4.638c0 4.88 2.623 9.28 6.725 11.363-4.1 2.084-6.72 6.484-6.72 11.362 0 2.42 1.845 4.387 4.114 4.387h16.267c2.268 0 4.114-1.968 4.114-4.387 0-4.88-2.623-9.282-6.725-11.364m-6.004 1.22h.962c5.213 0 9.453 4.547 9.453 10.137 0 1.073-.807 1.946-1.8 1.946H7.869c-.993 0-1.8-.873-1.8-1.946 0-5.59 4.24-10.137 9.452-10.137m.958-2.445h-.963c-5.212 0-9.453-4.547-9.453-10.136 0-1.074.809-1.947 1.802-1.947h16.266c.993 0 1.801.873 1.801 1.947 0 5.59-4.24 10.136-9.453 10.136" class="st0"/><path d="M8.044 27.952q.12.027.24.026c.219 0 .435-.066.623-.195l6.868-4.668a.39.39 0 0 1 .446 0l6.866 4.667c.516.358 1.275.182 1.607-.377.335-.562.177-1.313-.352-1.674l-6.868-4.669a2.62 2.62 0 0 0-2.954.001l-6.867 4.668c-.53.36-.687 1.112-.352 1.674.168.284.432.479.743.547M23.19 6.253c-1.675-1.57-3.924-1.57-5.598 0l-.326.305c-.802.75-1.722.751-2.528-.001l-.324-.303c-1.674-1.57-3.925-1.57-5.6 0l-.862.807a1.27 1.27 0 0 0-.108 1.71c.204.25.488.4.801.421.313.011.61-.088.842-.304l.863-.809c.803-.752 1.725-.752 2.528 0l.325.305c.818.766 1.787 1.172 2.8 1.172s1.98-.405 2.797-1.17l.328-.308c.802-.75 1.721-.754 2.525 0l.854.799c.231.219.528.333.838.306.313-.019.6-.17.806-.421a1.273 1.273 0 0 0-.108-1.71z"/></svg>