<svg xmlns="http://www.w3.org/2000/svg" width="32" height="32" fill="none"><path fill="#000" d="M19.58 16C23.868 14.353 27 10.153 27 5.294A3.306 3.306 0 0 0 23.703 2H7.297A3.305 3.305 0 0 0 4 5.294C4 10.153 7.05 14.353 11.42 16 7.132 17.647 4 21.847 4 26.706A3.306 3.306 0 0 0 7.297 30h16.406A3.306 3.306 0 0 0 27 26.706c0-4.859-3.133-9.059-7.42-10.706M5.65 5.294c0-.906.742-1.647 1.648-1.647h16.406c.906 0 1.648.741 1.648 1.647 0 5.435-4.451 9.8-9.81 9.8-5.358 0-9.892-4.365-9.892-9.8m18.054 23.059H7.297a1.653 1.653 0 0 1-1.648-1.647c0-5.435 4.451-9.8 9.81-9.8 5.358 0 9.892 4.365 9.892 9.8 0 .906-.742 1.647-1.648 1.647"/><path fill="#000" d="m9.688 24.235.824 1.4 4.947-3.13 5.029 3.13.824-1.4-5.853-3.623zM19.498 9l.99.741.989-1.317-.99-.742c-1.154-.906-2.802-.906-4.039 0-.577.494-1.401.494-2.06 0a3.47 3.47 0 0 0-4.123 0l-.824.742.99 1.317.906-.741a1.62 1.62 0 0 1 2.06 0c1.155.906 2.886.906 4.04 0 .66-.412 1.484-.412 2.061 0"/></svg>