<svg xmlns="http://www.w3.org/2000/svg" width="32" height="32"><path d="M6.667 18.667C7.403 18.667 8 19.264 8 20v4h4a1.333 1.333 0 0 1 0 2.666H6.667a1.333 1.333 0 0 1-1.333-1.333V20c0-.736.597-1.333 1.333-1.333zm18.666 0c.684 0 1.247.515 1.324 1.178l.009.155v5.333c0 .684-.515 1.247-1.178 1.324l-.155.009H20a1.333 1.333 0 0 1-.155-2.657L20 24h4v-4c0-.736.597-1.333 1.333-1.333zM6.667 5.333H12a1.333 1.333 0 0 1 .155 2.657L12 7.999H8v4a1.333 1.333 0 0 1-2.657.155l-.009-.155V6.666c0-.684.515-1.247 1.178-1.324l.155-.009zm18.666 0c.736 0 1.333.597 1.333 1.333v5.333a1.333 1.333 0 0 1-2.666 0v-4h-4a1.333 1.333 0 0 1 0-2.666h5.333z"/></svg>