<svg xmlns="http://www.w3.org/2000/svg" width="32" height="32"><path d="M21.333 1.333a9.333 9.333 0 0 1 9.333 9.333v10.667a9.333 9.333 0 0 1-9.333 9.333H10.666a9.333 9.333 0 0 1-9.333-9.333V10.666a9.333 9.333 0 0 1 9.333-9.333zm0 2.667H10.666a6.667 6.667 0 0 0-6.667 6.667v10.667a6.667 6.667 0 0 0 6.667 6.667h10.667A6.667 6.667 0 0 0 28 21.334V10.667A6.667 6.667 0 0 0 21.333 4zm3.334 7.333a1.333 1.333 0 0 1 .155 2.657l-.155.009h-2v1.333h2a1.333 1.333 0 0 1 .155 2.657l-.155.009h-2v1.333c0 .684-.515 1.247-1.178 1.324l-.155.009a1.333 1.333 0 0 1-1.324-1.178l-.009-.155v-6a2 2 0 0 1 1.807-1.991l.193-.009h2.667zm-7.334 0c.684 0 1.247.515 1.324 1.178l.009.155v6.667a1.333 1.333 0 0 1-2.657.155L16 19.333v-6.667c0-.736.597-1.333 1.333-1.333zm-6.666 0c.758 0 1.494.182 2.153.526a1.333 1.333 0 0 1-1.089 2.429l-.142-.064A2 2 0 1 0 10.667 18c.528 0 1.006-.22 1.316-.562l.084-.104H12a1.333 1.333 0 0 1-1.324-1.178l-.009-.155c0-.684.515-1.247 1.178-1.324l.155-.009 1.409.004.042.003c.894.08 1.568.825 1.579 1.703l-.007.177-.059.585c-.405 2.13-2.237 3.528-4.297 3.528a4.667 4.667 0 0 1 0-9.334z"/></svg>