<svg xmlns="http://www.w3.org/2000/svg" xml:space="preserve" viewBox="0 0 32 32"><path d="M22.4 16.4c-3.3 0-6 2.7-6 6s2.7 6 6 6 6-2.7 6-6-2.7-6-6-6m3.2 6.8-2.2 2.2c-.4.4-1.1.4-1.6 0-.4-.4-.4-1.1 0-1.6l.4-.4h-2.6c-.6 0-1.1-.5-1.1-1.1s.5-1.1 1.1-1.1h2.6l-.3-.2c-.4-.4-.4-1.1 0-1.6.4-.4 1.1-.4 1.6 0l2.2 2.2c.4.5.4 1.2-.1 1.6M22.4 10l-2.8-6.5h4.8c.5 0 1 .3 1.3.7l4.1 5.8zm-1.3 1.6-.9 3.2c-3.3 1-5.8 4-5.8 7.7 0 .6.1 1.2.2 1.8l-3.7-12.6h10.2zM11.3 10l2.3-5.5c.3-.6.8-1 1.5-1h1.6c.6 0 1.2.4 1.5 1l2.3 5.5zm19.1 1.6L27.1 16c-1.3-.9-2.9-1.5-4.7-1.5h-.5l.8-2.9zm-21 .7L14 27.9 1.6 11.6h7.7zm.2-2.3H2.1l4.1-5.8c.4-.4.8-.7 1.4-.7h4.8z"/></svg>