<svg xmlns="http://www.w3.org/2000/svg" width="32" height="32"><path d="M28.688 10.271c-.896-1.037-2.204-1.613-3.692-1.621h-1.112a6.985 6.985 0 0 0 1.133-1.8c.571-1.354.483-2.638-.238-3.517-.558-.679-1.712-1.392-4.054-.917-2.025.408-3.346 1.792-4.1 2.879-.221.317-.417.65-.592.992a9.11 9.11 0 0 0-.592-.992c-.758-1.087-2.079-2.471-4.104-2.879-2.342-.475-3.496.237-4.054.917-.721.879-.808 2.163-.237 3.517a7.08 7.08 0 0 0 1.133 1.8H7.071c-1.487.008-2.796.583-3.692 1.621-.788.912-1.217 2.117-1.208 3.4s.45 2.483 1.25 3.387c.183.208.383.396.596.563v8.629c0 .058.004.121.013.179.279 2.1 1.633 3.308 3.712 3.308h16.58c2.079 0 3.433-1.208 3.717-3.308.008-.058.012-.121.012-.179v-8.629a4.45 4.45 0 0 0 .596-.563c.8-.904 1.242-2.104 1.25-3.387s-.421-2.488-1.208-3.4zM18.663 7.054c.4-.642 1.271-1.754 2.592-2.021.933-.188 1.363-.071 1.458-.008.029.088.046.5-.35 1.188-.617 1.071-1.988 2.288-3.546 2.425l-.1.012h-.758a5.7 5.7 0 0 1 .704-1.596zM9.354 5.025c.096-.063.525-.179 1.458.008 1.321.267 2.192 1.379 2.592 2.021.383.612.596 1.179.7 1.596h-.754l-.1-.012c-1.558-.137-2.929-1.354-3.546-2.425-.396-.688-.379-1.1-.35-1.188zm17.538 9.933c-.392.671-1.033 1.008-1.917 1.008h-1.05a1.332 1.332 0 1 0 0 2.666h1.046c.137 0 .275-.004.413-.017v7.542c-.05.313-.121.542-.279.692s-.4.221-.783.221h-6.913v-2.188c0-.738-.596-1.333-1.333-1.333h-.084c-.738 0-1.333.596-1.333 1.333v2.188H7.747c-.383 0-.629-.071-.783-.221-.158-.15-.229-.379-.279-.692v-7.542c.133.008.271.017.408.017h1.046a1.332 1.332 0 1 0 0-2.666h-1.05c-.883 0-1.525-.338-1.917-1.008-.45-.767-.454-1.842-.013-2.612.388-.679 1.033-1.025 1.921-1.029h17.904c.887.004 1.533.35 1.921 1.029.442.771.438 1.846-.012 2.613zm-10.821 14.78h-.079.08z"/><path d="m15.654 21.788-2.679 1.642a.59.59 0 0 1-.813-.196.604.604 0 0 1-.071-.454l.417-1.633a2.065 2.065 0 0 1 1.1-1.346l2.921-1.404a.277.277 0 0 0 .129-.367.274.274 0 0 0-.292-.15l-3.254.563a2.28 2.28 0 0 1-1.854-.5l-1.029-.858a.59.59 0 0 1 .333-1.041l3.137-.246a.59.59 0 0 0 .5-.363l1.213-2.925a.592.592 0 0 1 1.092 0l1.212 2.925a.591.591 0 0 0 .5.363l3.158.246a.587.587 0 0 1 .542.637.6.6 0 0 1-.204.404l-2.408 2.054a.592.592 0 0 0-.192.587l.742 3.075a.592.592 0 0 1-.884.641l-2.7-1.654a.586.586 0 0 0-.617 0z"/></svg>