<svg xmlns="http://www.w3.org/2000/svg" width="32" height="32"><path d="M11.002 15.286a5 5 0 1 1 0-10 5 5 0 0 1 0 10m-10 8.606c0-.96.239-1.918.92-2.595C3.2 20.027 5.947 18.143 11 18.143c5.052 0 7.802 1.885 9.08 3.154.68.676.919 1.635.919 2.595a2.823 2.823 0 0 1-2.804 2.822H3.823A2.823 2.823 0 0 1 1 23.892zm21.537 2.822a5.17 5.17 0 0 0 .833-2.822c0-1.295-.316-2.983-1.62-4.277l-.03-.028q.345-.015.707-.015c4.325 0 6.681 1.567 7.779 2.625.584.563.792 1.374.792 2.185a2.33 2.33 0 0 1-2.332 2.333zm-.11-9.999a4.285 4.285 0 1 1 0-8.57 4.285 4.285 0 0 1 0 8.57" /></svg>
