<svg xmlns="http://www.w3.org/2000/svg" width="32" height="32"><path d="M8 9.333a2.667 2.667 0 1 1 5.334 0 2.667 2.667 0 0 1-5.334 0zM10.667 4a5.333 5.333 0 1 0 0 10.666 5.333 5.333 0 0 0 0-10.666zM3.131 21.224c.96-.953 3.194-2.557 7.536-2.557s6.576 1.604 7.536 2.557c.285.283.464.768.464 1.475 0 .719-.583 1.301-1.301 1.301H3.969a1.301 1.301 0 0 1-1.301-1.301c0-.707.179-1.191.464-1.475zM10.667 16c-5.09 0-7.988 1.915-9.415 3.332C.267 20.31 0 21.615 0 22.699a3.968 3.968 0 0 0 3.968 3.968h13.397a3.969 3.969 0 0 0 3.968-3.968c0-1.084-.267-2.389-1.252-3.367C18.654 17.915 15.757 16 10.666 16zm11.334 2.433a1.332 1.332 0 0 1 1.389-1.275c3.977.17 6.298 1.721 7.48 2.895.895.888 1.13 2.066 1.13 3.021a3.592 3.592 0 0 1-3.592 3.592H24A1.333 1.333 0 0 1 24 24h4.408a.925.925 0 0 0 .925-.925c0-.579-.147-.936-.342-1.129-.748-.743-2.453-1.984-5.715-2.123a1.332 1.332 0 0 1-1.275-1.389zm-1.334-7.1a2 2 0 1 1 3.999-.001 2 2 0 0 1-3.999.001zm2-4.666a4.667 4.667 0 1 0 0 9.334 4.667 4.667 0 0 0 0-9.334z"/></svg>