<svg xmlns="http://www.w3.org/2000/svg" width="44" height="32"><path d="M15.33 15.009a7.105 7.105 0 1 1 .001-14.21 7.105 7.105 0 0 1-.001 14.21zM1.122 27.236c0-1.363.339-2.725 1.306-3.686 1.817-1.804 5.722-4.482 12.901-4.482s11.085 2.678 12.901 4.482c.967.96 1.306 2.322 1.306 3.686a4.011 4.011 0 0 1-3.984 4.01H5.13a4.011 4.011 0 0 1-4.011-4.01zm30.601 4.01a7.346 7.346 0 0 0 1.184-4.01c0-1.839-.45-4.238-2.302-6.076l-.042-.041c.326-.013.66-.02 1.004-.02 6.145 0 9.493 2.226 11.052 3.729.83.8 1.126 1.952 1.126 3.105a3.314 3.314 0 0 1-3.314 3.314h-8.708zm-.156-14.207a6.089 6.089 0 1 1 0-12.178 6.089 6.089 0 0 1 0 12.178z"/></svg>