<svg xmlns="http://www.w3.org/2000/svg" width="32" height="32"><path d="M22.88 26.56h-5.44v-5.6l-2.72-2.72v8.16h-5.6c-.8 0-1.28-.16-1.6-.32s-1.44-.96-1.76-1.76c-.16-.32-.32-.8-.32-1.6V9.12L3.2 6.88c-.32.64-.32 1.28-.48 2.08v14.08c0 .96.32 1.76.64 2.56a6.28 6.28 0 0 0 2.88 2.88c.8.32 1.6.64 2.56.64h14.08c.8 0 1.44-.16 2.08-.32l-2.08-2.24zm6.08.48-.8-.64c.16-.16.32-.48.32-.64.32-.8.64-1.6.64-2.56V8.96c0-.96-.32-1.76-.64-2.56a6.28 6.28 0 0 0-2.88-2.88c-.8-.32-1.6-.64-2.56-.64H8.96c-.96 0-1.92.16-2.72.48-.16.16-.32.32-.64.48l-.64-.8c-.48-.48-1.44-.48-1.92 0s-.48 1.44 0 1.92l.8.64L26.4 28.16l.64.8c.32.32.64.32.96.32s.64-.16.96-.32c.48-.48.48-1.44 0-1.92zM14.72 12.8 7.68 5.76c.32-.16.8-.32 1.6-.32h5.44v7.36zm12 6.72v3.36c0 .8-.16 1.12-.32 1.6l-7.2-7.2h7.52v2.24zm0-4.8h-9.28V5.28h5.44c.8 0 1.28.16 1.6.32s1.44.96 1.76 1.76c.16.32.32.8.32 1.6v5.76z"/></svg>