<svg xmlns="http://www.w3.org/2000/svg" width="32" height="32"><path d="M29.28 8.96c0-.96-.32-1.76-.64-2.56a6.28 6.28 0 0 0-2.88-2.88c-.8-.32-1.6-.64-2.56-.64H8.96c-.96 0-1.92.16-2.72.48a6.28 6.28 0 0 0-2.88 2.88c-.32.8-.48 1.76-.64 2.72v14.08c0 .96.32 1.76.64 2.56a6.28 6.28 0 0 0 2.88 2.88c.8.32 1.6.64 2.56.64h14.08c.96 0 1.76-.32 2.56-.64a6.28 6.28 0 0 0 2.88-2.88c.32-.8.64-1.6.64-2.56V12.48c.32-1.44.32-2.56.32-3.52zm-12-3.68h5.44c.8 0 1.28.16 1.6.32s1.44.96 1.76 1.76c.16.32.32.8.32 1.6v5.44h-9.28V5.28zm-2.56 21.44h-5.6c-.8 0-1.28-.16-1.6-.32s-1.44-.96-1.76-1.76c-.16-.32-.32-.8-.32-1.6V9.12c0-.8.16-1.28.32-1.6s.96-1.44 1.76-1.76c.32-.16.8-.32 1.6-.32h5.44v21.28zm12-7.2v3.36c0 .8-.16 1.28-.32 1.6s-.96 1.44-1.76 1.76c-.32.16-.8.32-1.6.32H17.6v-9.28h9.28v2.24z"/></svg>