<svg xmlns="http://www.w3.org/2000/svg" viewBox="0 0 32 32"><path d="M29.414 12.344c-1.333-.661-3.035-.23-3.894 1.01l-1.098 2.142-.002-9.994a3.24 3.24 0 0 0-.847-2.357c-.61-.67-1.477-1.061-2.452-1.104-.529 0-1.044.125-1.51.363a3.307 3.307 0 0 0-6.212.046 3.3 3.3 0 0 0-1.494-.357A3.31 3.31 0 0 0 8.6 5.396v.656a3.308 3.308 0 0 0-4.61 3.035V19.69c0 6.65 5.41 12.06 12.06 12.06h.925c4.314 0 8.236-2.548 9.99-6.49l3.917-8.812a3.143 3.143 0 0 0-1.47-4.104M9.6 17.45c.8 0 1.451-.651 1.451-1.451V5.396a.854.854 0 0 1 1.707 0v9.681c0 .8.652 1.451 1.451 1.451s1.452-.651 1.452-1.45V3.553a.854.854 0 0 1 1.707 0v11.523c0 .8.65 1.451 1.45 1.451s1.451-.651 1.451-1.45c0-.097-.002-9.543.001-9.784.02-.443.383-.803.796-.804.281.013.528.12.695.304.152.166.222.38.21.65l.001 14.241c0 .42.16.791.468 1.079.268.239.634.377 1.002.377.556 0 1.036-.3 1.282-.801l2.809-5.592a.62.62 0 0 1 .788-.211.7.7 0 0 1 .324.915l-3.919 8.813a8.49 8.49 0 0 1-7.75 5.035h-.925c-5.299 0-9.61-4.31-9.61-9.61V9.087a.855.855 0 0 1 1.709 0V16c0 .8.65 1.451 1.45 1.451"/></svg>