<svg xmlns="http://www.w3.org/2000/svg" width="32" height="32"><path d="M17.75 4.875a2.833 2.833 0 0 1 3.933 2.612v7.304l.354-.713a2.637 2.637 0 0 1 3.542-1.179 2.714 2.714 0 0 1 1.267 3.533L23.7 23.507a8.962 8.962 0 0 1-8.183 5.321h-.742c-5.442-.004-9.858-4.421-9.858-9.867v-8.512A2.833 2.833 0 0 1 7.75 7.616c.3 0 .592.046.867.133v-.263a2.833 2.833 0 0 1 3.933-2.612 2.843 2.843 0 0 1 2.6-1.704 2.847 2.847 0 0 1 2.6 1.704zm.238 2.612v7.771c0 .542-.442.983-.983.983s-.983-.442-.983-.983v-9.25a.866.866 0 1 0-1.734 0v9.25c0 .542-.442.983-.983.983s-.983-.442-.983-.983V7.487a.866.866 0 1 0-1.734 0v8.512c0 .542-.442.983-.983.983s-.983-.442-.983-.983v-5.55a.866.866 0 1 0-1.734 0v8.512a7.896 7.896 0 0 0 7.896 7.896h.742a6.991 6.991 0 0 0 6.388-4.15l3.146-7.075a.745.745 0 0 0-.35-.971.668.668 0 0 0-.9.3l-2.225 4.438c-.462.929-1.867.6-1.867-.442V7.486a.866.866 0 1 0-1.73 0z"/></svg>