<svg xmlns="http://www.w3.org/2000/svg"  viewBox="0 0 32 32"><path d="M6.921 7.047A2.05 2.05 0 0 0 4.868 9.03l-.001 10.644c0 5.96 4.85 10.81 10.81 10.81h.925a9.7 9.7 0 0 0 8.846-5.747l3.92-8.814a1.893 1.893 0 0 0-.883-2.475 1.819 1.819 0 0 0-2.323.616l-.043.062-2.841 5.66c-.05.098-.113.138-.21.138a.32.32 0 0 1-.202-.071c-.045-.042-.068-.095-.068-.185V5.43a2 2 0 0 0-.524-1.459 2.18 2.18 0 0 0-1.526-.694 2.053 2.053 0 0 0-2.051 1.95c-.004.262-.002 8.435-.002 9.68v.157c0 .135-.116.25-.251.25a.25.25 0 0 1-.25-.251V3.539c-.036-1.115-.907-1.986-1.983-2.024h-.003c-1.181 0-2.082.87-2.12 1.981l-.002 11.567c0 .136-.115.25-.252.25a.254.254 0 0 1-.25-.25V5.381c-.038-1.117-.909-1.987-1.984-2.024h-.002c-1.184 0-2.083.872-2.12 1.984l-.001 10.643c0 .136-.115.25-.251.25a.248.248 0 0 1-.25-.25V9.074c-.038-1.117-.91-1.989-1.985-2.025z" /></svg>