<svg xmlns="http://www.w3.org/2000/svg" width="32" height="32"><path d="M10.887 26.446a1.332 1.332 0 0 1-1.304-1.588l.817-3.821H8.075a1.333 1.333 0 0 1 0-2.666h2.838l.904-4.637H9.679a1.333 1.333 0 0 1 0-2.666h2.654l.933-4.433a1.328 1.328 0 0 1 1.296-1.079h.058a1.333 1.333 0 0 1 1.254 1.588l-.838 3.925h3.733l.933-4.433a1.328 1.328 0 0 1 1.558-1.054 1.332 1.332 0 0 1 1.046 1.563l-.837 3.925h2.458a1.333 1.333 0 0 1 0 2.666h-2.971l-.904 4.637h2.267a1.333 1.333 0 0 1 0 2.666h-2.788l-.913 4.329a1.328 1.328 0 0 1-1.558 1.054 1.332 1.332 0 0 1-1.046-1.563l.817-3.821h-3.733l-.912 4.329a1.326 1.326 0 0 1-1.242 1.079h-.058zm2.73-8.075h3.733l.904-4.637h-3.733l-.904 4.637z"/></svg>