<svg xmlns="http://www.w3.org/2000/svg" width="32" height="32" fill="none"><path fill="#000" d="M27.33 2.468A4.924 4.924 0 0 1 32 7.385v17.23l-.006.254a4.924 4.924 0 0 1-4.664 4.663l-.253.006H4.923l-.253-.006A4.925 4.925 0 0 1 .006 24.87L0 24.615V7.385a4.924 4.924 0 0 1 4.67-4.917l.253-.006h22.154zM4.923 4.923a2.46 2.46 0 0 0-2.461 2.462v17.23a2.46 2.46 0 0 0 2.46 2.462h22.155a2.46 2.46 0 0 0 2.461-2.462V7.385a2.46 2.46 0 0 0-2.46-2.462zm16 3.692a6.155 6.155 0 0 1 6.154 6.155V16l-.009.316a6.154 6.154 0 0 1-6.145 5.838H17.23V8.615zm-6.154 0c.68 0 1.23.551 1.23 1.23v11.078a1.23 1.23 0 1 1-2.46 0V17.23H7.383v3.692a1.23 1.23 0 0 1-2.462 0V9.846a1.231 1.231 0 0 1 2.462 0v4.924h6.154V9.846c0-.68.55-1.23 1.23-1.23m4.923 11.077h1.23A3.69 3.69 0 0 0 24.616 16v-1.23a3.69 3.69 0 0 0-3.692-3.693h-1.23z"/></svg>