<svg xmlns="http://www.w3.org/2000/svg" width="32" height="32"><path d="M28.738 11.075c-.204-2.629-1.712-4.783-4.037-5.763-1.396-.588-2.992-.717-4.625-.375-1.396.296-2.758.912-4.063 1.837-1.313-.938-2.683-1.563-4.092-1.858-1.629-.342-3.229-.213-4.625.371-2.325.979-3.833 3.133-4.037 5.763-.188 2.396.688 5.037 2.533 7.646 2.037 2.887 5.183 5.662 9.354 8.262a1.341 1.341 0 0 0 1.563.113c4.246-2.621 7.442-5.433 9.5-8.35 1.842-2.604 2.717-5.25 2.529-7.646zm-4.709 6.108c-1.738 2.462-4.433 4.871-8.012 7.167-3.596-2.304-6.3-4.721-8.046-7.192-1.867-2.646-2.146-4.671-2.05-5.904.129-1.642 1.008-2.921 2.413-3.513.892-.375 1.942-.45 3.042-.221 1.221.258 2.483.896 3.654 1.854a1.334 1.334 0 0 0 1.829.113c1.204-1.008 2.504-1.679 3.767-1.942 1.096-.229 2.15-.154 3.042.221 1.404.592 2.288 1.871 2.413 3.513.096 1.233-.183 3.258-2.05 5.904z"/></svg>