<svg xmlns="http://www.w3.org/2000/svg" width="32" height="32"><path d="M16 1.333c8.1 0 14.667 6.566 14.667 14.667S24.101 30.667 16 30.667C7.9 30.667 1.333 24.101 1.333 16S7.899 1.333 16 1.333zM16 4C9.373 4 4 9.373 4 16s5.373 12 12 12 12-5.373 12-12S22.627 4 16 4zm-.029 16.392c.899 0 1.627.691 1.627 1.572 0 .867-.742 1.572-1.627 1.572-.88 0-1.627-.714-1.627-1.572 0-.872.733-1.572 1.627-1.572zm.47-11.192c2.599 0 4.519 1.425 4.519 3.675 0 1.353-.575 2.209-1.898 3.147l-.667.454c-.833.584-1.143 1.017-1.143 1.642v.166c0 .653-.503 1.116-1.254 1.116-.789 0-1.226-.429-1.226-1.226v-.18c0-1.251.544-2.028 1.787-2.89l.457-.321c.999-.72 1.284-1.111 1.284-1.797 0-.987-.767-1.637-1.956-1.637-.84 0-1.478.393-1.947 1.171l-.36.456-.113.131c-.264.282-.533.4-.983.4-.58 0-1.074-.451-1.074-1.088 0-.235.038-.465.116-.731.441-1.45 2.182-2.488 4.458-2.488z"/></svg>