<svg xmlns="http://www.w3.org/2000/svg" width="31" height="32"><path d="M24.5 10.125a2.667 2.667 0 1 1-5.334 0 2.667 2.667 0 0 1 5.334 0z"/><path d="M20.604 1.992a9.4 9.4 0 0 0-9.4 9.4c0 1.058.175 2.071.496 3.021l-9.433 9.438a1.33 1.33 0 0 0-.392.942v4c0 .354.142.692.392.942s.587.392.942.392h4c.354 0 .692-.142.942-.392l.946-.946h2.558c.733 0 1.325-.592 1.325-1.325V25.26l2.287-.042c.733 0 1.325-.592 1.325-1.325v-2.6l.996-.996a9.4 9.4 0 0 0 12.417-8.904 9.4 9.4 0 0 0-9.4-9.4zm-3.583 15.104-2.754 2.754.021.012c.096-.1.213-.188.338-.254a1.331 1.331 0 0 0-.688 1.163v1.8l-2.108.042a1.324 1.324 0 0 0-1.504 1.292v2.238H8.497c-.504 0-.942.279-1.167.696a1.11 1.11 0 0 1 .067-.117l-.742.738H4.543v-2.113L14.906 14.98a6.705 6.705 0 0 1-1.033-3.588c0-1.8.7-3.487 1.971-4.763a6.69 6.69 0 0 1 4.762-1.971c1.8 0 3.488.7 4.762 1.971 1.271 1.271 1.971 2.962 1.971 4.763s-.7 3.488-1.971 4.762a6.69 6.69 0 0 1-4.762 1.971 6.681 6.681 0 0 1-3.583-1.029z"/></svg>