<svg xmlns="http://www.w3.org/2000/svg" width="32" height="32"><path d="M25.333 6.667a4 4 0 0 1 4 4v10.667a4 4 0 0 1-4 4H6.666a4 4 0 0 1-4-4V10.667a4 4 0 0 1 4-4zm0 2.666H6.666c-.736 0-1.333.597-1.333 1.333v10.667c0 .736.597 1.333 1.333 1.333h18.667c.736 0 1.333-.597 1.333-1.333V10.666c0-.736-.597-1.333-1.333-1.333zM20 18.667a1.333 1.333 0 0 1 0 2.666h-8a1.333 1.333 0 0 1 0-2.666h8zm-4-4a1.333 1.333 0 1 1 0 2.667 1.333 1.333 0 0 1 0-2.667zm-4 0a1.333 1.333 0 1 1 0 2.667 1.333 1.333 0 0 1 0-2.667zm-4 0a1.333 1.333 0 1 1 0 2.667 1.333 1.333 0 0 1 0-2.667zm12 0a1.333 1.333 0 1 1 0 2.667 1.333 1.333 0 0 1 0-2.667zm4 0a1.333 1.333 0 1 1 0 2.667 1.333 1.333 0 0 1 0-2.667zm-8-4a1.333 1.333 0 1 1 0 2.667 1.333 1.333 0 0 1 0-2.667zm-4 0a1.333 1.333 0 1 1 0 2.667 1.333 1.333 0 0 1 0-2.667zm-4 0a1.333 1.333 0 1 1 0 2.667 1.333 1.333 0 0 1 0-2.667zm12 0a1.333 1.333 0 1 1 0 2.667 1.333 1.333 0 0 1 0-2.667zm4 0a1.333 1.333 0 1 1 0 2.667 1.333 1.333 0 0 1 0-2.667z"/></svg>