<svg xmlns="http://www.w3.org/2000/svg" width="32" height="32"><path d="M16 1.333c6.627 0 12 5.373 12 12 0 4.183-2.279 7.583-6.667 10.119v3.214a4 4 0 0 1-4 4h-2.667a4 4 0 0 1-4-4v-3.214l-.405-.24c-4.122-2.507-6.262-5.824-6.262-9.879 0-6.627 5.373-12 12-12zm-2.667 25.334c0 .736.597 1.333 1.333 1.333h2.667c.736 0 1.333-.597 1.333-1.333h-5.333zM16 4a9.333 9.333 0 0 0-9.333 9.333c0 3.328 1.919 6.015 5.958 8.155.436.231.709.684.709 1.178v1.333h5.333v-1.333c0-.493.273-.947.708-1.178 4.039-2.143 5.958-4.83 5.958-8.155A9.333 9.333 0 0 0 16 4zm0 10.458 3.246-2.224a1.335 1.335 0 0 1 1.64 2.096l-.132.103-3.42 2.343V20c0 .684-.515 1.247-1.178 1.324l-.155.009a1.333 1.333 0 0 1-1.324-1.178L14.668 20v-3.223l-3.42-2.344a1.333 1.333 0 0 1-.432-1.71l.086-.144a1.333 1.333 0 0 1 1.71-.432l.144.086 3.246 2.224z"/></svg>