<svg xmlns="http://www.w3.org/2000/svg" width="32" height="32"><path d="m16.547 19.487-2.773-2.741.04-.04a23.37 23.37 0 0 0 4.947-8.707h2.573a1.333 1.333 0 0 0 0-2.666h-8V4a1.333 1.333 0 0 0-2.666 0v1.333H2.661a1.327 1.327 0 1 0 0 2.654h13.567a20.957 20.957 0 0 1-4.227 7.147 20.831 20.831 0 0 1-2.466-3.354l-.242-.425a1.335 1.335 0 0 0-1.167-.688h-.539a.835.835 0 0 0-.743 1.215l.122.233a23.65 23.65 0 0 0 3.262 4.632L4.395 22.5a1.329 1.329 0 0 0-.123 1.754l.12.136a1.333 1.333 0 0 0 1.886 0l5.724-5.724 3.12 3.12a.932.932 0 0 0 1.532-.334l.206-.552a1.334 1.334 0 0 0-.312-1.414zm7.196-6.154h-.819c-.556 0-1.053.345-1.248.865l-5.207 13.886a.925.925 0 0 0 .865 1.249h.408c.556 0 1.054-.346 1.249-.867l1.17-3.133h6.333l1.181 3.137c.196.519.693.863 1.248.863h.411a.924.924 0 0 0 .865-1.248l-5.207-13.886a1.334 1.334 0 0 0-1.248-.865zm-.41 3.56 2.16 5.773h-4.32l2.16-5.773z"/></svg>