<svg xmlns="http://www.w3.org/2000/svg" width="32" height="32"><path d="M8.904 13.775c.479.479.517 1.238.113 1.762l-.113.125-2 2a5.271 5.271 0 0 0 7.246 7.654l.208-.2 2-2a1.334 1.334 0 0 1 2 1.762l-.113.125-2 2a7.942 7.942 0 0 1-11.229 0 7.934 7.934 0 0 1-.237-10.979l.237-.25 2-2a1.334 1.334 0 0 1 1.887 0zm18.084-8.742a7.935 7.935 0 0 1 .238 10.979l-.238.25-2 2a1.334 1.334 0 0 1-2-1.762l.113-.125 2-2a5.271 5.271 0 0 0-7.246-7.654l-.208.2-2 2a1.334 1.334 0 0 1-2-1.763l.113-.125 2-2c3.1-3.1 8.129-3.1 11.229 0zM10.483 2.829a1.336 1.336 0 0 0-2.566.716l1.558 7.383.042.162a1.336 1.336 0 0 0 2.566-.716l-1.558-7.383-.042-.163zM2.688 6.171a1.335 1.335 0 0 0-1.225 2.366l5.029 2.862.15.079a1.335 1.335 0 0 0 1.225-2.366L2.838 6.25l-.15-.079z"/></svg>