<svg xmlns="http://www.w3.org/2000/svg" width="32" height="32"><path d="M8.904 13.775c.479.479.517 1.238.113 1.762l-.113.125-2 2a5.271 5.271 0 0 0 7.246 7.654l.208-.2 2-2a1.334 1.334 0 0 1 2 1.762l-.113.125-2 2a7.942 7.942 0 0 1-11.229 0 7.934 7.934 0 0 1-.237-10.979l.237-.25 2-2a1.334 1.334 0 0 1 1.887 0zm18.084-8.742a7.935 7.935 0 0 1 .238 10.979l-.238.25-2 2a1.334 1.334 0 0 1-2-1.762l.113-.125 2-2a5.271 5.271 0 0 0-7.246-7.654l-.208.2-2 2a1.334 1.334 0 0 1-2-1.763l.113-.125 2-2c3.1-3.1 8.129-3.1 11.229 0z"/><path d="M19.725 14.171a1.331 1.331 0 0 0-.113-1.762 1.334 1.334 0 0 0-1.887 0l-5.338 5.337-.113.125a1.331 1.331 0 0 0 .113 1.762 1.334 1.334 0 0 0 1.887 0l5.338-5.338.113-.125z"/></svg>