<svg xmlns="http://www.w3.org/2000/svg" width="32" height="32"><path d="m23.327 8.372.006.295v2.193c.403.087.741.211 1.088.388a5.331 5.331 0 0 1 2.394 2.458l.112.249c.137.331.229.665.29 1.1l.04.347.03.394.021.451.014.516.008.591.004 4.246-.004 1.046-.008.591-.014.516-.021.451-.03.394-.04.347c-.069.49-.176.852-.344 1.224l-.121.251a5.337 5.337 0 0 1-2.458 2.394l-.249.112a4.32 4.32 0 0 1-1.1.29l-.347.04-.394.03-.451.021-.516.014-9.883.008-.591-.008-.516-.014-.451-.021-.394-.03-.347-.04a4.248 4.248 0 0 1-1.224-.344l-.251-.121a5.331 5.331 0 0 1-2.331-2.331c-.338-.663-.485-1.296-.544-2.405l-.023-.597a31.653 31.653 0 0 1-.007-.333l-.007-.742v-4.695l.002-.384.011-.689.023-.596c.06-1.108.206-1.74.544-2.403a5.331 5.331 0 0 1 2.331-2.331 4.312 4.312 0 0 1 1.088-.388V8.664a7.333 7.333 0 0 1 14.66-.295zm-2.66 2.297V8.667a4.667 4.667 0 0 0-9.327-.256l-.007.256v2.004l.321-.003h8.695l.317.002zm-.014 2.667h-9.302l-.789.014-.425.018-.355.025-.295.034-.245.043c-.185.04-.328.091-.453.154-.502.256-.91.664-1.165 1.165a1.799 1.799 0 0 0-.154.453l-.043.244-.034.295-.014.169-.021.388-.014.462-.008.546v5.303l.014.789.018.425.025.355.034.295.043.245c.04.185.091.328.154.453.256.502.664.91 1.165 1.165l.128.059.141.051.161.043.188.036.222.029.413.033.339.016.398.011 1.002.011 8.974-.004.863-.019.339-.016.413-.033.222-.029.188-.036c.029-.007.057-.013.083-.021l.15-.047.068-.026.128-.059a2.66 2.66 0 0 0 1.195-1.228l.055-.133c.008-.023.017-.047.024-.072l.043-.161.036-.188.029-.222.033-.413.016-.339.011-.398.011-1.002.001-3.818-.005-1.156-.019-.863-.016-.339-.033-.413-.029-.222-.036-.188c-.007-.029-.013-.057-.021-.083l-.047-.15a1.368 1.368 0 0 0-.026-.068l-.059-.128a2.666 2.666 0 0 0-1.165-1.165l-.077-.037a1.91 1.91 0 0 0-.375-.118l-.244-.043-.295-.034-.169-.014-.388-.021-.462-.014-.546-.008z"/></svg>