<svg xmlns="http://www.w3.org/2000/svg" viewBox="0 0 32 32"><path d="M24.151 10.992V8.345C24.151 3.85 20.495.193 16 .193S7.849 3.85 7.849 8.345v2.647c-2.59.355-4.599 2.559-4.599 5.244v10.252a5.324 5.324 0 0 0 5.317 5.319h14.866a5.324 5.324 0 0 0 5.317-5.319V16.236c0-2.685-2.009-4.89-4.599-5.244M16 2.693a5.66 5.66 0 0 1 5.651 5.652v2.574H10.35V8.345A5.66 5.66 0 0 1 16 2.693m10.25 23.795a2.82 2.82 0 0 1-2.817 2.819H8.567a2.82 2.82 0 0 1-2.817-2.819V16.236a2.82 2.82 0 0 1 2.817-2.817h14.866a2.82 2.82 0 0 1 2.817 2.817z"/></svg>