<svg xmlns="http://www.w3.org/2000/svg" width="32" height="32"><path d="M8 2.667h6.667A5.333 5.333 0 0 1 20 8a1.333 1.333 0 0 1-2.657.155l-.016-.354a2.668 2.668 0 0 0-2.45-2.46l-.209-.008H8.001a2.666 2.666 0 0 0-2.659 2.468L5.335 8v16a2.666 2.666 0 0 0 2.468 2.659l.199.007h6.667a2.666 2.666 0 0 0 2.659-2.468l.016-.355a1.334 1.334 0 0 1 2.657.155 5.334 5.334 0 0 1-5.067 5.327l-.266.007H8.001a5.334 5.334 0 0 1-5.327-5.067l-.007-.266v-16a5.334 5.334 0 0 1 5.067-5.327L8 2.665zm16.943 7.057 5.333 5.333c.047.047.09.097.129.149l.096.148.071.15.047.14.033.157.012.119v.158l-.007.078-.027.155-.043.144-.045.109-.07.13-.098.14-.098.109-5.333 5.333a1.333 1.333 0 1 1-1.886-1.886l3.056-3.057h-8.78a1.333 1.333 0 0 1-1.324-1.178L16 16c0-.684.515-1.247 1.178-1.324l.155-.009h8.78l-3.056-3.057a1.333 1.333 0 1 1 1.886-1.886z"/></svg>