<svg xmlns="http://www.w3.org/2000/svg" width="32" height="32"><path d="M16 1.333C7.9 1.333 1.333 7.899 1.333 16S7.899 30.667 16 30.667c1.317 0 2.595-.174 3.812-.501a1.333 1.333 0 0 0-.691-2.575c-.993.267-2.039.409-3.12.409-6.627 0-12-5.373-12-12s5.373-12 12-12 12 5.373 12 12c0 1.819-.448 2.992-.977 3.686-.521.683-1.159.964-1.745.988-1.116.046-2.611-.906-2.611-3.341v-6.667a1.333 1.333 0 0 0-2.666 0v.186a6.519 6.519 0 1 0 .723 9.641c.948 1.844 2.72 2.928 4.665 2.847 1.414-.059 2.775-.751 3.755-2.036.971-1.273 1.523-3.062 1.523-5.303 0-8.1-6.567-14.667-14.667-14.667zM12.148 16a3.853 3.853 0 1 1 7.705.001A3.853 3.853 0 0 1 12.148 16z"/></svg>