<svg xmlns="http://www.w3.org/2000/svg" width="32" height="32"><path d="m22.35 2.667-13.437.007a30.89 30.89 0 0 0-.332.007l-.597.023c-1.109.06-1.742.206-2.405.544a5.331 5.331 0 0 0-2.331 2.331c-.338.663-.485 1.296-.544 2.403l-.023.596-.011.689-.002.384-.001 19.683c0 1.188 1.436 1.783 2.276.943l4.513-4.507.169-.154.117-.086c.119-.073.249-.127.385-.159l.112-.019.077-.007.364-.011 12.557-.012.516-.014.451-.021.394-.03.347-.04c.436-.061.77-.153 1.1-.29l.249-.112.127-.063a5.337 5.337 0 0 0 2.331-2.331l.121-.251c.168-.372.275-.734.344-1.224l.04-.347.03-.394.021-.451.014-.516.008-.591.004-1.046-.004-8.246-.008-.591-.014-.516-.021-.451-.03-.394-.04-.347a4.298 4.298 0 0 0-.29-1.1l-.112-.249a5.337 5.337 0 0 0-2.394-2.458c-.663-.338-1.296-.485-2.403-.544l-.596-.023-.689-.011a46.703 46.703 0 0 0-.384-.002zm-13 2.669 14.311.022.388.021.169.014.295.034.244.043c.148.032.269.071.375.118l.077.037c.502.256.91.664 1.165 1.165l.059.128.026.068.047.15.021.083.036.188.029.222.033.413.016.339.019.863.005 1.156-.001 7.818-.011 1.002-.011.398-.016.339-.033.413-.029.222-.036.188-.043.161a3.035 3.035 0 0 1-.024.072l-.055.133-.03.063a2.66 2.66 0 0 1-1.165 1.165l-.128.059a1.368 1.368 0 0 1-.068.026l-.15.047a9.96 9.96 0 0 1-.083.021l-.188.036-.222.029-.413.033-.339.016-.863.019-1.156.005-10.932.001c-.524.005-.827.029-1.164.109a3.983 3.983 0 0 0-1.156.479l-.189.125-.16.118-.156.129-.178.163-.364.356-1.969 1.967.004-16.768.008-.546.014-.462.021-.388.014-.169.034-.295.043-.244c.04-.185.091-.328.154-.453.256-.502.664-.91 1.165-1.165.125-.064.267-.114.453-.154l.245-.043.295-.034.355-.025.425-.018.789-.014z"/></svg>