<svg xmlns="http://www.w3.org/2000/svg" width="32" height="32"><path d="M16.842 4.884c6.139 0 11.116 4.977 11.116 11.116s-4.977 11.116-11.116 11.116c-6.139 0-11.116-4.977-11.116-11.116S10.703 4.884 16.842 4.884zm0 2.021a9.095 9.095 0 1 0 0 18.19 9.095 9.095 0 0 0 0-18.19zm-.933 9.668-.036-.062-.08-.194-.034-.149-.01-.084-.003-5.979a1.095 1.095 0 0 1 2.178-.162l.012.162v5.442l3.048 3.047c.385.385.423.985.115 1.413l-.115.136a1.095 1.095 0 0 1-1.413.115l-.136-.115-3.422-3.426-.055-.069-.05-.074z"/></svg>