<svg xmlns="http://www.w3.org/2000/svg" width="32" height="32"><path d="M26.634 13.76a1.177 1.177 0 0 1 1.176 1.176c0 6.126-4.664 11.16-10.633 11.75v3.137a1.177 1.177 0 0 1-2.354 0v-3.136c-5.97-.59-10.633-5.625-10.633-11.75a1.177 1.177 0 0 1 2.353 0 9.457 9.457 0 0 0 18.914 0 1.177 1.177 0 0 1 1.177-1.177M16 1a6.847 6.847 0 0 1 6.847 6.847v7.09a6.848 6.848 0 0 1-13.696 0v-7.09A6.847 6.847 0 0 1 16 1m0 2.354a4.493 4.493 0 0 0-4.494 4.493v7.09a4.494 4.494 0 1 0 8.988 0v-7.09A4.493 4.493 0 0 0 16 3.354"/></svg>