<svg xmlns="http://www.w3.org/2000/svg" width="32" height="32" fill="none"><path fill="#000" fill-rule="evenodd" d="M22.559 5.39c.534-.52 1.4-.52 1.935 0l4.105 4a1.31 1.31 0 0 1 0 1.886c-.534.52-1.4.52-1.935 0l-1.77-1.724V17c0 .736-.612 1.333-1.368 1.333s-1.368-.597-1.368-1.333V9.552l-1.77 1.724c-.534.52-1.4.52-1.935 0a1.31 1.31 0 0 1 0-1.885zM3 10.334C3 9.597 3.613 9 4.368 9h9.58c.755 0 1.368.597 1.368 1.333 0 .737-.613 1.334-1.369 1.334H4.368C3.613 11.667 3 11.07 3 10.333m1.368 5.334C3.613 15.667 3 16.264 3 17s.613 1.333 1.368 1.333h13.685c.755 0 1.368-.597 1.368-1.333s-.613-1.333-1.368-1.333zm0 6.666c-.755 0-1.368.597-1.368 1.334C3 24.403 3.613 25 4.368 25h19.158c.756 0 1.369-.597 1.369-1.333 0-.737-.613-1.334-1.369-1.334z" clip-rule="evenodd" style="opacity:.99;stroke-width:1.35077"/></svg>