<svg xmlns="http://www.w3.org/2000/svg" width="32" height="32" fill="none"><path fill="#000" fill-rule="evenodd" d="M4.368 7C3.613 7 3 7.597 3 8.333c0 .737.613 1.334 1.368 1.334h19.158c.756 0 1.369-.597 1.369-1.334 0-.736-.613-1.333-1.369-1.333Zm0 6.667C3.613 13.667 3 14.264 3 15s.613 1.333 1.368 1.333h13.685c.755 0 1.368-.597 1.368-1.333s-.613-1.333-1.368-1.333zm-1.368 8c0-.737.613-1.334 1.368-1.334h9.58c.755 0 1.368.597 1.368 1.334 0 .736-.613 1.333-1.369 1.333H4.368C3.613 23 3 22.403 3 21.667m21.494 4.942c-.535.521-1.4.521-1.935 0l-4.106-4a1.31 1.31 0 0 1 0-1.885c.535-.52 1.401-.52 1.936 0l1.769 1.724V15c0-.736.613-1.333 1.368-1.333s1.369.597 1.369 1.333v7.448l1.769-1.724c.534-.52 1.4-.52 1.935 0a1.31 1.31 0 0 1 0 1.885z" clip-rule="evenodd" style="stroke-width:1.35077"/></svg>