<svg xmlns="http://www.w3.org/2000/svg" width="32" height="32"><path d="M17.47 7.077c.175.292.268.626.268.967v15.913a1.879 1.879 0 0 1-2.846 1.611L9.863 22.55a3.134 3.134 0 0 1-1.521-2.686v-7.729c0-1.1.577-2.12 1.521-2.686l5.029-3.018a1.879 1.879 0 0 1 2.578.645zM4.583 10.363c1.038 0 1.879.841 1.879 1.879v7.517a1.879 1.879 0 1 1-3.758 0v-7.517c0-1.038.841-1.879 1.879-1.879zm23.233 1.736a.94.94 0 0 1 1.317 1.297l-.108.131-2.47 2.507 2.47 2.507a.94.94 0 0 1-1.209 1.428l-.129-.11-2.448-2.488-2.447 2.488-.129.11a.94.94 0 0 1-1.317-1.297l.108-.131 2.467-2.507-2.467-2.507a.94.94 0 0 1 1.209-1.428l.129.11 2.448 2.485 2.448-2.485.129-.11z"/></svg>