<svg xmlns="http://www.w3.org/2000/svg" width="32" height="32"><path d="M14 3.333a2 2 0 1 1 3.99.205 9.663 9.663 0 0 1 7.662 9.068l.227 5.677a9.333 9.333 0 0 0 1.56 4.804l1.004 1.505a1.333 1.333 0 0 1-.226 1.738l.726.726a1.333 1.333 0 1 1-1.886 1.886l-24-24a1.333 1.333 0 1 1 1.886-1.886l3.689 3.689a9.652 9.652 0 0 1 5.379-3.207 1.996 1.996 0 0 1-.01-.205zm-3.474 5.308 13.419 13.418a11.978 11.978 0 0 1-.73-3.668l-.227-5.677a6.994 6.994 0 0 0-12.461-4.073zM20.231 24l2.667 2.667H4.667a1.335 1.335 0 0 1-1.11-2.073l1.004-1.505a9.327 9.327 0 0 0 1.56-4.804l.227-5.677c.03-.745.143-1.467.331-2.158l2.33 2.331-.224 5.611a11.998 11.998 0 0 1-1.65 5.609H20.23zM16 30.667c1.467 0 2.667-1.2 2.667-2.667h-5.333a2.666 2.666 0 0 0 2.667 2.667z"/></svg>