<svg xmlns="http://www.w3.org/2000/svg" width="32" height="32" fill="none"><path fill="#fff" fill-rule="evenodd" d="M2.316 10.572c-.303-2.153-.454-3.229-.15-4.11a3.882 3.882 0 0 1 1.443-1.916c.763-.534 1.84-.685 3.992-.988l8.84-1.242c2.152-.303 3.228-.454 4.109-.15a3.881 3.881 0 0 1 1.915 1.443c.515.735.674 1.76.955 3.755h-8.61c-1.04 0-1.9 0-2.6.057-.727.06-1.395.187-2.022.507a5.172 5.172 0 0 0-2.26 2.26c-.32.627-.447 1.295-.507 2.022-.057.7-.057 1.56-.057 2.601v9.033c0 .416 0 .803.004 1.162a3.185 3.185 0 0 1-.906-.16 3.881 3.881 0 0 1-1.916-1.443c-.534-.763-.685-1.84-.988-3.992Zm6.339 4.292c0-2.173 0-3.26.423-4.09a3.881 3.881 0 0 1 1.696-1.696c.83-.423 1.917-.423 4.09-.423h8.926c2.174 0 3.26 0 4.09.423.731.372 1.325.965 1.697 1.696.423.83.423 1.917.423 4.09v8.926c0 2.174 0 3.26-.423 4.091a3.881 3.881 0 0 1-1.696 1.696c-.83.423-1.917.423-4.09.423h-8.927c-2.173 0-3.26 0-4.09-.423a3.881 3.881 0 0 1-1.696-1.696c-.423-.83-.423-1.917-.423-4.09Zm4.851-.388a.97.97 0 0 1 .97-.97h9.703a.97.97 0 0 1 0 1.94h-9.703a.97.97 0 0 1-.97-.97zm0 4.851a.97.97 0 0 1 .97-.97h9.703a.97.97 0 0 1 0 1.94h-9.703a.97.97 0 0 1-.97-.97zm.97 3.881a.97.97 0 1 0 0 1.94h6.792a.97.97 0 0 0 0-1.94z" clip-rule="evenodd" style="fill:#000;stroke-width:.90556"/></svg>