<svg xmlns="http://www.w3.org/2000/svg" width="32" height="32"><path d="M4.219 14.363s10.066-4.358 13.425-5.746c6.393-2.643 7.72-3.102 8.586-3.117.19-.003.616.044.892.266.233.188.297.442.327.62s.07.583.039.9c-.347 3.617-1.846 12.395-2.608 16.447-.323 1.714-.958 2.289-1.573 2.345-1.337.122-2.352-.878-3.647-1.721-2.026-1.32-3.17-2.142-5.138-3.43-2.272-1.488-.799-2.306.496-3.643.34-.35 6.23-5.674 6.343-6.157.015-.06.028-.285-.107-.404-.134-.119-.333-.078-.476-.046-.305.069-9.71 6.378-9.71 6.378s-1.379.94-2.497.916c-.822-.017-2.403-.462-3.578-.841-1.442-.466-2.588-.712-2.488-1.503.078-.618 1.713-1.264 1.713-1.264"/></svg>