<svg xmlns="http://www.w3.org/2000/svg" viewBox="0 0 32 32"><path d="m28.893 27.266-2.813-2.812c1.971-2.344 3.107-5.313 3.107-8.454C29.187 8.729 23.27 2.814 16 2.814c-3.141 0-6.111 1.135-8.454 3.105L4.734 3.108a1.15 1.15 0 0 0-1.627 1.626l2.801 2.8-.012.013 1.637 1.638.012-.013 15.283 15.283-.013.012 1.637 1.636.013-.012 2.8 2.801a1.15 1.15 0 0 0 1.628 0 1.15 1.15 0 0 0 0-1.626M16 5.114c6.003 0 10.886 4.884 10.886 10.886 0 2.524-.884 4.917-2.433 6.827l-3.512-3.512.86-.86a1.15 1.15 0 1 0-1.626-1.626l-.86.86-2.165-2.165v-6.28a1.15 1.15 0 0 0-2.3 0v3.98L9.173 7.545A10.82 10.82 0 0 1 16 5.114M20.117 26.076c-2.311.948-4.927 1.09-7.497.287-3.48-1.087-6.097-3.803-7.081-7.312-.692-2.465-.521-4.956.385-7.168.182-.443.105-.95-.234-1.289-.572-.572-1.56-.4-1.87.346a13.27 13.27 0 0 0-.816 7.33C3.922 23.717 8.31 28.093 13.758 29c2.524.42 5.036.123 7.301-.82.747-.31.918-1.298.347-1.87-.339-.339-.845-.416-1.289-.234" class="cls-1"/><path d="M14.85 19.465v.337l-3.026-2.974a1.151 1.151 0 0 0-1.627 1.627l4.75 4.749c.28.281.653.437 1.05.438H16c.396 0 .769-.155 1.05-.435l.626-.627-.001-.001.14-.15z"/></svg>