<svg xmlns="http://www.w3.org/2000/svg"   viewBox="0 0 32 32"><path d="m24.367 21.046 3.402-3.104c.403-.368.634-.891.634-1.436 0-.546-.231-1.07-.634-1.438l-8.693-7.93a2.1 2.1 0 0 0-2.29-.373 2.1 2.1 0 0 0-1.267 1.944v2.593c-.42.025-.935.096-1.485.196L7.949 5.876a1.15 1.15 0 0 0-1.56 1.69l20.084 18.557a1.147 1.147 0 0 0 1.625-.064 1.15 1.15 0 0 0-.065-1.625zm-7.013-7.926c.3-.299.466-.698.466-1.123V9.106l8.112 7.399-3.261 2.974-6.39-5.905c.427-.034.785-.167 1.073-.454M19.287 22.566l-1.467 1.34v-2.83c0-.848-.666-1.544-1.518-1.584-.93-.033-2.633.099-5.494.982-1.946.6-3.552 1.735-4.727 2.798.388-2.084 1.255-4.963 3.186-6.863.436-.427.91-.813 1.41-1.146a1.151 1.151 0 0 0-1.278-1.914c-.619.413-1.205.891-1.744 1.42-2.692 2.647-3.683 6.577-4.042 9.408-.103.812.326 1.595 1.069 1.947s1.617.19 2.18-.402c.995-1.048 2.606-2.429 4.624-3.051 1.972-.607 3.27-.807 4.033-.864v2.495a2.1 2.1 0 0 0 1.267 1.944c.282.124.576.186.867.186a2.1 2.1 0 0 0 1.424-.56l1.76-1.606a1.151 1.151 0 0 0-1.55-1.7" /></svg>