<svg xmlns="http://www.w3.org/2000/svg" width="32" height="32" fill="none"><g clip-path="url(#clip0_427_83808)" transform="matrix(1.66667 0 0 1.66667 -5.667 -4)"><path fill="#000" d="M9.414 7h2.24l4.14-3.253C17.5 2.407 20 3.622 20 5.792v10.916c0 .272-.04.528-.111.767l1.818 1.818a1 1 0 0 1-1.414 1.414l-16-16a1 1 0 0 1 1.414-1.414zm2 2L18 15.586V5.792a.6.6 0 0 0-.97-.472l-4.383 3.443a1.107 1.107 0 0 1-.684.237zM4 11.25c0-1.573.855-2.947 2.125-3.682l1.516 1.515A2.251 2.251 0 0 0 8.25 13.5h3.713c.033 0 .066.002.099.004l5.77 5.77a2.554 2.554 0 0 1-2.038-.522L13 16.558V17a3 3 0 0 1-6 0v-1.687a4.252 4.252 0 0 1-3-4.063zm7 4.25H9V17a1 1 0 0 0 2 0Z"/></g></svg>