<svg xmlns="http://www.w3.org/2000/svg" width="32" height="32"><path d="M10.227 28.84c-1.44 0-1.613-.907-3.04-7.973-.133-.667-.28-1.413-.427-2.133-1.013 2.08-1.573 3.027-2.64 3.027H1.387c-.733 0-1.333-.6-1.333-1.333s.6-1.333 1.333-1.333H3.56c.307-.52.8-1.52 1.107-2.173 1.107-2.293 1.48-3.067 2.533-3.067 1.307 0 1.373.36 2.6 6.48.093.44.187.933.293 1.44.187-1.12.387-2.293.56-3.387 2.373-14.267 2.667-14.813 4.24-14.813 1.587 0 1.84 1.133 3.387 10.04.44 2.507 1.013 5.853 1.533 8.093.413-1.587.84-3.667 1.16-5.147 1.12-5.387 1.387-6.667 2.867-6.667 1.333 0 1.773 1.253 2.947 4.573.56 1.573 1.56 4.413 2.187 5.147h1.773c.733 0 1.333.6 1.333 1.333s-.6 1.333-1.333 1.333h-2.053c-1.88 0-2.853-2.507-4.413-6.92a28.653 28.653 0 0 1-.2-.573c-.173.773-.333 1.587-.493 2.307-1.427 6.853-2.013 9.227-3.853 9.227-1.787 0-2.293-2.013-4.067-12.253-.24-1.36-.507-2.933-.773-4.36-.533 2.733-1.12 6.333-1.587 9.12-1.667 10.013-1.667 10.013-3.08 10.013z"/></svg>