<svg xmlns="http://www.w3.org/2000/svg" width="32" height="32"><path d="M12 17.333c4.431 0 7.671 1.112 9.63 3.427.602.712.96 1.595 1.026 2.52l.011.31v1.077a3.333 3.333 0 0 1-3.114 3.326l-.219.007H4.667a3.333 3.333 0 0 1-3.326-3.114l-.007-.219V23.59c0-1.036.367-2.039 1.037-2.83 1.959-2.315 5.199-3.427 9.63-3.427zM12 20c-3.718 0-6.22.858-7.594 2.483a1.72 1.72 0 0 0-.394.906L4 23.59v1.077c0 .327.236.599.547.656l.12.011h14.667a.668.668 0 0 0 .656-.547l.011-.12V23.59c0-.405-.144-.798-.406-1.107C18.22 20.858 15.719 20 12.001 20zm13.333-1.333a1.333 1.333 0 1 1 0 2.667 1.333 1.333 0 0 1 0-2.667zm0-14.667a5.333 5.333 0 0 1 1.54 10.441l-.207.056v.836c0 .684-.515 1.247-1.178 1.324l-.155.009a1.333 1.333 0 0 1-1.324-1.178L24 15.333v-2c0-.684.515-1.247 1.178-1.324l.155-.009a2.667 2.667 0 1 0-2.667-2.667 1.333 1.333 0 0 1-2.666 0A5.333 5.333 0 0 1 25.333 4zM12 4a5.333 5.333 0 1 1 0 10.666A5.333 5.333 0 0 1 12 4zm0 2.667a2.667 2.667 0 1 0 0 5.334 2.667 2.667 0 0 0 0-5.334z"/></svg>