<svg xmlns="http://www.w3.org/2000/svg" width="32" height="32"><path d="M29.95 10.06a4.33 4.33 0 0 0-4.94-3.62l-.44.07c-.06-.8-.34-1.57-.82-2.23-.69-.93-1.7-1.54-2.84-1.71L7.66.56c-.99-.15-2.03-.03-2.91.47a4.32 4.32 0 0 0-2.19 3.15L.45 18.59c-.2 1.33.21 2.65 1.16 3.65.69.73 1.65 1.16 2.64 1.31l5.46.82.55 3.45a4.345 4.345 0 0 0 4.28 3.68c.22 0 .44-.02.66-.05l8.17-1.25c.4-.06.77-.27 1.03-.58l6.8-8.02c.32-.38.46-.87.38-1.36l-1.63-10.19ZM4.46 21.05c-.48-.07-.91-.33-1.2-.72a1.8 1.8 0 0 1-.33-1.37L5.04 4.54c.07-.48.33-.91.72-1.2s.87-.41 1.36-.34l13.41 2.03c.48.07.91.33 1.2.72.24.33.36.72.35 1.12L11.6 8.48c-1.14.17-2.15.79-2.84 1.72-.68.93-.96 2.08-.79 3.23l1.32 8.35-4.84-.73Zm10.35 7.93c-1 .14-1.94-.54-2.09-1.54l-2.28-14.39a1.83 1.83 0 0 1 1.53-2.09L25.38 8.9a1.835 1.835 0 0 1 2.09 1.54l1.26 7.88-5 .77c-1.14.17-2.15.79-2.83 1.72-.69.93-.97 2.08-.79 3.22l.61 4s.01.02.01.04l-5.93.91Zm8.33-1.74-.55-3.59c-.07-.48.04-.97.33-1.36s.72-.65 1.2-.73l4.41-.68z"/><path d="m25.82 12.38-13.05 2"/><path d="m12.572 13.146 13.058-2.003.379 2.471-13.058 2.003z"/><path d="m22.94 16.9-9.56 1.47"/><path d="m13.19 17.131 9.558-1.466.379 2.471-9.559 1.466z"/></svg>