<svg xmlns="http://www.w3.org/2000/svg" width="32" height="32"><path d="M24 29.292H8c-2.933 0-5.333-2.4-5.333-5.333V8.042c0-2.933 2.4-5.333 5.333-5.333h16c2.933 0 5.333 2.4 5.333 5.333v15.917c0 2.933-2.4 5.333-5.333 5.333zM8 7.958a2.675 2.675 0 0 0-2.667 2.667v13.333c0 1.467 1.2 2.667 2.667 2.667h16c1.467 0 2.667-1.2 2.667-2.667V10.625c0-1.467-1.2-2.667-2.667-2.667H8z"/><path d="M23.108 10.671h-7.55a.887.887 0 0 0-.108 1.77l.113.008h5.404l-6.037 6.029a.891.891 0 0 0-.071 1.179l.071.079a.891.891 0 0 0 1.179.071l.079-.071 6.033-6.033v5.404c0 .454.337.829.779.883l.113.008a.887.887 0 0 0 .883-.779l.008-.113v-7.55a.887.887 0 0 0-.779-.883l-.117-.004z"/></svg>