<svg xmlns="http://www.w3.org/2000/svg" width="32" height="32"><path d="m3.484 5.613.126.111 24 24a1.333 1.333 0 0 1-1.76 1.997l-.126-.111-3.611-3.609H9.333a4 4 0 0 1-3.993-3.765l-.007-.235V13.334c0-.607.136-1.194.39-1.723l-3.999-4a1.333 1.333 0 0 1 1.76-1.997zm15.963 19.72L8 13.886v10.113c0 .684.515 1.247 1.178 1.324l.155.009h10.113zM16 0a6.666 6.666 0 0 1 6.66 6.377l.006.289v2.667a4 4 0 0 1 3.993 3.765l.007.235v9.333a1.333 1.333 0 0 1-2.657.155L24 22.666v-9.333c0-.684-.515-1.247-1.178-1.324L22.667 12h-9.333a1.333 1.333 0 0 1-.155-2.657l.155-.009h6.667V6.667a4 4 0 0 0-7.993-.235l-.007.235V8a1.333 1.333 0 0 1-2.657.155L9.335 8V6.667A6.667 6.667 0 0 1 16.002 0z"/></svg>