<svg xmlns="http://www.w3.org/2000/svg" width="32" height="32"><path d="M8 4h18.667a4 4 0 0 1 3.993 3.765l.007.235v2.667c0 .684-.515 1.247-1.178 1.324l-.155.009h-4v12a4 4 0 0 1-3.765 3.993l-.235.007h-16a4 4 0 0 1-4-4v-2.667c0-.736.597-1.333 1.333-1.333H4V8a4 4 0 0 1 3.765-3.993L8 4zm9.333 18.667H4V24c0 .736.597 1.333 1.333 1.333h12.228A3.988 3.988 0 0 1 17.333 24v-1.333zm5.561-16H8c-.684 0-1.247.515-1.324 1.178L6.667 8v12h12c.736 0 1.333.597 1.333 1.333V24c0 .699.541 1.279 1.183 1.327l.168.006a1.334 1.334 0 0 0 1.307-1.179l.009-.154V8c0-.374.051-.736.147-1.079l.08-.254zm3.773 0-.155.009a1.334 1.334 0 0 0-1.169 1.169L25.334 8v1.333h2.667V8c0-.684-.515-1.247-1.178-1.324l-.155-.009z"/></svg>