<svg xmlns="http://www.w3.org/2000/svg" width="32" height="32"><path d="m29.396 17.683-1.454 1.454a2.373 2.373 0 0 1-3.158.183l-2.358-1.871a2.364 2.364 0 0 1-.9-1.854l-.254-4.871H10.718l-.254 4.854c0 .721-.329 1.404-.9 1.854l-2.375 1.887a2.36 2.36 0 0 1-3.142-.183l-1.454-1.454c-.95-.95-.95-2.529.058-3.417 7.608-6.717 19.071-6.725 26.688 0 1.008.887 1.008 2.467.058 3.417z"/><path d="M5.713 21.167c-.954 0-1.9-.371-2.612-1.092l-1.45-1.45a3.754 3.754 0 0 1-1.092-2.762 3.588 3.588 0 0 1 1.212-2.6c8.113-7.162 20.342-7.162 28.454 0a3.588 3.588 0 0 1 1.212 2.6 3.76 3.76 0 0 1-1.092 2.762l-1.454 1.454a3.714 3.714 0 0 1-4.925.288l-.004-.004-2.358-1.871a3.677 3.677 0 0 1-1.408-2.863l-.242-4.654a18.93 18.93 0 0 0-7.917 0l-.242 4.637a3.685 3.685 0 0 1-1.404 2.863l-2.379 1.892a3.71 3.71 0 0 1-2.3.8zm3.612-9.392a18.671 18.671 0 0 0-5.792 3.492.951.951 0 0 0-.313.683c-.008.296.104.583.313.792l1.462 1.462c.358.367.946.4 1.362.071l2.375-1.887c.25-.2.396-.496.396-.813v-.071l.196-3.729zm16.288 6.5A1.049 1.049 0 0 0 27 18.196l1.454-1.454a1.08 1.08 0 0 0 .313-.792.928.928 0 0 0-.313-.683 18.71 18.71 0 0 0-5.792-3.492l.196 3.783v.033c0 .317.142.613.396.813l2.358 1.871z"/></svg>