<svg xmlns="http://www.w3.org/2000/svg" width="32" height="32"><path d="M8.988 2.667c1.956 0 3.606 1.4 3.947 3.305l.036.241.388 3.367c.13 1.13-.223 2.25-.927 3.055l-.169.18-3.62 4.016.008.013a21.466 21.466 0 0 0 5.988 6.163l.526.348 3.955-3.557a3.99 3.99 0 0 1 3.025-1.165l.26.021 3.4.388c1.946.231 3.429 1.822 3.523 3.738l.005.231v2.311c0 2.282-1.907 4.144-4.182 4.003-12.072-.75-21.728-10.401-22.477-22.478-.136-2.196 1.595-4.049 3.768-4.175l.234-.007h2.311zm13.115 18.637a1.334 1.334 0 0 0-.998.296l-3.461 3.114.118.057a21.235 21.235 0 0 0 7.109 1.862l.446.032c.669.041 1.265-.495 1.342-1.19l.008-.151V23a1.311 1.311 0 0 0-1.017-1.281l-.152-.027-3.395-.387zM8.988 5.333H6.677c-.767 0-1.386.633-1.341 1.35a21.261 21.261 0 0 0 1.894 7.556l.056.118 3.045-3.377c.247-.247.384-.575.389-.921l-.009-.174-.387-3.362a1.341 1.341 0 0 0-1.179-1.18l-.156-.009z"/></svg>