<svg xmlns="http://www.w3.org/2000/svg" width="32" height="32"><path d="M25.333 2.667a4 4 0 0 1 4 4v18.667a4 4 0 0 1-4 4H6.666a4 4 0 0 1-4-4V6.667a4 4 0 0 1 4-4h18.667zm-13.388 16.62-.083-.06a.666.666 0 0 0-.845.122l-.072.096-4.438 7.212.079.007 10.008.002-4.516-7.225a.653.653 0 0 0-.133-.154zm8.932-3.03a.668.668 0 0 0-.844.131l-.071.097-3.228 5.376 3.003 4.805h5.596c.721 0 1.309-.573 1.333-1.289L21.1 16.474a.67.67 0 0 0-.222-.218zm4.456-10.924H6.666c-.736 0-1.333.597-1.333 1.333v16.808l3.341-5.427a3.333 3.333 0 0 1 4.387-1.205l.198.113c.365.224.682.517.936.86l.144.212.808 1.295 2.528-4.21a3.334 3.334 0 0 1 4.374-1.253l.2.111c.376.226.703.523.963.874l.148.217 3.306 5.29V6.666c0-.736-.597-1.333-1.333-1.333z"/></svg>