<svg xmlns="http://www.w3.org/2000/svg" width="32" height="32"><path d="M16.667 22.667a1.333 1.333 0 0 1 .155 2.657l-.155.009H4a1.333 1.333 0 0 1-.155-2.657L4 22.667h12.667zM26.504 4c1.359 0 2.44.972 2.44 2.32 0 .599-.23 1.186-.645 1.719-.383.475-1.015 1.011-1.793 1.536l-.298.196-.219.135.156 2.159.082.04c2.097 1.034 3.515 2.789 3.742 4.73l.024.279.008.268c0 1.455-1.054 2.519-2.49 2.612l-.208.007h-3.969v4a1.333 1.333 0 0 1-2.657.155l-.009-.155v-4h-3.969c-1.471 0-2.591-.997-2.69-2.414l-.007-.205c0-2.067 1.363-3.982 3.498-5.133l.283-.146.08-.038.151-2.16-.215-.133c-.694-.445-1.291-.907-1.728-1.339l-.205-.213-.156-.182c-.416-.516-.653-1.11-.653-1.718 0-1.283.984-2.222 2.246-2.313L17.505 4h9zM10.667 16a1.333 1.333 0 0 1 .155 2.657l-.155.009H4a1.333 1.333 0 0 1-.155-2.657L4 16h6.667zm15.261-9.333h-7.847l.043.04c.329.29.807.638 1.369.98l.288.171.262.147c.405.223.662.636.689 1.09l-.001.172-.266 3.8c-.037.526-.38.98-.875 1.16-1.729.627-2.805 1.824-2.914 2.964l-.008.146.029-.004 10.633.004-.006-.146c-.096-1.009-.95-2.064-2.34-2.727l-.285-.127-.281-.11a1.333 1.333 0 0 1-.85-.985l-.024-.172-.274-3.8a1.332 1.332 0 0 1 .687-1.264 12.384 12.384 0 0 0 1.75-1.149l.172-.144.049-.046zM13.333 9.333a1.333 1.333 0 0 1 .155 2.657l-.155.009H4a1.333 1.333 0 0 1-.155-2.657L4 9.333h9.333z"/></svg>