<svg xmlns="http://www.w3.org/2000/svg" width="32" height="32"><path d="M11.401 2.667h9.24c.599 0 1.108 0 1.505.023.366.021.861.069 1.297.297a2.8 2.8 0 0 1 1.319 3.469c-.174.46-.513.824-.772 1.084-.281.281-.661.619-1.109 1.017l-1.261 1.12a7.116 7.116 0 0 0-.203.184l-.004.004.001.005c.005.054.014.127.032.272l.352 2.813c.06.476.075.57.098.648.059.203.166.39.311.544.056.059.129.12.509.413l.941.724c.726.559 1.318 1.013 1.75 1.387.4.345.857.777 1.094 1.31a3.333 3.333 0 0 1-1.457 4.283c-.513.278-1.138.341-1.666.371-.571.032-1.316.032-2.233.032h-3.811v6.667a1.333 1.333 0 0 1-2.666 0v-6.667h-3.811c-.916 0-1.662 0-2.233-.032-.527-.03-1.153-.093-1.666-.371a3.335 3.335 0 0 1-1.457-4.283c.237-.533.694-.964 1.094-1.31.432-.373 1.024-.828 1.75-1.387l.941-.724c.38-.293.453-.354.509-.413a1.33 1.33 0 0 0 .311-.544c.023-.078.038-.172.098-.648l.352-2.813c.018-.145.027-.219.032-.272v-.005l-.004-.004a9.17 9.17 0 0 0-.203-.184l-1.26-1.12A28.048 28.048 0 0 1 8.012 7.54c-.259-.259-.598-.624-.772-1.084a2.8 2.8 0 0 1 1.319-3.469c.436-.228.931-.276 1.297-.297.397-.023.905-.023 1.505-.023h.041zM16.002 20h5.099c.97 0 1.64-.001 2.125-.028.354-.02.507-.052.551-.061l.014-.003a.667.667 0 0 0 .28-.824.185.185 0 0 1-.01-.011c-.03-.034-.131-.153-.399-.385-.368-.318-.898-.726-1.667-1.318l-.966-.743c-.289-.222-.543-.417-.763-.65a4 4 0 0 1-.934-1.632c-.089-.307-.129-.625-.174-.987l-.009-.074-.352-2.813-.007-.057a3.778 3.778 0 0 1-.042-.737 2.666 2.666 0 0 1 .538-1.43c.161-.211.359-.386.517-.527l.043-.038 1.229-1.093c.487-.433.808-.719 1.027-.938.092-.092.144-.152.171-.184a.13.13 0 0 0-.036-.094 3.103 3.103 0 0 0-.25-.024 27.428 27.428 0 0 0-1.39-.019h-9.199c-.652 0-1.081.001-1.39.019-.13.008-.208.017-.251.024a.13.13 0 0 0-.036.094c.027.033.08.092.171.184.219.219.539.504 1.027.938l1.273 1.131c.158.14.357.316.517.527.315.414.502.911.538 1.43.018.264-.015.527-.042.737l-.007.057-.361 2.887c-.045.361-.085.679-.174.987a3.996 3.996 0 0 1-.934 1.632c-.22.233-.474.428-.763.65L10 17.37c-.769.592-1.299 1-1.667 1.318-.268.232-.37.35-.399.385l-.01.011a.668.668 0 0 0 .28.824.12.12 0 0 1 .014.003c.044.009.197.041.551.061.485.028 1.155.028 2.125.028h5.103z"/></svg>