<svg xmlns="http://www.w3.org/2000/svg" width="32" height="32"><path d="M23.126 1.62q.458.277.836.653l5.767 5.768a4.34 4.34 0 0 1-.835 6.788l-4.536 2.72c.604 3.603-.862 7.156-4.214 10.509a1.97 1.97 0 0 1-2.782 0l-5.32-5.318-7.685 7.687a1.97 1.97 0 0 1-2.58.176l-.201-.176a1.97 1.97 0 0 1-.176-2.581l.176-.2 7.687-7.69-5.318-5.316a1.97 1.97 0 0 1 0-2.781c3.185-3.186 6.551-4.668 9.97-4.291l.54.075 2.72-4.536a4.337 4.337 0 0 1 5.953-1.488zm-2.579 3.513-3.467 5.78a1.964 1.964 0 0 1-2.31.853c-2.127-.71-4.275-.24-6.574 1.56l10.48 10.48.343-.458c1.516-2.128 1.88-4.133 1.22-6.118a1.97 1.97 0 0 1 .852-2.31l5.821-3.495.038-.032a.405.405 0 0 0 0-.572l-5.768-5.768-.078-.06a.405.405 0 0 0-.557.138z"/></svg>
