<svg xmlns="http://www.w3.org/2000/svg" width="32" height="32"><path d="M20.677 7.241c.171.103.329.226.47.367l3.245 3.245a2.441 2.441 0 0 1-.47 3.819l-2.552 1.531c.34 2.027-.485 4.026-2.371 5.912a1.107 1.107 0 0 1-1.565 0l-2.993-2.992-4.324 4.325a1.108 1.108 0 0 1-1.452.099l-.113-.099a1.108 1.108 0 0 1-.099-1.452l.099-.113 4.325-4.326-2.992-2.991a1.107 1.107 0 0 1 0-1.565c1.792-1.792 3.686-2.626 5.609-2.414l.304.042 1.531-2.552a2.44 2.44 0 0 1 3.349-.837zm-1.451 1.976-1.951 3.252a1.105 1.105 0 0 1-1.299.48c-1.197-.399-2.406-.135-3.699.878l5.896 5.896.193-.258c.853-1.197 1.058-2.325.686-3.442a1.108 1.108 0 0 1 .48-1.299l3.275-1.967.021-.018a.228.228 0 0 0 0-.322l-3.245-3.245-.044-.034a.228.228 0 0 0-.313.078z"/></svg>