<svg xmlns="http://www.w3.org/2000/svg" width="32" height="32"><path d="M23.996 5.296H8.004a5.383 5.383 0 0 0-5.375 5.375v10.658a5.383 5.383 0 0 0 5.375 5.375h15.992a5.383 5.383 0 0 0 5.375-5.375V10.671a5.383 5.383 0 0 0-5.375-5.375zm2.633 16.033a2.636 2.636 0 0 1-2.633 2.633H8.004a2.636 2.636 0 0 1-2.633-2.633V10.671a2.636 2.636 0 0 1 2.633-2.633h15.992a2.636 2.636 0 0 1 2.633 2.633v10.658z"/><path d="M25.275 16.254v4.55a1.819 1.819 0 0 1-1.817 1.817h-6.883a1.819 1.819 0 0 1-1.817-1.817v-4.55c0-1.004.817-1.817 1.817-1.817h6.883c1 0 1.817.817 1.817 1.817z"/></svg>