<svg xmlns="http://www.w3.org/2000/svg" width="32" height="32"><path d="M21.304 29.571a1.335 1.335 0 0 1-.533-2.558c.767-.333 1.504-.75 2.188-1.238a1.329 1.329 0 0 1 1.858.313c.429.6.288 1.433-.313 1.858a14.139 14.139 0 0 1-2.671 1.512 1.328 1.328 0 0 1-.529.113zm5.417-4.309a1.336 1.336 0 0 1-1.071-2.129c.5-.675.929-1.404 1.279-2.167a1.335 1.335 0 0 1 2.43 1.104c-.425.933-.95 1.825-1.563 2.65a1.337 1.337 0 0 1-1.075.542zm2.533-6.445a1.334 1.334 0 0 1-1.329-1.479c.046-.413.071-.837.075-1.254v-.083c0-.396-.021-.792-.058-1.179a1.339 1.339 0 0 1 1.196-1.458 1.336 1.336 0 0 1 1.458 1.196c.046.475.071.958.071 1.438v.1a15.681 15.681 0 0 1-.087 1.533 1.338 1.338 0 0 1-1.325 1.188zm-1.042-6.842c-.512 0-1-.296-1.221-.796a11.868 11.868 0 0 0-1.25-2.183 1.334 1.334 0 1 1 2.167-1.558c.6.833 1.113 1.733 1.525 2.671a1.333 1.333 0 0 1-.683 1.758 1.435 1.435 0 0 1-.538.108zm-4.337-5.4c-.275 0-.55-.083-.788-.258a11.94 11.94 0 0 0-2.175-1.267c-.671-.3-.971-1.092-.671-1.763s1.092-.971 1.762-.671c.933.421 1.829.942 2.658 1.55a1.333 1.333 0 0 1-.787 2.408zm-16.362.938C5.25 9.784 4 12.796 4 16.001s1.25 6.217 3.513 8.488a11.905 11.905 0 0 0 8.396 3.512h.092c.375 0 .75-.017 1.117-.05a1.333 1.333 0 1 1 .246 2.654c-.45.042-.908.063-1.363.063h-.116a14.602 14.602 0 0 1-10.258-4.292 14.634 14.634 0 0 1-3.142-4.663C1.723 19.9 1.335 17.98 1.335 16s.387-3.9 1.154-5.708A14.586 14.586 0 0 1 5.631 5.63a14.64 14.64 0 0 1 10.37-4.296h.096c.488.004.979.029 1.462.083a1.338 1.338 0 0 1 1.188 1.467 1.335 1.335 0 0 1-1.467 1.184c-.396-.042-.8-.063-1.2-.067h-.084c-3.2 0-6.213 1.25-8.483 3.512z"/><path d="M16.315 8.791h.001l6.155 4.309c2.024 1.42 2.036 4.416.027 5.855l-6.155 4.409c-2.373 1.697-5.671.001-5.671-2.914v-8.721c0-2.904 3.269-4.602 5.644-2.938zm-1.53 2.184a.92.92 0 0 0-1.447.754v8.721a.919.919 0 0 0 1.453.745s.001 0 .001-.001l6.153-4.408a.922.922 0 0 0-.006-1.503h-.001l-6.154-4.308z"/></svg>