<svg xmlns="http://www.w3.org/2000/svg" width="32" height="32"><path d="M25.333 2.667a4 4 0 0 1 3.993 3.765l.007.235v18.667a4 4 0 0 1-3.765 3.993l-.235.007H6.666a4 4 0 0 1-3.993-3.765l-.007-.235V6.667a4 4 0 0 1 3.765-3.993l.235-.007h18.667zm0 2.666H6.666c-.684 0-1.247.515-1.324 1.178l-.009.155v18.667c0 .684.515 1.247 1.178 1.324l.155.009h18.667c.684 0 1.247-.515 1.324-1.178l.009-.155V6.666c0-.684-.515-1.247-1.178-1.324l-.155-.009zM16 8c.684 0 1.247.515 1.324 1.178l.009.155v13.333a1.333 1.333 0 0 1-2.657.155l-.009-.155V9.333C14.667 8.597 15.264 8 16 8zm5.333 8c.684 0 1.247.515 1.324 1.178l.009.155v5.333a1.333 1.333 0 0 1-2.657.155L20 22.666v-5.333c0-.736.597-1.333 1.333-1.333zm-10.666-4c.684 0 1.247.515 1.324 1.178l.009.155v9.333a1.333 1.333 0 0 1-2.657.155l-.009-.155v-9.333c0-.736.597-1.333 1.333-1.333z"/></svg>