<svg xmlns="http://www.w3.org/2000/svg" viewBox="0 0 32 32"><path d="M21.316 10.431c.224-.216.617-.391.89-.43l.017-.001h.006c.282.004.679.14.923.323l.013.01.007.007.005.005.001.001c.195.203.366.55.417.796l.002.017.001.005v.002a1.91 1.91 0 0 1-.196.875l-.016.025-.002.003-.002.002-.003.005-.098.129-7.696 8.866c-.211.206-.57.379-.824.425l-.016.003h-.015a1.83 1.83 0 0 1-.883-.239l-.029-.021-.006-.005-.002-.002-.007-.006-.127-.111-3.307-3.335c-.196-.229-.369-.62-.369-.922 0-.306.188-.71.382-.935l.011-.012.007-.007.002-.001.004-.004a1.82 1.82 0 0 1 .815-.367l.014-.001h.01c.258 0 .633.117.854.256l.004.002.004.003.016.013.009.007.121.107 2.293 2.311 6.77-7.799Z"/><path d="m28.999 8.27-.001-.02v-.021H29l-.001-.084-.002-.085v-.04l-.001-.068-.001-.069-.003-.001-.004-.001-.002-.026a3.677 3.677 0 0 0-.175-.852 3.5 3.5 0 0 0-.367-.776 3.379 3.379 0 0 0-.643-.699 3.133 3.133 0 0 0-.8-.483l-9.973-3.852A3.04 3.04 0 0 0 15.999 1a3.056 3.056 0 0 0-1.022.19L5.008 5.041a3.287 3.287 0 0 0-1.444 1.172 3.567 3.567 0 0 0-.401.876 3.611 3.611 0 0 0-.161.966c-.009.796.017 2.25.227 4.066.209 1.817.602 3.996 1.328 6.243a25.567 25.567 0 0 0 1.519 3.688 21.36 21.36 0 0 0 1.98 3.19 18.629 18.629 0 0 0 3.054 3.17 17.86 17.86 0 0 0 3.675 2.315c.185.084.387.152.593.2.207.047.418.073.621.073s.411-.025.616-.071a3.11 3.11 0 0 0 .591-.198 17.889 17.889 0 0 0 3.678-2.317 18.543 18.543 0 0 0 3.058-3.171 21.499 21.499 0 0 0 1.981-3.19 25.614 25.614 0 0 0 1.519-3.688c.696-2.155 1.086-4.246 1.302-6.015.215-1.769.257-3.216.255-4.08ZM16.144 28.098l-.034.018-.035.014h-.006l-.01.001-.023.001h-.037a.27.27 0 0 1-.059-.005.317.317 0 0 1-.067-.026c-2.461-1.137-4.317-2.775-5.725-4.644-1.408-1.869-2.367-3.969-3.033-6.028-.67-2.051-1.026-4.042-1.212-5.694a29.995 29.995 0 0 1-.196-3.658v-.004h.001c-.004-.019-.002-.04 0-.061.003-.02.004-.041.013-.059.008-.014.01-.03.022-.049.013-.019.005-.01.021-.035 0 0 .017-.022.018-.026.001-.004.016-.02.018-.025a.091.091 0 0 1 .021-.023.158.158 0 0 1 .023-.02s.075-.034.1-.043l9.958-3.85s.069-.021.076-.021c.008 0 .056.007.071.01a.276.276 0 0 1 .057.018l9.988 3.857.044-.003.006.011.007.011.005.009.005.008a.86.86 0 0 1 .034.045l.045.064a.168.168 0 0 1 .052.141v.072a29.76 29.76 0 0 1-.196 3.645c-.187 1.646-.542 3.631-1.212 5.682-.664 2.053-1.623 4.147-3.028 6.014-1.405 1.866-3.254 3.508-5.702 4.648l-.01.005Z"/></svg>