<svg xmlns="http://www.w3.org/2000/svg" width="32" height="32" fill="none"><path fill="#000" fill-rule="evenodd" d="M1.62 14.005a2.115 2.115 0 0 0 0 2.99l3.007 3.008v4.255c0 1.168.947 2.114 2.115 2.114h4.254l3.009 3.009a2.115 2.115 0 0 0 2.99 0l3.009-3.009h4.254a2.115 2.115 0 0 0 2.114-2.114v-4.254l3.009-3.009a2.114 2.114 0 0 0 0-2.99l-3.009-3.009V6.742a2.115 2.115 0 0 0-2.114-2.114h-4.254l-3.009-3.009a2.115 2.115 0 0 0-2.99 0l-3.008 3.009H6.742a2.115 2.115 0 0 0-2.115 2.114v4.255zm5.122 8.138v-3.016L4.61 16.995 3.115 15.5l1.495-1.495 2.132-2.132V6.742h5.131l2.132-2.132L15.5 3.115l1.495 1.495 2.133 2.132h5.13v5.13l2.132 2.133 1.495 1.495-1.495 1.495-2.132 2.133v5.13h-5.13l-2.133 2.132-1.495 1.495-1.495-1.495-2.133-2.132h-5.13zm14.522-8.682a1.058 1.058 0 0 0-1.496-1.495l-5.94 5.94-2.596-2.596a1.057 1.057 0 1 0-1.495 1.495l3.344 3.344a1.057 1.057 0 0 0 1.495 0z" clip-rule="evenodd"/></svg>