<svg xmlns="http://www.w3.org/2000/svg" width="32" height="32" fill="none"><path fill="#000" fill-rule="evenodd" d="M20 2.667a2.667 2.667 0 0 0-.306 5.316c-.141.498-.329.984-.562 1.45l-.32.64a1.328 1.328 0 0 0 2.376 1.188l.32-.64a10.928 10.928 0 0 0 1.153-4.887v-.23A2.667 2.667 0 0 0 20 2.666Zm6.667 0a2.667 2.667 0 0 0-.307 5.316c-.14.498-.328.984-.561 1.45l-.32.64a1.328 1.328 0 0 0 2.376 1.188l.32-.64a10.928 10.928 0 0 0 1.153-4.887v-.23a2.667 2.667 0 0 0-2.661-2.837ZM5.333 6.672a1.328 1.328 0 1 0 0 2.656H14a1.328 1.328 0 1 0 0-2.656H5.333Zm0 8a1.328 1.328 0 1 0 0 2.656h21.334a1.328 1.328 0 0 0 0-2.656H5.333ZM4.005 24c0-.733.595-1.328 1.328-1.328h21.334a1.328 1.328 0 1 1 0 2.656H5.333A1.328 1.328 0 0 1 4.005 24Z" clip-rule="evenodd"/></svg>
