<svg xmlns="http://www.w3.org/2000/svg" width="32" height="32"><path d="M22.667 4a5.334 5.334 0 0 1 5.327 5.067l.007.266V14a1.333 1.333 0 0 1-2.657.155L25.335 14V9.333a2.666 2.666 0 0 0-2.468-2.659l-.199-.007H9.335a2.666 2.666 0 0 0-2.659 2.468l-.007.199v16.78l2.94-2.939a1.732 1.732 0 0 1 1.03-.497l.196-.011h5.834a1.333 1.333 0 0 1 .155 2.657l-.155.009H11.22l-4.714 4.715a1.466 1.466 0 0 1-1.946.114l-.128-.114a1.466 1.466 0 0 1-.42-.872l-.009-.166V9.332A5.334 5.334 0 0 1 9.07 4.005l.266-.007h13.333zm7.609 12.391c.481.481.518 1.237.111 1.76l-.111.126-6.667 6.667a1.333 1.333 0 0 1-1.76.111l-.126-.111-3.333-3.333a1.333 1.333 0 0 1 1.76-1.997l.126.111 2.391 2.389 5.724-5.723a1.333 1.333 0 0 1 1.886 0z"/></svg>