<svg xmlns="http://www.w3.org/2000/svg" xml:space="preserve" viewBox="0 0 32 32"><path d="M19.7 1.4C13.8 0 8 2.1 4.4 6.4V3.9c0-.6-.5-1.2-1.2-1.2-.6 0-1.2.5-1.2 1.2v5.4c0 .6.5 1.2 1.2 1.2h5.4c.6 0 1.2-.5 1.2-1.2 0-.6-.5-1.2-1.2-1.2H6.1c3.1-4 8.4-5.8 13.6-4.3 4.7 1.4 8.3 5.5 8.9 10.4 1 7.8-5 14.4-12.6 14.4-6.6 0-12.1-5.1-12.6-11.6 0-.6-.6-1.1-1.2-1.1-.7.1-1.2.7-1.2 1.4C1.7 25 8.1 31 16 31c8.9 0 16.1-7.8 14.9-17-.8-6-5.3-11.1-11.2-12.6"/><path d="M21.2 19c0-2.1-1-3.6-4.5-4.6-2.3-.7-3-1.1-3-2.2 0-.8.4-1.7 2-1.7 1.4 0 2 .6 2.2 1.2.1.3.4.5.7.5h1.1c.6 0 1-.6.8-1.1-.4-1-1.3-2-3-2.4-.3-.1-.5-.4-.5-.8s-.4-.8-.8-.8h-.6c-.4 0-.8.4-.8.8s-.2.7-.6.8c-1.8.5-3.1 1.7-3.1 3.7 0 2.1 1.2 3.4 4.6 4.4 2.2.6 2.8 1.3 2.8 2.5s-.8 2-2.5 2c-1.3 0-2.2-.5-2.6-1.6-.1-.3-.4-.5-.7-.5h-1c-.6 0-.9.6-.8 1.1q.75 2.1 3.3 2.7c.4.1.6.4.6.8v.3c0 .4.4.8.8.8h.6c.4 0 .8-.4.8-.8v-.3c0-.4.2-.7.6-.8 2.3-.5 3.6-1.9 3.6-4"/></svg>