<svg xmlns="http://www.w3.org/2000/svg" width="32" height="32"><path d="M30.637 16c0 1.975-.387 3.892-1.15 5.7-.738 1.742-1.792 3.308-3.137 4.654s-2.908 2.4-4.654 3.137c-1.804.762-3.721 1.15-5.7 1.15s-3.892-.387-5.7-1.15A14.625 14.625 0 0 1 2.513 21.7a14.596 14.596 0 0 1-1.15-5.7c0-2.95.875-5.796 2.529-8.229a14.613 14.613 0 0 1 3.692-3.75L7.563 4H5.167a1.335 1.335 0 0 1-1.325-1.179l-.008-.154c0-.683.513-1.246 1.179-1.325l.154-.008H11a1.332 1.332 0 0 1 1.325 1.18l.008.154v5.833a1.334 1.334 0 0 1-2.658.154l-.008-.154V5.805l-.025-.021a12.078 12.078 0 0 0-3.596 3.454A11.972 11.972 0 0 0 3.967 16c0 3.212 1.25 6.233 3.521 8.504s5.292 3.525 8.504 3.525 6.233-1.25 8.504-3.525A11.952 11.952 0 0 0 28.021 16c0-1.721-.354-3.383-1.058-4.938a11.991 11.991 0 0 0-2.867-3.95 1.3 1.3 0 0 1-.083-1.842 1.3 1.3 0 0 1 1.842-.083 14.599 14.599 0 0 1 3.488 4.804 14.385 14.385 0 0 1 1.296 6.008z"/></svg>