<svg xmlns="http://www.w3.org/2000/svg" viewBox="0 0 32 32"><path d="M22.609 22.136a.226.226 0 0 0-.276.04A8.82 8.82 0 0 1 16 24.859c-4.885 0-8.858-3.975-8.858-8.86 0-.237.034-.466.052-.698a16 16 0 0 0-.73-.13c-.258-.03-.516-.06-.774-.081q-.26 0-.501-.066a11 11 0 0 0-.047.976c0 5.988 4.87 10.859 10.858 10.859 3.183 0 6.045-1.382 8.032-3.572.1-.11.07-.289-.059-.363zM24.77 17.184c.19-.075.388-.12.6-.113q.124 0 .246.012.308.033.614.083a1.6 1.6 0 0 1 .329.093c.068.028.135.06.203.087.057-.442.097-.89.097-1.346C26.859 10.012 21.987 5.14 16 5.14a10.82 10.82 0 0 0-8.032 3.572c-.1.11-.07.289.06.363l1.363.788c.09.052.203.035.276-.04A8.82 8.82 0 0 1 16 7.141c4.885 0 8.859 3.974 8.859 8.859 0 .402-.037.796-.09 1.184"/><path d="M6.241 12.481 1.8 17.451a.185.185 0 0 0 .138.308h8.606c.16 0 .245-.189.138-.308zM25.759 19.519l4.441-4.97a.185.185 0 0 0-.138-.308h-8.606c-.16 0-.245.189-.138.308z"/></svg>