<svg xmlns="http://www.w3.org/2000/svg" width="32" height="32"><path d="M20 2.667a2.667 2.667 0 0 0-.306 5.316 8.3 8.3 0 0 1-.562 1.45l-.32.64a1.328 1.328 0 0 0 2.376 1.188l.32-.64a10.9 10.9 0 0 0 1.153-4.887v-.23A2.667 2.667 0 0 0 20 2.666zm6.667 0a2.667 2.667 0 0 0-.307 5.316q-.21.749-.561 1.45l-.32.64a1.328 1.328 0 0 0 2.375 1.188l.32-.64a10.9 10.9 0 0 0 1.154-4.887v-.23a2.667 2.667 0 0 0-2.661-2.837M5.333 14.672h4.634l2.656 2.656h-7.29a1.328 1.328 0 0 1 0-2.656m0 8h12.634l2.656 2.656H5.333a1.328 1.328 0 0 1 0-2.656m21.792 2.575 1.814 1.814a1.328 1.328 0 0 1-1.878 1.878l-24-24a1.328 1.328 0 1 1 1.878-1.878L8.55 6.672H14a1.328 1.328 0 0 1 0 2.656h-2.794l5.344 5.344h10.117a1.328 1.328 0 1 1 0 2.656h-7.461l5.344 5.344h2.117a1.328 1.328 0 0 1 .458 2.575"/></svg>