<svg xmlns="http://www.w3.org/2000/svg" viewBox="0 0 32 32"><path d="M7.38 26.33H5.06c-1.66 0-3.01-1.35-3.01-3.01V21c0-1.66 1.35-3.01 3.01-3.01h2.32c1.66 0 3.01 1.35 3.01 3.01v2.32c0 1.66-1.35 3.01-3.01 3.01M5.06 20c-.55 0-1 .45-1 1v2.33c0 .55.45 1 1 1h2.33c.55 0 1-.45 1-1V21c0-.55-.45-1-1-1zM17.16 26.33h-2.32c-1.66 0-3.01-1.35-3.01-3.01V21c0-1.66 1.35-3.01 3.01-3.01h2.32c1.66 0 3.01 1.35 3.01 3.01v2.32c0 1.66-1.35 3.01-3.01 3.01M14.83 20c-.55 0-1 .45-1 1v2.33c0 .55.45 1 1 1h2.33c.55 0 1-.45 1-1V21c0-.55-.45-1-1-1zM26.94 26.33h-2.32c-1.66 0-3.01-1.35-3.01-3.01V21c0-1.66 1.35-3.01 3.01-3.01h2.32c1.66 0 3.01 1.35 3.01 3.01v2.32c0 1.66-1.35 3.01-3.01 3.01M24.61 20c-.55 0-1 .45-1 1v2.33c0 .55.45 1 1 1h2.33c.55 0 1-.45 1-1V21c0-.55-.45-1-1-1zM25.78 15.26c-.55 0-1-.45-1-1V8.34c0-.32-.41-.67-1.01-.67H8.23c-.59 0-1.01.35-1.01.67v5.92c0 .55-.45 1-1 1s-1-.45-1-1V8.34c0-1.47 1.35-2.67 3.01-2.67h15.54c1.66 0 3.01 1.2 3.01 2.67v5.92c0 .55-.45 1-1 1" class="cls-1"/><path d="M6.22 15.99c-.27 0-.52-.11-.71-.29l-3.14-3.15a.996.996 0 1 1 1.41-1.41l2.44 2.44 2.44-2.44a.996.996 0 1 1 1.41 1.41L6.93 15.7a1 1 0 0 1-.71.29"/></svg>