<svg xmlns="http://www.w3.org/2000/svg" width="32" height="32"><path d="m13.817 4.385-.235.018c-.372.042-.661.148-1.06.431l-.254.192-.29.24a8.406 8.406 0 0 0-.161.14l-.564.507-8.149 7.532-.265.256a5.197 5.197 0 0 0-.201.209l-.153.184a2.567 2.567 0 0 0-.381.709 2.664 2.664 0 0 0 0 1.728 2.567 2.567 0 0 0 .381.709l.153.184c.058.064.124.133.201.209l.428.409 7.986 7.379.563.507.311.266.14.114.254.192c.399.283.688.389 1.059.431l.235.019a2.666 2.666 0 0 0 2.184-.955l.084-.105c.34-.442.465-.857.51-1.743l.016-.485.008-.904v-1.046l.181.011c3.425.255 6.109 1.386 8.166 3.119l1.382 1.155.385.305.206.151.174.115.149.084c.047.023.09.042.132.057l.122.036.06.011.121.011.2-.001.156-.006a1.965 1.965 0 0 0 1.645-.955l.13-.215.067-.128.051-.127c.042-.13.06-.274.052-.478l-.017-.226-.034-.276-.084-.53-.23-1.277c-1.328-7.257-5.367-12.318-13.015-12.839l-.003-1.69-.013-.678-.018-.369a6.389 6.389 0 0 0-.013-.163l-.033-.289c-.066-.445-.185-.715-.398-1.004l-.14-.177a2.666 2.666 0 0 0-2.184-.955zm.095 2.754.025.352.012.527.003.619V11c0 .736.597 1.333 1.333 1.333l.408.005c6.591.156 10.003 4.114 11.243 10.303l.085.444-.337-.283C23.859 20.422 20.084 19 15.286 19c-.736 0-1.333.597-1.333 1.333l-.003 2.872-.018.966v.036l-.274-.217-.242-.21-.807-.737-7.791-7.207-.172-.171.172-.171.444-.416 8.056-7.439.268-.236.205-.169.122-.096z"/></svg>