<svg xmlns="http://www.w3.org/2000/svg" width="32" height="32"><circle cx="7.87" cy="7.87" r="6.87"/><path d="M21.206 4.129a2.56 2.56 0 0 1 2.557 2.558v3.061l-2.237-2.237a1.05 1.05 0 0 0-1.49 0l-.453.454a1.05 1.05 0 0 0 0 1.49l4.847 4.847a1.003 1.003 0 0 0 1.415 0l4.846-4.848a1.05 1.05 0 0 0 0-1.49l-.454-.453a1.05 1.05 0 0 0-1.489 0l-2.237 2.237V6.687a5.304 5.304 0 0 0-5.305-5.305h-3.443a1.054 1.054 0 0 0-1.054 1.052v.642c0 .583.471 1.054 1.054 1.054z"/><circle cx="24.13" cy="24.212" r="6.87"/><path d="M14.237 27.954h-3.443a2.556 2.556 0 0 1-2.557-2.559v-3.06l2.237 2.236a1.05 1.05 0 0 0 1.49 0l.453-.453a1.05 1.05 0 0 0 0-1.49L7.57 17.781a1.003 1.003 0 0 0-1.415 0L1.31 22.628a1.05 1.05 0 0 0 0 1.49l.454.453a1.05 1.05 0 0 0 1.489 0l2.237-2.237v3.061a5.304 5.304 0 0 0 5.305 5.305h3.443a1.054 1.054 0 0 0 1.054-1.052v-.642a1.054 1.054 0 0 0-1.054-1.054"/></svg>