<svg xmlns="http://www.w3.org/2000/svg" width="32" height="32"><path d="M17.6 18h-.092c-.017 0-.033 0-.05-.004l-.133-.012c-.021 0-.042-.004-.063-.004a1.688 1.688 0 0 1-.446-.113 2.191 2.191 0 0 1-.488-.279l-.158-.117-.033-.025-.038-.029a.49.49 0 0 0-.046-.038c-.004-.004-.012-.008-.017-.017l-.204-.175c-.008-.008-.017-.017-.025-.021l-.383-.342-.012-.012-5.588-5.167c-.004-.004-.012-.008-.017-.017l-.287-.275c-.008-.008-.017-.012-.021-.021l-.075-.075c-.021-.021-.037-.042-.054-.058-.012-.017-.029-.033-.042-.05l-.079-.096-.054-.067-.083-.121c-.033-.05-.063-.104-.096-.162-.025-.046-.05-.096-.071-.146s-.042-.1-.058-.15a2.29 2.29 0 0 1 .058-1.642c.021-.05.046-.1.071-.146a3.391 3.391 0 0 1 .179-.287.833.833 0 0 1 .054-.071l.079-.096c.012-.017.025-.029.042-.046a.83.83 0 0 1 .058-.063l.075-.075.017-.017.175-.167.021-.021 5.696-5.267.012-.013.387-.346.012-.013.054-.05.05-.042c.004-.004.012-.008.017-.017l.183-.15c.017-.012.029-.025.046-.038l.15-.113c.012-.008.025-.021.038-.029.163-.113.304-.192.45-.25.142-.054.283-.092.446-.113.021-.004.042-.004.063-.008l.133-.008c.017 0 .033-.004.05-.004h.092c.321 0 .629.067.921.192a2.266 2.266 0 0 1 .858.655l.079.1c.012.017.025.029.033.046.092.129.163.25.217.383.054.138.096.288.125.467.004.017.004.033.008.05l.021.175c0 .013.004.025.004.042l.004.042c0 .021.004.038.004.054v.025l.012.237v.038l.008.454v.862c2.379.233 4.354 1.108 5.896 2.608 1.546 1.504 2.608 3.621 3.154 6.292.033.083.058.167.075.258l.158.883c0 .008.004.017.004.029l.054.346c.004.017.004.029.008.046l.021.154c.004.021.004.042.008.067l.008.117c0 .021.004.046.004.067v.046c0 .217-.054.429-.15.617l-.004.008a.359.359 0 0 1-.042.071l-.075.121-.012.017a1.804 1.804 0 0 1-1.496.859l-.096.004h-.096c-.229 0-.458-.058-.658-.175l-.012-.008a1.361 1.361 0 0 1-.079-.05l-.075-.05c-.017-.012-.038-.025-.054-.038l-.113-.083c-.012-.008-.025-.021-.038-.029l-.246-.196c-.008-.008-.017-.017-.029-.021l-.958-.8c-.029-.021-.054-.046-.079-.071a8.623 8.623 0 0 0-2.592-1.412 10.935 10.935 0 0 0-2.479-.525v.991l-.012.321v.025a3.46 3.46 0 0 1-.117.817 1.876 1.876 0 0 1-.317.621c-.008.008-.012.017-.021.029l-.046.058-.025.029a2.313 2.313 0 0 1-1.762.817zm-.383-3.158.012.012v-1.921c0-.363.142-.708.4-.963.254-.254.596-.4.962-.4 1.679 0 3.246.246 4.654.729 1.05.363 2.021.858 2.896 1.483-.462-1.754-1.208-3.142-2.217-4.121-1.246-1.213-2.946-1.854-5.05-1.904l-.296-.004a1.356 1.356 0 0 1-1.35-1.363V4.469l-.012.013-5.608 5.179.033.033 5.575 5.146zm2.683-1.909z"/><path d="M8.529 30.625c-.896 0-1.358-.15-1.629-.262a2.667 2.667 0 0 1-1.587-1.825c-.15-.604-.158-1.533.646-2.512.004-.008.013-.012.017-.021l.029-.038c.004-.008.013-.012.017-.021l.233-.262.013-.012.188-.204.179-.204c.042-.05.083-.1.117-.146-1.138-.979-2.054-2.104-2.725-3.354-.875-1.629-1.321-3.425-1.321-5.338 0-1.679.362-3.308 1.075-4.838a1.337 1.337 0 0 1 1.771-.646c.667.313.954 1.104.646 1.771a8.694 8.694 0 0 0-.825 3.712c0 1.471.338 2.842 1 4.075.612 1.142 1.5 2.158 2.637 3.021.254.192.429.467.496.775.058.262.2 1.188-.396 2.096a6.01 6.01 0 0 1-.45.6c-.004.008-.012.012-.017.021l-.2.225c-.008.008-.012.017-.021.025l-.192.208-.233.262c-.029.038-.088.108-.104.158.004.004.013.008.021.012l.013.004s.158.054.588.054c.313 0 1.392-.038 2.254-.521a8.55 8.55 0 0 0 .954-.621l.008-.008.3-.238.25-.212.292-.267a1.326 1.326 0 0 1 1.146-.325c.713.137 1.446.204 2.179.204 2.817 0 5.467-.996 7.458-2.8a9.467 9.467 0 0 0 2.254-3.033 1.337 1.337 0 0 1 1.771-.646c.667.313.954 1.104.646 1.771a12.186 12.186 0 0 1-2.879 3.883c-2.483 2.254-5.767 3.492-9.25 3.492-.675 0-1.35-.046-2.017-.142l-.125.104c-.008.004-.012.012-.021.017l-.037.029c-.008.004-.012.012-.021.017l-.3.238c-.004.004-.008.004-.012.008l-.021.017a11.026 11.026 0 0 1-1.279.833c-1.363.779-2.925.863-3.533.863zm-1.625-5.783z"/></svg>