<svg xmlns="http://www.w3.org/2000/svg" width="32" height="32" fill="none"><path fill="#000" d="M20.313 5.268a1.67 1.67 0 0 1 2.06-1.158 12.455 12.455 0 0 1 2.72 1.13 1.675 1.675 0 0 1 .64 2.278 1.668 1.668 0 0 1-2.273.64 9.117 9.117 0 0 0-1.992-.826 1.674 1.674 0 0 1-1.155-2.064Zm7.223 4.059a1.668 1.668 0 0 1 2.274.64c.482.86.86 1.776 1.127 2.726a1.67 1.67 0 1 1-3.215.905 9.109 9.109 0 0 0-.825-1.993 1.675 1.675 0 0 1 .639-2.278zm2.246 7.987a1.674 1.674 0 0 1 1.155 2.064 12.482 12.482 0 0 1-1.127 2.726 1.668 1.668 0 0 1-2.273.641 1.675 1.675 0 0 1-.64-2.278 9.192 9.192 0 0 0 .825-1.996 1.67 1.67 0 0 1 2.06-1.157zm-4.05 7.238a1.675 1.675 0 0 1-.639 2.278c-.859.483-1.773.863-2.72 1.13a1.674 1.674 0 0 1-.903-3.222 9.065 9.065 0 0 0 1.988-.826 1.668 1.668 0 0 1 2.274.64z" style="stroke-width:1.67169"/><path fill="#000" d="M14.531 1.05C6.936 1.806 1 8.247 1 16.036c0 7.79 5.936 14.23 13.531 14.985 1.73.171 3.172-1.292 3.172-2.936V3.986c0-1.643-1.441-3.107-3.172-2.935zm-.172 3.475v23.02c-5.649-.826-10.015-5.6-10.015-11.51S8.71 5.351 14.359 4.525z" style="stroke-linecap:round;-inkscape-stroke:none"/><path fill="#000" d="M15.361 3.318a1.672 1.672 0 0 0-1.181.49L1.822 16.194a1.672 1.672 0 0 0 .002 2.364 1.672 1.672 0 0 0 2.365-.002L16.547 6.172a1.672 1.672 0 0 0-.004-2.365 1.672 1.672 0 0 0-1.182-.489zm1.849 8.186a1.672 1.672 0 0 0-2.362.004L4.1 22.278a1.672 1.672 0 0 0 .004 2.363 1.672 1.672 0 0 0 2.363-.002l10.748-10.77a1.672 1.672 0 0 0-.004-2.365zm-1.18 7.879a1.672 1.672 0 0 0-1.182.492L8.475 26.26a1.672 1.672 0 0 0 .004 2.365 1.672 1.672 0 0 0 2.363-.002l6.373-6.387a1.672 1.672 0 0 0-.004-2.363 1.672 1.672 0 0 0-1.182-.49z" style="stroke-linecap:round;-inkscape-stroke:none"/></svg>