<svg xmlns="http://www.w3.org/2000/svg" width="32" height="32"><path d="M10.276.391a1.333 1.333 0 0 1 0 1.886L8.552 4.001h14.114a5.333 5.333 0 0 1 5.333 5.333v13.333A5.333 5.333 0 0 1 22.666 28H9.333A5.333 5.333 0 0 1 4 22.667v-9.333a1.333 1.333 0 0 1 2.666 0v9.333a2.667 2.667 0 0 0 2.667 2.667h13.333a2.667 2.667 0 0 0 2.667-2.667V9.334a2.667 2.667 0 0 0-2.667-2.667H8.552l1.724 1.724a1.333 1.333 0 1 1-1.886 1.886l-4-4a1.334 1.334 0 0 1 0-1.886l4-4a1.333 1.333 0 0 1 1.886 0zm10.781 10.666a1.333 1.333 0 1 1 1.886 1.886l-8 8a1.333 1.333 0 0 1-1.886 0L9.724 17.61a1.333 1.333 0 1 1 1.886-1.886l2.391 2.391 7.057-7.057z"/></svg>