<svg xmlns="http://www.w3.org/2000/svg" width="24" height="24" fill="none" viewBox="0 0 24 24"><path fill="#fff" fill-rule="evenodd" d="M12.413 1.413a.83.83 0 0 1 1.174 1.174L12.004 4.17H13a8.83 8.83 0 1 1-3.312 17.018.83.83 0 0 1 .623-1.538c.83.335 1.736.52 2.689.52a7.17 7.17 0 0 0 0-14.34h-.996l1.583 1.583a.83.83 0 0 1-1.174 1.174l-3-3a.83.83 0 0 1 0-1.174zm-5.84 6.722c.327-.079.67-.065.992.039.26.084.462.229.629.37.16.135.336.313.524.501l2.237 2.236c.188.189.365.365.5.525.107.125.215.27.298.444l.073.185.039.138c.078.327.065.67-.04.992-.084.26-.228.463-.37.63-.135.159-.312.336-.5.524l-2.237 2.236c-.188.188-.365.366-.524.501-.167.142-.37.286-.629.37-.367.12-.763.12-1.13 0a1.9 1.9 0 0 1-.63-.37c-.159-.135-.336-.313-.524-.5l-2.236-2.237c-.189-.188-.366-.365-.501-.525a1.9 1.9 0 0 1-.37-.629 1.83 1.83 0 0 1 0-1.13l.073-.185c.082-.174.19-.32.297-.444.135-.16.312-.336.5-.525l2.237-2.236c.188-.188.365-.366.524-.5.167-.142.37-.287.63-.371zm.382 1.616a1 1 0 0 0-.075.059 8 8 0 0 0-.425.409l-2.237 2.236a8 8 0 0 0-.409.425 1 1 0 0 0-.058.075.2.2 0 0 0 0 .09 1 1 0 0 0 .058.075c.081.096.202.218.41.425l2.236 2.236c.207.208.329.328.425.41a1 1 0 0 0 .075.057.2.2 0 0 0 .089 0 1 1 0 0 0 .076-.058c.095-.08.217-.201.425-.409l2.236-2.236c.207-.207.328-.33.41-.425a1 1 0 0 0 .057-.076.17.17 0 0 0 0-.089 1 1 0 0 0-.058-.075 8 8 0 0 0-.41-.425L7.546 10.22a8 8 0 0 0-.425-.41 1 1 0 0 0-.076-.058.2.2 0 0 0-.09 0" clip-rule="evenodd"/></svg>