<svg xmlns="http://www.w3.org/2000/svg" width="32" height="32"><path d="M16 2.667c2.477 0 3.717 0 4.747.204a10.67 10.67 0 0 1 8.382 8.381c.204 1.03.204 2.27.204 4.748 0 2.477 0 3.717-.204 4.747a10.67 10.67 0 0 1-8.382 8.382c-1.028.204-2.268.204-4.747.204s-3.717 0-4.747-.204a10.67 10.67 0 0 1-8.382-8.382c-.204-1.028-.204-2.268-.204-4.747s0-3.717.204-4.747a10.67 10.67 0 0 1 8.382-8.384c1.03-.202 2.27-.202 4.747-.202m0 5.56a7.773 7.773 0 1 0 0 15.546 7.773 7.773 0 0 0 0-15.546m0 2.213a5.56 5.56 0 1 1 0 11.12 5.56 5.56 0 0 1 0-11.12"/></svg>