<svg xmlns="http://www.w3.org/2000/svg" width="32" height="32"><path d="M11 1.333c.684 0 1.247.515 1.324 1.178l.009.155v5.833a1.333 1.333 0 0 1-2.657.155l-.009-.155.001-2.696a12 12 0 0 0-5.667 10.196c0 6.627 5.373 12 12 12s12-5.373 12-12-5.373-12-12-12a1.333 1.333 0 0 1 0-2.666c8.1 0 14.667 6.566 14.667 14.667s-6.566 14.667-14.667 14.667c-8.1 0-14.667-6.566-14.667-14.667 0-4.873 2.399-9.305 6.229-12H5.168a1.333 1.333 0 0 1-1.324-1.178l-.009-.155c0-.684.515-1.247 1.178-1.324l.155-.009h5.833zm5 5c.684 0 1.247.515 1.324 1.178l.009.155v7.78l4.609 4.611c.481.481.518 1.237.111 1.76l-.111.126a1.333 1.333 0 0 1-1.76.111l-.126-.111-5-5a1.334 1.334 0 0 1-.379-.768L14.665 16V7.667c0-.736.597-1.333 1.333-1.333z"/></svg>