<svg xmlns="http://www.w3.org/2000/svg" width="32" height="32" viewBox="0 0 32 32"><path d="M10.886 1c.7 0 1.276.526 1.355 1.205l.009.159V8.33a1.364 1.364 0 0 1-2.718.159l-.01-.16.001-2.757A12.27 12.27 0 0 0 3.727 16c0 6.778 5.495 12.273 12.273 12.273S28.273 22.778 28.273 16A1.364 1.364 0 1 1 31 16c0 8.284-6.716 15-15 15S1 24.284 1 16c0-4.984 2.453-9.516 6.37-12.272H4.92c-.699 0-1.275-.527-1.354-1.205l-.01-.16c0-.699.527-1.275 1.205-1.354L4.921 1ZM16 6.114c.7 0 1.276.526 1.354 1.204l.01.16v7.956l4.714 4.715c.491.492.53 1.265.113 1.8l-.113.129a1.364 1.364 0 0 1-1.8.113l-.129-.113-5.113-5.114a1.36 1.36 0 0 1-.388-.785L14.636 16V7.477c0-.753.61-1.363 1.364-1.363" style="stroke-width:1.36364"/></svg>