<svg xmlns="http://www.w3.org/2000/svg" width="32" height="32" fill="none"><path fill="#000" d="M27.33 2.467A4.924 4.924 0 0 1 32 7.384v17.232l-.006.253a4.925 4.925 0 0 1-4.664 4.664l-.253.006H4.923l-.253-.006a4.925 4.925 0 0 1-4.664-4.664L0 24.616V7.384a4.924 4.924 0 0 1 4.67-4.917l.253-.006h22.154zM4.923 4.923a2.46 2.46 0 0 0-2.461 2.461v17.232c0 1.359 1.102 2.46 2.46 2.46h22.155c1.36 0 2.46-1.101 2.461-2.46V7.384a2.46 2.46 0 0 0-2.46-2.46zm16 3.693a6.154 6.154 0 0 1 6.154 6.153V16l-.009.316a6.154 6.154 0 0 1-6.145 5.838H17.23V8.616zm-1.23 11.076h1.23A3.69 3.69 0 0 0 24.615 16V14.77a3.69 3.69 0 0 0-3.692-3.692h-1.23z"/><path fill="#000" d="M13.41 12.418c-.624 0-1.104-.523-1.504-1.002a2 2 0 0 0-.367-.335q-.675-.48-1.757-.479-.76 0-1.305.23-.544.229-.833.622t-.295.898q0 .42.19.728.198.308.532.525.334.21.74.354t.82.242l1.259.315q.76.176 1.461.479.709.3 1.266.76.564.459.891 1.108.328.65.328 1.52 0 1.181-.603 2.08-.603.89-1.744 1.396-1.134.498-2.747.498-1.566 0-2.72-.485-1.147-.486-1.797-1.416a3.7 3.7 0 0 1-.492-1.024c-.204-.66.372-1.245 1.062-1.245.636 0 1.115.536 1.479 1.058q.039.056.082.11.38.465.99.694.616.23 1.377.23.793-.001 1.39-.236.602-.243.944-.67.34-.432.347-1.009-.006-.525-.308-.865-.302-.348-.846-.577a8 8 0 0 0-1.259-.42l-1.527-.393q-1.659-.426-2.623-1.292-.957-.87-.957-2.314 0-1.186.643-2.078.649-.891 1.763-1.383 1.115-.499 2.524-.499 1.43 0 2.505.499 1.08.492 1.698 1.37.261.37.416.789c.236.64-.34 1.217-1.023 1.217"/></svg>