<svg xmlns="http://www.w3.org/2000/svg" width="32" height="32"><path d="M26.594 15.95v.1c-.005.854-.007 1.281.06 1.536.07.268.132.402.289.63.149.216.39.421.871.831l.037.031c.717.611 1.076.916 1.26 1.294.162.334.227.706.19 1.075-.043.419-.275.828-.74 1.647l-.267.47c-.446.786-.669 1.179-.986 1.424a1.994 1.994 0 0 1-1.145.417c-.4.016-.824-.141-1.671-.456-.579-.215-.869-.323-1.117-.35a1.689 1.689 0 0 0-.77.067c-.24.069-.601.281-1.322.704l-.033.019c-.74.43-1.109.645-1.294.829a1.665 1.665 0 0 0-.403.581c-.109.237-.163.555-.273 1.191-.165.956-.247 1.435-.484 1.789a2.002 2.002 0 0 1-.846.713c-.389.174-.869.174-1.827.174h-.377c-.958 0-1.437 0-1.827-.174a2.005 2.005 0 0 1-.846-.712c-.237-.354-.32-.832-.484-1.789-.11-.637-.164-.955-.273-1.193a1.657 1.657 0 0 0-.403-.579c-.184-.185-.554-.4-1.294-.83l-.034-.02c-.721-.423-1.081-.634-1.321-.703-.3-.087-.46-.101-.771-.067-.248.027-.538.134-1.117.35-.847.315-1.27.472-1.671.456a2 2 0 0 1-1.145-.417c-.317-.245-.54-.638-.986-1.424l-.267-.47c-.465-.819-.698-1.229-.741-1.647a1.995 1.995 0 0 1 .19-1.075c.183-.379.542-.684 1.26-1.295l.039-.033c.48-.408.72-.613.869-.829.157-.228.219-.363.289-.631.067-.254.064-.68.059-1.531v-.107c.005-.851.007-1.277-.059-1.531a1.695 1.695 0 0 0-.289-.631c-.149-.216-.389-.421-.869-.829l-.04-.034c-.717-.611-1.076-.916-1.26-1.295a2.004 2.004 0 0 1-.19-1.075c.043-.418.275-.828.741-1.647l.266-.469c.446-.786.669-1.179.986-1.424a2 2 0 0 1 1.145-.417c.4-.016.824.141 1.671.456.579.215.869.323 1.117.35.31.033.471.019.77-.067.24-.069.6-.281 1.321-.704l.034-.02c.74-.43 1.11-.645 1.294-.83.2-.201.284-.322.403-.579.109-.237.164-.556.273-1.193.165-.957.247-1.435.484-1.789.209-.312.502-.559.846-.712.389-.174.868-.174 1.827-.174h.377c.959 0 1.438 0 1.827.174a2 2 0 0 1 .846.713c.237.354.32.832.484 1.789.109.636.164.954.273 1.191.118.258.203.38.403.581.184.184.554.399 1.294.829l.033.019c.722.423 1.083.635 1.323.704.3.087.46.101.77.067.248-.027.538-.134 1.117-.35.847-.315 1.271-.472 1.671-.456a2 2 0 0 1 1.145.417c.317.245.54.638.986 1.424l.266.469c.465.819.698 1.229.74 1.647.038.369-.028.741-.19 1.075-.183.379-.542.684-1.259 1.294l-.037.032c-.481.409-.722.614-.871.831a1.675 1.675 0 0 0-.289.63c-.067.254-.064.681-.06 1.535zM16 20a4 4 0 1 0 0-8 4 4 0 0 0 0 8z"/></svg>