<svg xmlns="http://www.w3.org/2000/svg" width="32" height="32"><path d="M15.215 1.333h1.609c.294 0 .583 0 .83.019.275.021.593.069.921.216.463.207.858.54 1.14.961.2.299.302.603.369.871.06.241.109.526.159.815l.006.038.267 1.55c.685.311 1.336.69 1.941 1.132l1.42-.528c.278-.103.551-.205.791-.274.267-.077.584-.142.945-.118.509.034.998.212 1.41.514.292.214.493.468.648.698.139.208.283.461.43.719l.853 1.503c.142.251.283.498.387.719.116.246.229.541.265.894.051.497-.038.999-.256 1.449a2.703 2.703 0 0 1-.555.749c-.174.172-.391.356-.61.543l-1.226 1.043c.041.375.065.759.065 1.155s-.024.78-.065 1.154l1.225 1.043c.22.187.436.371.61.543.193.191.401.43.555.749.218.45.307.952.256 1.449a2.722 2.722 0 0 1-.265.894c-.105.221-.245.469-.387.719l-.853 1.503c-.146.258-.29.511-.43.719a2.71 2.71 0 0 1-.648.698 2.705 2.705 0 0 1-1.41.514 2.71 2.71 0 0 1-.945-.118c-.24-.069-.514-.171-.791-.274l-1.42-.528a10.96 10.96 0 0 1-1.941 1.132l-.267 1.55-.006.038c-.05.289-.099.574-.159.815a2.722 2.722 0 0 1-.369.871 2.696 2.696 0 0 1-1.14.961 2.708 2.708 0 0 1-.921.216c-.247.019-.537.019-.83.019h-1.647c-.294 0-.583 0-.83-.019a2.708 2.708 0 0 1-.921-.216 2.701 2.701 0 0 1-1.14-.96 2.712 2.712 0 0 1-.369-.871c-.06-.241-.109-.525-.159-.815l-.274-1.589a10.987 10.987 0 0 1-1.94-1.132l-1.42.528c-.278.103-.551.205-.791.274a2.713 2.713 0 0 1-.945.118 2.688 2.688 0 0 1-1.41-.514 2.727 2.727 0 0 1-.648-.698 11.11 11.11 0 0 1-.43-.719l-.854-1.503c-.142-.251-.283-.498-.388-.719a2.715 2.715 0 0 1-.266-.894 2.692 2.692 0 0 1 .256-1.449c.154-.319.362-.558.555-.749.174-.172.391-.356.61-.543l1.225-1.043c-.041-.374-.065-.759-.065-1.154s.024-.78.065-1.154l-1.226-1.043c-.22-.187-.436-.371-.61-.543a2.703 2.703 0 0 1-.555-.749 2.703 2.703 0 0 1-.256-1.449c.036-.352.149-.648.266-.894.105-.221.245-.468.388-.719l.854-1.503c.146-.258.29-.511.43-.719.155-.23.356-.484.648-.698a2.695 2.695 0 0 1 1.41-.513 2.71 2.71 0 0 1 .945.118c.24.069.514.171.791.274l1.42.528a10.987 10.987 0 0 1 1.94-1.132l.274-1.589c.05-.289.099-.574.159-.815.067-.267.169-.572.369-.871a2.687 2.687 0 0 1 1.14-.96c.328-.147.646-.195.921-.216.247-.019.536-.019.83-.019h.038zm-.668 2.678a1.599 1.599 0 0 0-.035.003 10.422 10.422 0 0 0-.133.689l-.392 2.276a1.333 1.333 0 0 1-.849 1.023 8.307 8.307 0 0 0-2.493 1.457 1.335 1.335 0 0 1-1.329.235L7.23 8.919a9.71 9.71 0 0 0-.67-.233l-.02.029c-.076.113-.17.277-.343.581l-.816 1.437a10.48 10.48 0 0 0-.315.576l-.014.031.024.024c.094.093.233.212.492.433l1.755 1.494c.358.305.529.776.45 1.239-.085.496-.135.983-.135 1.471s.05.975.135 1.471c.079.464-.092.935-.45 1.24l-1.755 1.493c-.26.221-.398.34-.493.433l-.024.024.014.031c.057.12.146.279.314.576l.816 1.437c.173.304.266.467.343.581l.01.015.01.014a11.139 11.139 0 0 0 .67-.233l2.085-.775a1.332 1.332 0 0 1 1.329.235A8.307 8.307 0 0 0 13.135 24c.445.166.768.555.849 1.023l.392 2.276a10.422 10.422 0 0 0 .13.678l.003.012.035.003c.135.01.321.011.667.011h1.571a10.409 10.409 0 0 0 .703-.014 10.422 10.422 0 0 0 .133-.689l.391-2.275c.081-.468.404-.858.849-1.024a8.266 8.266 0 0 0 2.492-1.457 1.33 1.33 0 0 1 1.329-.235l2.086.775a9.71 9.71 0 0 0 .67.233l.02-.029a10.1 10.1 0 0 0 .342-.581l.816-1.437c.168-.296.258-.456.314-.576l.014-.031-.014-.014-.01-.01a10.453 10.453 0 0 0-.492-.433l-1.755-1.493a1.333 1.333 0 0 1-.45-1.242c.085-.493.134-.98.134-1.469s-.05-.976-.134-1.469c-.08-.464.091-.936.45-1.242l1.755-1.494c.259-.221.398-.34.492-.433l.024-.024-.014-.031c-.057-.12-.146-.279-.314-.575l-.816-1.437a10.293 10.293 0 0 0-.343-.581l-.014-.021a.055.055 0 0 0-.006-.008 10.375 10.375 0 0 0-.67.233l-2.086.775a1.334 1.334 0 0 1-1.329-.235 8.311 8.311 0 0 0-2.492-1.457 1.334 1.334 0 0 1-.849-1.024l-.391-2.275a10.274 10.274 0 0 0-.133-.69A10.409 10.409 0 0 0 16.781 4H15.21c-.347 0-.533.001-.667.011zM16 18.667a2.667 2.667 0 1 1 0-5.334 2.667 2.667 0 0 1 0 5.334z"/></svg>