<svg xmlns="http://www.w3.org/2000/svg" width="32" height="32"><path d="M24 5.333H8A2.667 2.667 0 0 0 5.333 8v10.667A2.667 2.667 0 0 0 8 21.334h4.011a14.403 14.403 0 0 0-1.167 2.667H8a5.333 5.333 0 0 1-5.333-5.333V8.001A5.333 5.333 0 0 1 8 2.668h16a5.333 5.333 0 0 1 5.333 5.333v8.287l-1.806-1.669c-.291-.269-.582-.538-.861-.783V8a2.667 2.667 0 0 0-2.667-2.667zM13.68 24c.373-.926.877-1.846 1.557-2.667 1.376-1.663 3.471-2.92 6.661-2.996.102-.003.206-.004.311-.004v-.124c0-1.541 0-2.312.309-2.683a1.33 1.33 0 0 1 1.092-.477c.482.025 1.048.548 2.18 1.594l3.741 3.457c.589.544.883.816.992 1.135.096.28.096.584 0 .864-.054.157-.152.302-.308.474a10.17 10.17 0 0 1-.577.562l-3.849 3.557c-.989.914-1.546 1.429-1.993 1.559a.783.783 0 0 1-.186.033 1.332 1.332 0 0 1-1.092-.478c-.309-.371-.309-1.141-.309-2.683v-.124l-.255.002c-3.135.05-5.436 1.021-7.031 2.093-.648.436-1.129.759-1.479.965a.426.426 0 0 1-.176.025.626.626 0 0 1-.511-.376c-.114-.232.067-.897.428-2.225l.017-.061a13.686 13.686 0 0 1 .48-1.422z"/></svg>