<svg xmlns="http://www.w3.org/2000/svg" width="32" height="32"><path d="M2.708 12.242c0-2.987 0-4.479.583-5.621A5.333 5.333 0 0 1 5.62 4.292c1.142-.583 2.633-.583 5.621-.583h9.6c2.988 0 4.479 0 5.621.583a5.333 5.333 0 0 1 2.329 2.329c.583 1.142.583 2.633.583 5.621v5.088l-1.804-1.667c-.504-.467-1.004-.929-1.442-1.267-.404-.313-1.225-.908-2.337-.967a3.998 3.998 0 0 0-3.275 1.433c-.592.713-.775 1.529-.846 2.079-2.333.438-4.2 1.467-5.642 2.871-1.625 1.583-2.575 3.504-3.137 5.233-2.75 0-4.171-.025-5.267-.583a5.328 5.328 0 0 1-2.329-2.329c-.583-1.142-.583-2.633-.583-5.621l-.004-4.271zm23.121 5.441 3.742 3.458c.587.546.883.817.992 1.133.096.279.096.583 0 .863-.108.317-.404.592-.992 1.133l-3.742 3.458c-1.133 1.046-1.696 1.571-2.179 1.592a1.323 1.323 0 0 1-1.092-.479c-.308-.367-.308-1.133-.308-2.675v-.125c-2.892 0-4.992.779-6.479 1.721-1.475.938-2.208 1.404-2.467 1.363a.627.627 0 0 1-.512-.375c-.113-.233.067-.896.429-2.225.133-.488.296-.988.496-1.483 1.158-2.858 3.558-5.667 8.533-5.667v-.125c0-1.542 0-2.313.308-2.683a1.32 1.32 0 0 1 1.091-.476.8.8 0 0 1 .188.033c.446.129 1.004.646 1.992 1.558z"/></svg>