<svg xmlns="http://www.w3.org/2000/svg" width="32" height="32"><path d="M15.983 21.621c-1.05.988-1.775 2.2-2.267 3.421-.2.496-.363.996-.496 1.483-.363 1.329-.542 1.992-.429 2.225a.63.63 0 0 0 .512.375c.258.042.992-.425 2.467-1.363 1.171-.742 2.721-1.379 4.738-1.621l-4.525-4.521zm-1.954-1.808c.025-.025.05-.05.075-.071L2.808 8.446c-.1.933-.1 2.133-.1 3.796l.004 4.271c0 2.988 0 4.479.583 5.621a5.328 5.328 0 0 0 2.329 2.329c1.096.558 2.517.583 5.267.583.563-1.729 1.512-3.65 3.137-5.233zm16.534 3.324c-.108.317-.404.592-.992 1.133l-1.775 1.642 1.146 1.146a1.334 1.334 0 0 1-1.884 1.887l-24-24a1.336 1.336 0 0 1 1.888-1.888L6.009 4.12c1.096-.413 2.571-.413 5.233-.413h9.6c2.988 0 4.479 0 5.621.583a5.333 5.333 0 0 1 2.329 2.329c.583 1.142.583 2.633.583 5.621v5.088l-1.804-1.667c-.504-.467-1.004-.929-1.442-1.267-.404-.313-1.225-.908-2.337-.967a3.998 3.998 0 0 0-3.275 1.433c-.592.713-.775 1.529-.846 2.079-.238.046-.467.096-.692.15L21.3 19.41c.308-.025.625-.038.954-.038v-.125c0-1.542 0-2.313.308-2.683a1.32 1.32 0 0 1 1.091-.476.8.8 0 0 1 .188.033c.225.063.475.225.792.488.321.258.704.617 1.2 1.075l3.742 3.458c.587.546.883.817.992 1.133a1.34 1.34 0 0 1-.004.858z"/></svg>