<svg xmlns="http://www.w3.org/2000/svg" width="32" height="32"><path d="M3.4 30.7c.2.1.4.1.6.1.4 0 .8-.1 1.1-.5l4.1-4.1c.4-.3.6-.5.7-.6.05 0 .1-.025.15-.05s.1-.05.15-.05h11.4c2.4 0 3.7 0 4.9-.6 1-.5 1.9-1.4 2.4-2.4.6-1.2.6-2.5.6-4.9v-7.2c0-2.4 0-3.7-.6-4.9-.5-1-1.4-1.9-2.4-2.4-1.2-.6-2.5-.6-4.9-.6H10.4c-2.4 0-3.7 0-4.9.6-1 .5-1.9 1.4-2.4 2.4s-.6 2.2-.6 3.8c0 .8.7 1.5 1.5 1.5s1.5-.7 1.5-1.5q0-1.8.3-2.4c.2-.5.6-.9 1.1-1.1.5-.3 1.6-.3 3.5-.3h11.2c1.9 0 3 0 3.5.3.5.2.9.6 1 1.1.3.5.3 1.6.3 3.5v7.2c0 1.9 0 3-.3 3.5s-.6.9-1.1 1.1c-.5.3-1.6.3-3.5.3H11c-.7 0-1.1 0-1.6.1-.4.1-.8.3-1.2.5-.4.3-.7.6-1.2 1.1l-1.5 1.5v-7c0-.8-.7-1.5-1.5-1.5s-1.5.7-1.5 1.5v10.6c0 .6.3 1.2.9 1.4m9.7-11.1c-.5-.5-.5-1.4 0-1.9l2.3-2.4H1.3C.6 15.3 0 14.7 0 14s.6-1.3 1.3-1.3h14.2l-2.4-2.4c-.5-.5-.5-1.4 0-1.9s1.4-.5 1.9 0l4.7 4.7c.2.2.4.5.4.9 0 .3-.1.6-.3.8L15 19.6c-.5.5-1.4.5-1.9 0"/></svg>