<svg xmlns="http://www.w3.org/2000/svg" width="32" height="32"><path d="M16 31C7.716 31 1 24.284 1 16S7.716 1 16 1s15 6.716 15 15-6.716 15-15 15m0-27.7C8.986 3.3 3.3 8.987 3.3 16c0 7.013 5.688 12.702 12.7 12.7 7.013 0 12.702-5.688 12.7-12.7 0-7.012-5.688-12.702-12.7-12.7m-5.765 15.636a6.467 6.467 0 0 0 11.527.008 1.15 1.15 0 0 1 2.045 1.05 8.768 8.768 0 0 1-15.62-.015 1.15 1.15 0 0 1 2.048-1.043m2.994-6.398c0 1.147-.774 2.078-1.73 2.078-.955 0-1.732-.93-1.732-2.079 0-1.146.776-2.078 1.732-2.078s1.73.932 1.73 2.078m7.272 2.079c-.956 0-1.73-.93-1.73-2.079 0-1.146.774-2.078 1.73-2.078s1.731.932 1.732 2.078c0 1.149-.776 2.079-1.732 2.079"/></svg>