<svg xmlns="http://www.w3.org/2000/svg" width="32" height="32"><path d="M4 16C4 9.373 9.373 4 16 4s12 5.373 12 12-5.373 12-12 12S4 22.627 4 16zM16 1.333C7.9 1.333 1.333 7.899 1.333 16S7.899 30.667 16 30.667c8.1 0 14.667-6.567 14.667-14.667S24.1 1.333 16 1.333zm-5.408 17.42a1.267 1.267 0 0 0-2.257 1.151 8.599 8.599 0 0 0 7.664 4.696 8.6 8.6 0 0 0 7.658-4.683 1.266 1.266 0 1 0-2.255-1.155 6.067 6.067 0 0 1-5.403 3.305 6.066 6.066 0 0 1-5.408-3.314zm2.741-6.086c0 1.105-.746 2-1.667 2s-1.667-.895-1.667-2 .746-2 1.667-2 1.667.895 1.667 2zm7 2c.921 0 1.667-.895 1.667-2s-.746-2-1.667-2-1.667.895-1.667 2 .746 2 1.667 2z"/></svg>