<svg xmlns="http://www.w3.org/2000/svg" width="32" height="32" fill="none"><path fill="#000" d="M29.722 21.277c.375.34.37.918-.012 1.252a.9.9 0 0 1-1.192-.01l-2.615-2.369v7.977c0 .482-.404.873-.903.873s-.903-.391-.903-.873V20.15l-2.615 2.368a.904.904 0 0 1-1.193.011.832.832 0 0 1-.01-1.252L25 17zM18.755 7.72a1 1 0 0 1 1.94.449l-.02.1-.86 3.73H25l.102.006a1.001 1.001 0 0 1 0 1.99L25 14h-5.648l-2.58 11.18a1 1 0 0 1-1.95-.449L15.684 21H9.736l-.965 4.18a1 1 0 0 1-1.949-.449L7.684 21H3a1 1 0 0 1 0-2h5.146L9.3 14H5a1 1 0 0 1 0-2h4.762l.965-4.18.028-.1a1 1 0 0 1 1.94.449l-.02.1-.86 3.73h5.947l.965-4.18zM10.198 19H16l.102.005q.02.002.04.006L17.3 14h-5.948z"/></svg>