<svg xmlns="http://www.w3.org/2000/svg" width="32" height="32" fill="none"><path fill="#000" d="M29.722 21.277c.375.34.37.918-.011 1.251a.904.904 0 0 1-1.193-.01l-2.615-2.368v7.977c0 .482-.404.873-.903.873s-.903-.391-.903-.873V20.15l-2.615 2.369a.904.904 0 0 1-1.193.01.832.832 0 0 1-.01-1.252L25 17z"/><path fill="#000" d="M20 4a1 1 0 0 1 1 1v1a5 5 0 0 1 5 5v2.5a1 1 0 1 1-2 0V11a3 3 0 0 0-3-3v1a1 1 0 1 1-2 0V8H9v1a1 1 0 0 1-2 0V8a3 3 0 0 0-3 3v11a3 3 0 0 0 3 3h12.5a1 1 0 1 1 0 2H7a5 5 0 0 1-5-5V11a5 5 0 0 1 5-5V5a1 1 0 0 1 2 0v1h10V5a1 1 0 0 1 1-1"/><path fill="#000" d="M21 12a1 1 0 1 1 0 2H7a1 1 0 1 1 0-2z"/></svg>