<svg xmlns="http://www.w3.org/2000/svg" width="32" height="32" fill="none"><path fill="#000" d="M29.722 21.278c.375.34.37.917-.012 1.25a.9.9 0 0 1-1.192-.01l-2.615-2.368v7.977c0 .482-.404.873-.903.873s-.903-.39-.903-.873V20.15l-2.615 2.369a.9.9 0 0 1-1.192.01.83.83 0 0 1-.012-1.251L25 17zM14.924 24a.866.866 0 0 1-.876-.856V22.09a4.44 4.44 0 0 1-2.005-1.022q-.61-.546-.985-1.416c-.172-.4.054-.844.463-1.012.484-.2 1.024.065 1.28.511q.255.442.6.739.646.555 1.699.555.897 0 1.522-.41.625-.412.625-1.278 0-.778-.482-1.234-.483-.455-2.235-1.033-1.884-.6-2.586-1.433-.7-.834-.701-2.034 0-1.444.92-2.244t1.885-.911V8.856c0-.473.392-.856.876-.856s.877.383.877.856v1.01q1.095.18 1.807.812.412.364.694.823c.24.386.023.864-.399 1.049-.472.207-1.003-.047-1.342-.429a2 2 0 0 0-.278-.254q-.483-.356-1.315-.356-.964 0-1.468.433a1.37 1.37 0 0 0-.504 1.078q0 .734.657 1.156.658.422 2.28.889 1.51.444 2.29 1.41A3.46 3.46 0 0 1 19 18.712q0 1.578-.92 2.4t-2.28 1.022v1.011a.866.866 0 0 1-.876.856"/><path fill="#000" d="M2 16.5C2 9.596 7.596 4 14.5 4c5.456 0 10.095 3.495 11.8 8.367l.156.477.025.098a1 1 0 0 1-1.903.581l-.034-.095-.13-.4C22.98 8.934 19.08 6 14.5 6 8.701 6 4 10.701 4 16.5S8.701 27 14.5 27c2.01 0 3.884-.563 5.477-1.54a1 1 0 1 1 1.046 1.705A12.45 12.45 0 0 1 14.5 29C7.596 29 2 23.404 2 16.5"/></svg>