<svg xmlns="http://www.w3.org/2000/svg" width="32" height="32"><path d="M22.907 22.16c-.373 0-.747-.16-1-.453a1.33 1.33 0 0 1 .133-1.88 4.983 4.983 0 0 0 1.707-3.747c0-1.507-.667-2.92-1.84-3.867a1.336 1.336 0 1 1 1.68-2.08 7.614 7.614 0 0 1 2.84 5.933c0 2.213-.96 4.307-2.627 5.76-.28.227-.587.333-.893.333z"/><path d="M23.893 28.093a1.33 1.33 0 0 1-1.2-.76 1.323 1.323 0 0 1 .627-1.773c3.667-1.747 6.04-5.507 6.04-9.56 0-4.067-2.373-7.813-6.04-9.56-.667-.32-.947-1.107-.627-1.773s1.107-.947 1.773-.627c4.587 2.187 7.56 6.893 7.56 11.973s-2.96 9.787-7.56 11.973a1.672 1.672 0 0 1-.573.107zm-5.68-23.04c-.84-1.44-1.893-1.88-2.64-2-1.667-.253-3.013.893-3.2 1.067l-4.64 4.64H4.226c-2.213 0-4 1.787-4 4v6.253c0 2.2 1.787 4 4 4h3.507l4.68 4.68c.133.12 1.227 1.053 2.667 1.053.16 0 .32-.013.493-.04.747-.107 1.8-.56 2.64-2l.187-.307V5.372l-.187-.32zm-2.48 20.587c-.16.213-.36.4-.56.427-.347.053-.813-.227-.92-.307L8.84 20.347H4.227c-.733 0-1.333-.6-1.333-1.333v-6.253c0-.747.6-1.333 1.333-1.333H8.84l5.347-5.36c.173-.147.64-.44.987-.373.2.04.4.227.56.427v19.52z"/></svg>