<svg xmlns="http://www.w3.org/2000/svg" width="32" height="32"><path d="M24.413 4.373C29 6.56 31.96 11.253 31.96 16.346c0 5.08-2.96 9.773-7.56 11.96a1.196 1.196 0 0 1-.56.133c-.507 0-.987-.28-1.213-.76a1.334 1.334 0 0 1 .627-1.773c3.667-1.747 6.04-5.507 6.04-9.56 0-4.067-2.373-7.813-6.04-9.56-.653-.32-.947-1.12-.627-1.787s1.107-.947 1.787-.627z"/><path d="M23.667 16.413a4.966 4.966 0 0 0-1.84-3.867c-.573-.453-.667-1.293-.2-1.867s1.307-.667 1.88-.2a7.602 7.602 0 0 1 2.827 5.933 7.591 7.591 0 0 1-2.627 5.76c-.253.213-.56.333-.867.333-.373 0-.747-.16-1.013-.467-.48-.547-.427-1.4.133-1.88a4.938 4.938 0 0 0 1.707-3.747zM18.333 5.707v21.027l-.187.32c-.84 1.44-1.893 1.88-2.64 2-.16.027-.333.04-.493.04-1.44 0-2.52-.947-2.653-1.067l-4.68-4.68H4.16c-2.2 0-4-1.787-4-3.987v-6.267c0-2.2 1.8-4 4-4h3.52l4.627-4.627c.2-.187 1.533-1.333 3.2-1.067.747.12 1.8.56 2.64 2l.187.307z"/></svg>