<svg xmlns="http://www.w3.org/2000/svg" width="32" height="32"><path d="M14.661 8.087c-.173.183-.381.412-.644.701l-3.38 3.718-.023.025a2.508 2.508 0 0 1-.475.43 1.989 1.989 0 0 1-.607.268 2.524 2.524 0 0 1-.638.062h-.896c-.639 0-1.052.001-1.368.022-.304.021-.42.056-.475.079a1.334 1.334 0 0 0-.722.722c-.023.055-.058.171-.079.475-.022.316-.022.729-.022 1.368s.001 1.052.022 1.368c.021.304.056.42.079.475.135.327.395.586.722.722.056.023.171.059.475.079.316.022.729.022 1.368.022h.896c.125-.001.382-.003.638.062.216.055.421.146.607.268.22.145.392.337.475.43l.023.025 3.38 3.718c.263.289.472.518.644.701.005-.251.005-.561.005-.952V9.037c0-.391 0-.701-.005-.952zm.004-3.088a2.398 2.398 0 0 1 2.07.8c.442.502.525 1.145.559 1.543.038.439.038 1.003.038 1.639v13.954c0 .636 0 1.199-.038 1.639-.035.398-.117 1.041-.559 1.543a2.399 2.399 0 0 1-2.07.8c-.665-.075-1.158-.494-1.452-.766-.324-.299-.703-.716-1.13-1.187l-3.34-3.674h-.786c-.585 0-1.09 0-1.507-.028-.44-.03-.88-.096-1.314-.276a4.002 4.002 0 0 1-2.165-2.165c-.18-.435-.246-.875-.276-1.314-.028-.418-.028-.922-.028-1.507v-.085c0-.585 0-1.089.028-1.507.03-.44.096-.88.276-1.314a4.002 4.002 0 0 1 2.165-2.165c.435-.18.874-.246 1.314-.276.418-.028.922-.028 1.507-.028h.786l3.34-3.674c.428-.471.807-.887 1.13-1.187.294-.271.787-.691 1.452-.766zm11.726 6.683a1.333 1.333 0 1 1 1.886 1.886l-2.391 2.391 2.391 2.391a1.333 1.333 0 1 1-1.886 1.886L24 17.845l-2.391 2.391a1.333 1.333 0 0 1-1.87.015l-.016-.015a1.333 1.333 0 0 1 0-1.886l2.391-2.391-2.391-2.391a1.333 1.333 0 1 1 1.886-1.886L24 14.073l2.391-2.391z"/></svg>