<svg xmlns="http://www.w3.org/2000/svg" width="32" height="32"><path d="M22.907 22.16c-.373 0-.747-.16-1-.453a1.33 1.33 0 0 1 .133-1.88 4.983 4.983 0 0 0 1.707-3.747c0-1.507-.667-2.92-1.84-3.867a1.336 1.336 0 1 1 1.68-2.08 7.614 7.614 0 0 1 2.84 5.933c0 2.213-.96 4.307-2.627 5.76-.28.227-.587.333-.893.333z"/><path d="M23.893 28.093a1.33 1.33 0 0 1-1.2-.76 1.323 1.323 0 0 1 .627-1.773c3.667-1.747 6.04-5.507 6.04-9.56 0-4.067-2.373-7.813-6.04-9.56-.667-.32-.947-1.107-.627-1.773s1.107-.947 1.773-.627c4.587 2.187 7.56 6.893 7.56 11.973s-2.96 9.787-7.56 11.973a1.672 1.672 0 0 1-.573.107zM14.662 8.129a48.36 48.36 0 0 0-.644.701l-3.38 3.718-.023.025a2.508 2.508 0 0 1-.475.43 1.989 1.989 0 0 1-.607.268 2.524 2.524 0 0 1-.638.062H8c-.639 0-1.052.001-1.368.022-.304.021-.42.056-.475.079a1.334 1.334 0 0 0-.722.722c-.023.055-.058.171-.079.475-.022.316-.022.729-.022 1.368s.001 1.052.022 1.368c.021.304.056.42.079.475.135.327.395.586.722.722.056.023.171.058.475.079.316.022.729.022 1.368.022h.895c.125-.001.382-.003.638.062.216.055.421.146.607.268.22.145.392.337.475.43l.023.025 3.38 3.718c.263.289.472.518.644.701.005-.251.005-.562.005-.952V9.079c0-.391 0-.701-.005-.952zm.003-3.088a2.398 2.398 0 0 1 2.07.8c.442.503.524 1.145.559 1.543.038.439.038 1.003.038 1.639v13.954c0 .636 0 1.199-.038 1.639-.035.398-.117 1.041-.559 1.543a2.399 2.399 0 0 1-2.07.8c-.665-.075-1.158-.494-1.452-.766-.324-.299-.703-.716-1.13-1.187l-3.34-3.674h-.786c-.585 0-1.09 0-1.507-.029-.44-.03-.88-.096-1.314-.276a4.002 4.002 0 0 1-2.165-2.165c-.18-.435-.246-.874-.276-1.314-.029-.418-.028-.922-.028-1.507v-.085c0-.585 0-1.089.028-1.507.03-.44.096-.88.276-1.314a4.002 4.002 0 0 1 2.165-2.165c.435-.18.874-.246 1.314-.276.418-.028.922-.028 1.507-.028h.786l3.34-3.674c.428-.471.807-.887 1.13-1.187.294-.271.787-.691 1.452-.766zm-6.097 5.817zm.435-.192zm-.435 10.476z"/></svg>