<svg xmlns="http://www.w3.org/2000/svg" width="32" height="32"><path d="M14.56 26.56H9.12c-.8 0-1.28-.16-1.6-.32-.16-.16-.48-.32-.64-.48l2.88-4.64c.48-.8.64-1.28.96-1.6.16-.32.32-.32.32-.32h.48c.16 0 .16.16.64 0 .16.32.48.8.96 1.6l.16.16c.32.64 1.12.8 1.76.48s.8-1.12.48-1.76l-.16-.16c-.48-.64-.8-1.28-1.12-1.76-.32-.32-.8-.8-1.44-1.12-.96-.32-1.92-.32-2.72 0-.64.16-1.12.64-1.44 1.12S8 18.88 7.52 19.52l-2.08 3.36V9.12L3.2 6.88c-.16.64-.32 1.28-.32 2.08v14.08c0 .96.16 1.76.64 2.56a6.28 6.28 0 0 0 2.88 2.88c.8.32 1.6.64 2.56.64h5.6c.64 0 1.28-.48 1.28-1.28 0-.64-.48-1.28-1.28-1.28zm14.72-23.2c-.32 0-.64.32-.64.64s.32.64.64.64.64-.32.64-.64-.32-.64-.64-.64zm.16 18.4c-.48 0-.96.48-.96.96s.48.96.96.96.96-.48.96-.96c0-.64-.48-1.12-.96-.96zm0-13.12c-.48 0-.96.48-.96.96s.32 1.12.8 1.12c.64 0 1.12-.48 1.12-1.12s-.48-.96-.96-.96zm-4.8-5.6c-.48 0-.96.48-.96.96s.48.96.96.96.96-.48.96-.96-.32-.96-.96-.96zm0 5.44c-.8 0-1.28.64-1.28 1.28s.64 1.28 1.28 1.28c.8 0 1.28-.64 1.28-1.28 0-.8-.64-1.28-1.28-1.28zm-5.28 18.24c-.8 0-1.28.64-1.28 1.28s.48 1.28 1.28 1.28 1.28-.64 1.28-1.28-.64-1.28-1.28-1.28zm10.08-12c-.64 0-1.28.48-1.28 1.28 0 .64.48 1.28 1.28 1.28.64 0 1.28-.48 1.28-1.28s-.64-1.28-1.28-1.28zm-4.8-.32c-.96 0-1.6.8-1.6 1.6 0 .96.64 1.6 1.6 1.6s1.6-.8 1.6-1.6c0-.96-.8-1.6-1.6-1.6zm-5.28-6.24c-.96 0-1.6.8-1.6 1.6-.16.8.64 1.6 1.6 1.6s1.6-.8 1.6-1.6c0-.96-.8-1.6-1.6-1.6zm0-5.44c-.64 0-1.28.48-1.28 1.28 0 .64.48 1.28 1.28 1.28.64 0 1.28-.48 1.28-1.28S20 2.72 19.36 2.72z"/><path d="M28.96 28.96c-.32.32-.64.32-.96.32s-.64-.16-.96-.32l-24-24c-.48-.48-.48-1.44 0-1.92s1.44-.48 1.92 0l.64.64c.16-.16.32-.32.64-.32.8-.32 1.76-.48 2.56-.64h5.92C15.36 2.72 16 3.2 16 4s-.64 1.28-1.44 1.28H9.12c-.8 0-1.28.16-1.6.32l21.44 21.44c.48.48.48 1.44 0 1.92z"/></svg>