<svg xmlns="http://www.w3.org/2000/svg" width="32" height="32"><path d="M20.667 4A1.333 1.333 0 1 1 18 4a1.333 1.333 0 0 1 2.667 0zM21 9.667a1.667 1.667 0 1 1-3.334 0 1.667 1.667 0 0 1 3.334 0zM19.333 18a2 2 0 1 0 .001-3.999A2 2 0 0 0 19.333 18zm5.334-.333a1.667 1.667 0 1 0 0-3.334 1.667 1.667 0 0 0 0 3.334zM19.333 24a1.667 1.667 0 1 0 0-3.334 1.667 1.667 0 0 0 0 3.334zm11.334-8A1.333 1.333 0 1 1 28 16a1.333 1.333 0 0 1 2.667 0zM19.333 29.333a1.333 1.333 0 1 0 0-2.667 1.333 1.333 0 0 0 0 2.667zM24.667 24a1.333 1.333 0 1 0 0-2.667 1.333 1.333 0 0 0 0 2.667zM26 9.667a1.333 1.333 0 1 1-2.667 0 1.333 1.333 0 0 1 2.667 0zM24.667 5a1 1 0 1 0 0-2 1 1 0 0 0 0 2zm5.666 4.667a1 1 0 1 1-2 0 1 1 0 0 1 2 0zm-1 14a1 1 0 1 0 0-2 1 1 0 0 0 0 2zM30 28a.667.667 0 1 1-1.334 0A.667.667 0 0 1 30 28zm-.667-23.333a.667.667 0 1 0 0-1.334.667.667 0 0 0 0 1.334zM25.667 28a1 1 0 1 1-2 0 1 1 0 0 1 2 0zM12.476 2.667h2.19a1.333 1.333 0 0 1 0 2.666h-2.133c-1.515 0-2.572.001-3.394.068-.807.066-1.27.189-1.622.368a3.991 3.991 0 0 0-1.748 1.748c-.179.351-.302.815-.368 1.622-.067.822-.068 1.879-.068 3.394v6.933c0 1.515.001 2.572.068 3.394l.021.231 2.077-3.389c.424-.692.789-1.288 1.124-1.737.342-.458.771-.932 1.385-1.198a3.328 3.328 0 0 1 2.647 0c.614.266 1.044.74 1.385 1.198.335.449.7 1.045 1.124 1.737l.164.267a1.334 1.334 0 1 1-2.274 1.394l-.132-.215c-.465-.758-.767-1.248-1.02-1.587-.202-.271-.298-.339-.312-.348a.668.668 0 0 0-.519 0c-.014.009-.11.077-.312.348-.253.339-.555.829-1.02 1.587l-2.865 4.675c.199.155.414.292.641.408.351.179.815.302 1.622.368.822.067 1.879.068 3.394.068h2.133a1.333 1.333 0 0 1 0 2.666h-2.19c-1.445 0-2.611 0-3.554-.077-.972-.08-1.825-.247-2.615-.65a6.667 6.667 0 0 1-2.913-2.913c-.402-.79-.57-1.643-.65-2.615-.077-.944-.077-2.109-.077-3.555v-7.047c0-1.445 0-2.611.077-3.554.079-.972.247-1.825.65-2.615a6.667 6.667 0 0 1 2.913-2.913c.79-.402 1.643-.57 2.615-.65.944-.077 2.109-.077 3.554-.077z"/></svg>