<svg xmlns="http://www.w3.org/2000/svg" width="32" height="32"><path d="M16 1.333c8.1 0 14.667 6.566 14.667 14.667S24.101 30.667 16 30.667C7.9 30.667 1.333 24.101 1.333 16S7.899 1.333 16 1.333zm3.793 3.279-3.107 1.865a1.333 1.333 0 0 1-1.209.083l-.163-.083-3.107-1.865a12.024 12.024 0 0 0-5.716 4.067c.041.067.074.139.101.215l.035.116.667 2.667c.099.398.01.815-.236 1.135l-.115.131-2.667 2.667a1.3 1.3 0 0 1-.273.21l-.004.18c0 3.073 1.155 5.877 3.055 8h2.945c.468 0 .902.246 1.143.647l1.771 2.952c.985.261 2.019.401 3.086.401s2.102-.139 3.086-.401l1.77-2.952c.211-.351.57-.583.97-.636l.174-.011h2.945a11.954 11.954 0 0 0 3.055-8l-.002-.18a1.337 1.337 0 0 1-.274-.211l-2.667-2.667a1.335 1.335 0 0 1-.351-1.266l.667-2.667c.03-.119.075-.23.132-.332a12.002 12.002 0 0 0-5.286-3.915l-.426-.151zM16.8 9.6l5.333 4c.497.373.671 1.04.418 1.608l-2.667 6a1.333 1.333 0 0 1-1.218.792h-5.333c-.527 0-1.004-.31-1.218-.792l-2.667-6a1.334 1.334 0 0 1 .418-1.608l5.333-4a1.332 1.332 0 0 1 1.6 0zm-.8 2.733-3.683 2.763 1.883 4.237h3.6l1.883-4.237L16 12.333z"/></svg>