<svg xmlns="http://www.w3.org/2000/svg" width="32" height="32" fill="none"><path fill="#000" d="M8.1 10.35a7.9 7.9 0 0 1 15.8 0v4.66a5.1 5.1 0 0 1 1.95 2.34c.39.942.39 2.134.39 4.52s0 3.578-.39 4.52a5.12 5.12 0 0 1-2.77 2.77c-.942.39-2.134.39-4.52.39h-5.12c-2.386 0-3.578 0-4.52-.39a5.12 5.12 0 0 1-2.77-2.77c-.39-.942-.39-2.134-.39-4.52s0-3.578.39-4.52a5.1 5.1 0 0 1 1.95-2.34zm7.9-4.9a4.9 4.9 0 0 0-4.9 4.9v3.865c.63-.025 1.39-.025 2.34-.025h5.12c.949 0 1.709 0 2.34.024V10.35a4.9 4.9 0 0 0-4.9-4.9m-2.417 20.815 2.16-1.384a.46.46 0 0 1 .499 0l2.178 1.395a.46.46 0 0 0 .36.06.5.5 0 0 0 .353-.602l-.597-2.592a.51.51 0 0 1 .154-.497l1.942-1.73a.5.5 0 0 0 .166-.341.49.49 0 0 0-.438-.536l-2.546-.208a.48.48 0 0 1-.404-.307l-.977-2.465a.47.47 0 0 0-.881 0l-.977 2.465a.48.48 0 0 1-.403.307l-2.533.207a.47.47 0 0 0-.328.177.515.515 0 0 0 .06.702l.828.726c.415.364.962.518 1.495.421l2.623-.475a.22.22 0 0 1 .237.128.235.235 0 0 1-.103.308l-2.357 1.183a1.72 1.72 0 0 0-.888 1.134l-.335 1.376a.52.52 0 0 0 .056.383.465.465 0 0 0 .656.165"/></svg>