<svg xmlns="http://www.w3.org/2000/svg" xml:space="preserve" x="0" y="0" version="1.1" viewBox="0 0 32 32"><path d="M12.5 27.1c-.5-.3-.6-.9-.2-1.4l2.7-3.9c.3-.5.9-.6 1.4-.2.5.3.6.9.2 1.4l-1.4 2c3.4.2 6.8-1.2 8.9-4.2 3.2-4.5 2.1-10.7-2.4-13.9C17.2 3.6 11 4.7 7.8 9.2s-2.1 10.7 2.4 13.9c.5.3.6.9.2 1.4-.3.5-.9.6-1.4.2-5.3-3.8-6.6-11.2-2.8-16.6s11.2-6.7 16.7-3c5.4 3.8 6.7 11.2 2.9 16.6-2.4 3.4-6.2 5.2-10.1 5.1l1.9 1.3c.5.3.6.9.2 1.4-.3.5-.9.6-1.4.2z" class="st3"/><path d="M19.1 21.5c-.5 0-.9-.1-1.3-.4l-1.8-1-1.7 1c-1.2.7-2.7.3-3.5-.8-.4-.6-.5-1.3-.3-2l.4-1.4c0-.1.1-.2.1-.4-.2-.1-.4-.2-.6-.4l-.9-.8c-.5-.4-.9-1.1-.9-1.7-.1-.7.2-1.4.6-1.9s1.1-.8 1.7-.9l2-.2.9-2c.6-1 1.8-1.5 2.9-1.2l.4.2c.5.2.9.6 1.1 1l.1.2.8 1.8 2 .2q1.05.15 1.8.9c.4.5.6 1.2.6 1.8-.1.7-.4 1.3-.9 1.7l-1.5 1.2.5 1.8c.2.7.1 1.3-.3 1.9s-.9 1-1.6 1.2c-.3.2-.5.2-.6.2M16 17.8l2.8 1.6c.1.1.3.1.4.1s.3-.1.3-.2c.1-.1.1-.2.1-.4l-.8-3 2.5-2c.1-.1.2-.2.2-.4 0-.1 0-.3-.1-.4s-.2-.2-.4-.2l-3.3-.2-1.3-3-.2-.2-.1-.1c-.2 0-.4 0-.6.2l-.1.1-1.2 2.8-3.2.3c-.1 0-.3.1-.4.2s-.1.3-.1.4.1.3.2.4l.9.8c.3.2.6.4 1 .4l4.1-.5-3.5 2.2c-.2.2-.3.5-.4.7l-.4 1.4c0 .1 0 .3.1.4.2.2.5.3.8.2z" class="st3"/><path d="m12.6 15 4.2-.7c.1 0 .2.1.1.2l-3.7 2.1"/></svg>