<svg xmlns="http://www.w3.org/2000/svg" width="32" height="32"><path d="m15.289 23.671-6.001 3.676a1.325 1.325 0 0 1-1.976-1.456l.929-3.657a4.6 4.6 0 0 1 2.466-3.013l6.547-3.143a.613.613 0 0 0-.37-1.157l-7.288 1.262a5.11 5.11 0 0 1-4.153-1.118l-2.302-1.929a1.324 1.324 0 0 1 .748-2.337l7.034-.55c.497-.039.93-.353 1.121-.814l2.714-6.55a1.325 1.325 0 0 1 2.448 0l2.714 6.55c.191.46.624.775 1.121.814l7.073.553a1.325 1.325 0 0 1 .757 2.329l-5.394 4.599c-.38.324-.545.833-.429 1.318l1.658 6.889a1.325 1.325 0 0 1-1.98 1.44l-6.05-3.707c-.425-.26-.96-.26-1.384 0z"/></svg>