<svg xmlns="http://www.w3.org/2000/svg" xml:space="preserve" viewBox="0 0 32 32"><path d="M11.9 28.5c-.5-.4-.7-1.1-.3-1.6l3.3-4.6c.4-.5 1.1-.7 1.6-.3s.7 1.1.3 1.6l-1.6 2.3c4 .3 8-1.5 10.5-5 3.7-5.3 2.4-12.7-2.9-16.4C17.4.8 10.1 2.1 6.3 7.4c-3.7 5.3-2.4 12.7 2.9 16.4.5.4.7 1.1.3 1.6s-1.1.7-1.6.3C1.5 21.3-.1 12.4 4.4 6s13.3-8 19.7-3.5 8 13.3 3.5 19.7c-2.8 4-7.4 6.1-11.9 6l2.2 1.5c.5.4.7 1.1.3 1.6s-1.1.7-1.6.3z"/><path d="M19.6 21.9c-.5 0-1.1-.1-1.5-.4L16 20.2l-2.1 1.2c-1.4.8-3.2.4-4.1-1-.4-.7-.6-1.6-.4-2.4l.5-1.7c0-.1.1-.3.1-.4-.2-.1-.5-.3-.7-.5l-1.1-.9c-.6-.5-1-1.3-1.1-2.1s.2-1.6.7-2.2 1.3-1 2-1l2.4-.2 1-2.4c.7-1.2 2.1-1.8 3.5-1.4l.5.2c.6.3 1 .7 1.3 1.2l.2.4.9 2.2 2.4.2c.8.1 1.6.4 2.1 1.1.5.6.8 1.4.7 2.2s-.5 1.6-1.1 2.1L22 16.1l.5 2.1c.2.8.1 1.6-.3 2.3s-1.1 1.2-1.9 1.4zM16 17.5l3.3 1.9c.1.1.3.1.5.1s.3-.1.4-.3c.1-.1.1-.3.1-.5l-.9-3.6 2.9-2.4c.1-.1.2-.3.2-.4 0-.2 0-.3-.1-.4s-.3-.2-.5-.2l-3.9-.3-1.5-3.5c0-.1-.1-.1-.2-.2l-.2-.1c-.2-.1-.5 0-.7.3V8l-1.5 3.4-3.8.3c-.2 0-.3.1-.4.2-.1.2-.2.3-.1.4 0 .2.1.3.2.4l1.1.9c.3.3.7.4 1.2.5l4.8-.6-4.2 2.6c-.2.2-.4.6-.5.9l-.5 1.7c0 .2 0 .3.1.5.2.3.6.4.9.2z"/><path d="m12 14.2 5-.8c.1 0 .2.2.1.2l-4.4 2.5"/></svg>