<svg xmlns="http://www.w3.org/2000/svg" width="32" height="32"><path d="M27.775 29.529H7.583A4.936 4.936 0 0 1 2.654 24.6V4.404a1.332 1.332 0 1 1 2.666 0v20.192a2.267 2.267 0 0 0 2.263 2.262h20.192a1.335 1.335 0 0 1 0 2.67z"/><path d="M8.588 22.012a1.334 1.334 0 0 1-.942-2.279l5.633-5.633a1.33 1.33 0 0 1 1.875-.008l2.988 2.921 8.662-9.279a1.336 1.336 0 0 1 2.308.913v7.354a1.332 1.332 0 1 1-2.666 0V12.03l-7.288 7.804c-.246.262-.587.417-.946.425s-.704-.129-.962-.379l-3.021-2.954-4.7 4.696c-.258.262-.6.392-.942.392z"/><path d="M27.767 9.975h-6.996a1.332 1.332 0 1 1 0-2.666h6.996a1.332 1.332 0 1 1 0 2.666z"/></svg>