<svg xmlns="http://www.w3.org/2000/svg" width="33" height="32"><path d="M18.8 3.198a.693.693 0 0 0-1.091-.568l-3.431 2.402a.694.694 0 0 0 0 1.136l3.431 2.402a.693.693 0 0 0 1.091-.568V6.679c4.253.969 7.427 4.775 7.427 9.321a9.56 9.56 0 0 1-9.56 9.56 9.56 9.56 0 0 1-5.355-17.481 1.107 1.107 0 1 0-1.242-1.832A11.762 11.762 0 0 0 4.893 16c0 6.502 5.271 11.773 11.773 11.773S28.439 22.502 28.439 16c0-5.774-4.156-10.577-9.64-11.581V3.198z"/><path d="M17.025 20.183c-1.312 0-2.458-.613-2.87-1.49a1.292 1.292 0 0 1-.138-.567c0-.441.275-.705.722-.705.344 0 .561.12.756.43.298.596.785.957 1.53.957.899 0 1.547-.647 1.547-1.541 0-.871-.642-1.49-1.541-1.49a1.72 1.72 0 0 0-1.197.493c-.338.315-.51.401-.894.401-.567 0-.836-.395-.813-.859 0-.023 0-.04.006-.069l.241-3.031c.057-.699.418-.98 1.089-.98h3.627c.43 0 .71.269.71.688s-.275.688-.71.688h-3.266l-.195 2.297h.034c.338-.533 1.014-.865 1.856-.865 1.581 0 2.704 1.111 2.704 2.687 0 1.765-1.312 2.956-3.197 2.956z"/></svg>