<svg xmlns="http://www.w3.org/2000/svg" viewBox="0 0 32 32"><path d="M13.3.9c0-.7.8-1.1 1.4-.7l4.3 3c.4.3.5.8.2 1.2 0 0-.1.2-.2.2l-4.3 3c-.4.3-.9.2-1.2-.2-.1-.1-.2-.3-.2-.5V5.2c-5.4 1.2-9.4 6-9.4 11.8S9.3 29.1 16 29.1 28.1 23.7 28.1 17c0-4-2-7.8-5.3-10-.7-.4-.8-1.3-.4-1.9s1.3-.8 1.9-.4c4.1 2.8 6.6 7.4 6.6 12.4C30.9 25.3 24.2 32 16 32S1.1 25.3 1.1 17.1 6.4 3.7 13.3 2.4z"/><path d="M8.8 22.2c-.7 0-1-.4-1-.9s.2-.7.6-1.1l3.1-3c1.3-1.2 1.6-1.7 1.6-2.5s-.7-1.5-1.6-1.5-1.4.4-1.8 1.3c-.2.4-.5.6-1 .6s-.9-.3-.9-.9v-.5c.4-1.2 1.7-2.2 3.6-2.2s3.7 1.2 3.7 3-.6 2.1-2.3 3.7l-2.3 2.2h3.9q.9 0 .9.9c0 .9-.3.9-.9.9H8.6Zm11.6.2c-1.7 0-3.1-.8-3.6-1.9-.1-.2-.2-.5-.2-.7q0-.9.9-.9c.9 0 .7.2 1 .5.4.8 1 1.2 1.9 1.2s2-.8 2-2-.8-1.9-2-1.9q-.9 0-1.5.6c-.4.4-.6.5-1.1.5-.7 0-1.1-.5-1-1.1l.3-3.8c0-.9.5-1.2 1.4-1.2h4.6c.5 0 .9.3.9.9s-.3.9-.9.9H19l-.2 2.9c.4-.7 1.3-1.1 2.4-1.1 2 0 3.4 1.4 3.4 3.4s-1.7 3.7-4 3.7Z"/></svg>