<svg xmlns="http://www.w3.org/2000/svg" viewBox="0 0 33 32"><path d="M19.4.9c0-.5-.4-.9-.9-.9-.2 0-.4 0-.5.2l-4.3 3c-.4.3-.5.8-.2 1.2 0 0 .1.2.2.2l4.3 3c.4.3.9.2 1.2-.2.1-.1.2-.3.2-.5V5.2c5.4 1.2 9.4 6 9.4 11.8s-5.4 12.1-12.1 12.1S4.6 23.7 4.6 17c0-4 2-7.8 5.3-10 .7-.4.8-1.3.4-1.9-.4-.7-1.3-.8-1.9-.4-4.2 2.8-6.6 7.4-6.6 12.4C1.8 25.3 8.5 32 16.7 32s14.9-6.7 14.9-14.9S26.3 3.7 19.4 2.4z"/><path d="M17.1 22.4c-1.7 0-3.1-.8-3.6-1.9-.1-.2-.2-.5-.2-.7q0-.9.9-.9c.9 0 .7.2 1 .5.4.8 1 1.2 1.9 1.2s2-.8 2-2-.8-1.9-2-1.9q-.9 0-1.5.6c-.4.4-.6.5-1.1.5-.7 0-1.1-.5-1-1.1l.3-3.8c0-.9.5-1.2 1.4-1.2h4.6c.5 0 .9.3.9.9s-.3.9-.9.9h-4.1l-.2 2.9c.4-.7 1.3-1.1 2.4-1.1 2 0 3.4 1.4 3.4 3.4s-1.7 3.7-4 3.7Z"/></svg>