<svg xmlns="http://www.w3.org/2000/svg" width="32" height="32"><path d="M13.867 3.198c0-.561.631-.89 1.091-.568l3.431 2.402a.694.694 0 0 1 0 1.136L14.958 8.57a.693.693 0 0 1-1.091-.568V6.679C9.614 7.648 6.44 11.454 6.44 16A9.56 9.56 0 0 0 16 25.56a9.56 9.56 0 0 0 5.355-17.481 1.107 1.107 0 1 1 1.242-1.832A11.762 11.762 0 0 1 27.774 16c0 6.502-5.271 11.773-11.773 11.773S4.228 22.502 4.228 16c0-5.774 4.156-10.577 9.64-11.581V3.198z"/><path d="M10.307 20c-.544 0-.814-.304-.814-.739 0-.327.126-.544.476-.865l2.464-2.355c1.02-.98 1.283-1.381 1.283-1.977 0-.682-.527-1.169-1.266-1.169-.665 0-1.123.332-1.421.997-.195.344-.395.504-.768.504-.464 0-.739-.275-.739-.705 0-.132.023-.252.063-.372.281-.917 1.318-1.77 2.882-1.77 1.753 0 2.933.985 2.933 2.406 0 1.008-.493 1.639-1.845 2.916l-1.787 1.719v.034h3.117c.447 0 .716.269.716.688 0 .407-.269.687-.716.687h-4.578zm9.197.183c-1.312 0-2.458-.613-2.87-1.49a1.291 1.291 0 0 1-.137-.567c0-.441.275-.705.722-.705.344 0 .561.12.756.43.298.596.785.957 1.53.957.899 0 1.547-.647 1.547-1.541 0-.871-.642-1.49-1.541-1.49a1.72 1.72 0 0 0-1.197.493c-.338.315-.51.401-.894.401-.567 0-.837-.395-.814-.859 0-.023 0-.04.006-.069l.241-3.031c.057-.699.418-.98 1.089-.98h3.627c.43 0 .71.269.71.688s-.275.688-.71.688h-3.266l-.195 2.297h.034c.338-.533 1.014-.865 1.856-.865 1.581 0 2.704 1.111 2.704 2.687 0 1.765-1.312 2.956-3.197 2.956z"/></svg>