<svg xmlns="http://www.w3.org/2000/svg" width="32" height="32"><path d="M10.667 30.667a9.333 9.333 0 0 1-9.333-9.333V10.667a9.333 9.333 0 0 1 9.333-9.333h10.667a9.333 9.333 0 0 1 9.333 9.333v6.853a5.337 5.337 0 0 1-.866 2.914c-1.232 1.888-2.629 3.614-4.191 5.176s-3.288 2.959-5.176 4.191a5.337 5.337 0 0 1-2.914.866h-6.853zM21.333 4H10.666a6.667 6.667 0 0 0-6.667 6.667v10.667a6.667 6.667 0 0 0 6.667 6.667h5.333c.684 0 1.247-.515 1.324-1.178l.009-.155v-5.733a3.6 3.6 0 0 1 3.372-3.593l.228-.007h5.733c.684 0 1.247-.515 1.324-1.178l.009-.155v-5.333a6.667 6.667 0 0 0-6.667-6.667zm5.539 15.996-.205.004h-5.733a.933.933 0 0 0-.925.807l-.009.127v5.733l-.004.206a29.092 29.092 0 0 0 6.876-6.876z"/></svg>