<svg xmlns="http://www.w3.org/2000/svg" width="32" height="32"><path d="M16 14.307c-3.853 0-7-3.133-7-7S12.147.32 16 .32s7 3.133 7 7-3.147 6.987-7 6.987zm0-11.32c-2.387 0-4.333 1.947-4.333 4.333s1.947 4.32 4.333 4.32 4.333-1.947 4.333-4.333-1.947-4.32-4.333-4.32zM4.213 31.573c-.733 0-1.333-.6-1.333-1.333 0-6.093 1.24-10.413 3.693-12.853 2.213-2.213 4.733-2.2 5.547-2.2h4.227c.733 0 1.333.6 1.333 1.333s-.6 1.333-1.333 1.333h-4.16c-.733-.027-2.307-.013-3.733 1.413-1.907 1.893-2.907 5.693-2.907 10.973 0 .733-.6 1.333-1.333 1.333z"/><path d="M16.347 31.347c-6.2 0-6.88-3.693-6.907-3.853l-.013-.227V16.614c0-.733.6-1.333 1.333-1.333s1.333.6 1.333 1.333v10.48c.107.267.827 1.573 4.267 1.573.733 0 1.333.6 1.333 1.333s-.613 1.347-1.347 1.347zm12.133.226c-.733 0-1.333-.6-1.333-1.333 0-5.28-1-9.067-2.907-10.973-1.427-1.427-2.973-1.413-3.653-1.413h-4.24c-.733 0-1.333-.6-1.333-1.333s.6-1.333 1.333-1.333h4.16c.88 0 3.4-.013 5.613 2.2 2.453 2.44 3.693 6.773 3.693 12.853 0 .733-.6 1.333-1.333 1.333z"/><path d="M16.347 31.347c-.733 0-1.333-.6-1.333-1.333s.6-1.333 1.333-1.333c3.36 0 4.12-1.253 4.267-1.6V16.628c0-.733.6-1.333 1.333-1.333s1.333.6 1.333 1.333l-.013 10.867c-.04.16-.733 3.853-6.92 3.853z"/></svg>