<svg xmlns="http://www.w3.org/2000/svg" width="32" height="32"><path d="M16 4.4a11.557 11.557 0 0 0-8.396 3.597 11.562 11.562 0 0 0-3.2 8.302 11.55 11.55 0 0 0 3.797 8.287 11.559 11.559 0 0 0 7.8 3.014c.515 0 1.021-.033 1.517-.098a1.2 1.2 0 1 1 .31 2.38 14.134 14.134 0 0 1-2.368.108 13.95 13.95 0 0 1-9.822-4.576 13.947 13.947 0 0 1-3.637-9.413A13.953 13.953 0 0 1 6.342 5.867a13.953 13.953 0 0 1 9.659-3.866c.619 0 1.228.04 1.827.118a1.201 1.201 0 0 1-.31 2.38 11.667 11.667 0 0 0-1.517-.098zm6.841.713a1.2 1.2 0 0 1 1.683-.22 14.1 14.1 0 0 1 2.583 2.583 1.2 1.2 0 0 1-1.903 1.463 11.689 11.689 0 0 0-2.143-2.143 1.2 1.2 0 0 1-.22-1.683zm5.696 8.025a1.2 1.2 0 0 1 1.345 1.035 14.123 14.123 0 0 1 0 3.654 1.201 1.201 0 0 1-2.38-.31 11.667 11.667 0 0 0 0-3.034 1.2 1.2 0 0 1 1.035-1.345zm-1.65 9.703a1.2 1.2 0 0 1 .22 1.683 14.1 14.1 0 0 1-2.583 2.583 1.2 1.2 0 0 1-1.463-1.903 11.689 11.689 0 0 0 2.143-2.143 1.2 1.2 0 0 1 1.683-.22zm-11.65-11.915v1.394c5.488 0 7.349 3.952 7.973 6.907.203.962.305 1.443.213 1.602a.44.44 0 0 1-.38.239c-.183.014-.653-.348-1.594-1.07-1.294-.993-3.284-1.918-6.212-1.918v1.394c0 .925 0 1.387-.186 1.61a.8.8 0 0 1-.655.287c-.289-.015-.629-.328-1.308-.956l-4.625-4.274c-.353-.326-.53-.49-.595-.681a.793.793 0 0 1 0-.518c.065-.191.242-.354.595-.681l4.625-4.274c.679-.628 1.019-.941 1.308-.956a.798.798 0 0 1 .655.287c.186.223.186.685.186 1.61z"/></svg>