<svg xmlns="http://www.w3.org/2000/svg" width="32" height="32"><path d="M9.865 5.601c-2.443.187-4.628 1.167-6.42 2.879C1.778 10.073.74 12.061.338 14.427c-.124.735-.124 2.412 0 3.147.32 1.888 1.047 3.536 2.172 4.929 1.901 2.356 4.549 3.725 7.596 3.927.293.02.893.007 1.332-.027.563-.044.804-.047.817-.007.013.039.533.057 1.615.057h1.596v-2.237l-1.884-.029-.149-.445-.303.104c-1.016.349-2.632.465-3.771.271-1.881-.321-3.519-1.212-4.776-2.596a8.23 8.23 0 0 1-.504-10.428c1.989-2.675 5.429-3.877 8.687-3.036.231.06.425.101.433.093.007-.009.035-.088.064-.176.047-.147.073-.161.327-.176l.276-.016V5.547l-1.747.008c-.96.004-1.976.025-2.255.047zM16 6.667v1.12h3.199l-.211.533.493.237a7.85 7.85 0 0 1 1.521.921c.228.173.409.277.437.249.025-.027.348-.396.717-.821l.671-.773-.228-.201c-.301-.268-1.032-.767-1.56-1.064-.504-.285-1.203-.589-1.248-.545a9.658 9.658 0 0 0-.309.735l-.277.703-.005-2.213H16v1.12zm9.071-.254a210.838 210.838 0 0 1-.639 1.626l-.111.28.493.237a7.85 7.85 0 0 1 1.521.921c.228.173.409.277.437.249.025-.027.348-.396.717-.821l.671-.773-.228-.201c-.301-.268-1.032-.767-1.56-1.064-.359-.203-1.157-.575-1.233-.575-.012 0-.044.055-.069.12zm-6.672 3.603-.836.653-.38.296.319.477c.319.475.688 1.196.873 1.704.053.147.104.275.112.285.012.017 1.969-.617 2.057-.668.087-.048-.472-1.361-.855-2.011-.305-.517-.72-1.099-.783-1.096-.029 0-.259.161-.508.359zm-7.572.66c-.351.181-3.187 2.473-3.309 2.673-.304.499-.081 1.151.521 1.533.449.284.756.199 1.535-.428l.48-.385.053 6.597.127.22c.191.335.475.473.967.473s.776-.139.967-.473l.127-.22.015-4.496c.009-2.936-.004-4.568-.04-4.699-.185-.691-.892-1.08-1.441-.796zm14.32 2.923-.968.261-.22.061.048.199c.116.485.205 1.319.205 1.936l.001.669 1.075.092c.591.049 1.089.076 1.107.059s.031-.432.028-.92c-.004-.892-.053-1.388-.217-2.156-.076-.361-.101-.412-.2-.408-.061.004-.448.096-.859.207zm5.333 0-.968.261-.22.061.048.199c.116.485.205 1.319.205 1.936l.001.669 1.075.092c.591.049 1.089.076 1.107.059s.031-.432.028-.92c-.004-.892-.053-1.388-.217-2.156-.076-.361-.101-.412-.2-.408-.061.004-.448.096-.859.207zm-11.936 4.788a4.213 4.213 0 0 0-.117.333c-.129.403-.565 1.293-.851 1.739-.131.203-.22.384-.2.404s.42.315.888.653l.851.617.331-.505c.409-.625.805-1.431 1.053-2.145l.189-.543-.171-.053c-.481-.152-1.843-.54-1.893-.54-.032 0-.068.017-.08.04zm3.321 3.356c-.435.439-.78.727-1.465 1.22l-.152.109.551.917c.301.504.571.917.599.917.068 0 .632-.384 1.139-.776.397-.308 1.521-1.428 1.515-1.508-.003-.031-1.165-.995-1.564-1.299-.115-.088-.127-.079-.621.419zm5.334 0c-.435.439-.78.727-1.465 1.22l-.152.109.551.917c.301.504.571.917.599.917.068 0 .632-.384 1.139-.776.397-.308 1.521-1.428 1.515-1.508-.003-.031-1.165-.995-1.564-1.299-.115-.088-.127-.079-.621.419zm-9.599 3.59v1.12h3.2v-2.24h-3.2v1.12z"/></svg>