<svg xmlns="http://www.w3.org/2000/svg" width="32" height="32"><path d="M8 4.269c-1.08.117-2.035.645-2.797 1.545a4.128 4.128 0 0 0-.801 1.489l-.007.029c-.127.421-.145.569-.145 1.2s.019.779.145 1.2c.549 1.811 2.164 3.063 3.979 3.087.499.005.584-.007.78-.12.335-.191.473-.475.473-.967 0-.716-.295-1.027-1.04-1.095-.585-.053-.919-.164-1.268-.421a2.07 2.07 0 0 1-.515-2.833l-.005.008c.252-.379.693-.729 1.061-.84.092-.028.376-.072.632-.097.832-.083 1.135-.381 1.135-1.121 0-.876-.479-1.189-1.627-1.064zm2.529 1.006c-.516.235-.857.723-.809 1.156.026.165.085.313.171.441l-.002-.004c.221.313.581.848.699 1.036.157.253.428.416.695.416.655 0 1.305-.515 1.305-1.032 0-.571-.799-1.76-1.351-2.012-.279-.125-.432-.127-.707-.001zm5.178 2.186c-.539.092-.8.443-.8 1.072 0 .492.139.776.473.967l.22.127h11.467l.22-.127c.335-.191.473-.475.473-.967s-.139-.776-.473-.967l-.22-.127-5.573-.008c-3.065-.004-5.669.009-5.787.029zm-4.694 1.304c-.208.096-.364.271-.605.669a10.83 10.83 0 0 1-.401.613c-.213.303-.295.632-.224.913.049.199.496.663.751.779.424.193.755.107 1.164-.307.295-.297.688-.901.808-1.241.157-.449.088-.849-.193-1.105-.343-.312-.98-.469-1.299-.321zM5.04 14.928c-.537.091-.8.443-.8 1.072 0 .492.139.776.473.967l.22.127h22.133l.22-.127c.335-.191.473-.475.473-.967s-.139-.776-.473-.967l-.22-.127-10.907-.007c-5.999-.004-11.003.008-11.12.028zm0 7.467c-.539.092-.8.443-.8 1.072 0 .492.139.776.473.967l.22.127H16.4l.22-.127c.335-.191.473-.475.473-.967s-.139-.776-.473-.967l-.22-.127-5.573-.008c-3.065-.004-5.669.009-5.787.029z"/></svg>