<svg xmlns="http://www.w3.org/2000/svg" width="32" height="32"><path d="m5.058 5.127 1.932.518a1 1 0 0 1-.518 1.932L4.54 7.059a1 1 0 0 1 .518-1.932zm7.728 2.07 1.932.518a1 1 0 0 1-.518 1.932l-1.932-.518a1 1 0 0 1 .518-1.932zM8.077 1.591a1 1 0 0 0-.707 1.225l.518 1.932A1 1 0 0 0 9.82 4.23l-.518-1.932a1 1 0 0 0-1.225-.707zm2.966 2.968 1.414-1.414a.999.999 0 1 1 1.414 1.414l-1.414 1.414a.999.999 0 1 1-1.414-1.414zm-1.214 5.492a2 2 0 0 1 2.634.171l.412.412a8.002 8.002 0 0 1 8.781 13.024 8 8 0 0 1-13.024-8.781l-.411-.411a2 2 0 0 1 0-2.828l.089-.089a4 4 0 0 1 .618-4.86.999.999 0 1 1 1.414 1.414 2 2 0 0 0-.513 1.95zm3.343 10.777a4 4 0 0 1 0-5.657.999.999 0 1 0-1.414-1.414 6 6 0 0 0 0 8.485.999.999 0 1 0 1.414-1.414z"/></svg>