<svg xmlns="http://www.w3.org/2000/svg" width="32" height="32"><path d="M6.667 17.333a1.333 1.333 0 0 1-.155-2.657l.155-.009 3.678.001a5.972 5.972 0 0 1-1.005-3.052l-.007-.282v-.667A5.334 5.334 0 0 1 14.4 5.34l.266-.007h2.667a5.333 5.333 0 0 1 5.333 5.333 1.333 1.333 0 0 1-2.657.155L20 10.666a2.666 2.666 0 0 0-2.468-2.659L17.333 8h-2.667a2.666 2.666 0 0 0-2.659 2.468l-.007.199v.667a3.333 3.333 0 0 0 3.114 3.326l.219.007h10a1.333 1.333 0 0 1 .155 2.657l-.155.009h-3.677c.589.88.951 1.925 1.004 3.051l.007.282v.667A5.334 5.334 0 0 1 17.6 26.66l-.266.007h-2.667a5.333 5.333 0 0 1-5.333-5.333 1.333 1.333 0 0 1 2.666 0 2.666 2.666 0 0 0 2.468 2.659l.199.007h2.667a2.666 2.666 0 0 0 2.659-2.468l.007-.199v-.667a3.333 3.333 0 0 0-3.114-3.326l-.219-.007h-10z"/></svg>