<svg xmlns="http://www.w3.org/2000/svg" width="32" height="32" fill="none"><path d="M17.426 4.004a1.335 1.335 0 0 0-1.334 1.334 1.335 1.335 0 0 0 1.334 1.336h.734c1.566 0 2.229.02 2.701.154.478.136.925.36 1.32.66.392.297.805.816 1.745 2.069l2.562 3.416c1.034 1.378 1.422 1.963 1.528 2.363.117.446.117.914 0 1.36-.106.4-.494.984-1.528 2.363l-2.562 3.418c-.94 1.252-1.353 1.77-1.744 2.068-.396.3-.843.524-1.32.66-.473.135-1.136.154-2.702.154h-7.207c-2.99 0-4.3-.07-5.021-.437a4.004 4.004 0 0 1-1.75-1.75c-.368-.722-.436-2.03-.436-5.02v-1.468A1.335 1.335 0 0 0 2.41 15.35a1.335 1.335 0 0 0-1.334 1.334v1.468c0 2.99-.069 4.67.727 6.233A6.677 6.677 0 0 0 4.72 27.3c1.562.796 3.242.726 6.232.726h7.207c1.566 0 2.469.02 3.434-.256a6.675 6.675 0 0 0 2.2-1.101c.8-.607 1.327-1.339 2.267-2.592l2.562-3.418c1.034-1.378 1.68-2.171 1.973-3.285h.002a5.345 5.345 0 0 0 0-2.719h-.002c-.293-1.113-.94-1.906-1.973-3.285l-2.562-3.416c-.94-1.253-1.467-1.987-2.266-2.594a6.676 6.676 0 0 0-2.201-1.101c-.965-.276-1.868-.256-3.434-.256Z" style="color:#000;fill:#000;stroke-linecap:round;-inkscape-stroke:none"/><circle cx="19.762" cy="16.016" r="2.669" fill="#000" style="stroke-width:1.33467"/><path d="M3.77 0C2.488 0 1.42.824.994 1.854c-.426 1.03-.253 2.367.652 3.273l2.002 2.002a.333.333 0 0 1 .098.236v4.951c0 1.135.645 2.179 1.66 2.686l2.002 1c1.947.973 4.346-.509 4.346-2.686v-5.95c0-.09.035-.174.098-.237l2.002-2.002c.905-.906 1.076-2.244.65-3.273C14.077.824 13.012 0 11.73 0Zm0 2.67h7.96c.206 0 .253.073.307.205.055.132.073.218-.072.363L9.963 5.24a3.008 3.008 0 0 0-.879 2.125v5.951c0 .304-.21.435-.482.3L6.6 12.612a.326.326 0 0 1-.186-.297v-4.95c0-.797-.316-1.563-.879-2.126L3.533 3.238c-.145-.145-.127-.231-.072-.363.054-.132.103-.205.309-.205Z" style="color:#000;fill:#000;stroke-linecap:round;-inkscape-stroke:none"/></svg>