<svg xmlns="http://www.w3.org/2000/svg" width="32" height="32" fill="none"><path fill="#000" d="M4.185 5.457a6.45 6.45 0 0 1 .628-.367c.764-.39 1.59-.551 2.53-.628.914-.075 2.042-.075 3.44-.075h7.201c1.343 0 2.271 0 3.143.248.769.22 1.49.58 2.128 1.064.722.548 1.278 1.291 2.083 2.365l.107.142 2.478 3.304.143.191c.86 1.144 1.506 2.004 1.764 2.985a5.162 5.162 0 0 1 0 2.628c-.258.981-.905 1.841-1.764 2.985l-.143.191-2.478 3.304-.107.142c-.444.593-.813 1.085-1.175 1.499l1.266 1.266a1.29 1.29 0 0 1-1.825 1.824L.378 5.3a1.29 1.29 0 0 1 1.825-1.825zm1.89 1.89 16.258 16.258c.252-.303.573-.727 1.048-1.36l2.477-3.303c1.068-1.425 1.364-1.857 1.476-2.285.114-.43.114-.883 0-1.314-.112-.428-.408-.86-1.476-2.285l-2.477-3.303c-.954-1.271-1.288-1.698-1.686-2a3.87 3.87 0 0 0-1.277-.638c-.48-.138-1.023-.15-2.612-.15H10.84c-1.467 0-2.49.002-3.285.067-.714.058-1.15.163-1.48.312Zm4.764 20.266h-.056c-1.398 0-2.526 0-3.44-.075-.94-.077-1.766-.239-2.53-.628a6.451 6.451 0 0 1-2.82-2.82c-.389-.764-.551-1.59-.628-2.53-.075-.914-.075-2.042-.075-3.44V13.88c0-1.398 0-2.526.075-3.44.058-.707.164-1.35.38-1.951l2.19 2.19c-.063.792-.064 1.807-.064 3.256v4.13c0 1.466.001 2.488.066 3.284.064.781.183 1.23.356 1.57a3.87 3.87 0 0 0 1.692 1.691c.34.174.788.292 1.569.356.796.065 1.818.066 3.285.066H18.287l2.431 2.431c-.759.15-1.598.15-2.734.15h-.178ZM21.936 16a2.58 2.58 0 1 1-5.162 0 2.58 2.58 0 0 1 5.162 0z" style="stroke-width:1.29032"/></svg>