<svg xmlns="http://www.w3.org/2000/svg" width="32" height="32" fill="none"><path d="M10.977 3c-3.02 0-4.718-.07-6.295.734a6.748 6.748 0 0 0-2.948 2.948C.93 8.259 1 9.956 1 12.977v4.314c0 3.02-.07 4.72.734 6.297a6.744 6.744 0 0 0 2.948 2.945c1.577.804 3.274.737 6.295.737h7.28c1.583 0 2.495.018 3.47-.26a6.745 6.745 0 0 0 2.224-1.112c.808-.612 1.34-1.355 2.29-2.62l2.587-3.452c1.044-1.392 1.698-2.193 1.994-3.318.237-.9.237-1.847 0-2.746-.296-1.125-.95-1.926-1.994-3.319L26.24 6.99c-.949-1.265-1.481-2.006-2.289-2.619a6.745 6.745 0 0 0-2.224-1.111C20.752 2.98 19.84 3 18.257 3Zm0 2.697h7.28c1.583 0 2.252.018 2.73.155.482.137.934.364 1.333.668.396.3.813.824 1.762 2.09l2.59 3.45c1.044 1.393 1.434 1.983 1.54 2.387.12.45.12.923 0 1.373-.106.405-.496.997-1.54 2.389l-2.59 3.451c-.95 1.266-1.366 1.79-1.762 2.09-.4.303-.851.528-1.334.666-.477.136-1.146.156-2.728.156h-7.281c-3.02 0-4.341-.07-5.07-.441a4.044 4.044 0 0 1-1.768-1.768c-.372-.73-.442-2.052-.442-5.072v-4.314c0-3.02.07-4.341.442-5.07a4.044 4.044 0 0 1 1.767-1.768c.73-.372 2.05-.442 5.07-.442Z" style="color:#000;fill:#000;-inkscape-stroke:none" transform="translate(0 .865)"/><path d="M14.482 7.719a1.348 1.348 0 0 0-1.234.808L8.529 19.313a1.348 1.348 0 0 0 .694 1.775A1.348 1.348 0 0 0 11 20.395l3.484-7.963 3.483 7.963a1.348 1.348 0 0 0 1.775.693 1.348 1.348 0 0 0 .695-1.776L15.72 8.527a1.348 1.348 0 0 0-1.237-.808Z" style="color:#000;fill:#000;stroke-linecap:round;stroke-linejoin:round;-inkscape-stroke:none" transform="translate(0 .865)"/><path d="M11.111 15.135v2.697h6.743v-2.697z" style="color:#000;fill:#000;-inkscape-stroke:none" transform="translate(0 .865)"/></svg>