<svg xmlns="http://www.w3.org/2000/svg" width="30" height="24.518" fill="none"><g transform="translate(0 -2.999)"><path d="M10.838 3c-2.89 0-4.516-.066-6.025.703a6.452 6.452 0 0 0-2.819 2.82c-.77 1.51-.703 3.135-.703 6.026v2.064a1.29 1.29 0 0 0 1.29 1.291 1.29 1.29 0 0 0 1.29-1.29v-2.065c0-2.89.066-4.156.422-4.854a3.873 3.873 0 0 1 1.691-1.693c.699-.356 1.963-.422 4.854-.422h6.969c1.514 0 2.154.02 2.611.15.461.132.895.349 1.277.64.379.286.777.786 1.686 1.997l2.476 3.305c1 1.333 1.375 1.898 1.477 2.285.113.43.113.882 0 1.313-.102.386-.477.952-1.477 2.285l-2.476 3.304c-.909 1.212-1.307 1.711-1.686 1.998-.382.29-.816.507-1.277.64-.457.13-1.097.15-2.611.15h-4.905a1.29 1.29 0 0 0-1.289 1.289 1.29 1.29 0 0 0 1.29 1.29h4.904c1.514 0 2.387.019 3.32-.247.77-.22 1.49-.581 2.127-1.065.773-.586 1.283-1.297 2.191-2.508l2.477-3.302c1-1.333 1.625-2.1 1.908-3.176a5.17 5.17 0 0 0 0-2.63c-.283-1.076-.909-1.842-1.908-3.175L25.445 6.82c-.908-1.21-1.418-1.921-2.191-2.508a6.447 6.447 0 0 0-2.127-1.064C20.194 2.982 19.321 3 17.807 3Z" style="color:#000;fill:#000;stroke-linecap:round;-inkscape-stroke:none"/><circle cx="19.355" cy="14.613" r="2.581" fill="#000" style="stroke-width:1.29032"/><path d="M5.162 17.193a1.29 1.29 0 0 0-1.29 1.291v7.743a1.29 1.29 0 0 0 1.29 1.289 1.29 1.29 0 0 0 1.29-1.29v-7.742a1.29 1.29 0 0 0-1.29-1.29Z" style="color:#000;fill:#000;stroke-linecap:round;-inkscape-stroke:none"/><path d="M1.291 21.064A1.29 1.29 0 0 0 0 22.355a1.29 1.29 0 0 0 1.291 1.291h7.742a1.29 1.29 0 0 0 1.29-1.29 1.29 1.29 0 0 0-1.29-1.292Z" style="color:#000;fill:#000;stroke-linecap:round;-inkscape-stroke:none"/></g></svg>