<svg xmlns="http://www.w3.org/2000/svg" width="32" height="32" fill="none"><path stroke="#000" stroke-width="2.696" d="M25.161 23.334c-.95 1.266-1.424 1.899-2.025 2.355a5.393 5.393 0 0 1-1.78.89c-.725.207-1.516.207-3.098.207h-7.28c-3.02 0-4.531 0-5.685-.588a5.393 5.393 0 0 1-2.357-2.357c-.587-1.153-.587-2.663-.587-5.684v-4.314c0-3.02 0-4.53.587-5.684a5.393 5.393 0 0 1 2.357-2.357c1.154-.588 2.664-.588 5.684-.588h7.281c1.582 0 2.373 0 3.099.207a5.393 5.393 0 0 1 1.779.89c.601.456 1.076 1.089 2.025 2.355l2.589 3.451c1.044 1.393 1.566 2.089 1.767 2.853a4.047 4.047 0 0 1 0 2.06c-.2.764-.723 1.46-1.767 2.853z"/><circle cx="19.876" cy="16" r="2.696" fill="#000" style="stroke-width:1.34825"/></svg>