<svg xmlns="http://www.w3.org/2000/svg" width="32" height="32"><path d="M17.107 2.667v1.611a11.724 11.724 0 0 1 6.399 2.651l1.045-1.045a1.107 1.107 0 0 1 1.565 1.565l-1.045 1.045A11.725 11.725 0 0 1 27.773 16c0 6.502-5.271 11.773-11.773 11.773S4.227 22.502 4.227 16c0-6.129 4.683-11.164 10.667-11.722V2.667a1.107 1.107 0 1 1 2.214 0zM16.001 6.44c-5.28 0-9.56 4.28-9.56 9.56s4.28 9.56 9.56 9.56 9.56-4.28 9.56-9.56-4.28-9.56-9.56-9.56zm0 1.787c.611 0 1.107.495 1.107 1.107v5.001a2 2 0 1 1-2.213-.001v-5c0-.611.495-1.107 1.107-1.107z"/></svg>