<svg xmlns="http://www.w3.org/2000/svg" xml:space="preserve" viewBox="0 0 32 32"><path d="M29.05 15.293a2.444 2.444 0 0 0-3.457-3.456c-.082.081-.147.172-.214.262l-.003-.003-7.06 8.746a1.71 1.71 0 0 1-1.273.635l-.294.01a15 15 0 0 1-2.103-.076l-3.667-.384-.385-3.667a15 15 0 0 1-.075-2.104l.01-.294a1.71 1.71 0 0 1 .635-1.273l8.746-7.06-.003-.002c.09-.068.18-.133.262-.215a2.444 2.444 0 0 0-3.457-3.456c-.082.081-.147.172-.214.262l-.024-.024-6.886 8.53a3.16 3.16 0 0 0-.7 1.883v.029q-.036 1.043.072 2.082l.491 4.752a.7.7 0 0 1-.286.636l-5.793 4.148q-.054.037-.107.077l-.056.04.003.002c-.09.068-.18.133-.262.215a2.444 2.444 0 0 0 3.457 3.456c.082-.081.147-.172.214-.262l.024.024 4.253-5.972a.7.7 0 0 1 .638-.288l4.741.497q1.05.11 2.103.075h.019a3.16 3.16 0 0 0 1.882-.7l8.53-6.886-.023-.024c.09-.068.18-.133.262-.215"/></svg>