<svg xmlns="http://www.w3.org/2000/svg" width="24" height="24" viewBox="0 0 24 24">
  <path d="M16,13 C16.5128358,13 16.9355072,13.3860402 16.9932723,13.8833789 L17,14 L17,16 L20,16 C20.5522847,16 21,16.4477153 21,17 C21,17.5128358 20.6139598,17.9355072 20.1166211,17.9932723 L20,18 L17,18 L17,20 C17,20.5522847 16.5522847,21 16,21 C15.4871642,21 15.0644928,20.6139598 15.0067277,20.1166211 L15,20 L15,14 C15,13.4477153 15.4477153,13 16,13 Z M12,16 C12.5522847,16 13,16.4477153 13,17 C13,17.5128358 12.6139598,17.9355072 12.1166211,17.9932723 L12,18 L4,18 C3.44771525,18 3,17.5522847 3,17 C3,16.4871642 3.38604019,16.0644928 3.88337887,16.0067277 L4,16 L12,16 Z M8,3 C8.51283584,3 8.93550716,3.38604019 8.99327227,3.88337887 L9,4 L9,10 C9,10.5522847 8.55228475,11 8,11 C7.48716416,11 7.06449284,10.6139598 7.00672773,10.1166211 L7,10 L7,8 L4,8 C3.44771525,8 3,7.55228475 3,7 C3,6.48716416 3.38604019,6.06449284 3.88337887,6.00672773 L4,6 L7,6 L7,4 C7,3.44771525 7.44771525,3 8,3 Z M20,6 C20.5522847,6 21,6.44771525 21,7 C21,7.51283584 20.6139598,7.93550716 20.1166211,7.99327227 L20,8 L12,8 C11.4477153,8 11,7.55228475 11,7 C11,6.48716416 11.3860402,6.06449284 11.8833789,6.00672773 L12,6 L20,6 Z"/>
</svg>
