<svg xmlns="http://www.w3.org/2000/svg" width="43" height="43" viewBox="0 0 43 43"><path d="M31.934 20.178q.856.001 1.678.128.032.005.065.012c5.21.835 9.19 5.348 9.19 10.793 0 6.038-4.895 10.933-10.933 10.933-4.066 0-7.61-2.22-9.495-5.514h-.002l-.06-.106a11 11 0 0 1-.502-1.023l-.06-.147a11 11 0 0 1-.189-.495 11 11 0 0 1-.104-.306l-.053-.17a11 11 0 0 1-.11-.389l-.039-.156a11 11 0 0 1-.076-.331l-.034-.16a11 11 0 0 1-.071-.4l-.02-.13q-.031-.21-.055-.425-.008-.082-.015-.166A11 11 0 0 1 21 31.11c0-5.85 4.593-10.626 10.37-10.92q.28-.013.563-.013M21 .133c5.64 0 10.735 2.118 14.377 5.526 3.507 3.281 5.667 7.76 5.667 12.697q-.002 1.418-.232 2.778a13.3 13.3 0 0 0-8.878-3.38c-7.377 0-13.358 5.981-13.358 13.358 0 1.932.41 3.768 1.149 5.426q-.15-.007-.301-.016l-.047-.003a22 22 0 0 1-3.297-.494c-.298-.068-.636.244-1.2.766-.683.63-1.696 1.566-3.37 2.504-2.137 1.199-5.098 1.095-5.6.885-.48-.201-.11-.603.541-1.308.45-.489 1.036-1.123 1.568-1.938 1.3-1.993.763-4.367.18-4.794C3.636 28.8.955 24.096.955 18.356.956 8.292 9.931.133 21.001.133m10.934 24.3c-.67 0-1.212.543-1.212 1.212V29.9h-4.255a1.212 1.212 0 0 0 0 2.424h4.255v4.255a1.213 1.213 0 0 0 2.424 0v-4.255H37.4a1.213 1.213 0 0 0 0-2.424h-4.254v-4.255c0-.669-.544-1.212-1.212-1.212"/></svg>