<svg xmlns="http://www.w3.org/2000/svg" width="32" height="32" fill="none"><path d="M21.357 3.584q-.472 0-1.037.002h-3.24a1.35 1.35 0 0 0-1.35 1.35 1.35 1.35 0 0 0 1.35 1.35h3.24c1.512 0 2.08.07 2.233.148.254.13.46.335.59.59.077.152.146.72.146 2.232v1.058l-.934-.933a1.35 1.35 0 0 0-1.91 0 1.35 1.35 0 0 0 0 1.91l3.24 3.24a1.4 1.4 0 0 0 .256.198 1 1 0 0 0 .12.056 1.4 1.4 0 0 0 .183.076 1 1 0 0 0 .131.03 1.4 1.4 0 0 0 .205.027l.06.008.06-.008a1.4 1.4 0 0 0 .218-.03 1 1 0 0 0 .111-.025 1.4 1.4 0 0 0 .215-.09l.088-.043a1.4 1.4 0 0 0 .22-.168l.042-.03.008-.009 3.232-3.232a1.35 1.35 0 0 0 0-1.91 1.35 1.35 0 0 0-1.908 0l-.936.935v-1.06c0-1.512.07-2.457-.441-3.46a4.05 4.05 0 0 0-1.77-1.769c-.751-.383-1.471-.439-2.422-.443M7.209 16.555a1.35 1.35 0 0 0-.803.386l-3.24 3.24a1.35 1.35 0 0 0 0 1.909 1.35 1.35 0 0 0 1.908 0l.936-.936v1.063c0 1.512-.07 2.455.441 3.457a4.05 4.05 0 0 0 1.77 1.771c1.002.511 1.947.442 3.459.442h5.4a1.35 1.35 0 0 0 1.35-1.352 1.35 1.35 0 0 0-1.35-1.35h-5.4c-1.512 0-2.08-.068-2.233-.146a1.35 1.35 0 0 1-.59-.59c-.077-.153-.146-.72-.146-2.232v-1.06l.934.933a1.35 1.35 0 0 0 1.91 0 1.35 1.35 0 0 0 0-1.908l-3.24-3.24a1.35 1.35 0 0 0-1.106-.387" style="color:#000;fill:#000;stroke-linecap:round;stroke-linejoin:round;-inkscape-stroke:none"/><path d="M4.26 2.506c-.784 0-1.521.38-1.977 1.017L.785 5.621a2.44 2.44 0 0 0 .047 2.887L5.43 14.52c.951 1.245 2.91 1.245 3.861 0l4.596-6.011v-.002a2.44 2.44 0 0 0 .047-2.887l-1.496-2.098a2.44 2.44 0 0 0-1.979-1.017Zm.14 2.701h5.92l1.301 1.82-4.262 5.575-4.261-5.575ZM21.541 16.547c-.783 0-1.523.378-1.979 1.015l-1.496 2.098a2.44 2.44 0 0 0 .047 2.889l4.596 6.012c.952 1.244 2.91 1.244 3.861 0l4.598-6.012a2.44 2.44 0 0 0 .047-2.889l-1.498-2.097a2.43 2.43 0 0 0-1.977-1.016zm.139 2.7h5.92l1.302 1.82-4.261 5.574-4.262-5.575z" style="color:#000;fill:#000;-inkscape-stroke:none"/></svg>