<svg xmlns="http://www.w3.org/2000/svg" width="32" height="32"><path d="M22.421 7.979c-.512.263-.767.729-.887.958-.133.258-.267.588-.404.925l-5.029 12.3c-.279.683.046 1.458.729 1.738s1.458-.046 1.738-.729L19.864 20h6.938l1.296 3.171a1.331 1.331 0 0 0 1.738.729 1.331 1.331 0 0 0 .729-1.738l-5.025-12.3a13.716 13.716 0 0 0-.404-.925c-.117-.229-.371-.696-.887-.958a2.01 2.01 0 0 0-1.825 0zm.912 3.542 2.379 5.812h-4.758l2.379-5.813zm-13.054-.908 5.333 5.333c.046.046.092.096.129.15l.096.15.071.15.046.142.033.158.012.121v.158l-.008.079-.029.154-.042.146-.046.108-.071.129-.1.142-.096.108-5.333 5.333a1.334 1.334 0 0 1-1.887-1.887l3.054-3.058H2.666a1.338 1.338 0 0 1-1.325-1.179l-.008-.154c0-.683.517-1.246 1.179-1.325l.154-.008h8.779L8.391 12.5a1.334 1.334 0 0 1 1.887-1.887z"/></svg>