<svg xmlns="http://www.w3.org/2000/svg" width="32" height="32"><path d="M26.667 10.667h-4V5.334H4a2.675 2.675 0 0 0-2.667 2.667v14.667H4c0 2.213 1.787 4 4 4s4-1.787 4-4h8c0 2.213 1.787 4 4 4s4-1.787 4-4h2.667v-6.667l-4-5.333zm-.667 2L28.613 16h-5.947v-3.333h3.333zM8 24c-.733 0-1.333-.6-1.333-1.333s.6-1.333 1.333-1.333 1.333.6 1.333 1.333S8.733 24 8 24zm2.96-4c-.733-.813-1.773-1.333-2.96-1.333s-2.227.52-2.96 1.333H4V8h16v12h-9.04zM24 24c-.733 0-1.333-.6-1.333-1.333s.6-1.333 1.333-1.333 1.333.6 1.333 1.333S24.733 24 24 24z"/></svg>