<svg xmlns="http://www.w3.org/2000/svg" width="32" height="32"><path d="M10 1.333h12c1.574 0 3.061.695 4.071 1.888l.195.245 2 2.667a5.326 5.326 0 0 1 1.055 2.855l.011.345V24a5.333 5.333 0 0 1-5.333 5.333h-16A5.333 5.333 0 0 1 2.666 24V9.333c0-1.039.303-2.052.869-2.917l.198-.283 2-2.667a5.334 5.334 0 0 1 3.953-2.124l.313-.009zm14 8H8A2.667 2.667 0 0 0 5.333 12v12A2.667 2.667 0 0 0 8 26.667h16A2.667 2.667 0 0 0 26.667 24V12A2.667 2.667 0 0 0 24 9.333zm-7.057 5.058 4 4a1.333 1.333 0 1 1-1.886 1.886L16 17.22l-3.057 3.057a1.333 1.333 0 1 1-1.886-1.886l4-4a1.333 1.333 0 0 1 1.886 0zM22 4H10c-.763 0-1.486.327-1.989.89l-.144.176-1.359 1.812a5.334 5.334 0 0 1 1.493-.212h16a5.35 5.35 0 0 1 1.491.211l-1.358-1.811a2.668 2.668 0 0 0-1.906-1.057L22 3.999z"/></svg>