<svg width="32" height="32" viewBox="0 0 16 16" fill="none" xmlns="http://www.w3.org/2000/svg">
<path fill-rule="evenodd" clip-rule="evenodd" d="M1.5999 8.00039C1.5999 4.46577 4.46528 1.60039 7.9999 1.60039C11.5345 1.60039 14.3999 4.46577 14.3999 8.00039C14.3999 11.535 11.5345 14.4004 7.9999 14.4004C4.46528 14.4004 1.5999 11.535 1.5999 8.00039ZM7.9999 0.400391C3.80254 0.400391 0.399902 3.80303 0.399902 8.00039C0.399902 12.1978 3.80254 15.6004 7.9999 15.6004C12.1973 15.6004 15.5999 12.1978 15.5999 8.00039C15.5999 3.80303 12.1973 0.400391 7.9999 0.400391ZM11.4242 6.42465C11.6585 6.19034 11.6585 5.81044 11.4242 5.57613C11.1899 5.34181 10.81 5.34181 10.5756 5.57613L6.9999 9.15186L5.42417 7.57613C5.18985 7.34181 4.80995 7.34181 4.57564 7.57613C4.34132 7.81044 4.34132 8.19034 4.57564 8.42465L6.57564 10.4247C6.80995 10.659 7.18985 10.659 7.42417 10.4247L11.4242 6.42465Z" fill="currentColor"/>
</svg>