<svg xmlns="http://www.w3.org/2000/svg" xml:space="preserve" viewBox="0 0 32 32"><path d="M8 18c2.4.4 2.4 3.4 4.3 4.5 1.8 1.1 4.7 1 5.8-1.1 1.5-2.9-.7-5.8-3.7-6.1-2.1-.2-3.9 1.4-6 1.4-.8 0-1.5-.6-1.6-1.4-.1-.7.1-1.2.6-1.7C9 12 11 11.1 12.5 10.9c1.9-.2 5 .1 7.5 1.1 1.1.5 2.9 1.7 3.6 2.6 1-.3-2.8-2.9-2.8-2.9s-.9-1.7-1.5-3c-.9-1.7-1.8-3-2.6-4.7-.4-.8-.4-2.1.4-2.7.3-.2.7-.3 1.1-.3 1.8.2 2.7 1.7 3.6 3C23 5.8 24 7.7 24.9 9.6c1 2.2 2.4 4.4 2.5 6.9.2 2.6-1.1 5.5-1.9 8-.5 1.6-1.3 3.4-2.7 4.5s-3.4 1.5-5.1 1.6c-2.3.1-5 .1-7.1-.8S7.6 27 6.5 25c-.9-1.6-2.1-3.9-1.4-5.7.6-1 1.7-1.5 2.9-1.3"/><path d="m13.3 3.7-.6.3c-.7.6-.3 1.7 0 2.4.3 1 .6 1.6 1.2 2.4.1.1.5.9.6.9 2.4.2 4.7 1.1 4.7 1.1s-1-1.9-1.3-2.3c-.3-.6-.6-1.1-1-1.6-.5-.8-.9-1.6-1.5-2.3-.5-.7-1.1-1.1-2-.9z"/></svg>