<svg xmlns="http://www.w3.org/2000/svg" width="32" height="32" fill="none"><path fill="#000" d="m4.925 1.225.6 2.3c0 .1.1.2.2.2l2.3.6c.3.1.3.5 0 .5l-2.3.6c-.1 0-.2.1-.2.2l-.6 2.3c-.1.3-.5.3-.5 0l-.7-2.3c0-.1-.1-.2-.2-.2l-2.3-.6c-.3-.1-.3-.5 0-.5l2.3-.6c.1 0 .2-.1.2-.2l.6-2.3c.2-.3.5-.3.6 0M28.325 8.125l.6 2.3c0 .1.1.2.2.2l2.3.6c.3.1.3.5 0 .5l-2.3.6c-.1 0-.2.1-.2.2l-.6 2.3c-.1.3-.5.3-.5 0l-.6-2.3c0-.1-.1-.2-.2-.2l-2.3-.6c-.3-.1-.3-.5 0-.5l2.3-.6c.1 0 .2-.1.2-.2l.6-2.3c0-.2.4-.2.5 0M15.625 9.425c1.9 0 3.5 1.5 3.5 3.5s-1.5 3.5-3.5 3.5-3.5-1.5-3.5-3.5 1.6-3.5 3.5-3.5m0-2c-3 0-5.5 2.4-5.5 5.5s2.4 5.5 5.5 5.5 5.5-2.4 5.5-5.5-2.5-5.5-5.5-5.5M20.525 23.325h-9.7c-.6 0-1-.4-1-1s.4-1 1-1h9.6c.6 0 1 .4 1 1s-.4 1-.9 1M5.925 21.825l.8 2.8c0 .1.1.2.2.2l2.9.8c.3.1.3.6 0 .7l-2.9.8c-.1 0-.2.1-.2.2l-.8 2.8c-.1.3-.6.3-.7 0l-.8-2.8c0-.1-.1-.2-.2-.2l-2.9-.8c-.3-.1-.3-.6 0-.7l2.9-.8c.1 0 .2-.1.2-.2l.8-2.8c.1-.3.6-.3.7 0M8.625 2.325c.8.3 1.4.9 1.6 1.7h14.6c1.2 0 2.2.9 2.4 2.1.2-.1.5-.2.8-.2q.6 0 1.2.3c-.1-2.4-2-4.2-4.4-4.2h-17.4z"/><path fill="#000" d="M28.025 17.025c-.3 0-.5-.1-.8-.1v8c0 1.3-1.1 2.4-2.4 2.4h-13.1c-.3.5-.8.8-1.3 1l-2 .5-.2.5h16.6c2.4 0 4.4-2 4.4-4.4v-8.3c-.3.3-.8.4-1.2.4M2.825 23.225l.5-1.9c.1-.4.3-.8.6-1.1v-10.2c-.7-.3-1.2-.8-1.4-1.6l-.4-1.3h-.1v16.3z"/></svg>