<svg xmlns="http://www.w3.org/2000/svg" width="32" height="32" fill="none"><path fill="#000" d="M3.8 15.675c-.3.3-.4.6-.6.9-.1.3-.2.6-.2 1 0 .3.1.6.2 1q.15.45.6.9l9.3 9.3q.45.45.9.6c.3.1.6.2 1 .2.3 0 .6-.1 1-.2q.45-.15.9-.6l5.7-5.7-13.1-13.1zM29.1 23.875l-3.7-3.7 2.9-2.9c.2-.2.4-.5.6-.8.1-.3.2-.6.2-1v-9.4c0-.7-.3-1.3-.8-1.8s-1.1-.8-1.8-.8h-9.4c-.3 0-.7.1-1 .2s-.6.3-.8.6l-2.9 2.9-3.8-3.8c-.5-.5-1.4-.5-1.9 0-.6.5-.6 1.4 0 1.9l20.4 20.5c.5.5 1.4.5 1.9 0 .6-.6.6-1.4.1-1.9m-7.3-16c.4-.4.8-.6 1.4-.6.5 0 1 .2 1.4.6s.5.9.5 1.4-.2 1-.6 1.4-.8.6-1.4.6c-.5 0-1-.2-1.4-.6s-.6-.8-.6-1.4c.1-.5.3-1 .7-1.4"/></svg>