<svg xmlns="http://www.w3.org/2000/svg" width="32" height="32" fill="none"><path fill="#000" d="m29 23.875-3.8-3.8 3-3c.2-.2.4-.5.6-.8s.2-.6.2-1v-9.3c0-.7-.3-1.3-.8-1.8s-1.1-.8-1.8-.8H17c-.3 0-.7.1-1 .2s-.6.3-.8.6l-3 2.9-3.7-3.7c-.5-.5-1.4-.5-1.9 0s-.5 1.4 0 1.9l20.4 20.4c.6.5 1.4.5 2 .1.5-.5.5-1.4 0-1.9m-11.9-17.9h9.3v9.3l-3 3-9.3-9.3zM18.7 22.875l-3.9 3.9-9.3-9.3 3.9-3.9c.6-.5.6-1.3.1-1.8s-1.3-.5-1.8 0l-3.9 3.9c-.3.3-.4.6-.6.9-.1.3-.2.6-.2 1 0 .3.1.6.2 1q.15.45.6.9l9.3 9.3q.45.45.9.6c.3.1.6.2 1 .2s.6-.1 1-.2q.45-.15.9-.6l3.9-3.9c.5-.5.5-1.3 0-1.8-.7-.7-1.5-.7-2.1-.2"/><path fill="#000" d="M24.5 10.575c.3-.4.5-.8.5-1.4 0-.5-.2-1-.6-1.4s-.8-.6-1.4-.6-1 .2-1.4.6-.6.8-.6 1.4c0 .5.2 1 .6 1.4s.8.6 1.4.6q.9 0 1.5-.6"/></svg>