<svg xmlns="http://www.w3.org/2000/svg" width="32" height="32"><path d="M11.333 8.667v.781l1.219 1.219h7.103c.358 0 .695 0 1.011.002V8.667a4.667 4.667 0 0 0-9.334 0zm-2.471-1.69A7.336 7.336 0 0 1 16 1.334a7.333 7.333 0 0 1 7.333 7.333v2.2c.377.083.739.203 1.088.381a5.337 5.337 0 0 1 2.331 2.331c.33.647.461 1.336.522 2.086.059.722.059 1.607.059 2.681v3.31c0 1.073 0 1.959-.059 2.681a7.812 7.812 0 0 1-.126.927l1.795 1.795a1.333 1.333 0 1 1-1.886 1.886l-24-24a1.333 1.333 0 1 1 1.886-1.886l3.92 3.92zm6.357 6.356 9.445 9.445c.003-.345.003-.734.003-1.178v-3.2c0-1.142-.001-1.919-.05-2.519-.048-.585-.134-.883-.241-1.092a2.666 2.666 0 0 0-1.165-1.165c-.209-.106-.507-.193-1.092-.241-.6-.049-1.377-.05-2.519-.05h-4.381zm-7.706-2.051 2.125 2.125c-.428.05-.671.126-.848.217-.502.256-.91.664-1.165 1.165-.106.209-.193.507-.241 1.092-.049.6-.05 1.377-.05 2.519v3.2c0 1.142.001 1.919.05 2.519.048.585.134.883.241 1.092.256.502.664.91 1.165 1.165.209.106.507.193 1.092.241.6.049 1.377.05 2.519.05h7.2c1.142 0 1.919-.001 2.519-.05a5.02 5.02 0 0 0 .641-.088l2.022 2.022a4.864 4.864 0 0 1-.36.201c-.647.33-1.336.461-2.086.522-.722.059-1.607.059-2.681.059h-7.31c-1.073 0-1.959 0-2.681-.059-.749-.061-1.438-.193-2.086-.522a5.331 5.331 0 0 1-2.331-2.331c-.33-.647-.461-1.336-.522-2.086-.059-.722-.059-1.607-.059-2.681v-3.31c0-1.073 0-1.959.059-2.681.061-.749.193-1.438.522-2.086a5.33 5.33 0 0 1 2.265-2.296z"/></svg>