<svg xmlns="http://www.w3.org/2000/svg" width="32" height="32"><path d="M14 3.333a2 2 0 1 1 3.99.205 9.663 9.663 0 0 1 7.662 9.068l.227 5.677a9.333 9.333 0 0 0 1.56 4.804l1.004 1.505a1.333 1.333 0 0 1-1.11 2.073H4.666a1.335 1.335 0 0 1-1.11-2.073l1.004-1.505a9.327 9.327 0 0 0 1.56-4.804l.227-5.677a9.661 9.661 0 0 1 7.662-9.068 1.996 1.996 0 0 1-.01-.205zM16 6a6.993 6.993 0 0 0-6.987 6.714l-.227 5.677A11.998 11.998 0 0 1 7.136 24h17.729a12.001 12.001 0 0 1-1.65-5.609l-.227-5.677A6.994 6.994 0 0 0 16.001 6zm0 24.667c-1.48 0-2.667-1.2-2.667-2.667h5.333c0 1.467-1.2 2.667-2.667 2.667z"/></svg>