<svg xmlns="http://www.w3.org/2000/svg" width="32" height="32"><path d="M11.401 2.667h9.24c.599 0 1.108 0 1.505.023.366.021.861.069 1.297.297a2.8 2.8 0 0 1 1.319 3.469c-.174.46-.513.824-.772 1.084-.281.281-.661.619-1.109 1.017l-1.261 1.12a7.116 7.116 0 0 0-.203.184l-.004.004.001.005c.005.054.014.127.032.272l.352 2.813c.06.476.075.57.098.648.059.203.166.39.311.544.056.059.129.12.509.413l.941.724c.726.559 1.318 1.013 1.75 1.387.4.345.857.777 1.094 1.31a3.334 3.334 0 0 1-1.457 4.283 2.64 2.64 0 0 1-.653.241l4.553 4.553a1.333 1.333 0 1 1-1.886 1.886l-24-24a1.333 1.333 0 1 1 1.886-1.886l2.129 2.129a2.8 2.8 0 0 1 1.486-2.199c.436-.228.931-.276 1.297-.297.397-.023.905-.023 1.505-.023h.041zm10.484 17.332c.566-.002.999-.008 1.341-.027.354-.02.507-.052.551-.061l.014-.003a.667.667 0 0 0 .28-.824.185.185 0 0 1-.01-.011c-.03-.034-.131-.153-.399-.385-.368-.318-.898-.726-1.667-1.318l-.966-.743c-.289-.222-.543-.417-.763-.65a4 4 0 0 1-.934-1.632c-.089-.307-.129-.625-.174-.987l-.009-.074-.352-2.813-.007-.057a3.778 3.778 0 0 1-.042-.737 2.666 2.666 0 0 1 .538-1.43c.161-.211.359-.386.517-.527l.043-.038 1.23-1.093c.487-.433.808-.719 1.027-.938.092-.092.144-.152.171-.184a.13.13 0 0 0-.036-.094 3.094 3.094 0 0 0-.251-.024 27.428 27.428 0 0 0-1.39-.019h-9.199c-.652 0-1.081.001-1.39.019a2.757 2.757 0 0 0-.251.024.13.13 0 0 0-.036.094c.027.033.08.092.171.184.219.219.539.504 1.027.938l1.273 1.131c.158.14.357.316.517.527.315.414.502.911.538 1.43.018.264-.015.527-.042.737l-.007.057-.094.749 8.777 8.777zm-12.09-5.852c-.056.059-.129.12-.509.413l-.941.724c-.726.559-1.318 1.014-1.75 1.387-.4.345-.857.777-1.094 1.31a3.333 3.333 0 0 0 1.457 4.283c.513.278 1.138.341 1.666.371.57.032 1.316.032 2.233.032h3.811v6.667a1.333 1.333 0 0 0 2.666 0v-6.667h1.564L16.231 20h-5.332c-.97 0-1.64-.001-2.125-.028-.354-.02-.507-.052-.551-.061l-.014-.003a.667.667 0 0 1-.28-.824.185.185 0 0 0 .01-.011c.03-.034.131-.153.399-.385.368-.318.898-.726 1.667-1.318l.966-.743c.289-.222.543-.417.763-.65.077-.082.151-.167.221-.255l-1.923-1.923c-.06.127-.14.244-.237.347z"/></svg>