<svg xmlns="http://www.w3.org/2000/svg" width="32" height="32"><path d="M10.4 2.667h-.055c-1.073 0-1.959 0-2.681.059-.749.061-1.438.193-2.085.522a5.331 5.331 0 0 0-2.331 2.331c-.33.647-.461 1.336-.522 2.086-.059.722-.059 1.607-.059 2.681v18.988a1.335 1.335 0 0 0 2.276.943l4.084-4.084c.506-.506.612-.599.715-.663.119-.073.249-.127.385-.16.118-.028.258-.037.974-.037h6.233a1.333 1.333 0 0 0 0-2.666H10.99c-.543 0-1.021-.001-1.485.111-.408.098-.798.26-1.156.479-.407.25-.745.588-1.129.972l-.079.079-1.808 1.807V10.401c0-1.142.001-1.918.05-2.519.048-.585.134-.883.241-1.092.256-.502.664-.91 1.165-1.165.209-.106.507-.193 1.092-.241.6-.049 1.377-.05 2.519-.05h11.2c1.142 0 1.919.001 2.519.05.585.048.883.134 1.092.241.502.256.91.664 1.165 1.165.106.209.193.507.241 1.092.049.6.05 1.377.05 2.519v2.933a1.333 1.333 0 0 0 2.666 0v-2.988c0-1.073 0-1.959-.059-2.681-.061-.749-.193-1.438-.522-2.086a5.331 5.331 0 0 0-2.331-2.331c-.647-.33-1.336-.461-2.086-.522-.722-.059-1.607-.059-2.681-.059H10.399zm12.267 18.666a2.667 2.667 0 1 1 5.334 0 2.667 2.667 0 0 1-5.334 0zM25.333 16a5.333 5.333 0 1 0 0 10.667 5.333 5.333 0 0 0 0-10.667z"/></svg>