<svg xmlns="http://www.w3.org/2000/svg" xml:space="preserve" viewBox="0 0 32 32"><path d="M19.5 26.4c-.5 0-.9-.4-1-.8-.4-2.1-2.2-3.6-4.4-3.6H7.6c-2.2 0-4 1.6-4.4 3.6-.1.5-.5.8-1 .8-.6 0-1.1-.6-1-1.2.5-3 3.2-5.3 6.4-5.3h6.6c3.2 0 5.8 2.3 6.4 5.3 0 .7-.5 1.2-1.1 1.2m10.3 0c-.5 0-.9-.4-1-.8-.4-2.1-2.2-3.6-4.4-3.6h-2.8l-1.5-2h4.3c3.2 0 5.8 2.3 6.4 5.3.1.6-.4 1.1-1 1.1M15.9 9.3h-2.3c-.2 0-.4-.1-.4-.3l-.7-2.2c-.2-.7-.8-1.1-1.6-1.1s-1.4.3-1.6 1l-.7 2.2c-.1.2-.2.4-.4.4H5.8c-.7 0-1.3.5-1.6 1.1s0 1.4.6 1.8l1.9 1.4c.2.1.2.3.2.5l-.7 2.2c-.2.7 0 1.4.6 1.8s1.3.4 1.9 0l1.9-1.4c.2-.1.4-.1.5 0l1.9 1.4c.3.2.6.3 1 .3s.7-.1 1-.3c.6-.4.8-1.1.6-1.8l-.7-2.2c-.1-.2 0-.4.2-.5l1.9-1.4c.6-.4.8-1.1.6-1.8s-1-1.1-1.7-1.1m-2.3 3.1c-.6.4-.8 1.2-.6 1.8l.7 2.2-1.9-1.4c-.3-.2-.6-.3-1-.3s-.7.1-1 .3L8 16.3l.6-1.7c.1-.2.2-.4.3-.5l1.9-1.6-2.3.1-.4-.2-1.8-1.3h2.3c.7 0 1.3-.5 1.6-1.1l.7-2.2.7 2.2c.2.7.8 1.1 1.6 1.1h2.3zm16-.6c-.2-.6-.8-1-1.4-1h-1.4c-.3 0-.6-.2-.6-.5L25.7 9c-.2-.6-.8-1-1.4-1s-1.2.4-1.4 1l-.4 1.3c-.1.3-.4.5-.6.5h-1.4c-.6 0-1.2.4-1.4 1s0 1.3.5 1.6l1.1.8c.2.2.3.5.2.8l-.4 1.3c-.2.6 0 1.3.5 1.6q.45.3.9.3c.45 0 .6-.1.9-.3L24 17c.2-.2.5-.2.7 0l1.2.9c.5.4 1.2.4 1.7 0s.7-1 .5-1.6l-.4-1.3c-.1-.3 0-.6.2-.8l1.1-.8c.5-.3.7-1 .6-1.6"/><path d="M25.8 13.6c-.3.2-.4.6-.3.9L26 16l-1.3-.9c-.3-.2-.7-.2-1 0l-1.2.9.4-1.4c0-.1.1-.2.2-.3l1.2-1-1.4.1c-.1 0-.3 0-.4-.1l-1.1-.8H23c.4 0 .7-.2.8-.6l.5-1.5.5 1.5c.1.3.4.6.8.6h1.6z"/></svg>