<svg xmlns="http://www.w3.org/2000/svg" xml:space="preserve"  x="0" y="0" version="1.1" viewBox="0 0 32 32"><path d="M11.9 17.7c-6.2 0-8.4 3.6-9.2 5.7-.3.8-.2 1.7.3 2.5.6.8 1.6 1.3 2.6 1.3h12.5c1.1 0 2.1-.5 2.6-1.3.5-.7.6-1.6.3-2.5-.7-2.1-2.9-5.7-9.1-5.7m7.2 7c-.2.3-.6.5-1 .5H5.6c-.4 0-.8-.2-1-.5-.1-.2-.2-.4-.1-.6.7-2 2.6-4.4 7.3-4.4s6.6 2.4 7.3 4.4q.3.3 0 .6M29.3 22.7c-.6-1.9-2.6-5.2-8.1-5.2h-.7c-.6 0-1 .5-1 1 0 .6.5 1 1 1h.6c4.1 0 5.6 2.1 6.2 3.8v.4c-.1.2-.4.3-.6.3h-3.6c-.6 0-1 .4-1 1s.4 1 1 1h3.6c.9 0 1.8-.4 2.3-1.1s.6-1.5.3-2.2M6.4 12l.8.6c.1.1.2.1.3.2L7.1 14c-.2.7-.1 1.3.3 1.9.7 1.1 2.2 1.5 3.3.8l1.2-.7 1.3.7q.6.3 1.2.3c.2 0 .4 0 .6-.1.6-.1 1.2-.6 1.5-1.1q.45-.9.3-1.8l-.3-1.3.6-.5c.1.3.4.6.6.9l.4.3-.1.4c-.2.6-.1 1.3.3 1.8.7 1 2 1.4 3.1.7l.5-.3.5.3q.6.3 1.2.3c.2 0 .3 0 .5-.1.6-.1 1.1-.5 1.4-1s.4-1.1.3-1.7l-.1-.4.4-.3c.5-.4.8-1 .8-1.6s-.1-1.2-.5-1.7-1-.8-1.6-.8h-.6l-.2-.6c-.3-.5-.7-.8-1.2-1-1.1-.4-2.3 0-2.9 1l-.3.6H19c-.3 0-.5.1-.8.2-.1-.3-.2-.5-.4-.8-.4-.5-1-.8-1.7-.9l-1.5-.1-.5-1.2c-.3-.6-.7-1.1-1.3-1.3-1.2-.5-2.6.1-3.2 1.3l-.4 1.3-1.5.1c-.6 0-1.1.3-1.5.7l-.1.2q-.75.75-.6 1.8c0 .6.4 1.2.9 1.7m12.6-.8c.1-.1.2-.1.2-.1L21 11l.7-1.6c.1-.1.2-.2.4-.1.1 0 .1.1.1.1l.7 1.6 1.8.1c.1 0 .2 0 .2.1s.1.1.1.2-.1.2-.1.2l-1.4 1.1.4 1.7v.2c0 .1-.1.1-.2.1h-.2l-1.5-.9-1.5.9c-.1.1-.3.1-.4-.1 0-.1-.1-.1 0-.2l.3-1.1h.1l1.8-1c.1 0 0-.2-.1-.2l-2.1.1H20c-.1 0-.1-.1-.2-.1l-.5-.4c-.3-.2-.3-.3-.3-.3zM7.5 9.8c.1-.1.2-.2.3-.2l2.6-.2 1-2.4c.1-.2.4-.3.6-.2.1 0 .2.1.2.2l1 2.4 2.8.2c.1 0 .2.1.3.2s.1.2.1.3-.1.2-.2.3l-2 1.7.6 2.5v.3c-.1.1-.2.2-.3.2s-.2 0-.3-.1l-2.3-1.3L9.7 15c-.2.1-.5.1-.6-.1-.1-.1-.1-.3-.1-.4l.3-1.2c0-.2.1-.3.2-.5l3.3-1.7c.1-.1.1-.2-.1-.2l-3.7.4-.6-.3-.8-.6c-.1-.1-.2-.2-.2-.3.1-.1.1-.2.1-.3"/></svg>