<svg xmlns="http://www.w3.org/2000/svg" width="32" height="32"><path d="M12.667 8.667a3.333 3.333 0 1 1 6.665 0 3.333 3.333 0 0 1-6.665 0zm3.333-6a6 6 0 1 0 0 12 6 6 0 0 0 0-12zM7.034 21.949c.998-1.112 3.603-3.282 8.966-3.282s7.968 2.17 8.966 3.282c.223.249.367.652.367 1.234a2.151 2.151 0 0 1-2.151 2.151H8.817a2.151 2.151 0 0 1-2.151-2.151c0-.581.144-.985.367-1.234zM16 16c-6.199 0-9.502 2.553-10.951 4.167C4.236 21.073 4 22.211 4 23.182A4.818 4.818 0 0 0 8.818 28h14.365a4.818 4.818 0 0 0 4.818-4.818c0-.97-.236-2.109-1.049-3.015C25.503 18.553 22.2 16 16.001 16z"/></svg>