<svg xmlns="http://www.w3.org/2000/svg" xml:space="preserve" x="0" y="0" version="1.1" viewBox="0 0 32 32"><path d="M11.1 18c-7.4 0-10 4.3-10.9 6.8-.4 1-.2 2.1.4 2.9.7 1 1.9 1.6 3.1 1.6h14.8c1.3 0 2.4-.6 3.1-1.6.6-.9.7-1.9.4-2.9-.9-2.5-3.5-6.8-10.9-6.8m8.6 8.4c-.2.3-.7.5-1.2.5H3.7c-.5 0-1-.2-1.2-.5-.2-.2-.2-.5-.1-.8.9-2.4 3.1-5.2 8.7-5.2s7.8 2.8 8.7 5.2c.1.3.1.5-.1.8M31.8 23.9c-.8-2.3-3-6.1-9.6-6.1h-.8c-.7 0-1.2.6-1.1 1.2 0 .7.6 1.2 1.2 1.1h.7c4.8 0 6.6 2.4 7.3 4.5.1.2 0 .3-.1.4-.1.2-.4.3-.8.3h-4.3c-.7 0-1.2.5-1.2 1.2s.5 1.2 1.2 1.2h4.3c1.1 0 2.1-.5 2.7-1.3.7-.7.8-1.6.5-2.5M4.6 11.2l.9.7c.1.1.2.2.3.2v.1l-.4 1.4c-.2.8-.1 1.6.4 2.3.8 1.3 2.6 1.7 3.9.9l1.5-.9 1.5.9c.5.3 1 .4 1.5.4.2 0 .4 0 .7-.1.8-.2 1.4-.7 1.8-1.3.4-.7.5-1.4.3-2.2l-.4-1.5.8-.6c.2.4.4.8.8 1l.4.3-.1.5c-.2.7-.1 1.5.3 2.1.8 1.2 2.4 1.6 3.7.9l.6-.3.6.4c.4.2.9.4 1.4.4.2 0 .4 0 .6-.1.7-.2 1.3-.6 1.7-1.2s.5-1.4.3-2.1l-.1-.5.4-.4c.6-.5.9-1.1 1-1.9.1-.7-.2-1.4-.6-2-.5-.6-1.2-.9-1.9-1l-.7-.1-.4-.8c-.3-.5-.8-1-1.4-1.2-1.3-.5-2.7 0-3.4 1.2l-.4.8h-.7c-.3 0-.6.1-.9.2-.1-.3-.3-.6-.5-.9-.5-.6-1.2-1-2-1l-1.6.2-.6-1.5c-.3-.7-.9-1.3-1.6-1.5-1.5-.7-3.2 0-3.8 1.5L7.9 6l-1.7.1c-.7 0-1.3.3-1.8.8l-.2.2c-.5.6-.8 1.3-.7 2.1s.5 1.5 1.1 2m14.9-.9c.1-.1.2-.2.3-.2l2.1-.2.8-1.9c.1-.2.3-.2.4-.1.2.1.2.1.3.1l.8 1.9 2.1.2c.1 0 .2.1.3.1.1.1.1.1.1.2s-.1.2-.1.2L25 11.9l.5 2v.2l-.2.2H25l-1.8-1.1-1.8 1c-.1.1-.4.1-.5-.1 0-.1-.1-.2 0-.3l.3-1.3.1-.1 2.1-1.2c.1-.1 0-.2-.1-.2l-2.5.1h-.1c-.1 0-.2-.1-.2-.2l-.6-.5c-.1-.1-.1-.2-.1-.2-.3.3-.3.2-.3.1M5.9 8.7c.2-.2.3-.2.4-.2l3.1-.2 1.2-2.8c.1-.3.5-.4.7-.3l.3.3 1.2 2.8 3.2.2c.1 0 .3.1.4.2s.1.2.1.4c0 .1-.1.3-.2.3l-2.4 2 .7 2.9c0 .1 0 .3-.1.4s-.2.2-.3.2-.3 0-.4-.1l-2.7-1.6-2.7 1.6c-.2.1-.6.1-.7-.2-.1-.1-.1-.3-.1-.4l.4-1.4c.1-.2.1-.4.3-.6l3.9-2c.1-.1.1-.3-.1-.2l-4.5.4c-.3-.1-.5-.2-.7-.4L6 9.3c-.1-.1-.1-.2-.1-.3z"/></svg>