<svg xmlns="http://www.w3.org/2000/svg" width="32" height="32"><path d="M16 4C9.373 4 4 9.373 4 16a11.95 11.95 0 0 0 2.812 7.719c.116-.23.301-.429.543-.563 2.261-1.253 5.177-1.822 8.646-1.822 1.356 0 2.627.087 3.807.268a6.611 6.611 0 0 0-1.037 2.55 23.72 23.72 0 0 0-2.77-.151c-3.211 0-5.627.533-7.351 1.487A11.946 11.946 0 0 0 16 28.001c1.059 0 2.086-.137 3.064-.395a6.67 6.67 0 0 0 1.464 2.349 14.668 14.668 0 0 1-4.528.712C7.9 30.667 1.333 24.1 1.333 16S7.899 1.333 16 1.333 30.667 7.899 30.667 16c0 1.58-.25 3.102-.712 4.528a6.67 6.67 0 0 0-2.349-1.464c.257-.978.395-2.005.395-3.064 0-6.627-5.373-12-12-12zm0 6.667a2.667 2.667 0 1 0 0 5.334 2.667 2.667 0 0 0 0-5.334zm-5.333 2.666a5.333 5.333 0 1 1 10.666 0 5.333 5.333 0 0 1-10.666 0zm14.666 16a4 4 0 1 0 0-8 4 4 0 0 0 0 8z"/></svg>