<svg xmlns="http://www.w3.org/2000/svg" xml:space="preserve" viewBox="0 0 32 32"><path d="M14.98 14.686a6.31 6.31 0 1 0 .003-12.62h-.002a6.31 6.31 0 0 0 0 12.62m-.224 11.128a4.4 4.4 0 0 1-.555-.708l-.153-.228-.1-.28a3.7 3.7 0 0 1-.206-1.16v-4.972c0-.202.023-.4.06-.594-6.067.298-9.243 2.86-10.606 4.377-.613.683-.837 1.595-.837 2.513a4.123 4.123 0 0 0 4.123 4.123h11.344z"/><path d="M29.64 24.56c0 .16-.053.321-.106.535-.054.214-.16.32-.321.48l-4.971 4.972c-.16.16-.268.214-.481.32-.214.108-.321.054-.481.054s-.321-.053-.535-.107c-.214-.053-.32-.16-.481-.32L16.17 24.4a3 3 0 0 1-.32-.428 2 2 0 0 1-.107-.534v-4.971c0-.374.16-.695.427-.962s.588-.428.963-.428h4.97c.161 0 .375.053.535.107.16.053.32.16.428.32l6.147 6.094q.24.24.32.481c.054.16.107.321.107.481m-9.728-4.383c0-.267-.107-.534-.32-.748-.214-.16-.428-.267-.749-.267s-.534.107-.748.32-.321.428-.321.749c0 .267.107.534.32.748s.428.32.75.32.534-.106.747-.32c.214-.267.321-.481.321-.802"/></svg>