<svg xmlns="http://www.w3.org/2000/svg" width="32" height="32"><path d="M1.867 23.733c-.533-1.067-.533-2.533-.533-5.467v-4.133c0-2.8 0-4.267.533-5.333a6.163 6.163 0 0 1 2.267-2.267C5.201 6 6.667 6 9.467 6H13.6c2.8 0 4.267 0 5.333.533A6.163 6.163 0 0 1 21.2 8.8c.533 1.067.533 2.533.533 5.333v4.133c0 2.8 0 4.267-.533 5.333a6.163 6.163 0 0 1-2.267 2.267c-1.067.533-2.533.533-5.333.533H9.467c-2.8 0-4.267 0-5.333-.533-.933-.4-1.733-1.2-2.267-2.133zm22-4.933c-.267-.267-.4-.667-.4-1.067v-3.467l4.4-5.333c.8-.933 2.4-.4 2.4.933v12.8c0 1.333-1.6 1.867-2.4.933l-4-4.8z"/></svg>