<svg xmlns="http://www.w3.org/2000/svg" width="32" height="32"><path d="M9.067 4.667h7.255c1.073 0 1.959 0 2.681.059.749.061 1.438.193 2.086.522a5.337 5.337 0 0 1 2.331 2.331c.33.647.461 1.336.522 2.086.038.466.052 1.001.056 1.61l2.608-2.504c1.528-1.467 4.061-.379 4.061 1.732v10.995c0 2.115-2.537 3.196-4.062 1.731l-2.607-2.503a22.703 22.703 0 0 1-.056 1.61c-.061.749-.193 1.438-.522 2.086a5.337 5.337 0 0 1-2.331 2.331c-.647.33-1.336.461-2.086.522-.721.059-1.607.059-2.681.059h-7.31c-1.073 0-1.959 0-2.681-.059-.749-.061-1.438-.193-2.086-.522a5.331 5.331 0 0 1-2.331-2.331c-.33-.647-.461-1.336-.522-2.086-.059-.722-.059-1.607-.059-2.681v-7.31c0-1.073 0-1.959.059-2.681.061-.749.193-1.438.522-2.086a5.331 5.331 0 0 1 2.331-2.331c.647-.33 1.336-.461 2.086-.522.722-.059 1.607-.059 2.681-.059h.055zM24 15.534v.933c.001.362.149.708.41.959L28 20.873V11.13l-3.59 3.447a1.336 1.336 0 0 0-.41.959zm-2.667-.001V12.4c0-1.142-.001-1.918-.05-2.519-.048-.585-.134-.883-.241-1.092a2.666 2.666 0 0 0-1.165-1.165c-.209-.106-.507-.193-1.092-.241-.6-.049-1.377-.05-2.519-.05h-7.2c-1.142 0-1.918.001-2.519.05-.585.048-.883.134-1.092.241-.502.256-.91.664-1.165 1.165-.106.209-.193.507-.241 1.092-.049.6-.05 1.377-.05 2.519v7.2c0 1.142.001 1.919.05 2.519.048.585.134.883.241 1.092.256.502.664.91 1.165 1.165.209.106.507.193 1.092.241.6.049 1.377.05 2.519.05h7.2c1.142 0 1.919-.001 2.519-.05.585-.048.883-.134 1.092-.241.502-.256.91-.664 1.165-1.165.106-.209.193-.507.241-1.092.049-.6.05-1.377.05-2.519v-4.066z"/></svg>