<svg xmlns="http://www.w3.org/2000/svg" width="32" height="32"><path d="M25.746 28.637a1.34 1.34 0 0 1-.867.321c-.375 0-.75-.158-1.012-.467L3.65 4.866a1.333 1.333 0 1 1 2.025-1.733l2.454 2.871C8.537 6 8.979 6 9.462 6h4.133c2.8 0 4.267 0 5.333.533A6.163 6.163 0 0 1 21.195 8.8c.533 1.067.533 2.533.533 5.333v4.133c0 1.521 0 2.65-.083 3.533l4.242 4.958c.483.558.417 1.4-.142 1.879z"/><path d="M20.508 24.571c0 .004-.004.004-.004.008L4.842 6.271c.004 0 .004 0 .008-.004l15.658 18.304zm7.359-15.638-4.4 5.333v3.467c0 .4.133.8.4 1.067l4 4.8c.8.933 2.4.4 2.4-.933v-12.8c0-1.333-1.6-1.867-2.4-.933zM2.612 7.767A6.064 6.064 0 0 0 1.866 8.8c-.533 1.067-.533 2.533-.533 5.333v4.133c0 2.933 0 4.4.533 5.467.533.933 1.333 1.733 2.267 2.133 1.067.533 2.533.533 5.333.533h4.133c2.287 0 3.688 0 4.704-.292L2.611 7.765z"/></svg>