<svg xmlns="http://www.w3.org/2000/svg" width="32" height="32"><path fill-rule="evenodd" d="M16 2.91C8.77 2.91 2.91 8.77 2.91 16c0 7.23 5.86 13.09 13.09 13.09.698 0 1.383-.054 2.05-.159a1.455 1.455 0 0 1 .452 2.874C17.686 31.934 16.85 32 16 32 7.163 32 0 24.837 0 16S7.163 0 16 0c.85 0 1.686.066 2.502.195a1.455 1.455 0 0 1-.452 2.874 13.2 13.2 0 0 0-2.05-.16Zm7.374.466a1.455 1.455 0 0 1 2.032-.32 16.084 16.084 0 0 1 3.539 3.538 1.455 1.455 0 1 1-2.353 1.712 13.175 13.175 0 0 0-2.898-2.898 1.455 1.455 0 0 1-.32-2.032Zm6.769 8.91a1.455 1.455 0 0 1 1.662 1.212 16.103 16.103 0 0 1 0 5.004 1.455 1.455 0 1 1-2.873-.452 13.206 13.206 0 0 0 0-4.1 1.455 1.455 0 0 1 1.21-1.663Zm-1.519 11.088c.65.473.793 1.383.32 2.032a16.083 16.083 0 0 1-3.538 3.539 1.455 1.455 0 1 1-1.712-2.353 13.174 13.174 0 0 0 2.898-2.898 1.455 1.455 0 0 1 2.032-.32ZM14.546 8.727a1.455 1.455 0 1 0 0 2.91h.727c.401 0 .727.325.727.726v9.455a1.454 1.454 0 1 0 2.91 0v-9.455a3.636 3.636 0 0 0-3.637-3.636h-.727Z" clip-rule="evenodd"/></svg>