<svg xmlns="http://www.w3.org/2000/svg" width="32" height="32">
<g id="surface1">
<path style=" stroke:none;fill-rule:evenodd;fill:rgb(0%,0%,0%);fill-opacity:1;" d="M 16 29.328125 C 16.734375 29.328125 17.328125 28.734375 17.328125 28 C 17.328125 27.265625 16.734375 26.671875 16 26.671875 Z M 16 5.328125 C 16.734375 5.328125 17.328125 4.734375 17.328125 4 C 17.328125 3.265625 16.734375 2.671875 16 2.671875 Z M 16 26.671875 C 10.105469 26.671875 5.328125 21.894531 5.328125 16 L 2.671875 16 C 2.671875 23.359375 8.640625 29.328125 16 29.328125 Z M 5.328125 16 C 5.328125 10.105469 10.105469 5.328125 16 5.328125 L 16 2.671875 C 8.640625 2.671875 2.671875 8.640625 2.671875 16 Z M 5.328125 16 "/>
<path style=" stroke:none;fill-rule:evenodd;fill:rgb(0%,0%,0%);fill-opacity:1;" d="M 29.273438 14.777344 C 29.207031 14.046875 28.558594 13.507812 27.828125 13.574219 C 27.097656 13.640625 26.5625 14.289062 26.628906 15.019531 Z M 24.207031 9.179688 C 24.675781 9.742188 25.515625 9.820312 26.078125 9.351562 C 26.640625 8.882812 26.71875 8.042969 26.25 7.480469 Z M 24.519531 5.75 C 23.957031 5.28125 23.117188 5.359375 22.648438 5.921875 C 22.179688 6.484375 22.257812 7.324219 22.820312 7.792969 Z M 16.980469 5.371094 C 17.710938 5.4375 18.359375 4.902344 18.425781 4.171875 C 18.492188 3.441406 17.953125 2.792969 17.222656 2.726562 Z M 14.777344 2.726562 C 14.046875 2.792969 13.507812 3.441406 13.574219 4.171875 C 13.640625 4.902344 14.289062 5.4375 15.019531 5.371094 Z M 9.179688 7.792969 C 9.742188 7.324219 9.820312 6.484375 9.351562 5.921875 C 8.878906 5.359375 8.042969 5.28125 7.480469 5.75 Z M 5.75 7.480469 C 5.28125 8.042969 5.359375 8.882812 5.921875 9.351562 C 6.484375 9.820312 7.324219 9.742188 7.792969 9.179688 Z M 5.371094 15.019531 C 5.4375 14.289062 4.902344 13.640625 4.171875 13.574219 C 3.441406 13.507812 2.792969 14.046875 2.726562 14.777344 Z M 2.726562 17.222656 C 2.792969 17.953125 3.441406 18.492188 4.171875 18.425781 C 4.902344 18.359375 5.4375 17.710938 5.371094 16.980469 Z M 7.792969 22.820312 C 7.324219 22.257812 6.484375 22.179688 5.921875 22.648438 C 5.359375 23.121094 5.28125 23.957031 5.75 24.519531 Z M 7.480469 26.25 C 8.042969 26.71875 8.878906 26.640625 9.351562 26.078125 C 9.820312 25.515625 9.742188 24.675781 9.179688 24.207031 Z M 15.019531 26.628906 C 14.289062 26.5625 13.640625 27.097656 13.574219 27.828125 C 13.507812 28.558594 14.046875 29.207031 14.777344 29.273438 Z M 17.222656 29.273438 C 17.953125 29.207031 18.492188 28.558594 18.425781 27.828125 C 18.359375 27.097656 17.710938 26.5625 16.980469 26.628906 Z M 22.820312 24.207031 C 22.257812 24.675781 22.179688 25.515625 22.648438 26.078125 C 23.117188 26.640625 23.957031 26.71875 24.519531 26.25 Z M 26.25 24.519531 C 26.71875 23.957031 26.640625 23.121094 26.078125 22.648438 C 25.515625 22.179688 24.675781 22.257812 24.207031 22.820312 Z M 26.628906 16.980469 C 26.5625 17.710938 27.097656 18.359375 27.828125 18.425781 C 28.558594 18.492188 29.207031 17.953125 29.273438 17.222656 Z M 29.328125 16 C 29.328125 15.589844 29.308594 15.179688 29.273438 14.777344 L 26.628906 15.019531 C 26.65625 15.34375 26.671875 15.671875 26.671875 16 Z M 26.25 7.480469 C 25.726562 6.851562 25.148438 6.273438 24.519531 5.75 L 22.820312 7.792969 C 23.324219 8.210938 23.789062 8.675781 24.207031 9.179688 Z M 17.222656 2.726562 C 16.816406 2.691406 16.40625 2.671875 16 2.671875 L 16 5.328125 C 16.332031 5.328125 16.660156 5.34375 16.980469 5.371094 Z M 16 2.671875 C 15.589844 2.671875 15.179688 2.691406 14.777344 2.726562 L 15.019531 5.371094 C 15.34375 5.34375 15.671875 5.328125 16 5.328125 Z M 7.480469 5.75 C 6.851562 6.273438 6.273438 6.851562 5.75 7.480469 L 7.792969 9.179688 C 8.210938 8.675781 8.675781 8.210938 9.179688 7.792969 Z M 2.726562 14.777344 C 2.691406 15.183594 2.671875 15.59375 2.671875 16 L 5.328125 16 C 5.328125 15.667969 5.34375 15.339844 5.371094 15.019531 Z M 2.671875 16 C 2.671875 16.410156 2.691406 16.820312 2.726562 17.222656 L 5.371094 16.980469 C 5.34375 16.65625 5.328125 16.328125 5.328125 16 Z M 5.75 24.519531 C 6.273438 25.148438 6.851562 25.726562 7.480469 26.25 L 9.179688 24.207031 C 8.675781 23.789062 8.210938 23.324219 7.792969 22.820312 Z M 14.777344 29.273438 C 15.179688 29.308594 15.589844 29.328125 16 29.328125 L 16 26.671875 C 15.667969 26.671875 15.339844 26.65625 15.019531 26.628906 Z M 16 29.328125 C 16.410156 29.328125 16.820312 29.308594 17.222656 29.273438 L 16.980469 26.628906 C 16.65625 26.65625 16.328125 26.671875 16 26.671875 Z M 24.519531 26.25 C 25.148438 25.726562 25.726562 25.148438 26.25 24.519531 L 24.207031 22.820312 C 23.789062 23.324219 23.324219 23.789062 22.820312 24.207031 Z M 29.273438 17.222656 C 29.308594 16.820312 29.328125 16.410156 29.328125 16 L 26.671875 16 C 26.671875 16.332031 26.65625 16.660156 26.628906 16.980469 Z M 16.726562 22.996094 C 15.890625 22.996094 15.320312 22.433594 15.320312 21.582031 L 15.320312 11.898438 L 15.261719 11.898438 L 13.285156 13.273438 C 13.023438 13.460938 12.824219 13.527344 12.535156 13.527344 C 11.960938 13.527344 11.539062 13.117188 11.539062 12.515625 C 11.539062 12.085938 11.710938 11.765625 12.148438 11.457031 L 14.832031 9.601562 C 15.488281 9.148438 15.9375 9.066406 16.519531 9.066406 C 17.523438 9.066406 18.121094 9.675781 18.121094 10.648438 L 18.121094 21.582031 C 18.121094 22.433594 17.558594 22.996094 16.726562 22.996094 "/>
</g>
</svg>
