<svg xmlns="http://www.w3.org/2000/svg" width="32" height="32"><path d="M19.348 29.437a1.204 1.204 0 0 1-1.001 1.378A14.998 14.998 0 0 1 3.419 7.83a15 15 0 0 1 14.928-6.645 1.206 1.206 0 1 1-.377 2.38 12.59 12.59 0 1 0 0 24.87 1.205 1.205 0 0 1 1.378 1.002m-4.727-20.16h.69a3.274 3.274 0 0 1 3.274 3.274v8.967a1.204 1.204 0 1 1-2.41 0v-8.967a.864.864 0 0 0-.864-.864h-.69a1.204 1.204 0 1 1 0-2.41m14.816 3.375a1.204 1.204 0 0 1 1.378 1.001 15 15 0 0 1 0 4.694 1.206 1.206 0 1 1-2.38-.377 12.6 12.6 0 0 0 0-3.94 1.205 1.205 0 0 1 1.002-1.378m-1.568 10.482c.538.391.657 1.145.266 1.683a15 15 0 0 1-3.318 3.318 1.203 1.203 0 0 1-1.924-.843 1.2 1.2 0 0 1 .507-1.106 12.6 12.6 0 0 0 2.786-2.786 1.205 1.205 0 0 1 1.683-.266M23.134 4.131a1.205 1.205 0 0 1 1.683-.266 15 15 0 0 1 3.318 3.318 1.203 1.203 0 0 1-.843 1.924 1.2 1.2 0 0 1-1.106-.507A12.6 12.6 0 0 0 23.4 5.814a1.205 1.205 0 0 1-.266-1.683"/></svg>