<svg xmlns="http://www.w3.org/2000/svg" width="32" height="32"><path d="M20.68 17.813c-.733 0-1.333-.6-1.333-1.333v-6.173c0-.733.6-1.333 1.333-1.333s1.333.6 1.333 1.333v6.16c0 .747-.587 1.347-1.333 1.347zM9.893 19.04c-.733 0-1.333-.6-1.333-1.333V9.84c0-.733.6-1.333 1.333-1.333s1.333.6 1.333 1.333v7.867c0 .733-.587 1.333-1.333 1.333zm5.374 1.413c-.733 0-1.333-.6-1.333-1.333V8.027c0-.733.6-1.333 1.333-1.333s1.333.6 1.333 1.333V19.12a1.32 1.32 0 0 1-1.333 1.333z"/><path d="M10.84 31.8c-1.587 0-2.493-1.28-2.52-2.48l.013-.653c.013-.92.04-1.867-.373-2.293-.333-.347-1.067-.52-2.107-.52A5.451 5.451 0 0 1 .4 20.401V5.854A5.451 5.451 0 0 1 5.853.401H24.84c3 0 5.453 2.44 5.453 5.453v14.533c0 3-2.44 5.453-5.453 5.453h-.053c-.027 0-2.827-.12-5.053-.12-.853.013-3.573 2.347-4.867 3.48-2.173 1.853-3.093 2.6-4.027 2.6zm-.253-2.627zM5.84 3.067a2.794 2.794 0 0 0-2.787 2.787v14.533a2.794 2.794 0 0 0 2.787 2.787c1.827 0 3.133.427 4.013 1.32 1.2 1.227 1.173 2.893 1.133 4.213v.2c.547-.4 1.427-1.16 2.12-1.747 2.893-2.493 4.92-4.12 6.613-4.12 2.173 0 4.8.107 5.133.12a2.788 2.788 0 0 0 2.76-2.787V5.853a2.794 2.794 0 0 0-2.787-2.787H5.838z"/></svg>