<svg xmlns="http://www.w3.org/2000/svg" width="32" height="32"><path d="M17.457 7.163c.168.276.268.61.268.967v15.913a1.879 1.879 0 0 1-2.854 1.606l.008.005-5.029-3.018a3.136 3.136 0 0 1-1.521-2.686v-7.729a3.13 3.13 0 0 1 1.507-2.678l.014-.008 5.029-3.018a1.879 1.879 0 0 1 2.578.645zM4.583 10.448c1.038 0 1.879.841 1.879 1.879v7.517a1.879 1.879 0 1 1-3.758 0v-7.517c0-1.038.841-1.879 1.879-1.879zm12.745 9.051h-.001a.945.945 0 0 1-.672-.279c-.372-.372-.372-5.86 0-6.232s.976-.372 1.347 0a4.378 4.378 0 0 1 1.29 3.116 4.376 4.376 0 0 1-1.29 3.116.938.938 0 0 1-.674.28z"/></svg>