<svg xmlns="http://www.w3.org/2000/svg" width="32" height="32"><path d="M29.617 10.583a14.55 14.55 0 0 0-1.283-2.496 14.718 14.718 0 0 0-8.454-6.225 14.783 14.783 0 0 0-3.895-.525 14.702 14.702 0 0 0-3.862.517 14.707 14.707 0 0 0-8.475 6.233 14.588 14.588 0 0 0-2.312 7.912c0 2.013.404 3.933 1.142 5.679a14.716 14.716 0 0 0 9.646 8.471c.95.258 1.942.425 2.958.492.304.021.613.029.921.029s.617-.008.925-.029a14.428 14.428 0 0 0 2.958-.492l.129-.038c.025-.008.05-.012.075-.021l.129-.038.05-.012h.004c.012-.004.021-.008.033-.008.004 0 .008-.004.017-.004l.046-.017c.008-.004.017-.004.025-.008l.033-.012c.029-.008.063-.021.092-.029s.063-.021.092-.029c.038-.012.071-.025.104-.033.017-.004.033-.012.05-.017.042-.012.083-.029.125-.042l.142-.05a14.779 14.779 0 0 0 7.142-5.625 14.62 14.62 0 0 0 2.479-8.163c0-1.912-.367-3.742-1.033-5.421zm-10.321 4.084h-6.592c.029-1.021.092-2.037.188-3.046 1.029.037 2.063.058 3.092.058 1.042 0 2.083-.021 3.125-.058.096 1.008.158 2.025.188 3.046zM16 4c.592 0 1.179.042 1.758.125a44.37 44.37 0 0 1 1.021 4.838c-.929.033-1.863.046-2.792.046-.921 0-1.842-.017-2.762-.046a44.42 44.42 0 0 1 1.021-4.838A12.286 12.286 0 0 1 16 4zM7.513 7.513a11.898 11.898 0 0 1 3.767-2.55 46.752 46.752 0 0 0-.738 3.871 75.788 75.788 0 0 1-3.9-.35c.275-.338.563-.658.871-.971zm-2.571 3.816c.05-.117.1-.233.154-.346 1.7.217 3.413.383 5.129.5a48.025 48.025 0 0 0-.188 3.183H4.074c.125-1.15.417-2.267.867-3.338zm.283 9.954a11.92 11.92 0 0 1-1.15-3.954h5.963c.029 1.163.104 2.317.217 3.462a95.496 95.496 0 0 0-5.029.492zm2.288 3.205a13.143 13.143 0 0 1-.654-.708 85.41 85.41 0 0 1 3.725-.329c.188 1.208.417 2.404.696 3.587a12.043 12.043 0 0 1-3.767-2.55zm10.249 3.383c-.579.083-1.167.129-1.762.129s-1.179-.042-1.758-.129a44.823 44.823 0 0 1-.975-4.554c.912-.029 1.825-.046 2.738-.046s1.825.017 2.738.046a45.647 45.647 0 0 1-.979 4.554zm1.321-7.213c-1.029-.038-2.054-.054-3.083-.054s-2.054.021-3.083.054a44.245 44.245 0 0 1-.213-3.325H19.3a45.74 45.74 0 0 1-.217 3.325zm1.634-15.695a11.965 11.965 0 0 1 4.638 3.521 87.76 87.76 0 0 1-3.896.35 50.335 50.335 0 0 0-.742-3.871zm3.771 19.525a12.085 12.085 0 0 1-3.762 2.55c.275-1.188.508-2.383.696-3.587a85.41 85.41 0 0 1 3.725.329c-.212.242-.433.479-.658.708zm2.57-3.817c-.087.208-.183.413-.283.617a85.24 85.24 0 0 0-5.025-.488c.113-1.146.183-2.304.217-3.462h5.962a12.066 12.066 0 0 1-.871 3.333zm-5.091-6.004a47.316 47.316 0 0 0-.192-3.183 84.522 84.522 0 0 0 5.129-.504 11.918 11.918 0 0 1 1.021 3.688h-5.958z"/></svg>