<svg xmlns="http://www.w3.org/2000/svg" width="32" height="32"><path d="M4 10.683h24c.8 0 1.333-.533 1.333-1.333S28.8 8.017 28 8.017H4c-.8 0-1.333.533-1.333 1.333S3.2 10.683 4 10.683zm8 10.667H4c-.8 0-1.333.533-1.333 1.333S3.2 24.016 4 24.016h8c.8 0 1.333-.533 1.333-1.333S12.8 21.35 12 21.35zm12.667-6.667H4c-.8 0-1.333.533-1.333 1.333S3.2 17.349 4 17.349h20.667c1.067 0 2 .933 2 2s-.933 2-2 2h-3.733c.4-.533.533-1.2 0-1.733s-1.333-.667-1.867-.133L16.4 21.75l-.133.133c-.533.533-.4 1.467.133 1.867l2.667 2.267c.267.133.533.267.8.267.4 0 .8-.133 1.067-.533.4-.533.4-1.2 0-1.733h3.733c2.533 0 4.667-2.133 4.667-4.667s-2.133-4.667-4.667-4.667z"/></svg>