<svg xmlns="http://www.w3.org/2000/svg" width="32" height="32"><path d="M13.333 4a9.333 9.333 0 0 1 7.466 14.935l.018.011.126.111 6.667 6.667a1.333 1.333 0 0 1-1.76 1.997l-.126-.111-6.667-6.667a1.4 1.4 0 0 1-.125-.144 9.333 9.333 0 1 1-5.599-16.798zm0 2.667a6.667 6.667 0 1 0 0 13.334 6.667 6.667 0 0 0 0-13.334zm0 2.666c.684 0 1.247.515 1.324 1.178l.009.155v1.333h1.333a1.333 1.333 0 0 1 .155 2.657l-.155.009h-1.333v1.333a1.333 1.333 0 0 1-2.657.155L12 15.998v-1.333h-1.333a1.333 1.333 0 0 1-.155-2.657l.155-.009H12v-1.333c0-.736.597-1.333 1.333-1.333z"/></svg>