<svg xmlns="http://www.w3.org/2000/svg" width="512" height="512" class="lottie-svg" style="width:100%;height:100%;transform:translate3d(0,0,0);content-visibility:visible"><defs><linearGradient id="m" x1="86.76" x2="-15.984" y1="63.518" y2="166.26" gradientUnits="userSpaceOnUse" spreadMethod="pad"><stop offset="0%" stop-color="#151d2a"/><stop offset="20%" stop-color="#12151d"/><stop offset="31%" stop-color="#0e0e10"/></linearGradient><linearGradient id="n" x1="-10.915" x2="19.277" y1="-18.839" y2="10.854" gradientUnits="userSpaceOnUse" spreadMethod="pad"><stop offset="0%" stop-color="#8d97a2" stop-opacity="0"/><stop offset="14%" stop-color="#8e98a2" stop-opacity=".5"/><stop offset="49%" stop-color="#8f99a3"/><stop offset="84%" stop-color="#8d96a1" stop-opacity=".5"/><stop offset="100%" stop-color="#8a94a0" stop-opacity="0"/></linearGradient><linearGradient id="h" x1="-25.068" x2="-24.245" y1="57.011" y2="37.72" gradientUnits="userSpaceOnUse" spreadMethod="pad"><stop offset="0%" stop-color="#fff"/><stop offset="50%" stop-color="#a3a5a7"/><stop offset="100%" stop-color="#484b4e"/></linearGradient><linearGradient id="i" x1="108.028" x2="46.613" y1="-143.79" y2="-124.447" gradientUnits="userSpaceOnUse" spreadMethod="pad"><stop offset="0%" stop-color="#b3a599"/><stop offset="50%" stop-color="#b3a599" stop-opacity=".5"/><stop offset="100%" stop-color="#b3a599" stop-opacity="0"/></linearGradient><linearGradient id="g" x1="-22.476" x2="48.472" y1="-223.466" y2="31.505" gradientUnits="userSpaceOnUse" spreadMethod="pad"><stop offset="0%" stop-color="#484b4e"/><stop offset="50%" stop-color="#484b4e"/><stop offset="100%" stop-color="#484b4e"/></linearGradient><linearGradient id="f" x1="-22.476" x2="48.472" y1="-223.466" y2="31.505" gradientUnits="userSpaceOnUse" spreadMethod="pad"><stop offset="0%" stop-color="#fff"/><stop offset="100%"/></linearGradient><linearGradient id="e" x1="-40.657" x2="-64.94" y1="-257.764" y2="27.475" gradientUnits="userSpaceOnUse" spreadMethod="pad"><stop offset="0%" stop-color="#a0bbdb"/><stop offset="25%" stop-color="#cfddec"/><stop offset="50%" stop-color="#fefefe"/><stop offset="75%" stop-color="#a2a3a4"/><stop offset="100%" stop-color="#46484b"/></linearGradient><linearGradient id="d" x1="-52.984" x2="-64.94" y1="-297.977" y2="27.475" gradientUnits="userSpaceOnUse" spreadMethod="pad"><stop offset="0%" stop-color="#a0bbdb"/><stop offset="25%" stop-color="#cfddec"/><stop offset="50%" stop-color="#fefefe"/><stop offset="75%" stop-color="#a2a3a4"/><stop offset="100%" stop-color="#46484b"/></linearGradient><linearGradient id="c" x1="-22.476" x2="48.472" y1="-223.466" y2="31.505" gradientUnits="userSpaceOnUse" spreadMethod="pad"><stop offset="0%" stop-color="#8d97a2" stop-opacity="0"/><stop offset="14%" stop-color="#8e98a2" stop-opacity=".5"/><stop offset="49%" stop-color="#8f99a3"/><stop offset="84%" stop-color="#8d96a1" stop-opacity=".5"/><stop offset="100%" stop-color="#8a94a0" stop-opacity="0"/></linearGradient><clipPath id="a"><path d="M0 0h512v512H0z"/></clipPath><clipPath id="b"><path d="M0 0h512v512H0z"/></clipPath></defs><g clip-path="url(#a)"><g clip-path="url(#b)" style="display:block" transform="translate(2.2 -17.8)scale(1.05)"><g opacity=".01" style="display:block"><path fill="url(#c)" d="M-7.503-245.657c.497 0 .125.532-.066.001 190.569 0 185.569 286.898 0 286.898.191-.054-.431-.742.062-.378 182.507 0 191.512-286.521.004-286.521" opacity="1" transform="rotate(45.436 -222.059 412.272)"/></g><g style="display:block"><path fill="url(#d)" d="M97.76-203.411c-55.908-56.523-147.047-57.014-203.56-1.095-56.513 55.908-57.004 147.047-1.096 203.56 15.68 15.849 34.123 27.29 53.807 34.315C-5.5 48 38.355 35.566 42.503 33.884 62.251 27.071 80.826 15.829 96.665.149c56.523-55.908 57.014-147.047 1.095-203.56M80.995-15.689C33.235 31.56-43.797 31.145-91.057-16.615c-47.249-47.771-46.834-124.803.926-172.052 47.771-47.26 124.803-46.846 172.052.925 47.26 47.76 46.845 124.793-.926 172.053" transform="rotate(45.436 -222.059 412.272)"/><path fill="none" stroke="#6498bf" stroke-miterlimit="10" stroke-width="8" d="M441.014 208.104c1.04-79.495-62.563-144.773-142.06-145.798-79.487-1.033-144.765 62.57-145.798 142.058-.29 22.293 4.501 43.461 13.308 62.415 25.768 48.083 62.602 66.692 66.71 68.468 18.712 9.289 39.756 14.634 62.042 14.916 79.495 1.04 144.773-62.563 145.798-142.059zM224.33 82.011c-42.025 24.666-70.495 70.073-71.174 122.353-.29 22.293 4.501 43.461 13.308 62.415 16.293 38.818 62.602 66.692 66.71 68.468 18.712 9.289 39.756 14.634 62.042 14.916 65.942.863 122.1-42.754 139.918-103.026"/><path fill="none" stroke="#939098" stroke-linecap="round" stroke-linejoin="round" stroke-width="8" d="M224.33 82.01c-42.025 24.667-70.495 70.074-71.174 122.354-.29 22.293 5.451 68.875 43.22 104.186"/><path fill="none" stroke="#6a6f76" stroke-linecap="round" stroke-linejoin="round" stroke-width="8" d="M295.525 327.644c-67.168-.872-120.92-56.04-120.055-123.215.88-67.176 56.048-120.929 123.216-120.056 67.184.872 120.936 56.04 120.055 123.216-.865 67.176-56.032 120.928-123.216 120.055"/><path fill="#fff" d="M314.976 165.44c-42.344-16.35-78.806-31.014-79.698-38.833-.988-8.664 36.818-36.673 92.152-20.19 60.403 17.994 77.28 73.577 71.3 82.391-6.041 8.903-51.989-11.103-83.754-23.368" opacity=".1"/><path fill="none" stroke="#98a5ba" stroke-linecap="round" stroke-linejoin="round" stroke-width="8" d="M417.31 224.794c-9.12 58.881-60.395 103.61-121.707 102.853-67.17-.83-120.956-55.964-120.133-123.14.265-21.257 5.966-41.172 15.764-58.44"/><path fill="none" stroke="#9a8e80" stroke-linecap="round" stroke-linejoin="round" stroke-width="8" d="M196.32 308.513c36.61 36.222 76.7 41.385 98.987 41.653 65.943.821 122.073-42.831 139.853-103.114"/></g><g style="display:block"><path fill="url(#e)" d="M97.76-203.411c-55.908-56.523-147.047-57.014-203.56-1.095-56.513 55.908-57.004 147.047-1.096 203.56 15.68 15.849 34.123 27.29 53.807 34.315C-5.5 48 38.355 35.566 42.503 33.884 62.251 27.071 80.826 15.829 96.665.149c56.523-55.908 57.014-147.047 1.095-203.56M80.995-15.689C33.235 31.56-43.797 31.145-91.057-16.615c-47.249-47.771-46.834-124.803.926-172.052 47.771-47.26 124.803-46.846 172.052.925 47.26 47.76 46.845 124.793-.926 172.053" transform="rotate(45.436 -222.059 412.272)"/><path fill="none" stroke="#6498bf" stroke-miterlimit="10" stroke-width="8" d="M441.014 208.104c1.04-79.495-62.563-144.773-142.06-145.798-79.487-1.033-144.765 62.57-145.798 142.058-.29 22.293 4.501 43.461 13.308 62.415 25.768 48.083 62.602 66.692 66.71 68.468 18.712 9.289 39.756 14.634 62.042 14.916 79.495 1.04 144.773-62.563 145.798-142.059zM224.33 82.011c-42.025 24.666-70.495 70.073-71.174 122.353-.29 22.293 4.501 43.461 13.308 62.415 16.293 38.818 62.602 66.692 66.71 68.468 18.712 9.289 39.756 14.634 62.042 14.916 65.942.863 122.1-42.754 139.918-103.026"/><path fill="none" stroke="#939098" stroke-linecap="round" stroke-linejoin="round" stroke-width="8" d="M224.33 82.01c-42.025 24.667-70.495 70.074-71.174 122.354-.29 22.293 5.451 68.875 43.22 104.186"/><path fill="none" stroke="#6a6f76" stroke-linecap="round" stroke-linejoin="round" stroke-width="8" d="M295.525 327.644c-67.168-.872-120.92-56.04-120.055-123.215.88-67.176 56.048-120.929 123.216-120.056 67.184.872 120.936 56.04 120.055 123.216-.865 67.176-56.032 120.928-123.216 120.055"/><path fill="none" stroke="#98a5ba" stroke-linecap="round" stroke-linejoin="round" stroke-width="8" d="M417.298 224.868c-9.158 58.876-60.46 103.573-121.772 102.777-67.169-.873-120.92-56.04-120.056-123.216.279-21.257 5.992-41.168 15.801-58.43"/><path fill="none" stroke="#fff" stroke-linecap="round" stroke-linejoin="round" stroke-width="8" d="M331.645 322.683c-11.436 3.381-23.568 5.125-36.12 4.962m66.619-18.817a122 122 0 0 1-5.784 3.445"/><path fill="none" stroke="#9a8e80" stroke-linecap="round" stroke-linejoin="round" stroke-width="8" d="M196.255 308.448c36.587 36.245 76.675 41.433 98.96 41.715 65.943.863 122.1-42.754 139.92-103.026"/></g><g opacity=".01" style="display:block"><path fill="url(#f)" d="M-4.5-245.657c-.5 0-.125.532.067.001-193.567 0-191.567 286.898 0 286.898-.192-.054.433-.742-.063-.378C-196 40.864-197-245.657-4.5-245.657" opacity="1" transform="rotate(45.436 -222.059 412.272)"/><path fill="none" stroke="#70757b" stroke-linecap="round" stroke-linejoin="round" stroke-width="8" d="M392.046 98.568a187 187 0 0 1 7.31 7.035q0 0 0 0c-.35-.356-.466.284.047.048-135.827-137.91-338.83 64.833-204.406 201.318-.096-.174.833-.212.225-.31-13.427-13.633-23.482-27.92-30.568-42.454" opacity="1"/></g><g style="display:block"><path fill="url(#g)" d="M-53.089 33.369c4.13 1.645 15.376 9.002 13.699 25.477l67.91.365c-1.614-16.089 9.835-23.645 13.983-25.327 19.748-6.813-115.276-7.54-95.592-.515" transform="rotate(45.436 -222.059 412.272)"/><path fill="none" stroke="#939098" stroke-linecap="round" stroke-linejoin="round" stroke-width="8" d="M166.464 266.779c1.726 4.097 4.376 17.272-8.538 27.637"/><path fill="none" stroke="#9a8e80" stroke-linecap="round" stroke-linejoin="round" stroke-width="8" d="M205.318 343.056c10.33-12.44 23.748-9.585 27.857-7.81"/></g><g style="display:block"><path fill="url(#h)" d="m1.306 40.58-.043 7.857c-.029 5.319-4.364 9.608-9.683 9.579l-19.753-.106c-4.658-.025-8.649-3.38-9.43-7.972-1.869-10.986-10.08-16.203-13.479-17.562a128 128 0 0 1-4.601-1.734l47.409.255c5.319.029 9.609 4.364 9.58 9.683" transform="rotate(45.436 -222.059 412.272)"/><path fill="none" stroke="#e2e9ec" stroke-linecap="round" stroke-linejoin="round" stroke-width="8" d="M168.266 276.193c5.067 7.118 6.503 15.199-4.758 23.953" opacity=".7"/><path fill="none" stroke="#4b4d4f" stroke-linecap="round" stroke-linejoin="round" stroke-width="8" d="M153.156 204.364c-.29 22.293 4.501 43.461 13.308 62.415 1.726 4.097 4.376 17.272-8.538 27.637m47.392 48.64c10.33-12.44 23.748-9.585 27.857-7.81 18.711 9.29 39.755 14.635 62.04 14.917"/><path fill="#fff" d="M311.222 66.698s-90.048-13.933-137.153 71.982c-32.708 59.657 3.892 141.48 38.532 159.922 0 0-59.867-61.682-33.339-136.602 30.399-93.821 131.96-95.302 131.96-95.302" opacity=".4"/><path fill="#4b4d4f" d="M163.093 143.572s-14.573 27.88-13.935 64.688l7.997-3.795s-3.567-33.361 5.938-60.893m203.878 193.184s-30.162 18.79-75.768 17.29l.104-7.99s40.905 2.67 75.664-9.3"/><path fill="url(#i)" d="M-26.688-220.424s120.262-28.357 157.323 68.76c28.693 75.19-13.099 150.507-68.104 176.868-8.792 4.213-34.666 7.583-34.211 39.286l-18.957-.102S2.834 20.832 28.611 10.377s56.682-22.319 74.768-66.535 10.702-94.303-10.805-118.658-50.314-49.529-119.262-45.608" opacity=".6" transform="rotate(45.436 -222.059 412.272)"/><path fill="none" stroke="#69899c" stroke-linecap="round" stroke-linejoin="round" stroke-width="8" d="M169.528 298.014c-3.372-3.556-6.03-5.88-9.034-7.104" opacity=".3"/><path fill="#4b4d4f" d="M401.77 281.021s-24.02 47.077-90.3 56.284c-74.402 10.335-152.869-57.9-138.108-143.851 0 0 6.53 105.374 96.75 131.41 72.456 20.91 131.659-43.843 131.659-43.843" opacity=".6"/><path fill="#98a5ba" d="M243.444 101.295s-29.694 13.542-48.809 46.885l-6.79-4.223c10.02-18.674 30.614-34.5 55.599-42.662"/><path fill="#6498bf" d="M226.867 85.146s-23.363 8.289-38.929 21.435c0 0 8.975-10.682 20.35-18.858s18.923-11.95 18.923-11.95l2.982 7.504s-2.233 1.207-3.326 1.869"/><path fill="#98a5ba" d="M401.974 152.674s18.076 31.475 11.15 72.284l8.008 1.247s6.523-34.942-19.158-73.531"/><path fill="#9a8e80" d="M436.79 196.882s7.804 33.356 1.553 53.549l-7.307-3.289s7.46-24.39 5.755-50.26"/></g><g style="display:block"><path fill="#fff" d="m228.907 157.474-2.569 3.597c-.426.596-1.2.83-1.886.572l-1.954-.739a1.62 1.62 0 0 1-.869-2.247 32 32 0 0 1 2.325-3.925 1.62 1.62 0 0 1 1.904-.587l2.31.88a1.616 1.616 0 0 1 .739 2.45m7.773 12.331-2.67-1.008a2.944 2.944 0 0 1-1.337-4.49l4.74-6.498a2.946 2.946 0 0 1 3.428-1.016l3.304 1.258c1.907.727 2.515 3.127 1.184 4.674l-5.376 6.246a2.945 2.945 0 0 1-3.273.834m79.752 34.961-28.887-14.32c-2.998-1.132-4.07-4.822-2.148-7.385l2.574-3.434a4.81 4.81 0 0 1 5.56-1.608l33.26 7.078c2.864 1.092 3.99 4.548 2.319 7.117l-6.946 10.676a4.81 4.81 0 0 1-5.732 1.876m69.98 26.445-51.496-19.457c-2.83-1.069-3.98-4.454-2.391-7.027l6.63-10.735a4.81 4.81 0 0 1 5.806-1.967l47.213 17.99a4.82 4.82 0 0 1 3.07 5.08 94.5 94.5 0 0 1-2.47 12.817c-.736 2.768-3.683 4.31-6.362 3.299" opacity=".2"/><path fill="#b6babe" d="M382 293.135c-48.118 46.885-125.132 45.883-172.017-2.235s-45.883-125.132 2.235-172.016c48.118-46.885 125.132-45.885 172.017 2.234s45.884 125.133-2.234 172.017" opacity=".5"/><path fill="#6a6f76" d="M385.16 289.937c46.356-48.62 44.512-125.621-4.117-171.977-48.63-46.356-125.633-44.513-171.989 4.117s-44.511 125.632 4.118 171.978c48.63 46.356 125.632 44.512 171.988-4.118m-159.848-8.597c-41.604-39.659-43.18-105.529-3.522-147.133s105.528-43.18 147.132-3.523c41.604 39.659 43.181 105.529 3.523 147.133s-105.529 43.181-147.133 3.523" opacity=".1"/></g><g style="display:block"><path fill="url(#m)" d="M25.682 40.53C61.06 5.152 81.317-14.237 82.223-24.815c.993-11.598-6.532-14.404-24.77-32.642-18.441-18.441-21.039-25.758-32.637-24.765-10.578.906-29.968 21.164-65.345 56.541-24.617 24.617-41.744 39.786-41.78 55.786-.035 16 11.158 27.069 18.147 34.058s18.058 18.182 34.058 18.147S1.065 65.147 25.682 40.53" transform="rotate(1 -21273.944 7479.38)scale(.99)"/><path fill="url(#n)" d="M-52.32 52.32c-8.234-8.234-8.234-21.584 0-29.818l76.038-76.037c6.613-6.613 17.335-6.613 23.948 0l5.869 5.869c6.613 6.613 6.613 17.335 0 23.948L-22.502 52.32c-8.234 8.234-21.584 8.234-29.818 0" transform="rotate(1 -20576.78 6646.66)scale(.99)"/><path fill="none" stroke="#0f1011" stroke-miterlimit="10" stroke-width="7.92" d="M152.014 412.983c35.63-34.408 56.016-53.25 57.096-63.705 1.183-11.463-6.217-14.37-23.955-32.738-17.935-18.573-20.38-25.86-31.877-25.078-10.487.714-30.03 20.432-65.659 54.838-24.792 23.942-42.008 38.661-42.32 54.498-.31 15.837 10.577 26.987 17.375 34.026 6.797 7.039 17.56 18.31 33.398 18.551 15.839.242 31.15-16.45 55.942-40.392z"/><path fill="none" stroke="#6f899b" stroke-linecap="round" stroke-linejoin="round" stroke-width="7.92" d="M169.572 299.543c-3.323-3.536-5.944-5.849-8.913-7.075" opacity=".3"/><path fill="none" stroke="#4b5963" stroke-linecap="round" stroke-linejoin="round" stroke-width="7.92" d="M108.192 450.446c12.1-5.768 25.321-19.596 43.822-37.462 35.63-34.408 56.016-53.25 57.096-63.705"/><path fill="#0e0f11" d="M92.422 441.437a6.293 6.293 0 0 1 .155-8.898l88.525-85.486a6.292 6.292 0 1 1 8.741 9.052l-88.524 85.487a6.29 6.29 0 0 1-8.897-.155"/><path fill="#4b5963" d="M106.48 446.87c-6.839 3.195-15.99 9.609-31.389 3.991 0 0 17.874 12.406 34.861 3.097zm93.644-121.159s10.588 8.907 12.373 16.04c1.37 5.478.603 8.55-.363 11.781l-6.984-4.323s3.629-12.146-5.026-23.498"/></g></g></g></svg>