<svg width="72" height="72" xmlns="http://www.w3.org/2000/svg"><g fill="none" fill-rule="evenodd"><path d="M0 26.88c0-9.409 0-14.113 1.831-17.707a16.8 16.8 0 0 1 7.342-7.342C12.767 0 17.471 0 26.88 0h18.24c9.409 0 14.113 0 17.707 1.831a16.8 16.8 0 0 1 7.342 7.342C72 12.767 72 17.471 72 26.88v18.24c0 9.409 0 14.113-1.831 17.707a16.8 16.8 0 0 1-7.342 7.342C59.233 72 54.529 72 45.12 72H26.88c-9.409 0-14.113 0-17.707-1.831a16.8 16.8 0 0 1-7.342-7.342C0 59.233 0 54.529 0 45.12V26.88Z" fill="#007AFF"/><path d="M55.269 47.672a27.202 27.202 0 0 1-2.717 4.883c-1.423 2.038-2.59 3.439-3.482 4.224-1.4 1.274-2.887 1.932-4.479 1.974-1.146 0-2.526-.318-4.14-.997a11.862 11.862 0 0 0-4.457-.977c-1.577.029-3.134.36-4.586.977-1.634.658-2.95.997-3.97 1.04-1.528.064-3.056-.616-4.585-2.038-.976-.85-2.186-2.314-3.65-4.373a30.497 30.497 0 0 1-3.864-7.663c-1.083-3.142-1.635-6.178-1.635-9.129 0-3.375.722-6.283 2.187-8.724a13.007 13.007 0 0 1 4.585-4.65 12.264 12.264 0 0 1 6.198-1.761c1.21 0 2.824.382 4.798 1.125 1.974.743 3.248 1.125 3.8 1.125.424 0 1.826-.446 4.224-1.316 2.265-.807 4.175-1.147 5.732-1.02 4.246.34 7.43 2.017 9.553 5.032-3.8 2.292-5.668 5.52-5.626 9.637.043 3.227 1.21 5.902 3.503 8.025a12.081 12.081 0 0 0 3.481 2.292 24.727 24.727 0 0 1-.87 2.314ZM45.546 9.42c0 2.526-.912 4.882-2.76 7.048-2.207 2.59-4.903 4.076-7.79 3.842a6.773 6.773 0 0 1-.064-.955c0-2.42 1.062-5.01 2.93-7.133a10.941 10.941 0 0 1 3.566-2.675A10.614 10.614 0 0 1 45.504 8.4c.021.34.042.68.042 1.019Z" fill="#FFF"/></g></svg>