<svg width="72" height="72" xmlns="http://www.w3.org/2000/svg"><g fill="none" fill-rule="evenodd"><path d="M0 26.88c0-9.409 0-14.113 1.831-17.707a16.8 16.8 0 0 1 7.342-7.342C12.767 0 17.471 0 26.88 0h18.24c9.409 0 14.113 0 17.707 1.831a16.8 16.8 0 0 1 7.342 7.342C72 12.767 72 17.471 72 26.88v18.24c0 9.409 0 14.113-1.831 17.707a16.8 16.8 0 0 1-7.342 7.342C59.233 72 54.529 72 45.12 72H26.88c-9.409 0-14.113 0-17.707-1.831a16.8 16.8 0 0 1-7.342-7.342C0 59.233 0 54.529 0 45.12V26.88Z" fill="#34C759"/><path d="M36.925 59.983C49.75 59.497 60 48.945 60 36c0-3.11-.591-6.081-1.668-8.808H45.277A12.748 12.748 0 0 1 48.792 36c0 2.41-.667 4.665-1.825 6.59L36.925 59.982Zm-4.461-.242C20.885 58.031 12 48.053 12 36c0-4.043 1-7.853 2.766-11.195L24.8 42.187A12.789 12.789 0 0 0 36 48.792c1.029 0 2.03-.121 2.988-.35l-6.524 11.3ZM17.209 21.07l6.522 11.297c1.566-5.295 6.466-9.158 12.269-9.158h20.31C52.06 16.473 44.552 12 36 12c-7.61 0-14.394 3.543-18.791 9.069Zm11.163 19.335h-.001A8.804 8.804 0 0 0 36 44.809a8.803 8.803 0 0 0 7.551-4.27l.077-.134h.001a8.808 8.808 0 1 0-15.34-.143l.083.143Z" fill="#FFF"/></g></svg>