<svg xmlns="http://www.w3.org/2000/svg" width="512" height="512" class="lottie-svg" style="width:100%;height:100%;transform:translate3d(0,0,0);content-visibility:visible"><defs><clipPath id="a"><path d="M0 0h512v512H0z"/></clipPath><clipPath id="b"><path d="M0 0h512v512H0z"/></clipPath><clipPath id="d"><path d="M0 0h512v512H0z"/></clipPath><clipPath id="c"><path d="M0 0h512v512H0z"/></clipPath><linearGradient id="e" x1="-12.358" x2="42.73" y1="-89.703" y2="53.2" gradientUnits="userSpaceOnUse" spreadMethod="pad"><stop offset="0%" stop-color="#04b4ff"/><stop offset="50%" stop-color="#04b4ff" stop-opacity=".5"/><stop offset="100%" stop-color="#04b4ff" stop-opacity="0"/></linearGradient></defs><g clip-path="url(#a)"><g clip-path="url(#b)" style="display:block"><g clip-path="url(#c)" style="display:block" transform="translate(12 9)"><path fill="none" d="M151.495 0c0 21.992-67.826 39.82-151.494 39.82S-151.494 21.992-151.494 0-83.667-39.82.001-39.82 151.495-21.992 151.495 0" style="display:block" transform="translate(257.634 434.728)scale(1.50226)"/></g><g clip-path="url(#d)" style="display:block" transform="translate(12 9)"><path fill="none" stroke="#03b4ff" stroke-linecap="round" stroke-linejoin="round" stroke-width="4.624" d="M151.495 0c0 21.992-67.826 39.82-151.494 39.82S-151.494 21.992-151.494 0-83.667-39.82.001-39.82 151.495-21.992 151.495 0" style="display:block" transform="translate(257.634 433.1)scale(1.04818)"/></g><g style="display:block"><path fill="#ffd427" d="M117.716 432.279c-13.257-15.849-17.219-33.83-14.319-53.891 13.932-96.393 72.459-141.52 169.437-138.204 104.154 3.561 165.495 43.003 161.949 146.722-1.123 32.832-10.294 54.455-58.35 69.554-50.77 15.952-215.03 28.052-258.717-24.181"/><path fill="none" stroke="#f98f16" stroke-miterlimit="10" stroke-width="10" d="M117.716 432.279c-13.257-15.849-17.219-33.83-14.319-53.891 13.932-96.393 72.459-141.52 169.437-138.204 104.154 3.561 165.495 43.003 161.949 146.722-1.123 32.832-10.294 54.455-58.35 69.554-50.77 15.952-215.03 28.052-258.717-24.181z"/></g><g fill="none" stroke-linecap="round" stroke-linejoin="round" stroke-width="10" style="display:block"><path stroke="#fbed20" d="M419.398 383.383c1.041 25.457-1.481 48.604-54.22 61.748"/><path stroke="#fff" d="M117.776 383.04c-2.455 11.7-.981 29.987 15.803 44.47"/></g><g style="display:block"><path fill="#ffd427" d="M117.393 358.087c-6.89-59.586-69.03-55.308-68.212-86.286.832-31.526 74.606-52.644 113.33 34.381"/><path fill="none" stroke="#f98f16" stroke-linecap="round" stroke-linejoin="round" stroke-width="10" d="M117.393 358.087c-6.89-59.586-69.03-55.308-68.212-86.286.832-31.526 74.606-52.644 113.33 34.381"/></g><path fill="none" stroke="#fff" stroke-linecap="round" stroke-linejoin="round" stroke-width="10" d="M14.778 19.114c-2.041-8.675 8.156-26.254 17.969-35.018" style="display:block" transform="rotate(103.573 -56.098 187.738)"/><g style="display:block"><path fill="#ffd427" d="M424.99 368.532c12.656-52.247 75.04-41.506 72.593-65.618-3.217-31.7-63-37.992-103.863-.204"/><path fill="none" stroke="#f98f16" stroke-linecap="round" stroke-linejoin="round" stroke-width="10" d="M424.99 368.532c12.656-52.247 75.04-41.506 72.593-65.618-3.217-31.7-63-37.992-103.863-.204"/></g><path fill="none" stroke="#fbed20" stroke-linecap="round" stroke-linejoin="round" stroke-width="10" d="M10.74 49.112c11.505-24.581 7.452-45.014-22.699-81.69" style="display:block" transform="rotate(-94.827 356.605 -42.298)"/><g style="display:block"><path fill="#ffd427" d="M145.275 309.914c-31.584-24.767-36.375-67.659-30.945-103.094C127.334 121.968 217.081 50.23 312 64.776s159.065 109.87 146.061 194.722c-5.486 35.8-23.828 64.015-50.329 83.583"/><path fill="none" stroke="#f98f16" stroke-linecap="round" stroke-miterlimit="10" stroke-width="10" d="M145.275 309.914c-31.584-24.767-36.375-67.659-30.945-103.094C127.334 121.968 217.081 50.23 312 64.776s159.065 109.87 146.061 194.722c-5.486 35.8-23.828 64.015-50.329 83.583"/></g><path fill="none" stroke="#fff" stroke-linecap="round" stroke-linejoin="round" stroke-width="10" d="M-67.227 44.237C-55.426 16.865-34.142-7.488-7.128-23.78c19.67-11.862 42.378-19.45 66.676-20.817" style="display:block" transform="rotate(8.713 -722.003 1600.183)"/><path fill="none" stroke="#fbed20" stroke-linecap="round" stroke-linejoin="round" stroke-width="10" d="M-23.323-85.462C5.361-59.474 23.323-23.446 23.323 12.88c0 25.893-9.127 48.26-24.756 66.104" style="display:block" transform="rotate(8.713 -1337.103 2801.65)"/><g style="display:block"><path fill="none" d="M197.827 221.64c-3.83 8.72-13.98 13.266-22.663 10.153-8.69-3.113-12.626-12.709-8.795-21.428s13.974-13.266 22.663-10.153c8.684 3.113 12.626 12.709 8.795 21.428"/><path d="M197.825 221.64c-3.83 8.72-13.977 13.265-22.663 10.151-8.687-3.113-12.624-12.706-8.794-21.426s13.977-13.266 22.664-10.153c8.686 3.114 12.623 12.707 8.793 21.427"/></g><path fill="#fff" d="M25.449 7.37C20.76 23.562 5.564 33.389-8.491 29.318S-30.138 8.822-25.449-7.37c4.69-16.192 19.885-26.019 33.94-21.949C22.546-25.248 30.138-8.822 25.449 7.37" style="display:block" transform="rotate(5.454 -2087.92 1997.124)scale(.13088 .1149)"/><g style="display:block"><path fill="none" d="M398.996 233.773c-.462 9.32-8.312 16.427-17.52 15.868-9.21-.554-16.294-8.564-15.826-17.885.468-9.32 8.312-16.428 17.521-15.874 9.209.56 16.293 8.57 15.825 17.89"/><path d="M398.999 233.773c-.468 9.322-8.312 16.428-17.52 15.871-9.21-.557-16.296-8.566-15.828-17.889s8.31-16.427 17.52-15.87c9.208.557 16.295 8.565 15.828 17.888"/></g><path fill="#fff" d="M26.237-1.04c.661 16.693-10.549 30.691-25.039 31.265S-25.575 17.732-26.236 1.039s10.548-30.69 25.038-31.264S25.576-17.733 26.237-1.04" style="display:block" transform="rotate(5.456 -2164.69 4069.364)scale(.11801 .1036)"/><g style="display:block"><path fill="#ff5c1e" d="M383.291 307.612c-10.013 8.565-60.14-12.306-108.194-11.593-51.17.759-76.066 7.63-86.677 8.73-21.941 2.273-17.457-26.264-.624-29.702 88.566-18.09 59.709-58.66 92.352-60.53 34.99-2.004 2.819 44.466 81.017 61.197 31.782 6.8 35.84 20.166 22.126 31.898"/><path fill="none" stroke="#cf3502" stroke-miterlimit="10" stroke-width="6.667" d="M101.22 37.491c-8.631 10.181-57.556-7.018-102.599-1.35-47.964 6.035-70.718 15.925-80.58 18.184-20.392 4.67-18.74-26.301-3.247-31.696 81.514-28.384 50.79-68.818 81.264-74.15C28.723-57.236 2.689-4.263 77.592 5.643c30.442 4.026 35.449 17.904 23.628 31.848z" transform="rotate(5.454 -2617.307 3067.876)scale(1.0605 .931)"/></g><path fill="none" stroke="#ffb484" stroke-linecap="round" stroke-linejoin="round" stroke-width="8" d="M-12.033 70.971C4.63 62.143 28.809 48.279 35.262 23.926" style="display:block" transform="matrix(1.03951 .2141 -.21768 .90974 234.996 215.021)"/><path fill="none" stroke="#7d0909" stroke-linecap="round" stroke-linejoin="round" stroke-width="8" d="M-85.747 29.073C-17.445 5.822 31.202 5.903 89.282 13.99" style="display:block" transform="rotate(5.454 -2725.475 3093.418)scale(1.0605 .931)"/><path fill="#010000" d="M0-26c-2.537 0-12.894 36.837-12.894 39.105C-12.894 20.216-7.11 26 0 26s12.894-5.784 12.894-12.895C12.894 10.837 2.537-26 0-26" style="display:block" transform="rotate(5.418 -2910.853 884.095)scale(1.36981 1.29135)"/><path fill="#010000" d="M0-9c-6.617 0-12 2.383-12 9s5.383 9 12 9 12-2.383 12-9S6.617-9 0-9" style="display:block" transform="rotate(5.418 -2566.294 900.4)scale(1.36981 1.29135)"/><path fill="#3e3e3e" d="M-.326-7.284C-4.659-6.16-17.701-2.311-17.761.611-17.834 4.157-3.854 7.829.413 9.182 7.711 11.495 8.67-9.617-.326-7.284" style="display:block" transform="matrix(-.1893 .9646 -.61492 -.11368 66.902 288.897)"/><g style="display:block"><path fill="url(#e)" d="M-4.869 38.24c-21.12-2.689-36.06-21.989-33.371-43.109s21.989-36.06 43.109-33.371S40.929-16.251 38.24 4.869 16.251 40.929-4.869 38.24" transform="rotate(-8.691 1226.939 -455.656)scale(1.33)"/><path fill="none" stroke="#010000" stroke-linecap="round" stroke-linejoin="round" stroke-width="15.96" d="M84.224 231.419c-28.307.71-51.828-21.663-52.537-49.97-.71-28.307 21.662-51.828 49.97-52.537 28.307-.71 51.828 21.662 52.537 49.97.71 28.307-21.663 51.828-49.97 52.537"/></g><path fill="none" stroke="#3e3e3e" stroke-linecap="round" stroke-linejoin="round" stroke-width="5" d="M16.381-35.954A39.4 39.4 0 0 0 0-39.5c-18.786 0-34.51 13.115-38.514 30.689" style="display:block" transform="rotate(-8.691 1226.939 -455.656)scale(1.33)"/><path fill="none" stroke="#fff" stroke-linecap="round" stroke-linejoin="round" stroke-width="8" d="M-22.392-8.427a24 24 0 0 1 10.363-12.252" style="display:block" transform="rotate(-8.691 1226.939 -455.656)scale(1.33)"/><g opacity=".5" style="display:block"><path fill="none" stroke="#fff" stroke-linecap="round" stroke-linejoin="round" stroke-width="6" d="M-22.559-7.972A23.98 23.98 0 0 1-6.821-22.933" opacity="1" transform="rotate(171.31 34.625 93.234)scale(1.33 1.35848)"/></g></g></g></svg>