<svg width="72" height="72" xmlns="http://www.w3.org/2000/svg"><g fill="none" fill-rule="evenodd"><path d="M0 26.88c0-9.409 0-14.113 1.831-17.707a16.8 16.8 0 0 1 7.342-7.342C12.767 0 17.471 0 26.88 0h18.24c9.409 0 14.113 0 17.707 1.831a16.8 16.8 0 0 1 7.342 7.342C72 12.767 72 17.471 72 26.88v18.24c0 9.409 0 14.113-1.831 17.707a16.8 16.8 0 0 1-7.342 7.342C59.233 72 54.529 72 45.12 72H26.88c-9.409 0-14.113 0-17.707-1.831a16.8 16.8 0 0 1-7.342-7.342C0 59.233 0 54.529 0 45.12V26.88Z" fill="#007AFF"/><path d="M40.56 39.91a1.704 1.704 0 0 1-.143.149c-.197.188-.476.454-.476.912 0 .489.32.96.885 1.355 2.652 1.844 7.613 1.635 7.788 1.628h.004a11.167 11.167 0 0 0 5.676-1.566 11.508 11.508 0 0 0 5.705-9.914c.046-3.984-1.344-6.702-2.022-8.028l-.02-.04-.084-.165C53.9 16.47 45.324 12 35.998 12a23.999 23.999 0 0 0-23.997 23.627c.008-.502.052-.997.13-1.484-.073.518-.11 1.035-.11 1.546a24.402 24.402 0 0 0 2.27 10.5 23.998 23.998 0 0 0 29.32 12.582 14.33 14.33 0 0 1-1.663.415 18.36 18.36 0 0 0 1.64-.423l.246-.082a24.062 24.062 0 0 0 12.486-9.9.75.75 0 0 0-.997-1.057c-.64.335-1.3.63-1.976.883a19.1 19.1 0 0 1-6.731 1.211c-8.872 0-16.6-6.102-16.6-13.934a5.902 5.902 0 0 1 3.08-5.12l.065-.03.004-.003c.593-.28 1.567-.74 2.845-.717a6.065 6.065 0 0 1 4.816 2.437 5.977 5.977 0 0 1 1.193 3.497c.003.082.003.16.003.229 0 1.006-.513 2.499-1.462 3.733Z" fill="#FFF"/></g></svg>