<svg xmlns="http://www.w3.org/2000/svg" width="16" height="16" viewBox="0 0 16 16"><title>website_icon</title><defs><linearGradient id="a" x1="50%" x2="50%" y1="0%" y2="100%"><stop offset="0%" stop-color="#38AEEB"/><stop offset="100%" stop-color="#279AD1"/></linearGradient></defs><g fill="none" fill-rule="evenodd"><circle cx="8" cy="8" r="8" fill="url(#a)" fill-rule="nonzero"/><path fill="#FFF" fill-rule="nonzero" d="M3.17 7.836a437.18 437.18 0 0 1 5.236-2.163c2.493-.994 2.84-1.139 3.177-1.144a.667.667 0 0 1 .397.147c.141.12.184.196.196.263.011.067.01.276-.002.395-.135 1.361-.648 4.504-.945 6.03-.126.645-.374.861-.614.882-.521.046-.917-.33-1.422-.648-.79-.497-1.054-.68-1.82-1.165-.887-.56-.522-.755-.017-1.258.132-.131 2.322-2.13 2.355-2.312.028-.16.038-.181-.034-.253-.073-.072-.16-.063-.216-.051-.08.017-1.286.78-3.62 2.29-.358.237-.682.352-.973.346-.32-.007-.937-.174-1.395-.317-.563-.176-1.01-.268-.97-.566.02-.155.242-.314.667-.476z"/><circle cx="13.5" cy="2.5" r="2.5" fill="#F72A0F"/></g></svg>