<svg width="72" height="72" xmlns="http://www.w3.org/2000/svg"><g fill="none" fill-rule="evenodd"><path d="M0 26.88c0-9.409 0-14.113 1.831-17.707a16.8 16.8 0 0 1 7.342-7.342C12.767 0 17.471 0 26.88 0h18.24c9.409 0 14.113 0 17.707 1.831a16.8 16.8 0 0 1 7.342 7.342C72 12.767 72 17.471 72 26.88v18.24c0 9.409 0 14.113-1.831 17.707a16.8 16.8 0 0 1-7.342 7.342C59.233 72 54.529 72 45.12 72H26.88c-9.409 0-14.113 0-17.707-1.831a16.8 16.8 0 0 1-7.342-7.342C0 59.233 0 54.529 0 45.12V26.88Z" fill="#FF9500"/><path d="M60.553 33.123a8.236 8.236 0 0 0-.143-.746s-.183.213-.487.615a17.498 17.498 0 0 0-.603-3.305 22.5 22.5 0 0 0-1.523-3.918c-.395-.833-.86-1.63-1.39-2.385a20.991 20.991 0 0 0-.584-.829c-.926-1.512-1.988-2.437-3.218-4.185a12.684 12.684 0 0 1-1.61-4.363 17.62 17.62 0 0 0-.774 2.855c-1.263-1.274-2.361-2.179-3.024-2.797-3.27-3.054-2.89-4.638-2.89-4.638s-6.11 6.82-3.463 13.923a13.648 13.648 0 0 0 4.55 6.065c2.56 2.113 5.318 3.775 6.772 8.022a13.612 13.612 0 0 0-5.109-5.39c.654 1.542.985 3.2.975 4.875a11.576 11.576 0 0 1-14.154 11.276 10.663 10.663 0 0 1-2.868-.975 11.67 11.67 0 0 1-3.436-3.176l-.016-.028.204.075c.478.166.967.296 1.463.392a9.143 9.143 0 0 0 5.822-.688c1.83-1.015 2.937-1.767 3.836-1.47h.016c.877.28 1.57-.572.942-1.462a4.777 4.777 0 0 0-4.627-1.807c-1.831.266-3.51 1.568-5.91.307a5.133 5.133 0 0 1-.45-.265c-.162-.093.515.141.358.036a11.92 11.92 0 0 1-1.508-.9c-.036-.03.362.113.325.084a5.819 5.819 0 0 1-1.573-1.59 2.829 2.829 0 0 1-.107-2.526c.223-.398.564-.718.975-.916.31.153.502.268.502.268l-.218-.396c.028-.01.052 0 .08-.018.271.117.872.422 1.189.609.216.12.402.286.544.488 0 0 .11-.054.028-.282a1.463 1.463 0 0 0-.562-.689h.026c.242.124.474.268.692.431.2-.46.294-.96.276-1.462a1.913 1.913 0 0 0-.112-.813c-.086-.162.049-.227.2-.057a1.587 1.587 0 0 0-.128-.386c0-.013.086-.125.125-.166.107-.107.225-.202.35-.286a16.21 16.21 0 0 1 2.381-1.214c.673-.294 1.23-.518 1.344-.583a3.74 3.74 0 0 0 .476-.366c.56-.476.938-1.13 1.072-1.852.015-.096.024-.192.028-.29v-.17c-.098-.365-.728-.64-4.023-.949a2.88 2.88 0 0 1-2.356-2.21v.015-.026a8.348 8.348 0 0 1 3.227-4.007c.084-.068-.338.018-.254-.052.28-.137.568-.258.861-.364.148-.061-.633-.36-1.324-.287a3.54 3.54 0 0 0-1.228.289c.162-.14.65-.325.534-.325a7.908 7.908 0 0 0-2.505.947.51.51 0 0 1 .049-.227 3.898 3.898 0 0 0-1.567 1.209 2.07 2.07 0 0 0 .016-.283c-.282.21-.54.453-.768.721a10.376 10.376 0 0 0-5.73-.476l-.015-.014a5.156 5.156 0 0 1-.997-1.138l-.026.007-.03-.036a9.084 9.084 0 0 1-.385-.629 8.924 8.924 0 0 1-.286-.549c0-.013-.015-.018-.022-.02-.039 0-.066.181-.099.134v-.01a7 7 0 0 1-.46-2.741l-.026.013c-.538.37-.945.9-1.16 1.518a6.618 6.618 0 0 1-.227.466v-.057c.015-.112.063-.343.052-.325l-.031.047a2.815 2.815 0 0 0-.408.605c-.099.199-.18.407-.244.62-.01.034 0-.029 0-.104 0-.074.015-.208 0-.18l-.035.07a15.435 15.435 0 0 0-1.3 4.931 4.91 4.91 0 0 0-.05.874v.026a10.775 10.775 0 0 0-1.328 1.788 25.356 25.356 0 0 0-2.806 6.873c.42-.922.924-1.803 1.503-2.634A24.37 24.37 0 0 0 10.47 38.5c.191-.895.435-1.78.731-2.646a22.435 22.435 0 0 0 2.028 10.503 24.433 24.433 0 0 0 9.67 10.964 21.148 21.148 0 0 0 5.634 2.7c.263.096.53.19.803.281-.086-.034-.163-.071-.249-.108A25.52 25.52 0 0 0 36.4 61.27c8.764 0 11.658-3.337 11.925-3.67a4.435 4.435 0 0 0 1.035-1.391c.169-.07.34-.144.512-.223l.108-.048.197-.093a18.41 18.41 0 0 0 3.7-2.317 8.936 8.936 0 0 0 3.45-5.037c.31-.74.327-1.57.046-2.32.09-.142.183-.294.278-.455a20.648 20.648 0 0 0 3.099-10.043v-.298a12.579 12.579 0 0 0-.197-2.252Z" fill="#FFF"/></g></svg>