<svg width="42" height="42" viewBox="0 0 42 42" fill="none" xmlns="http://www.w3.org/2000/svg">
<g clip-path="url(#clip0_3714_1812)">
<circle cx="21" cy="21" r="21" fill="url(#paint0_linear_3714_1812)"/>
<path d="M19.8104 14.6019H18.0718C17.186 14.6019 16.4983 14.3775 16.0088 13.9287C15.5193 13.4798 15.2745 12.9528 15.2745 12.3477C15.2745 11.7556 15.4718 11.2919 15.8663 10.9566C16.2608 10.6213 16.7716 10.4536 17.3987 10.4536C18.0637 10.4536 18.6319 10.687 19.1033 11.1536C19.5747 11.6203 19.8104 12.2464 19.8104 13.032V14.6019H21.976V13.032C21.976 12.2464 22.0625 11.6203 22.5343 11.1536C23.0061 10.687 23.5777 10.4536 24.2491 10.4536C24.8691 10.4536 25.3761 10.6213 25.7702 10.9566C26.1642 11.2919 26.3613 11.7556 26.3613 12.3477C26.3613 12.9528 26.1167 13.4798 25.6275 13.9287C25.1384 14.3775 24.4509 14.6019 23.5651 14.6019H21.976H27.3553C27.6828 14.2976 27.9407 13.9414 28.1289 13.5332C28.3172 13.1251 28.4113 12.6776 28.4113 12.1909C28.4113 11.4767 28.2318 10.8412 27.8729 10.2845C27.5139 9.7278 27.0326 9.29235 26.4289 8.97814C25.8252 8.66394 25.1494 8.50684 24.4017 8.50684C23.578 8.50684 22.8469 8.71684 22.2084 9.13684C21.5698 9.55685 21.1083 10.1509 20.824 10.9191C20.5397 10.1509 20.0764 9.55685 19.4341 9.13684C18.7918 8.71684 18.0589 8.50684 17.2354 8.50684C16.4948 8.50684 15.8208 8.66394 15.2136 8.97814C14.6063 9.29235 14.1231 9.7278 13.7641 10.2845C13.4051 10.8412 13.2256 11.4767 13.2256 12.1909C13.2256 12.6776 13.3197 13.1251 13.508 13.5332C13.6962 13.9414 13.9542 14.2976 14.2817 14.6019H19.8104Z" fill="white"/>
<path fill-rule="evenodd" clip-rule="evenodd" d="M19.8065 14.5815V17.6802C19.8065 17.7095 19.8136 17.7383 19.8272 17.7642C19.8736 17.8526 19.9829 17.8867 20.0713 17.8403L20.5552 17.5864C20.7656 17.476 21.0168 17.476 21.2272 17.5864L21.7111 17.8403C21.737 17.8539 21.7659 17.861 21.7951 17.861C21.895 17.861 21.9759 17.7801 21.9759 17.6802V14.5815H30.2919C31.0906 14.5815 31.7382 15.2291 31.7382 16.0278V18.9203C31.7382 19.7191 31.0906 20.3666 30.2919 20.3666H29.5688L29.5689 20.3847C29.5105 20.3728 29.45 20.3666 29.388 20.3666L25.853 20.366C26.5258 20.5657 26.9995 21.1976 26.9801 21.9201L26.9762 21.9965C26.9717 22.0565 26.9639 22.116 26.9527 22.1745L29.388 22.1744C29.45 22.1744 29.5105 22.1682 29.5689 22.1563L29.5688 28.6826C29.5688 30.2801 28.2737 31.5751 26.6762 31.5751H21.9759V28.6307C21.9759 28.4026 21.8684 28.1892 21.6881 28.0533L21.6371 28.0182L21.0834 27.6707C20.9659 27.597 20.8165 27.597 20.699 27.6707L20.1453 28.0182C19.9345 28.1505 19.8065 28.3819 19.8065 28.6307V31.5751H15.1062C13.5087 31.5751 12.2136 30.2801 12.2136 28.6826V22.1744L14.8451 22.1744C14.7669 21.7644 14.8508 21.3259 15.1087 20.9637L15.1625 20.8923C15.3642 20.64 15.6366 20.4579 15.9408 20.3664L12.0329 20.3666H11.4905C10.6918 20.3666 10.0442 19.7191 10.0442 18.9203V16.0278C10.0442 15.2291 10.6918 14.5815 11.4905 14.5815H19.8065ZM20.4385 18.8781L19.4063 21.2551C19.3332 21.4233 19.1731 21.5371 18.9903 21.5507L16.3586 21.7472C16.2218 21.7574 16.0954 21.8241 16.0098 21.9312C15.8396 22.1441 15.8742 22.4547 16.0871 22.6249L16.9531 23.3172C17.3653 23.6467 17.8959 23.7903 18.4181 23.7135L20.7655 23.3685C20.8642 23.3539 20.961 23.4052 21.0044 23.4951C21.0592 23.6087 21.0115 23.7452 20.898 23.8L18.8773 24.7754C18.4277 24.9924 18.0952 25.3947 17.9668 25.877L17.6241 27.1635C17.5903 27.2906 17.6086 27.4259 17.6749 27.5395C17.8125 27.7749 18.1148 27.8541 18.3501 27.7166L20.6422 26.3771C20.796 26.2872 20.9864 26.2872 21.1402 26.3771L23.4512 27.7277C23.5629 27.7929 23.6957 27.8117 23.821 27.7801C24.0853 27.7134 24.2455 27.4451 24.1788 27.1808L23.563 24.7403C23.516 24.5542 23.5812 24.3577 23.7301 24.2366L25.7138 22.6234C25.8191 22.5378 25.8844 22.4126 25.8945 22.2773C25.9148 22.0054 25.7109 21.7686 25.4391 21.7483L22.7921 21.5507C22.6093 21.5371 22.4492 21.4233 22.3762 21.2551L21.3439 18.8781C21.2941 18.7634 21.2025 18.6718 21.0878 18.622C20.8378 18.5134 20.5471 18.6281 20.4385 18.8781Z" fill="white"/>
</g>
<defs>
<linearGradient id="paint0_linear_3714_1812" x1="21" y1="0" x2="21" y2="42" gradientUnits="userSpaceOnUse">
<stop stop-color="#5CAFFA"/>
<stop offset="1" stop-color="#408ACF"/>
</linearGradient>
<clipPath id="clip0_3714_1812">
<rect width="42" height="42" fill="white"/>
</clipPath>
</defs>
</svg>
