<svg width="42" height="42" viewBox="0 0 42 42" fill="none" xmlns="http://www.w3.org/2000/svg">
<g clip-path="url(#clip0_3714_1830)">
<circle cx="21" cy="21" r="21" fill="url(#paint0_linear_3714_1830)"/>
<path fill-rule="evenodd" clip-rule="evenodd" d="M17.5858 18.3749C19.6155 18.3749 21.2608 16.7295 21.2608 14.6999C21.2608 12.6703 19.6155 11.0249 17.5858 11.0249C15.5562 11.0249 13.9108 12.6703 13.9108 14.6999C13.9108 16.7295 15.5562 18.3749 17.5858 18.3749ZM25.9877 18.3749C27.7274 18.3749 29.1377 16.9646 29.1377 15.2249C29.1377 13.4852 27.7274 12.0749 25.9877 12.0749C24.248 12.0749 22.8377 13.4852 22.8377 15.2249C22.8377 16.9646 24.248 18.3749 25.9877 18.3749ZM22.3466 22.0789C23.8955 22.9225 24.8683 24.1514 25.4793 25.3623C25.8218 26.0412 25.8486 26.709 25.648 27.2999C25.2367 28.5114 23.87 29.3999 22.3108 29.3999H12.8608C10.5412 29.3999 8.6475 27.4332 9.69238 25.3623C10.7785 23.2096 13.0083 20.9999 17.5858 20.9999C19.4037 20.9999 20.8512 21.3484 22.004 21.9034C22.0078 21.9052 22.0116 21.9071 22.0154 21.9089C22.1286 21.9636 22.239 22.0203 22.3466 22.0789ZM23.6023 21.2025C25.116 22.1853 26.0961 23.4846 26.7261 24.7332C27.1679 25.6088 27.2607 26.4923 27.0924 27.2999H29.6615C31.4012 27.2999 32.8196 25.8279 32.0503 24.2676C31.2301 22.6041 29.5262 20.8763 25.9865 20.8763C25.0693 20.8763 24.2753 20.9924 23.588 21.1933L23.6023 21.2025Z" fill="white"/>
</g>
<defs>
<linearGradient id="paint0_linear_3714_1830" x1="21" y1="0" x2="21" y2="42" gradientUnits="userSpaceOnUse">
<stop stop-color="#FF8AAC"/>
<stop offset="1" stop-color="#D95574"/>
</linearGradient>
<clipPath id="clip0_3714_1830">
<rect width="42" height="42" fill="white"/>
</clipPath>
</defs>
</svg>
