<svg width="87.5" height="56.115" viewBox="0 0 87.499 56.115" xml:space="preserve" xmlns="http://www.w3.org/2000/svg"><path d="M78.46 56.114H9.041C4.048 56.114 0 52.678 0 48.439V7.675C0 3.436 4.05 0 9.042 0h69.417c4.994 0 9.042 3.436 9.042 7.675v40.764c0 4.24-4.048 7.675-9.042 7.675z" fill="#fff"/><path d="M61.802 6.681c12.762 0 23.111 10.347 23.111 23.111s-10.349 23.11-23.11 23.11c-7.418 0-14.02-3.493-18.246-8.925a23 23 0 0 0 4.866-14.185 23 23 0 0 0-4.866-14.185c4.225-5.432 10.828-8.926 18.245-8.926z" fill="#f79f1a"/><path d="M43.557 15.607a23 23 0 0 1 4.866 14.185 23 23 0 0 1-4.866 14.185 23 23 0 0 1-4.865-14.185 23 23 0 0 1 4.865-14.185z" fill="#ff5f01"/><path d="M25.312 6.681c7.417 0 14.02 3.494 18.245 8.926a23 23 0 0 0-4.865 14.185 23 23 0 0 0 4.865 14.185c-4.225 5.432-10.828 8.926-18.245 8.926-12.765 0-23.11-10.347-23.11-23.11S12.546 6.68 25.311 6.68z" fill="#ea001b"/><path d="M43.48 30.318h.155v-.896h.37v-.155h-.895v.155h.37zm36.31-1.898c-1.593-2.117-5.81-.99-5.81 2.7 0 3.77 4.372 4.78 5.81 2.701v.894h1.535V24.67H79.79zm-2.06 4.973c-1.32 0-2.176-1.01-2.176-2.272 0-1.263.856-2.273 2.176-2.273 1.283 0 2.176 1.01 2.176 2.273 0 1.321-.893 2.272-2.176 2.272zM21.585 28.42c-.525-.641-1.263-1.05-2.273-1.05-2.001 0-3.536 1.594-3.536 3.75 0 2.176 1.535 3.75 3.536 3.75 1.01 0 1.748-.37 2.273-1.05v.895h1.535v-7.15h-1.535zm-2.06 4.973c-1.379 0-2.175-1.01-2.175-2.272 0-1.263.796-2.273 2.176-2.273 1.262 0 2.098 1.01 2.117 2.273 0 1.321-.854 2.272-2.117 2.272z"/><path d="M42.411 27.352c-2.058 0-3.535 1.535-3.535 3.75 0 3.983 4.39 4.643 6.566 2.759l-.738-1.166c-1.515 1.244-3.808 1.127-4.254-.952h5.342c0-3.147-1.438-4.39-3.38-4.39zm-1.903 3.128c.155-1.01.796-1.69 1.845-1.69 1.01 0 1.69.583 1.865 1.69zm24.846-2.06c-1.613-2.137-5.81-.933-5.81 2.7 0 3.73 4.353 4.8 5.81 2.701v.894h1.593v-7.15h-1.593zm-2.06 4.973c-1.32 0-2.117-1.01-2.117-2.272 0-1.263.797-2.273 2.118-2.273s2.175 1.01 2.175 2.273c0 1.321-.855 2.272-2.175 2.272zM11.54 27.372c-.893 0-1.845.272-2.487 1.262-.466-.796-1.262-1.262-2.37-1.262-.738 0-1.476.272-2.059 1.049v-.855H3.031v7.13h1.593c0-3.672-.486-5.867 1.748-5.867 1.982 0 1.594 1.981 1.594 5.867H9.5c0-3.555-.486-5.867 1.749-5.867 1.981 0 1.593 1.943 1.593 5.867h1.593v-4.468h-.04c0-1.691-1.106-2.798-2.855-2.856zm14.998 2.213c0-1.107 2.312-.932 3.594-.213l.641-1.263c-1.826-1.185-5.867-1.166-5.867 1.593 0 2.778 4.449 1.613 4.449 2.914 0 1.224-2.623 1.127-4.021.156l-.68 1.224c2.175 1.476 6.332 1.166 6.332-1.457 0-2.914-4.448-1.594-4.448-2.954zm8.529 2.642v-3.225h2.545v-1.437h-2.545v-2.176h-1.593v2.176h-1.477v1.418h1.477v3.244c0 3.42 3.36 2.798 4.39 2.118l-.427-1.321c-.738.408-2.37.855-2.37-.797zm13.91-3.807v-.855h-1.593v7.13h1.593v-4.021c0-2.254 1.846-1.962 2.487-1.632l.466-1.477c-.894-.388-2.253-.35-2.953.855zm9.035 1.068.738-1.263c-2.253-1.768-6.352-.796-6.352 2.915 0 3.846 4.351 4.623 6.352 2.913l-.738-1.262c-1.787 1.262-4.022.505-4.022-1.67 0-2.216 2.254-2.935 4.022-1.633zm12.531-1.068v-.855h-1.535v7.13h1.535v-4.021c0-2.138 1.749-2.001 2.487-1.632l.466-1.477c-.466-.233-2.137-.563-2.953.855zm13.482 5.4c-.058-.057-.097-.155-.156-.213s-.155-.097-.213-.156c-.097 0-.214-.058-.311-.058-.058 0-.156.058-.272.058a1.004 1.004 0 0 0-.214.156c-.097.058-.155.156-.155.214-.058.097-.058.214-.058.31 0 .059 0 .156.058.272 0 .058.058.156.155.214a.674.674 0 0 0 .214.156.527.527 0 0 0 .272.058c.097 0 .214 0 .31-.058.059-.059.156-.097.214-.156s.097-.156.156-.214c.058-.116.058-.213.058-.271 0-.097 0-.214-.058-.311z"/><path d="M42.973 29.267v1.05h.156v-.797l.311.68h.214l.273-.68v.798h.214v-1.051h-.272l-.312.68-.311-.68z"/></svg>