<?xml version="1.0" encoding="UTF-8"?>
<svg width="23.151mm" height="14.847mm" version="1.1" viewBox="0 0 87.499 56.115" xml:space="preserve" xmlns="http://www.w3.org/2000/svg" xmlns:cc="http://creativecommons.org/ns#" xmlns:dc="http://purl.org/dc/elements/1.1/" xmlns:rdf="http://www.w3.org/1999/02/22-rdf-syntax-ns#"><metadata><rdf:RDF><cc:Work rdf:about=""><dc:format>image/svg+xml</dc:format><dc:type rdf:resource="http://purl.org/dc/dcmitype/StillImage"/><dc:title/></cc:Work></rdf:RDF></metadata><g id="_x32_06-mastercard_x2C__Credit_card" transform="matrix(.24327 0 0 .24327 -18.72 -32.485)"><path d="m399.47 364.2h-285.35c-20.527 0-37.167-14.124-37.167-31.547v-167.57c0-17.423 16.641-31.547 37.167-31.547h285.35c20.528 0 37.167 14.124 37.167 31.547v167.57c0 17.424-16.64 31.547-37.167 31.547z" fill="#fff" stroke-width=".73639"/><path d="m331 161c52.46 0 95 42.53 95 95s-42.54 95-95 95c-30.49 0-57.631-14.36-75-36.69 12.54-16.1 20-36.329 20-58.31 0-21.98-7.46-42.21-20-58.31 17.369-22.33 44.51-36.69 75-36.69z" fill="#f79f1a"/><path d="m256 197.69c12.54 16.1 20 36.33 20 58.31s-7.46 42.21-20 58.31c-12.54-16.1-20-36.329-20-58.31 0-21.98 7.46-42.21 20-58.31z" fill="#ff5f01"/><path d="m181 161c30.49 0 57.63 14.36 75 36.69-12.54 16.1-20 36.33-20 58.31s7.46 42.21 20 58.31c-17.37 22.33-44.51 36.69-75 36.69-52.47 0-95-42.53-95-95s42.53-95 95-95z" fill="#ea001b"/><polygon points="255.68 258.16 256.32 258.16 256.32 254.48 257.84 254.48 257.84 253.84 254.16 253.84 254.16 254.48 255.68 254.48"/><path d="m404.94 250.36c-6.549-8.704-23.879-4.073-23.879 11.101 0 15.494 17.969 19.646 23.879 11.101v3.674h6.309v-41.287h-6.309zm-8.466 20.444c-5.43 0-8.944-4.152-8.944-9.343 0-5.192 3.515-9.343 8.944-9.343 5.272 0 8.945 4.15 8.945 9.343 0 5.432-3.673 9.343-8.945 9.343z"/><path d="m165.68 250.36c-2.156-2.636-5.19-4.313-9.344-4.313-8.226 0-14.534 6.549-14.534 15.413 0 8.945 6.309 15.414 14.534 15.414 4.154 0 7.188-1.518 9.344-4.313v3.674h6.31v-29.39h-6.31zm-8.465 20.444c-5.671 0-8.944-4.152-8.944-9.343 0-5.192 3.273-9.343 8.944-9.343 5.19 0 8.625 4.15 8.704 9.343 0 5.432-3.513 9.343-8.704 9.343z"/><path d="m251.29 245.97c-8.463 0-14.534 6.311-14.534 15.414 0 16.372 18.049 19.088 26.993 11.341l-3.034-4.792c-6.229 5.112-15.654 4.632-17.489-3.913h21.961c0-12.938-5.91-18.05-13.897-18.05zm-7.825 12.859c0.639-4.153 3.273-6.947 7.586-6.947 4.151 0 6.949 2.395 7.667 6.947z"/><path d="m345.6 250.36c-6.629-8.785-23.88-3.834-23.88 11.101 0 15.333 17.891 19.725 23.88 11.101v3.674h6.549v-29.39h-6.549zm-8.466 20.444c-5.43 0-8.704-4.152-8.704-9.343 0-5.192 3.274-9.343 8.704-9.343s8.944 4.15 8.944 9.343c0 5.432-3.515 9.343-8.944 9.343z"/><path d="m124.39 246.05c-3.674 0-7.586 1.118-10.223 5.189-1.917-3.272-5.19-5.189-9.743-5.189-3.035 0-6.069 1.118-8.464 4.313v-3.515h-6.55v29.31h6.549c0-15.094-1.997-24.117 7.187-24.117 8.146 0 6.549 8.145 6.549 24.117h6.309c0-14.613-1.997-24.117 7.187-24.117 8.146 0 6.549 7.985 6.549 24.117h6.548v-18.368h-0.16c0-6.951-4.55-11.501-11.738-11.74z"/><path d="m186.04 255.15c0-4.553 9.503-3.833 14.773-0.878l2.636-5.191c-7.507-4.871-24.118-4.791-24.118 6.55 0 11.419 18.288 6.628 18.288 11.979 0 5.031-10.781 4.631-16.53 0.639l-2.796 5.032c8.944 6.067 26.033 4.792 26.033-5.991 1e-3 -11.978-18.286-6.55-18.286-12.14z"/><path d="m221.1 266.01v-13.256h10.461v-5.91h-10.461v-8.942h-6.549v8.942h-6.07v5.829h6.07v13.337c0 14.058 13.815 11.5 18.047 8.706l-1.757-5.431c-3.033 1.676-9.741 3.513-9.741-3.275z"/><path d="m278.28 250.36v-3.515h-6.551v29.31h6.551v-16.531c0-9.264 7.587-8.066 10.222-6.708l1.915-6.07c-3.672-1.596-9.262-1.438-12.137 3.514z"/><path d="m315.42 254.75 3.033-5.191c-9.262-7.267-26.111-3.274-26.111 11.98 0 15.812 17.887 19.006 26.111 11.978l-3.033-5.19c-7.348 5.19-16.532 2.077-16.532-6.868 0-9.105 9.264-12.062 16.532-6.709z"/><path d="m366.93 250.36v-3.515h-6.309v29.31h6.309v-16.531c0-8.787 7.188-8.226 10.223-6.708l1.917-6.07c-1.918-0.958-8.786-2.316-12.14 3.514z"/><path d="m422.35 272.56c-0.24-0.239-0.4-0.64-0.64-0.879s-0.64-0.397-0.878-0.639c-0.399 0-0.879-0.24-1.279-0.24-0.238 0-0.639 0.24-1.116 0.24-0.401 0.241-0.641 0.399-0.879 0.639-0.399 0.239-0.639 0.64-0.639 0.879-0.24 0.399-0.24 0.88-0.24 1.278 0 0.239 0 0.639 0.24 1.116 0 0.24 0.239 0.641 0.639 0.88 0.238 0.239 0.4 0.399 0.879 0.639 0.398 0.239 0.878 0.239 1.116 0.239 0.4 0 0.88 0 1.279-0.239 0.238-0.239 0.639-0.399 0.878-0.639s0.399-0.64 0.64-0.88c0.239-0.478 0.239-0.877 0.239-1.116 0-0.399 0-0.879-0.239-1.278z"/><polygon points="253.6 253.84 253.6 258.16 254.24 258.16 254.24 254.88 255.52 257.68 256.4 257.68 257.52 254.88 257.52 258.16 258.4 258.16 258.4 253.84 257.28 253.84 256 256.64 254.72 253.84"/></g></svg>
