<svg width="72" height="72" xmlns="http://www.w3.org/2000/svg"><g fill="none" fill-rule="evenodd"><path d="M0 26.88c0-9.409 0-14.113 1.831-17.707a16.8 16.8 0 0 1 7.342-7.342C12.767 0 17.471 0 26.88 0h18.24c9.409 0 14.113 0 17.707 1.831a16.8 16.8 0 0 1 7.342 7.342C72 12.767 72 17.471 72 26.88v18.24c0 9.409 0 14.113-1.831 17.707a16.8 16.8 0 0 1-7.342 7.342C59.233 72 54.529 72 45.12 72H26.88c-9.409 0-14.113 0-17.707-1.831a16.8 16.8 0 0 1-7.342-7.342C0 59.233 0 54.529 0 45.12V26.88Z" fill="#FF3B30"/><path d="M36 60c13.255 0 24-10.745 24-24S49.255 12 36 12 12 22.745 12 36s10.745 24 24 24Zm0-4.8c6.627 0 12-8.596 12-19.2s-5.373-19.2-12-19.2S24 25.396 24 36s5.373 19.2 12 19.2Z" fill="#FFF"/></g></svg>