<svg width="18" height="18" viewBox="0 0 18 18" fill="none" xmlns="http://www.w3.org/2000/svg">
<path fill-rule="evenodd" clip-rule="evenodd" d="M12.1616 5.43494C12.231 5.54102 12.278 5.67901 12.3224 5.86691C12.3554 6.00646 12.3869 6.17353 12.425 6.37549L12.429 6.39663L12.4316 6.41026L12.4403 6.4563C12.4653 6.5438 12.5091 6.60005 12.5968 6.60005C12.6907 6.60005 12.7408 6.5438 12.7533 6.4563L12.7591 6.42463L12.7646 6.39497L12.7707 6.36172C12.807 6.16485 12.8378 6.00131 12.8704 5.86422C12.9146 5.67892 12.9623 5.54194 13.0316 5.43626C13.0893 5.34842 13.1619 5.28222 13.26 5.22787C13.3366 5.18545 13.4287 5.15025 13.5413 5.11763C13.155 4.71129 12.7038 4.35734 12.2024 4.06908C12.1915 4.09247 12.18 4.11458 12.1678 4.13553C12.1098 4.23543 12.0362 4.30904 11.9323 4.36902C11.8312 4.42742 11.7014 4.47289 11.5294 4.51712C11.3945 4.55182 11.2336 4.58575 11.0403 4.62456L11.0082 4.631L10.9439 4.6438C10.8563 4.66255 10.7999 4.7063 10.7999 4.80005C10.7999 4.8938 10.8563 4.93755 10.9439 4.96255L11.0098 4.97535L11.015 4.97637C11.2184 5.016 11.3872 5.05014 11.5285 5.08512C11.7024 5.12819 11.8345 5.17254 11.9376 5.22996C12.034 5.28364 12.1052 5.34876 12.1616 5.43494ZM13.7435 5.89001C13.8298 5.86376 13.9413 5.83801 14.0988 5.80608C14.6701 6.64115 15 7.62683 15 8.68257C15 9.68709 14.7013 10.6282 14.1802 11.4365C14.1392 11.4253 14.1014 11.4142 14.0662 11.4031C13.9766 11.3746 13.9258 11.3518 13.8973 11.3363C13.884 11.329 13.8767 11.324 13.8735 11.3216L13.8707 11.3193L13.8703 11.319L13.8702 11.3189L13.8701 11.3187L13.8696 11.3182L13.8669 11.3146C13.8643 11.3108 13.859 11.3026 13.8517 11.2881C13.836 11.2572 13.8142 11.2044 13.787 11.1132C13.7346 10.938 13.6868 10.7103 13.6131 10.3594L13.5891 10.2453C13.5594 10.0741 13.4815 9.85851 13.2958 9.67877C13.0865 9.47616 12.8262 9.40205 12.5957 9.40205C12.3451 9.40205 12.0924 9.49163 11.8963 9.68737C11.726 9.85736 11.6539 10.0531 11.6198 10.1721L11.612 10.1995L11.6062 10.2272L11.5617 10.4397C11.4972 10.7483 11.454 10.955 11.4063 11.1194C11.3632 11.2682 11.3337 11.3148 11.3271 11.3237C11.3168 11.3317 11.2715 11.3611 11.1393 11.4031C10.9492 11.4635 10.6778 11.5213 10.2364 11.609L10.2307 11.6102L10.225 11.6114C10.0901 11.6402 9.87378 11.7085 9.6883 11.8936C9.48036 12.1012 9.4019 12.3631 9.4019 12.6001C9.4019 12.84 9.48186 13.0951 9.67968 13.2988C9.85281 13.477 10.0544 13.5503 10.173 13.5841L10.2062 13.5936L10.24 13.6001C10.6531 13.6802 10.9196 13.7344 11.1114 13.7898C10.4546 14.0143 9.7431 14.1371 8.99999 14.1371C8.49195 14.1371 7.99865 14.0797 7.52752 13.9717C7.4384 13.9512 7.33721 14.0447 7.16829 14.2007C6.964 14.3894 6.66065 14.6696 6.15978 14.9505C5.51985 15.3094 4.63322 15.2783 4.48317 15.2153C4.33931 15.155 4.45004 15.035 4.64505 14.8238C4.77995 14.6777 4.9552 14.4878 5.11438 14.2438C5.50365 13.6471 5.3428 12.9367 5.16816 12.8088C4.10577 12.031 3.38415 11.006 3.11607 9.78016C3.17961 9.79243 3.24256 9.79805 3.30331 9.79805C3.48739 9.79805 3.7032 9.74602 3.89373 9.5965C4.08669 9.44506 4.192 9.24207 4.23611 9.05006L4.24044 9.03119L4.24386 9.01214C4.28598 8.77705 4.31173 8.637 4.33626 8.5391C4.43268 8.514 4.57189 8.48703 4.8045 8.4437L4.82161 8.44051L4.83858 8.43658C4.99437 8.40046 5.18669 8.31908 5.346 8.14802C5.51575 7.96575 5.59794 7.73421 5.59794 7.50344C5.59794 7.28553 5.52623 7.05255 5.35453 6.86223C5.19246 6.68259 4.99467 6.59971 4.83858 6.56352L4.8266 6.56075L4.81455 6.55834C4.58023 6.51158 4.44161 6.48259 4.3468 6.45628C4.32197 6.36575 4.29642 6.24384 4.25462 6.04437L4.23934 5.97154L4.2378 5.96416L4.23611 5.95682C4.20967 5.84174 4.15839 5.70679 4.06422 5.58036C5.14723 4.15899 6.95402 3.22803 8.99999 3.22803C9.87708 3.22803 10.7102 3.39912 11.4612 3.70659L11.444 3.71219C11.3142 3.75346 11.1223 3.79475 10.7884 3.8611L10.7827 3.86224L10.777 3.86346C10.6567 3.88918 10.4524 3.95221 10.2753 4.12904C10.0757 4.32828 10.0019 4.57877 10.0019 4.80005C10.0019 5.02437 10.0772 5.26805 10.2666 5.4631C10.4314 5.63275 10.621 5.70029 10.725 5.72995L10.7582 5.73941L10.792 5.74597C11.1272 5.81094 11.3215 5.85104 11.4551 5.89203C11.4765 5.89861 11.4937 5.90444 11.5071 5.90938C11.5115 5.92231 11.5166 5.93856 11.5223 5.95867C11.5579 6.08437 11.5899 6.254 11.6445 6.54291L11.6445 6.54295L11.6445 6.54296L11.6561 6.60458L11.663 6.64062L11.6731 6.67588C11.7029 6.78031 11.7693 6.96409 11.9313 7.12575C12.119 7.31316 12.3608 7.39805 12.5968 7.39805C12.8116 7.39805 13.0599 7.32863 13.2606 7.13435C13.4418 6.95895 13.5139 6.74959 13.54 6.5905C13.5985 6.27258 13.6324 6.09072 13.6698 5.96035C13.6758 5.93921 13.6812 5.9224 13.6858 5.90928C13.7002 5.90391 13.7191 5.89741 13.7435 5.89001ZM13.6692 12.1084C13.2045 12.6312 12.6357 13.0744 11.9915 13.4119C11.8517 13.2196 11.6466 13.1102 11.2994 13.0137C11.1833 12.9814 11.0513 12.9505 10.9006 12.9185C10.776 12.892 10.6386 12.8647 10.4868 12.8351L10.4797 12.8338L10.3919 12.8167C10.275 12.7834 10.1999 12.7251 10.1999 12.6001C10.1999 12.4751 10.275 12.4167 10.3919 12.3917L10.4776 12.3746L10.5204 12.3661C10.6603 12.338 10.7875 12.3118 10.9033 12.2864C11.0519 12.2537 11.1818 12.2222 11.2959 12.1893C11.8588 12.0272 12.0377 11.8318 12.1851 11.298C12.217 11.1825 12.2474 11.0511 12.28 10.9008C12.3005 10.8057 12.322 10.703 12.3451 10.5919L12.3451 10.5918L12.3677 10.4837L12.3741 10.4533L12.387 10.3917C12.4204 10.2751 12.4789 10.2001 12.5957 10.2001C12.7209 10.2001 12.7877 10.2751 12.8044 10.3917L12.8238 10.4837L12.8311 10.5188L12.8333 10.5291L12.8333 10.5293C12.862 10.6662 12.8882 10.7908 12.9133 10.9046C12.9458 11.0522 12.9766 11.1815 13.0089 11.2955C13.1368 11.7463 13.2887 11.9564 13.6692 12.1084ZM3.01709 8.26765C3.07037 7.62367 3.24665 7.0109 3.52463 6.44868C3.5484 6.55681 3.57053 6.64857 3.59446 6.72713C3.63533 6.8613 3.68145 6.95698 3.7499 7.02997C3.75454 7.03492 3.75929 7.03977 3.76414 7.04451C3.83709 7.11586 3.93445 7.16475 4.07434 7.20794C4.20273 7.24758 4.36695 7.28243 4.581 7.32543L4.59679 7.3286L4.65837 7.34091C4.74601 7.36122 4.79994 7.4154 4.79994 7.50344C4.79994 7.5847 4.74601 7.63888 4.65837 7.65919L4.59239 7.6715L4.58125 7.67359C4.3662 7.71387 4.20006 7.74662 4.06959 7.78498C3.92997 7.82604 3.8312 7.87353 3.75704 7.94356L3.75238 7.94802C3.6751 8.02305 3.62494 8.12365 3.58274 8.26882C3.54323 8.40477 3.51071 8.57981 3.46945 8.80956L3.46788 8.81835L3.45904 8.86764L3.45837 8.87138C3.43814 8.95942 3.37747 9.00005 3.30331 9.00005C3.22241 9.00005 3.16174 8.95265 3.14826 8.87138L3.13719 8.81383L3.13392 8.79685C3.09095 8.57364 3.05749 8.40345 3.01811 8.27105L3.01709 8.26765ZM11.3257 11.3253L11.3269 11.3239C11.3261 11.3249 11.3257 11.3254 11.3257 11.3253ZM11.3273 11.3235C11.3286 11.3221 11.3295 11.3215 11.3296 11.3215C11.3297 11.3215 11.329 11.3222 11.3273 11.3235Z" fill="white"/>
<path d="M3.30342 9C3.37758 9 3.43825 8.95937 3.45848 8.87133C3.6405 7.85553 3.6405 7.84876 4.65848 7.65914C4.74612 7.63883 4.80005 7.58465 4.80005 7.50339C4.80005 7.41535 4.74612 7.36117 4.65848 7.34086C3.6405 7.1377 3.66746 7.13093 3.45848 6.13544C3.43825 6.0474 3.38432 6 3.30342 6C3.22252 6 3.16185 6.05418 3.14836 6.13544C2.93263 7.13093 2.96634 7.1377 1.94162 7.34086C1.85398 7.36117 1.80005 7.42212 1.80005 7.50339C1.80005 7.57788 1.85398 7.63883 1.94162 7.65914C2.96634 7.8623 2.95286 7.85553 3.14836 8.87133C3.16185 8.9526 3.22252 9 3.30342 9Z" fill="white"/>
<path d="M12.5969 6.6C12.6908 6.6 12.7409 6.54375 12.7534 6.45625C12.9788 5.23125 12.9726 5.20625 14.256 4.9625C14.35 4.9375 14.4 4.89375 14.4 4.8C14.4 4.70625 14.35 4.6625 14.256 4.64375C12.9788 4.3875 13.0101 4.3625 12.7534 3.14375C12.7409 3.05625 12.6908 3 12.5969 3C12.5093 3 12.4654 3.05625 12.4404 3.14375C12.1837 4.3625 12.2338 4.3875 10.944 4.64375C10.8564 4.6625 10.8 4.70625 10.8 4.8C10.8 4.89375 10.8564 4.9375 10.944 4.9625C12.2338 5.2125 12.2087 5.23125 12.4404 6.45625C12.4654 6.54375 12.5093 6.6 12.5969 6.6Z" fill="white"/>
<path d="M12.5958 15C12.721 15 12.7878 14.925 12.8045 14.8083C13.105 13.175 13.0966 13.1416 14.808 12.8166C14.9332 12.7833 15 12.725 15 12.6C15 12.475 14.9332 12.4166 14.808 12.3916C13.105 12.05 13.1467 12.0166 12.8045 10.3916C12.7878 10.275 12.721 10.2 12.5958 10.2C12.4789 10.2 12.4205 10.275 12.3871 10.3916C12.0448 12.0166 12.1116 12.05 10.392 12.3916C10.2751 12.4166 10.2 12.475 10.2 12.6C10.2 12.725 10.2751 12.7833 10.392 12.8166C12.1116 13.15 12.0782 13.175 12.3871 14.8083C12.4205 14.925 12.4789 15 12.5958 15Z" fill="white"/>
</svg>
