<svg xmlns="http://www.w3.org/2000/svg" viewBox="0 0 32 32"><path d="M11.711 13.73h.765a4.36 4.36 0 0 1 4.358-4.357V8.7a4.37 4.37 0 0 1-4.37-4.37h-.753A4.37 4.37 0 0 1 7.342 8.7v.663a4.38 4.38 0 0 1 4.369 4.369M10.803 16.123a3.01 3.01 0 0 1-3.01-3.01h-.52a3.01 3.01 0 0 1-3.01 3.01v.457a3.02 3.02 0 0 1 3.01 3.01h.528a3.003 3.003 0 0 1 3.002-3.002zM17.991 13.61c-.025-.059-.072-.099-.105-.15-.047-.076-.087-.154-.151-.218-.068-.068-.15-.111-.23-.16-.05-.03-.085-.073-.139-.097l-.018-.003c-.093-.039-.193-.048-.293-.063-.056-.007-.11-.03-.166-.03-.055 0-.11.023-.165.03-.1.015-.2.024-.293.063-.006.002-.012 0-.018.003-.054.024-.09.067-.138.096-.08.05-.163.093-.231.161-.064.064-.104.141-.151.217-.033.052-.08.092-.105.15L10.77 25.194a1.2 1.2 0 0 0 2.203.954l1.46-3.37h4.911l1.46 3.37a1.202 1.202 0 0 0 2.203-.954zm-2.518 6.767 1.416-3.27 1.416 3.27zM25.737 18.359a1.2 1.2 0 0 0-1.2 1.2v6.111a1.2 1.2 0 0 0 2.4 0v-6.11a1.2 1.2 0 0 0-1.2-1.201M25.737 14.493a1.2 1.2 0 0 0-1.2 1.2v.365a1.2 1.2 0 0 0 2.4 0v-.365a1.2 1.2 0 0 0-1.2-1.2" fill="white"/></svg>