<svg width="32" height="32" viewBox="0 0 32 32" fill="none" xmlns="http://www.w3.org/2000/svg">
<path fill-rule="evenodd" clip-rule="evenodd" d="M13.152 6.40001C13.6611 6.40001 13.9986 6.40049 14.259 6.41826C14.5114 6.43548 14.6261 6.46595 14.6963 6.49501C15.0021 6.62168 15.245 6.86463 15.3717 7.17043C15.4008 7.24059 15.4312 7.35525 15.4484 7.60768C15.4662 7.86806 15.4667 8.20556 15.4667 8.71468V11.168V11.2033C15.4667 11.7706 15.4667 12.2492 15.4987 12.6413C15.5322 13.0518 15.6052 13.4447 15.7957 13.8185C16.0851 14.3865 16.5469 14.8483 17.1149 15.1377C17.4887 15.3281 17.8816 15.4011 18.2921 15.4347C18.6841 15.4667 19.1627 15.4667 19.73 15.4667H19.7654H22.2187C22.7278 15.4667 23.0653 15.4672 23.3257 15.4849C23.5781 15.5021 23.6928 15.5326 23.7629 15.5617C24.0687 15.6883 24.3117 15.9313 24.4384 16.2371C24.4674 16.3073 24.4979 16.4219 24.5151 16.6743C24.5319 16.92 24.5332 17.2343 24.5333 17.6966V20.48C24.5333 22.2722 24.5333 23.1682 24.1846 23.8528C23.8778 24.4549 23.3882 24.9444 22.7861 25.2512C22.1016 25.6 21.2055 25.6 19.4133 25.6H12.5867C10.7945 25.6 9.89842 25.6 9.21391 25.2512C8.61179 24.9444 8.12225 24.4549 7.81545 23.8528C7.46667 23.1682 7.46667 22.2722 7.46667 20.48V11.52C7.46667 9.72783 7.46667 8.83174 7.81545 8.14722C8.12225 7.54511 8.61179 7.05557 9.21391 6.74877C9.89842 6.39999 10.7945 6.39999 12.5867 6.39999H13.152V6.40001ZM24.1292 13.8214C24.0622 13.6787 23.9872 13.5395 23.9046 13.4046C23.6408 12.9741 23.2718 12.6051 22.5339 11.8672L22.5339 11.8672L22.5339 11.8672L19.0662 8.39948L19.0662 8.39947L19.0662 8.39947C18.3282 7.66155 17.9593 7.29259 17.5287 7.02873C17.3938 6.94609 17.2547 6.87114 17.1119 6.80414C17.1705 7.02692 17.1991 7.25409 17.215 7.48715C17.2374 7.81501 17.2374 8.21331 17.2374 8.68534V8.68538V8.71468V11.168C17.2374 11.78 17.238 12.1858 17.2635 12.4971C17.2881 12.7981 17.3313 12.932 17.3734 13.0146C17.493 13.2494 17.6839 13.4403 17.9188 13.56C18.0013 13.6021 18.1353 13.6453 18.4363 13.6699C18.7476 13.6953 19.1534 13.696 19.7654 13.696H22.2187H22.248H22.248C22.7201 13.696 23.1184 13.696 23.4462 13.7184C23.6793 13.7343 23.9064 13.7628 24.1292 13.8214Z" fill="white"/>
</svg>
