<svg width="32" height="32" viewBox="0 0 32 32" fill="none" xmlns="http://www.w3.org/2000/svg">
<path fill-rule="evenodd" clip-rule="evenodd" d="M16 6C13.7909 6 12 7.79086 12 10V15C12 17.2091 13.7909 19 16 19C18.2091 19 20 17.2091 20 15V10C20 7.79086 18.2091 6 16 6ZM8.5 14C9.05228 14 9.5 14.4477 9.5 15C9.5 18.5899 12.4101 21.5 16 21.5C19.5899 21.5 22.5 18.5899 22.5 15C22.5 14.4477 22.9477 14 23.5 14C24.0523 14 24.5 14.4477 24.5 15C24.5 19.3561 21.2232 22.9469 17 23.4418V25.5C17 26.0523 16.5523 26.5 16 26.5C15.4477 26.5 15 26.0523 15 25.5V23.4418C10.7768 22.9469 7.5 19.3561 7.5 15C7.5 14.4477 7.94772 14 8.5 14Z" fill="white"/>
</svg>
