<svg width="32" height="32" viewBox="0 0 32 32" fill="none" xmlns="http://www.w3.org/2000/svg">
<path d="M6 23.1373V13.4C6 11.1598 6 10.0397 6.43597 9.18404C6.81947 8.43139 7.43139 7.81947 8.18404 7.43597C9.03969 7 10.1598 7 12.4 7H19.6C21.8402 7 22.9603 7 23.816 7.43597C24.5686 7.81947 25.1805 8.43139 25.564 9.18404C26 10.0397 26 11.1598 26 13.4V15.6C26 17.8402 26 18.9603 25.564 19.816C25.1805 20.5686 24.5686 21.1805 23.816 21.564C22.9603 22 21.8402 22 19.6 22H12.3255C11.8363 22 11.5917 22 11.3615 22.0553C11.1575 22.1043 10.9624 22.1851 10.7834 22.2947C10.5816 22.4184 10.4086 22.5914 10.0627 22.9373L8.73137 24.2686C7.87462 25.1254 7.44624 25.5538 7.07846 25.5827C6.75934 25.6078 6.44749 25.4786 6.23959 25.2352C6 24.9547 6 24.3489 6 23.1373Z" fill="white"/>
</svg>
