<svg width="32" height="32" viewBox="0 0 32 32" fill="none" xmlns="http://www.w3.org/2000/svg">
<path d="M0 16C0 10.3995 0 7.59921 1.08993 5.46009C2.04867 3.57847 3.57847 2.04867 5.46009 1.08993C7.59921 0 10.3995 0 16 0C21.6005 0 24.4008 0 26.5399 1.08993C28.4215 2.04867 29.9513 3.57847 30.9101 5.46009C32 7.59921 32 10.3995 32 16C32 21.6005 32 24.4008 30.9101 26.5399C29.9513 28.4215 28.4215 29.9513 26.5399 30.9101C24.4008 32 21.6005 32 16 32C10.3995 32 7.59921 32 5.46009 30.9101C3.57847 29.9513 2.04867 28.4215 1.08993 26.5399C0 24.4008 0 21.6005 0 16Z" fill="#C14998"/>
<path fill-rule="evenodd" clip-rule="evenodd" d="M16 6C13.7909 6 12 7.79086 12 10V15C12 17.2091 13.7909 19 16 19C18.2091 19 20 17.2091 20 15V10C20 7.79086 18.2091 6 16 6ZM8.5 14C9.05228 14 9.5 14.4477 9.5 15C9.5 18.5899 12.4101 21.5 16 21.5C19.5899 21.5 22.5 18.5899 22.5 15C22.5 14.4477 22.9477 14 23.5 14C24.0523 14 24.5 14.4477 24.5 15C24.5 19.3561 21.2232 22.9469 17 23.4418V25.5C17 26.0523 16.5523 26.5 16 26.5C15.4477 26.5 15 26.0523 15 25.5V23.4418C10.7768 22.9469 7.5 19.3561 7.5 15C7.5 14.4477 7.94772 14 8.5 14Z" fill="white"/>
</svg>
