<svg width="72" height="72" xmlns="http://www.w3.org/2000/svg"><g fill="none" fill-rule="evenodd"><path d="M0 26.88c0-9.409 0-14.113 1.831-17.707a16.8 16.8 0 0 1 7.342-7.342C12.767 0 17.471 0 26.88 0h18.24c9.409 0 14.113 0 17.707 1.831a16.8 16.8 0 0 1 7.342 7.342C72 12.767 72 17.471 72 26.88v18.24c0 9.409 0 14.113-1.831 17.707a16.8 16.8 0 0 1-7.342 7.342C59.233 72 54.529 72 45.12 72H26.88c-9.409 0-14.113 0-17.707-1.831a16.8 16.8 0 0 1-7.342-7.342C0 59.233 0 54.529 0 45.12V26.88Z" fill="#5856D6"/><path d="M59.44 43.248c-.958.543-2.172 1.006-3.624 1.361A21.528 21.528 0 0 0 57.6 36c0-1.079-.08-2.14-.232-3.176 1.737 1.433 2.992 2.842 3.756 4.142.86 1.463 1.02 2.642.77 3.573-.249.93-.977 1.87-2.453 2.709Zm-3.968-16.61a39.112 39.112 0 0 1 3.61 2.459c2.36 1.818 4.27 3.795 5.477 5.85 1.213 2.065 1.792 4.352 1.184 6.623-.609 2.27-2.254 3.961-4.336 5.143-2.074 1.176-4.715 1.933-7.668 2.328-5.915.792-13.488.184-21.36-1.926-7.873-2.109-14.735-5.369-19.462-9.012-2.36-1.818-4.269-3.795-5.476-5.85-1.213-2.065-1.792-4.352-1.184-6.622.609-2.271 2.254-3.962 4.336-5.143 2.074-1.177 4.715-1.934 7.668-2.33 1.867-.249 3.899-.36 6.053-.327A21.485 21.485 0 0 1 36 14.4a21.548 21.548 0 0 1 15.493 6.55 21.65 21.65 0 0 1 3.979 5.689Zm-35.936-4.62c-.253.027-.501.057-.747.09-2.643.353-4.745 1.002-6.23 1.845-1.476.837-2.204 1.779-2.454 2.709-.249.93-.089 2.11.771 3.573.74 1.259 1.94 2.62 3.594 4.007a21.506 21.506 0 0 1 5.066-12.225Zm30.351 30.527c-5.547.168-11.893-.617-18.346-2.346-5.826-1.561-11.191-3.745-15.652-6.303C19.042 51.92 26.857 57.6 36 57.6c5.288 0 10.132-1.9 13.887-5.055Z" fill="#FFF"/></g></svg>