<svg width="30" height="30" xmlns="http://www.w3.org/2000/svg"><g fill="none" fill-rule="evenodd"><path d="M0 11.2c0-3.92 0-5.88.763-7.378A7 7 0 0 1 3.823.763C5.318 0 7.28 0 11.2 0h7.6c3.92 0 5.88 0 7.378.763a7 7 0 0 1 3.059 3.06C30 5.318 30 7.28 30 11.2v7.6c0 3.92 0 5.88-.763 7.378a7 7 0 0 1-3.06 3.059C24.682 30 22.72 30 18.8 30h-7.6c-3.92 0-5.88 0-7.378-.763a7 7 0 0 1-3.059-3.06C0 24.682 0 22.72 0 18.8v-7.6Z" fill="#FF9500"/><path d="M4.5 22A1.5 1.5 0 0 1 3 20.5a.5.5 0 0 1 .5-.5H5v-8.146c.001-.398.006-.75.03-1.049.033-.395.104-.789.297-1.167a3 3 0 0 1 1.311-1.311c.378-.193.772-.264 1.167-.296C8.18 8 8.635 8 9.161 8h11.82c.527 0 .982 0 1.357.03.395.033.788.104 1.166.297a3 3 0 0 1 1.312 1.311c.192.378.264.772.296 1.167.024.3.03.65.03 1.049V20h1.5a.5.5 0 0 1 .5.5 1.5 1.5 0 0 1-1.5 1.5Zm18.643-2-.001-8.196a11.338 11.338 0 0 0-.023-.836c-.023-.272-.06-.373-.085-.422a1 1 0 0 0-.437-.437c-.05-.025-.15-.063-.422-.085a11.338 11.338 0 0 0-.837-.024h-.395L15 10.024 9.2 10h-.396c-.361.002-.624.007-.836.024-.272.022-.373.06-.422.085a1 1 0 0 0-.437.437c-.025.05-.063.15-.085.422-.017.212-.022.475-.024.836V20h16.143Z" fill="#FFF"/></g></svg>