<svg width="108.54" height="84.42" xml:space="preserve" xmlns="http://www.w3.org/2000/svg"><path d="M108.541 9.044v66.33c0 4.995-4.051 9.046-9.045 9.046H9.046C4.052 84.42 0 80.37 0 75.375V9.045C0 4.05 4.052-.002 9.046-.002h90.45c4.994 0 9.045 4.052 9.045 9.045z" fill="#0353a5"/><path d="M93.39 27.135h-5.86c-1.809 0-3.185.528-3.957 2.431l-11.25 26.852h7.952s1.3-3.617 1.583-4.39h9.723c.226 1.036.904 4.39.904 4.39h7.01zm-9.346 18.9c.622-1.676 3.015-8.196 3.015-8.196-.038.056.622-1.715.998-2.808l.528 2.525s1.432 7.01 1.753 8.48h-6.294zm-51.406-18.9L25.232 47.11l-.81-4.052-2.639-13.454c-.433-1.866-1.771-2.393-3.43-2.469H6.164l-.133.585c2.977.753 5.634 1.846 7.952 3.222l6.746 25.439h8.009l11.909-29.245h-8.008zm11.062 0-4.731 29.283h7.557l4.748-29.283zm22.838 11.739c-2.657-1.338-4.277-2.242-4.277-3.618.037-1.243 1.375-2.525 4.353-2.525 2.468-.057 4.277.528 5.634 1.112l.678.32 1.037-6.331c-1.49-.585-3.863-1.244-6.784-1.244-7.481 0-12.739 3.995-12.776 9.686-.057 4.202 3.768 6.539 6.633 7.952 2.92 1.431 3.92 2.374 3.92 3.636-.038 1.96-2.375 2.865-4.542 2.865-3.015 0-4.636-.471-7.104-1.564l-1-.471-1.054 6.576c1.77.81 5.05 1.527 8.442 1.565 7.952.018 13.134-3.92 13.19-9.988.039-3.335-1.997-5.88-6.35-7.97z" fill="#fff"/></svg>