<?xml version="1.0" encoding="UTF-8"?>
<svg width="108.54" height="84.42" version="1.1" viewBox="0 0 108.54 84.42" xml:space="preserve" xmlns="http://www.w3.org/2000/svg" xmlns:cc="http://creativecommons.org/ns#" xmlns:dc="http://purl.org/dc/elements/1.1/" xmlns:rdf="http://www.w3.org/1999/02/22-rdf-syntax-ns#"><metadata><rdf:RDF><cc:Work rdf:about=""><dc:format>image/svg+xml</dc:format><dc:type rdf:resource="http://purl.org/dc/dcmitype/StillImage"/><dc:title/></cc:Work></rdf:RDF></metadata><g id="_x33_63-visa_x2C__Credit_card" transform="matrix(.23596 0 0 .23596 -6.1352 -18.195)"><path d="m486 115.44v281.11c0 21.165-17.17 38.335-38.333 38.335h-383.33c-21.163 0-38.333-17.17-38.333-38.335v-281.11c0-21.164 17.17-38.334 38.333-38.334h383.33c21.163 0 38.333 17.171 38.333 38.334z" fill="#0353a5"/><g fill="#fff"><path d="m421.79 192.11h-24.837c-7.666 0-13.498 2.237-16.771 10.302l-47.678 113.8h33.702s5.511-15.332 6.708-18.606h41.209c0.956 4.392 3.832 18.606 3.832 18.606h29.709zm-39.612 80.1c2.637-7.106 12.778-34.738 12.778-34.738-0.16 0.239 2.636-7.268 4.233-11.9l2.235 10.702s6.07 29.708 7.428 35.937h-26.674z"/><path d="m164.32 192.11-31.385 84.653-3.435-17.171-11.181-57.021c-1.837-7.906-7.507-10.142-14.535-10.461h-51.668l-0.56 2.476c12.618 3.195 23.879 7.827 33.701 13.656l28.591 107.81h33.94l50.471-123.94h-33.939z"/><polygon points="211.2 192.11 191.15 316.21 223.18 316.21 243.3 192.11"/><path d="m307.99 241.86c-11.26-5.67-18.128-9.504-18.128-15.333 0.159-5.271 5.829-10.702 18.448-10.702 10.461-0.24 18.128 2.237 23.877 4.711l2.876 1.358 4.392-26.833c-6.31-2.477-16.371-5.272-28.75-5.272-31.704 0-53.985 16.932-54.145 41.049-0.24 17.809 15.971 27.713 28.11 33.701 12.379 6.068 16.611 10.063 16.611 15.413-0.159 8.307-10.063 12.14-19.247 12.14-12.777 0-19.646-1.998-30.105-6.627l-4.234-1.999-4.472 27.871c7.505 3.435 21.402 6.47 35.777 6.631 33.701 0.078 55.663-16.614 55.902-42.328 0.162-14.134-8.463-24.916-26.912-33.78z"/></g></g></svg>
