<svg width="72" height="72" xmlns="http://www.w3.org/2000/svg"><g fill="none" fill-rule="evenodd"><path d="M0 26.88c0-9.409 0-14.113 1.831-17.707a16.8 16.8 0 0 1 7.342-7.342C12.767 0 17.471 0 26.88 0h18.24c9.409 0 14.113 0 17.707 1.831a16.8 16.8 0 0 1 7.342 7.342C72 12.767 72 17.471 72 26.88v18.24c0 9.409 0 14.113-1.831 17.707a16.8 16.8 0 0 1-7.342 7.342C59.233 72 54.529 72 45.12 72H26.88c-9.409 0-14.113 0-17.707-1.831a16.8 16.8 0 0 1-7.342-7.342C0 59.233 0 54.529 0 45.12V26.88Z" fill="#34C759"/><path d="M36 12c-4.848 0-8.857 1.315-12.508 3.527-.06 0-.061.06-.061.12 0 .059.06.06.12.06 4.669-1.016 11.73 2.988 12.389 3.406h.12c.659-.418 7.72-4.422 12.389-3.406.06 0 .119-.001.119-.06 0-.06 0-.12-.06-.12C44.858 13.315 40.848 12 36 12Zm16.051 6.738c-1.186.07-3.947.988-9.468 6.413l-.06.06s0 .06.06.06c4.848 5.738 14.185 19.427 12.39 25.105v.12c.06 0 .119 0 .119-.06A24.006 24.006 0 0 0 60 35.91a23.828 23.828 0 0 0-7.122-17.036c-.06-.06-.06-.06-.12-.06-.09-.03-.311-.1-.707-.076Zm-32.128.025c-.404-.016-.636.066-.741.111-.06 0-.06.06-.12.06a24.022 24.022 0 0 0-2.154 31.561c0 .06.06.06.12.06s.06-.06 0-.119c-1.856-5.679 7.54-19.367 12.388-25.106l.06-.06c0-.059 0-.06-.06-.06-5.521-5.47-8.281-6.4-9.493-6.447Zm16.076 12.485s-.06 0-.06.06c-7.181 5.44-19.51 18.948-15.739 22.774C24.39 57.788 29.955 60 36 60a23.905 23.905 0 0 0 15.8-5.918c3.71-3.826-8.558-17.335-15.74-22.774 0-.06-.06-.06-.06-.06Z" fill="#FFF"/></g></svg>