<svg width="72" height="72" xmlns="http://www.w3.org/2000/svg"><g fill="none" fill-rule="evenodd"><path d="M0 26.88c0-9.409 0-14.113 1.831-17.707a16.8 16.8 0 0 1 7.342-7.342C12.767 0 17.471 0 26.88 0h18.24c9.409 0 14.113 0 17.707 1.831a16.8 16.8 0 0 1 7.342 7.342C72 12.767 72 17.471 72 26.88v18.24c0 9.409 0 14.113-1.831 17.707a16.8 16.8 0 0 1-7.342 7.342C59.233 72 54.529 72 45.12 72H26.88c-9.409 0-14.113 0-17.707-1.831a16.8 16.8 0 0 1-7.342-7.342C0 59.233 0 54.529 0 45.12V26.88Z" fill="#34C759"/><path d="M20.941 17.033a1.992 1.992 0 1 0-3.482 1.935l4.45 8.01c-5.316 3.503-9.348 9.034-11.197 15.932-.804 3-1.206 4.501-.288 6.186.205.376.597.887.907 1.182 1.39 1.322 3.277 1.322 7.053 1.322h35.232c3.776 0 5.663 0 7.053-1.322.31-.295.702-.806.907-1.182.918-1.685.516-3.185-.288-6.186-1.849-6.898-5.881-12.43-11.197-15.931l4.45-8.011a1.992 1.992 0 1 0-3.482-1.935L46.6 25.057C43.356 23.59 39.771 22.8 36 22.8c-3.77 0-7.357.79-10.601 2.257l-4.458-8.024ZM28.8 38.4a3.6 3.6 0 1 1-7.2 0 3.6 3.6 0 0 1 7.2 0Zm21.6 0a3.6 3.6 0 1 1-7.2 0 3.6 3.6 0 0 1 7.2 0Z" fill="#FFF"/></g></svg>