<svg width="88" height="84" viewBox="0 0 88 84" fill="none" xmlns="http://www.w3.org/2000/svg">
<path d="M40.908 69.9386L21.33 81.9306C20.7381 82.293 20.0517 82.4706 19.3584 82.4409C18.665 82.4112 17.9963 82.1755 17.4376 81.7638C16.8789 81.3522 16.4556 80.7833 16.2218 80.1299C15.988 79.4765 15.9543 78.7683 16.125 78.0956L19.155 66.1666C19.6658 64.1578 20.6111 62.2854 21.9243 60.6817C23.2374 59.0779 24.8864 57.7817 26.755 56.8846L48.113 46.6296C48.7285 46.3329 49.2161 45.8238 49.4859 45.196C49.7558 44.5683 49.7897 43.8642 49.5816 43.2134C49.3734 42.5626 48.9371 42.0089 48.353 41.6543C47.769 41.2997 47.0764 41.1681 46.403 41.2836L22.629 45.3996C18.037 46.1946 13.329 44.9266 9.758 41.9336L2.247 35.6396C1.71618 35.1943 1.32991 34.6011 1.13741 33.9355C0.944901 33.2699 0.954871 32.5621 1.16605 31.9022C1.37722 31.2422 1.78004 30.6601 2.3232 30.23C2.86636 29.7998 3.52527 29.541 4.216 29.4866L27.163 27.6906C28.1114 27.6161 29.0206 27.2809 29.7904 26.722C30.5602 26.1631 31.1605 25.4023 31.525 24.5236L40.377 3.15362C40.6413 2.51611 41.0886 1.97125 41.6624 1.58792C42.2363 1.2046 42.9109 1 43.601 1C44.2911 1 44.9657 1.2046 45.5396 1.58792C46.1134 1.97125 46.5607 2.51611 46.825 3.15362L55.677 24.5236C56.0415 25.4023 56.6418 26.1631 57.4116 26.722C58.1814 27.2809 59.0907 27.6161 60.039 27.6906L83.112 29.4966C83.8003 29.5507 84.4571 29.8078 84.9992 30.2352C85.5414 30.6626 85.9446 31.2413 86.1579 31.8979C86.3711 32.5546 86.3848 33.2597 86.1972 33.9241C86.0096 34.5886 85.6292 35.1824 85.104 35.6306L67.507 50.6336C66.7828 51.2516 66.2436 52.0579 65.9493 52.9633C65.6549 53.8687 65.6167 54.8379 65.839 55.7636L71.249 78.2376C71.4104 78.9088 71.3691 79.6127 71.1303 80.2604C70.8916 80.908 70.4662 81.4704 69.9079 81.8763C69.3496 82.2821 68.6834 82.5134 67.9937 82.5407C67.304 82.568 66.6217 82.3901 66.033 82.0296L46.294 69.9386C45.4833 69.4426 44.5514 69.1801 43.601 69.1801C42.6506 69.1801 41.7187 69.4426 40.908 69.9386Z" fill="url(#paint0_linear_1_48)"/>
<path style="mix-blend-mode:soft-light" d="M40.908 69.9386L21.33 81.9306C20.7381 82.293 20.0517 82.4706 19.3584 82.4409C18.665 82.4112 17.9963 82.1755 17.4376 81.7638C16.8789 81.3522 16.4556 80.7833 16.2218 80.1299C15.988 79.4765 15.9543 78.7683 16.125 78.0956L19.155 66.1666C19.6658 64.1578 20.6111 62.2854 21.9243 60.6817C23.2374 59.0779 24.8864 57.7817 26.755 56.8846L48.113 46.6296C48.7285 46.3329 49.2161 45.8238 49.4859 45.196C49.7558 44.5683 49.7897 43.8642 49.5816 43.2134C49.3734 42.5626 48.9371 42.0089 48.353 41.6543C47.769 41.2997 47.0764 41.1681 46.403 41.2836L22.629 45.3996C18.037 46.1946 13.329 44.9266 9.758 41.9336L2.247 35.6396C1.71618 35.1943 1.32991 34.6011 1.13741 33.9355C0.944901 33.2699 0.954871 32.5621 1.16605 31.9022C1.37722 31.2422 1.78004 30.6601 2.3232 30.23C2.86636 29.7998 3.52527 29.541 4.216 29.4866L27.163 27.6906C28.1114 27.6161 29.0206 27.2809 29.7904 26.722C30.5602 26.1631 31.1605 25.4023 31.525 24.5236L40.377 3.15362C40.6413 2.51611 41.0886 1.97125 41.6624 1.58792C42.2363 1.2046 42.9109 1 43.601 1C44.2911 1 44.9657 1.2046 45.5396 1.58792C46.1134 1.97125 46.5607 2.51611 46.825 3.15362L55.677 24.5236C56.0415 25.4023 56.6418 26.1631 57.4116 26.722C58.1814 27.2809 59.0907 27.6161 60.039 27.6906L83.112 29.4966C83.8003 29.5507 84.4571 29.8078 84.9992 30.2352C85.5414 30.6626 85.9446 31.2413 86.1579 31.8979C86.3711 32.5546 86.3848 33.2597 86.1972 33.9241C86.0096 34.5886 85.6292 35.1824 85.104 35.6306L67.507 50.6336C66.7828 51.2516 66.2436 52.0579 65.9493 52.9633C65.6549 53.8687 65.6167 54.8379 65.839 55.7636L71.249 78.2376C71.4104 78.9088 71.3691 79.6127 71.1303 80.2604C70.8916 80.908 70.4662 81.4704 69.9079 81.8763C69.3496 82.2821 68.6834 82.5134 67.9937 82.5407C67.304 82.568 66.6217 82.3901 66.033 82.0296L46.294 69.9386C45.4833 69.4426 44.5514 69.1801 43.601 69.1801C42.6506 69.1801 41.7187 69.4426 40.908 69.9386Z" stroke="url(#paint1_linear_1_48)" stroke-width="1.667"/>
<defs>
<linearGradient id="paint0_linear_1_48" x1="-7.399" y1="101.459" x2="80.17" y2="-5.03838" gradientUnits="userSpaceOnUse">
<stop stop-color="#FDEB32"/>
<stop offset="0.439" stop-color="#FEBD04"/>
<stop offset="1" stop-color="#D75902"/>
</linearGradient>
<linearGradient id="paint1_linear_1_48" x1="94.018" y1="26.1256" x2="43.664" y2="41.7716" gradientUnits="userSpaceOnUse">
<stop stop-color="white" stop-opacity="0"/>
<stop offset="0.396" stop-color="white" stop-opacity="0.85"/>
<stop offset="0.521" stop-color="white"/>
<stop offset="0.646" stop-color="white" stop-opacity="0.85"/>
<stop offset="1" stop-color="white" stop-opacity="0"/>
</linearGradient>
</defs>
</svg>
