<svg width="100" height="80" fill="none" xmlns="http://www.w3.org/2000/svg"><path fill="#fff" d="M0 0h100v80H0z"/><g clip-path="url(#a)"><path d="M31.558 29.005v.01c-.01 0-3.126-.01-3.957 2.967-.761 2.73-2.908 10.265-2.967 10.473h-.594s-2.196-7.703-2.967-10.482c-.832-2.978-3.957-2.968-3.957-2.968H10V51.65h7.119V38.2h.593l4.155 13.45h4.943l4.155-13.44h.593v13.44h7.119V29.005h-7.119Zm26.006 0s-2.087.188-3.066 2.374l-5.042 11.076h-.594v-13.45h-7.119V51.65h6.724s2.186-.198 3.165-2.374L56.575 38.2h.593v13.45h7.12V29.005h-6.724Zm9.889 10.284v12.362h7.119v-7.218h7.712a7.703 7.703 0 0 0 7.268-5.14h-22.1v-.004Z" fill="#4DB45E"/><path d="M82.287 29.005H66.454c.791 4.313 4.026 7.772 8.207 8.9.97.262 1.972.395 2.977.395h12.204A7.604 7.604 0 0 0 90 36.718a7.711 7.711 0 0 0-7.713-7.713Z" fill="url(#b)"/></g><defs><linearGradient id="b" x1="66.454" y1="33.653" x2="90" y2="33.653" gradientUnits="userSpaceOnUse"><stop offset=".3" stop-color="#00B4E6"/><stop offset="1" stop-color="#088CCB"/></linearGradient><clipPath id="a"><path fill="#fff" transform="translate(10 29)" d="M0 0h80v22.656H0z"/></clipPath></defs></svg>