<svg xmlns="http://www.w3.org/2000/svg" width="512" height="512" class="lottie-svg" style="width:100%;height:100%;transform:translate3d(0,0,0);content-visibility:visible" viewBox="0 0 512 512"><defs><linearGradient id="x" x1="-86.464" x2="44.78" y1="-156.442" y2="118.226" gradientUnits="userSpaceOnUse" spreadMethod="pad"><stop offset="0%" stop-color="#fff100"/><stop offset="28%" stop-color="#f3d50f"/><stop offset="55%" stop-color="#e6b91e"/><stop offset="77%" stop-color="#d1a120"/><stop offset="100%" stop-color="#bc8a23"/></linearGradient><linearGradient id="y" x1="176" x2="98.271" y1="-92.743" y2="-174.403" gradientUnits="userSpaceOnUse" spreadMethod="pad"><stop offset="0%" stop-color="#feff5c"/><stop offset="20%" stop-color="#f9e83c" stop-opacity=".7"/><stop offset="40%" stop-color="#f5d11c" stop-opacity=".4"/><stop offset="70%" stop-color="#eec219" stop-opacity=".7"/><stop offset="100%" stop-color="#e7b216"/></linearGradient><linearGradient id="z" x1="61.5" x2="126.5" y1="-188.743" y2="29.757" gradientUnits="userSpaceOnUse" spreadMethod="pad"><stop offset="0%" stop-color="#e6ae13"/><stop offset="28%" stop-color="#d89d17"/><stop offset="55%" stop-color="#ca8b1b"/><stop offset="77%" stop-color="#9c6813"/><stop offset="100%" stop-color="#6e440b"/></linearGradient><linearGradient id="A" x1="34" x2="158.127" y1="-187.243" y2="7.757" gradientUnits="userSpaceOnUse" spreadMethod="pad"><stop offset="0%" stop-color="#feff5c"/><stop offset="20%" stop-color="#f9e83c" stop-opacity=".7"/><stop offset="40%" stop-color="#f5d11c" stop-opacity=".4"/><stop offset="70%" stop-color="#eec219" stop-opacity=".7"/><stop offset="100%" stop-color="#e7b216"/></linearGradient><linearGradient id="B" x1="15" x2="98" y1="-181.743" y2="-85.743" gradientUnits="userSpaceOnUse" spreadMethod="pad"><stop offset="0%" stop-color="#ffff68"/><stop offset="50%" stop-color="#fef344" stop-opacity=".5"/><stop offset="100%" stop-color="#fee620" stop-opacity="0"/></linearGradient><linearGradient id="f" x1="-86.464" x2="44.78" y1="-156.442" y2="118.226" gradientUnits="userSpaceOnUse" spreadMethod="pad"><stop offset="0%" stop-color="#fff100"/><stop offset="28%" stop-color="#f3d50f"/><stop offset="55%" stop-color="#e6b91e"/><stop offset="77%" stop-color="#d1a120"/><stop offset="100%" stop-color="#bc8a23"/></linearGradient><linearGradient id="g" x1="-134" x2="-119.726" y1="80.257" y2="94.532" gradientUnits="userSpaceOnUse" spreadMethod="pad"><stop offset="0%" stop-color="#c88401"/><stop offset="20%" stop-color="#a26905"/><stop offset="40%" stop-color="#7c4d09"/><stop offset="70%" stop-color="#bb9321"/><stop offset="100%" stop-color="#fada39"/></linearGradient><linearGradient id="h" x1="-159.75" x2="-129.076" y1="67.257" y2="86.961" gradientUnits="userSpaceOnUse" spreadMethod="pad"><stop offset="0%" stop-color="#5d2d04"/><stop offset="36%" stop-color="#5d2d04" stop-opacity=".5"/><stop offset="72%" stop-color="#5d2d04" stop-opacity="0"/></linearGradient><linearGradient id="i" x1="-41.875" x2="-31.367" y1="2.257" y2="-8.51" gradientUnits="userSpaceOnUse" spreadMethod="pad"><stop offset="27%" stop-color="#5d2d04" stop-opacity="0"/><stop offset="63%" stop-color="#5d2d04" stop-opacity=".5"/><stop offset="100%" stop-color="#5d2d04"/></linearGradient><linearGradient id="j" x1="-4.25" x2="6.697" y1="41.882" y2="31.436" gradientUnits="userSpaceOnUse" spreadMethod="pad"><stop offset="0%" stop-color="#5d2d04" stop-opacity="0"/><stop offset="50%" stop-color="#5d2d04" stop-opacity=".5"/><stop offset="100%" stop-color="#5d2d04"/></linearGradient><linearGradient id="k" x1="-163" x2="-146.341" y1="189.257" y2="206.042" gradientUnits="userSpaceOnUse" spreadMethod="pad"><stop offset="0%" stop-color="#c88401"/><stop offset="28%" stop-color="#a26905"/><stop offset="40%" stop-color="#7c4d09"/><stop offset="52%" stop-color="#bd8e19"/><stop offset="100%" stop-color="#ffcf29"/></linearGradient><linearGradient id="l" x1="-181.125" x2="-136.593" y1="178.507" y2="190.487" gradientUnits="userSpaceOnUse" spreadMethod="pad"><stop offset="0%" stop-color="#5d2d04"/><stop offset="36%" stop-color="#5d2d04" stop-opacity=".5"/><stop offset="72%" stop-color="#5d2d04" stop-opacity="0"/></linearGradient><linearGradient id="m" x1="-163.125" x2="-145.716" y1="188.382" y2="206.042" gradientUnits="userSpaceOnUse" spreadMethod="pad"><stop offset="0%" stop-color="#c88401"/><stop offset="28%" stop-color="#a26905"/><stop offset="40%" stop-color="#7c4d09"/><stop offset="52%" stop-color="#bd8e19"/><stop offset="100%" stop-color="#ffcf29"/></linearGradient><linearGradient id="n" x1="-184.5" x2="-142.343" y1="194.757" y2="189.237" gradientUnits="userSpaceOnUse" spreadMethod="pad"><stop offset="0%" stop-color="#5d2d04"/><stop offset="36%" stop-color="#5d2d04" stop-opacity=".5"/><stop offset="72%" stop-color="#5d2d04" stop-opacity="0"/></linearGradient><linearGradient id="o" x1="-163" x2="-147.341" y1="189.257" y2="204.917" gradientUnits="userSpaceOnUse" spreadMethod="pad"><stop offset="0%" stop-color="#c88401"/><stop offset="28%" stop-color="#a26905"/><stop offset="40%" stop-color="#7c4d09"/><stop offset="52%" stop-color="#bd8e19"/><stop offset="100%" stop-color="#ffcf29"/></linearGradient><linearGradient id="p" x1="-180.875" x2="-142.343" y1="190.257" y2="189.237" gradientUnits="userSpaceOnUse" spreadMethod="pad"><stop offset="0%" stop-color="#5d2d04"/><stop offset="36%" stop-color="#5d2d04" stop-opacity=".5"/><stop offset="72%" stop-color="#5d2d04" stop-opacity="0"/></linearGradient><linearGradient id="q" x1="-210" x2="-32.189" y1="206.257" y2="21.446" gradientUnits="userSpaceOnUse" spreadMethod="pad"><stop offset="0%" stop-color="#9f3e01"/><stop offset="50%" stop-color="#8e4601" stop-opacity=".5"/><stop offset="100%" stop-color="#7c4f00" stop-opacity="0"/></linearGradient><clipPath id="b"><path d="M0 0h512v512H0z"/></clipPath></defs><g clip-path="url(#b)"><g style="display:block"><path fill="#a36a05" d="M215.701 227.267 96.48 397.314 61.316 447.47c.013 2.42 46.686 8.196 46.586 5.663 0 0 1.483-43.738 3.232-43.705 0 0 16.19 1.091 26.885 1.186 10.956.097 22.02-.13 21.912-1.448 0 0-4.846-52.932-2.985-52.799 0 0 57.388 9.674 58.91 8.153 0 0 19.721-20.705 19.808-22.56 0 0-2.928-45.79-1.293-45.777 0 0 47.758-3.767 50.81-1.79 0 0-68.324-68.282-69.48-67.126"/><path fill="none" stroke="#7c4f00" stroke-linecap="round" stroke-linejoin="round" stroke-width="6.58" d="M215.701 227.267 96.48 397.314 61.316 447.47c.013 2.42 46.686 8.196 46.586 5.663 0 0 1.483-43.738 3.232-43.705 0 0 16.19 1.091 26.885 1.186 10.956.097 22.02-.13 21.912-1.448 0 0-4.846-52.932-2.985-52.799 0 0 57.388 9.674 58.91 8.153 0 0 19.721-20.705 19.808-22.56 0 0-2.928-45.79-1.293-45.777 0 0 47.758-3.767 50.81-1.79 0 0-68.324-68.282-69.48-67.126"/></g><g style="display:block"><path fill="url(#f)" d="M-55.247-47.233c.799 1.534 5.757 16.048 4.527 17.278 0 0-164.494 165.781-164.487 168.079l.247 66.179c.014 2.574 74.027 3.146 73.921.452 0 0-.347-47.27 1.513-47.235 0 0 46.184 1.762 45.958-1.01 0 0-3.344-50.546-1.364-50.405 0 0 56.07 1.621 57.689.002 0 0 20.98-22.027 21.072-24 0 0 3.345-43.89 5.084-43.876 0 0 31.035 1.121 34.281 3.225z" transform="matrix(.94 0 0 .94 251.7 265.456)"/><path fill="none" stroke="#fff86c" stroke-linecap="round" stroke-linejoin="round" stroke-width="7.52" d="M49.405 399.888 209.562 240.02"/><path fill="url(#g)" d="M-215.118 161.829-45.021-8.268c7.377-8.543 25.75 1.763 14.573 14.574l-184.561 184.561z" transform="matrix(.94 0 0 .94 251.7 265.456)"/><path fill="url(#h)" d="M-215.118 161.829-45.021-8.268c7.581-7.594 23.58 2.916 14.573 14.574l-184.561 184.561z" transform="matrix(.94 0 0 .94 251.7 265.456)"/><path fill="url(#i)" d="M-34.288 10.145C-29.46-11.286-49.476-3.813-49.476-3.813s9.992-13.439 19.288-4.698c9.708 9.129-4.1 18.656-4.1 18.656" transform="matrix(.94 0 0 .94 251.7 265.456)"/><path fill="url(#j)" d="M-11.087 38.231c-.085 0-.155.001-.226.015l6.399-6.4c4.031-4.031 10.551-4.03 14.574-.007a10.2 10.2 0 0 1 2.984 6.548c-.134-.007-23.731-.156-23.731-.156" transform="matrix(.94 0 0 .94 253.11 265.691)"/><path fill="url(#k)" d="m-117.311 144.087-1.025 30.314-35.162 35.162-28.85-.282z" transform="matrix(.94 0 0 .94 349.225 169.694)"/><path fill="url(#l)" d="m-117.311 144.087-1.025 30.314-35.162 35.162-28.85-.282z" transform="matrix(.94 0 0 .94 349.225 169.694)"/><path fill="url(#m)" d="m-142.467 169.4 1.131 28.001-8.537 8.287-29.225-.407z" transform="matrix(.94 0 0 .94 296.35 220.571)"/><path fill="url(#n)" d="m-142.467 169.4 1.131 28.001-8.537 8.287-29.225-.407z" transform="matrix(.94 0 0 .94 296.35 220.571)"/><path fill="url(#o)" d="m-142.467 169.4 1.131 28.001-12.162 12.162-28.85-.282z" transform="matrix(.94 0 0 .94 251.7 265.456)"/><path fill="url(#p)" d="m-142.467 169.4 1.131 28.001-12.162 12.162-28.85-.282z" transform="matrix(.94 0 0 .94 251.7 265.456)"/><path fill="url(#q)" fill-opacity=".3" d="m-50.72-29.955-163.582 163.582c-1.626 1.626-.728 73.427-.728 73.427.014 2.574 71.795 1.874 71.795 1.874 2.687.028.528-50.863 2.388-50.828 0 0 48.259 1.523 48.033-1.249 0 0-4.098-51.294-2.118-51.153 0 0 54.415 2.967 56.034 1.348 0 0 22.635-22.966 22.727-24.939 0 0 1.466-43.734 3.205-43.72 0 0-33.559-71.604-37.754-68.342" transform="matrix(.94 0 0 .94 251.7 265.456)"/><path fill="none" stroke="#b27410" stroke-linecap="round" stroke-linejoin="round" stroke-width="7.52" d="M204.023 237.299 51.784 389.537a8.1 8.1 0 0 0-2.379 5.756l.232 62.208a4.417 4.417 0 0 0 4.374 4.4s60.56 1.367 63.048-.052c4.92-3.163-.46-47.811 1.288-47.779 0 0 42.3.93 44.834-1.652 4.332-4.414-3.95-43.726-.718-47.223 3.49-3.776 48.943 5.99 54.228.002l17.635-17.634a7.45 7.45 0 0 0 2.173-4.926s.697-38.812 2.632-40.374c1.934-1.562 24.054-.736 24.054-.736"/><path fill="none" stroke="#935415" stroke-linecap="round" stroke-linejoin="round" stroke-width="7.52" d="m49.405 395.293.232 62.208"/><path fill="none" stroke="#7c4f00" stroke-linecap="round" stroke-linejoin="round" stroke-width="7.52" d="M49.637 457.501a4.417 4.417 0 0 0 4.374 4.4s60.56 1.367 63.048-.052c4.92-3.163-.46-47.811 1.288-47.779 0 0 42.3.93 44.833-1.652 4.332-4.414-3.948-43.726-.717-47.223 3.49-3.776 48.943 5.99 54.228.002l17.635-17.634a7.45 7.45 0 0 0 2.173-4.926s.697-38.812 2.632-40.374c1.934-1.562 24.054-.736 24.054-.736"/><path fill="none" stroke="#6d3901" stroke-linecap="round" stroke-linejoin="round" stroke-width="7.52" d="m49.571 439.492-.079-21.064"/><path fill="none" stroke="#5b2e01" stroke-linecap="round" stroke-linejoin="round" stroke-width="7.52" d="m84.845 462.225 21.779.213M134.235 413.736l20.472.334M182.205 365.354l20.847 1.451M236.856 333.81l.806-22.247"/></g><g style="display:block"><path fill="url(#x)" d="M-1.873-190.836c-27.386 27.386-42.955 66.703-38.958 120.398.425 5.717-15.83 20.504-14.416 23.205.799 1.534 11.757 19.173 10.527 20.403l57.883 58.061s6.785 8.121 10.031 10.225c25.061 16.242 38.077-4.504 38.077-4.504 49.627 8.136 97.348-12.524 124.734-39.91 51.405-51.405 50.464-135.893 0-187.878l-21.272 18.427c18.738 18.738 20.197 50.516 1.459 69.254s-49.13 18.738-67.868 0-18.738-49.13 0-67.868c18.262-18.262 47.585-18.72 66.409-1.386l21.272-18.427c-51.88-51.88-135.998-51.88-187.878 0" transform="matrix(.94 0 0 .94 252.199 264.64)"/><path fill="none" stroke="#fff86c" stroke-linecap="round" stroke-linejoin="round" stroke-width="7.52" d="M210.062 239.204c1.019-1.832-5.31-11.953-3.83-17.724 1.842-7.178 11.45-11.507 13.038-18.905 1.29-6.004-25.57-82.45 71.415-144.305"/><path fill="url(#y)" fill-opacity=".5" d="M132.247-184.931c68.143 4.934 58.82 93.883.011 95.688-50.133 1.538-75.462-87.364-.011-95.688l.002-10.967h-.002c-15.707.001-30.474 6.117-41.578 17.221-11.107 11.107-17.224 25.876-17.224 41.588s6.117 30.482 17.224 41.589 25.877 17.224 41.589 17.224 30.481-6.117 41.588-17.224 17.223-25.877 17.221-41.587c-.002-15.708-6.121-30.476-17.228-41.583-10.94-10.94-26.15-17.045-41.592-17.228z" transform="matrix(.94 0 0 .94 252.199 264.64)"/><path fill="url(#z)" d="M174.497-14.467c44.957-45.488 45.28-119.564-.008-164.853-22.726-22.725-52.582-34.091-82.433-34.091-29.85 0-59.697 11.361-82.421 34.084-45.452 45.453-45.452 119.407 0 164.86 45.453 45.453 119.409 45.454 164.862 0l4.338 4.338c-23.922 23.923-55.345 35.884-86.768 35.884S29.219 13.794 5.297-10.129c-47.844-47.844-47.844-125.692 0-173.536 47.842-47.842 125.688-47.835 173.53.007 47.598 47.598 47.113 125.629.008 173.529z" transform="matrix(.94 0 0 .94 252.199 264.64)"/><path fill="url(#A)" d="M92.058-227.304c-34.453.001-66.805 15.007-91.099 39.301-24.299 24.299-37.68 56.654-37.68 91.106S-23.34-30.089.959-5.79c24.298 24.299 56.654 37.68 91.108 37.68 34.224 0 66.378-13.204 90.621-37.198l-3.853-4.821c-23.922 23.923-55.345 35.884-86.768 35.884S29.219 13.794 5.297-10.129c-47.844-47.844-47.844-125.692 0-173.536 23.918-23.918 55.34-35.877 86.758-35.878 31.426-.001 62.848 11.961 86.772 35.885 47.666 47.666 47.316 125.645.008 173.529l3.853 4.821c50.232-50.232 50.713-132.451.477-182.688-24.3-24.3-56.655-39.308-91.105-39.308z" transform="matrix(.94 0 0 .94 252.199 264.64)"/><path fill="url(#B)" d="M92.056-207.275c29.534 0 57.268 11.468 78.094 32.293 43.06 43.061 43.063 113.122.008 156.177l4.339 4.338c45.448-45.448 45.444-119.4-.008-164.853-22.726-22.725-52.582-34.091-82.433-34.091-29.85 0-59.697 11.361-82.421 34.084-45.452 45.453-45.452 119.407 0 164.86 22.726 22.726 52.58 34.09 82.432 34.09 29.228 0 58.454-10.892 80.994-32.678l-3.944-4.722c-20.703 20.173-48.006 31.265-77.051 31.265-29.534 0-57.268-11.469-78.092-32.293-43.059-43.06-43.059-113.123 0-156.183 20.821-20.82 48.551-32.287 78.082-32.287" transform="matrix(.94 0 0 .94 252.199 264.64)"/><path fill="none" stroke="#b27410" stroke-linecap="round" stroke-linejoin="round" stroke-width="7.52" d="M354.494 175.144c-21.739-12.163-29.504-39.656-17.342-61.394 12.163-21.739 39.652-29.495 61.39-17.333 21.74 12.163 29.508 39.648 17.346 61.386-12.163 21.738-39.656 29.504-61.394 17.341"/><path fill="none" stroke="#9e5905" stroke-linecap="round" stroke-linejoin="round" stroke-width="7.52" d="M336.246 156.105c-6.513-12.934-6.695-28.768.906-42.355 12.163-21.739 39.652-29.495 61.39-17.333 10.87 6.082 18.246 15.993 21.386 27.102"/><path fill="none" stroke="#b27410" stroke-linecap="round" stroke-linejoin="round" stroke-width="7.52" d="M239.63 301.447c1.935-1.562 24.055-.736 24.055-.736 8.349.013 19.728 8.149 23.184 9.545 4.6 1.861 9.863.798 13.38-2.719 0 0 7.888-10.078 15.095-8.94 46.07 7.279 85.957-10.994 111.7-36.737 48.767-48.767 48.767-127.838 0-176.605s-127.838-48.767-176.606 0c-25.742 25.743-39.887 61.916-38.451 95.628.225 5.383 4.412 18.311-1.064 25.005-4.59 5.609-15.709 10.903-9.723 20.073 14.853 22.75 5.509 8.377 3.322 10.522"/><path fill="none" stroke="#7c4f00" stroke-linecap="round" stroke-linejoin="round" stroke-width="7.52" d="M239.748 301.859c1.934-1.562 23.937-1.148 23.937-1.148 8.349.013 19.728 8.149 23.184 9.545 4.6 1.861 9.863.798 13.38-2.719 0 0 7.888-10.078 15.095-8.94 46.07 7.279 85.957-10.994 111.7-36.737 22.86-22.86 35.003-52.378 36.432-82.312"/></g></g></svg>