<svg width="32" height="32" viewBox="0 0 32 32" fill="none" xmlns="http://www.w3.org/2000/svg">
<path fill-rule="evenodd" clip-rule="evenodd" d="M7.13145 12.6908C7.13145 12.0004 7.69109 11.4408 8.38145 11.4408H14.947C15.4121 11.4408 15.8388 11.6991 16.0545 12.1112C16.2701 12.5233 16.2392 13.021 15.9741 13.4032L10.5563 21.214H14.18C14.8703 21.214 15.43 21.7736 15.43 22.464C15.43 23.1543 14.8703 23.714 14.18 23.714H8.16797C7.70284 23.714 7.27617 23.4557 7.06049 23.0436C6.8448 22.6315 6.87577 22.1337 7.14087 21.7516L12.5587 13.9408H8.38145C7.69109 13.9408 7.13145 13.3812 7.13145 12.6908Z" fill="white"/>
<path fill-rule="evenodd" clip-rule="evenodd" d="M17.2134 9.53604C17.2134 8.84569 17.7731 8.28604 18.4634 8.28604H23.8321C24.2972 8.28604 24.7239 8.5443 24.9396 8.9564C25.1552 9.3685 25.1243 9.86628 24.8592 10.2485L20.4735 16.5712H23.3477C24.0381 16.5712 24.5977 17.1309 24.5977 17.8212C24.5977 18.5116 24.0381 19.0712 23.3477 19.0712H18.0852C17.6201 19.0712 17.1934 18.813 16.9777 18.4009C16.762 17.9888 16.793 17.491 17.0581 17.1088L21.4438 10.786H18.4634C17.7731 10.786 17.2134 10.2264 17.2134 9.53604Z" fill="white"/>
</svg>
