<svg width="88" height="84" viewBox="0 0 88 84" fill="none" xmlns="http://www.w3.org/2000/svg">
<path d="M40.9088 69.9378L21.3308 81.9314C19.6875 82.9381 17.5392 82.422 16.5326 80.7787C16.0409 79.9762 15.8943 79.009 16.1261 78.0967L19.1567 66.1679C20.19 62.1011 22.9729 58.7015 26.7556 56.8854L48.1143 46.6307C49.5249 45.9534 50.1194 44.2608 49.4421 42.8502C48.8937 41.7078 47.6533 41.0685 46.4046 41.2847L22.6297 45.4007C18.0385 46.1956 13.3302 44.9278 9.75892 41.9349L2.24821 35.6407C0.771165 34.4029 0.577225 32.2021 1.81503 30.7251C2.41705 30.0067 3.28278 29.5607 4.21721 29.4876L27.1646 27.6917C29.0983 27.5404 30.7835 26.3166 31.5258 24.5247L40.3785 3.15483C41.116 1.37442 43.1572 0.529024 44.9377 1.26658C45.7926 1.62072 46.4718 2.29994 46.8259 3.15483L55.6786 24.5247C56.4209 26.3166 58.1061 27.5404 60.0398 27.6917L83.1133 29.4974C85.0345 29.6478 86.4701 31.3272 86.3198 33.2484C86.2474 34.1727 85.8103 35.0301 85.1048 35.6316L67.5076 50.6336C66.03 51.8932 65.3854 53.8762 65.8398 55.764L71.2497 78.2379C71.7007 80.1115 70.5475 81.996 68.6739 82.447C67.7736 82.6637 66.8241 82.5137 66.0345 82.03L46.2956 69.9378C44.6427 68.9253 42.5617 68.9253 40.9088 69.9378Z" fill="url(#paint0_linear_1_47)"/>
<path style="mix-blend-mode:soft-light" d="M40.9088 69.9378L21.3308 81.9314C19.6875 82.9381 17.5392 82.422 16.5326 80.7787C16.0409 79.9762 15.8943 79.009 16.1261 78.0967L19.1567 66.1679C20.19 62.1011 22.9729 58.7015 26.7556 56.8854L48.1143 46.6307C49.5249 45.9534 50.1194 44.2608 49.4421 42.8502C48.8937 41.7078 47.6533 41.0685 46.4046 41.2847L22.6297 45.4007C18.0385 46.1956 13.3302 44.9278 9.75892 41.9349L2.24821 35.6407C0.771165 34.4029 0.577225 32.2021 1.81503 30.7251C2.41705 30.0067 3.28278 29.5607 4.21721 29.4876L27.1646 27.6917C29.0983 27.5404 30.7835 26.3166 31.5258 24.5247L40.3785 3.15483C41.116 1.37442 43.1572 0.529024 44.9377 1.26658C45.7926 1.62072 46.4718 2.29994 46.8259 3.15483L55.6786 24.5247C56.4209 26.3166 58.1061 27.5404 60.0398 27.6917L83.1133 29.4974C85.0345 29.6478 86.4701 31.3272 86.3198 33.2484C86.2474 34.1727 85.8103 35.0301 85.1048 35.6316L67.5076 50.6336C66.03 51.8932 65.3854 53.8762 65.8398 55.764L71.2497 78.2379C71.7007 80.1115 70.5475 81.996 68.6739 82.447C67.7736 82.6637 66.8241 82.5137 66.0345 82.03L46.2956 69.9378C44.6427 68.9253 42.5617 68.9253 40.9088 69.9378Z" stroke="url(#paint1_linear_1_47)" stroke-width="1.66667"/>
<defs>
<linearGradient id="paint0_linear_1_47" x1="2.60231" y1="62.9586" x2="83.7498" y2="-1.864" gradientUnits="userSpaceOnUse">
<stop stop-color="#6B93FF"/>
<stop offset="0.439058" stop-color="#976FFF"/>
<stop offset="1" stop-color="#E46ACE"/>
</linearGradient>
<linearGradient id="paint1_linear_1_47" x1="94.0193" y1="26.1254" x2="43.6653" y2="41.7719" gradientUnits="userSpaceOnUse">
<stop stop-color="white" stop-opacity="0"/>
<stop offset="0.395833" stop-color="white" stop-opacity="0.85"/>
<stop offset="0.520833" stop-color="white"/>
<stop offset="0.645833" stop-color="white" stop-opacity="0.85"/>
<stop offset="1" stop-color="white" stop-opacity="0"/>
</linearGradient>
</defs>
</svg>
