<svg width="32" height="32" viewBox="0 0 32 32" fill="none" xmlns="http://www.w3.org/2000/svg">
<path fill-rule="evenodd" clip-rule="evenodd" d="M6 13.4V23.1373C6 24.3489 6 24.9547 6.23959 25.2352C6.44749 25.4786 6.75934 25.6078 7.07846 25.5827C7.44624 25.5538 7.87462 25.1254 8.73137 24.2686L10.0627 22.9373C10.4086 22.5914 10.5816 22.4184 10.7834 22.2947C10.9624 22.1851 11.1575 22.1043 11.3615 22.0553C11.5917 22 11.8363 22 12.3255 22H19.6C21.8402 22 22.9603 22 23.816 21.564C24.5686 21.1805 25.1805 20.5686 25.564 19.816C26 18.9603 26 17.8402 26 15.6V13.4C26 11.1598 26 10.0397 25.564 9.18404C25.1805 8.43139 24.5686 7.81947 23.816 7.43597C22.9603 7 21.8402 7 19.6 7H12.4C10.1598 7 9.03969 7 8.18404 7.43597C7.43139 7.81947 6.81947 8.43139 6.43597 9.18404C6 10.0397 6 11.1598 6 13.4ZM17.335 12.0025C17.335 11.2646 16.7363 10.6666 15.9983 10.6675C15.2617 10.6685 14.665 11.2659 14.665 12.0025V13.0003C14.7696 13 14.881 13 15 13H17C17.119 13 17.2304 13 17.335 13.0003V12.0025ZM13.335 12.0025V13.1152C13.3006 13.1264 13.2672 13.1387 13.2346 13.1522C12.7446 13.3552 12.3552 13.7446 12.1522 14.2346C12 14.6022 12 15.0681 12 16C12 16.9319 12 17.3978 12.1522 17.7654C12.3552 18.2554 12.7446 18.6448 13.2346 18.8478C13.6022 19 14.0681 19 15 19H17C17.9319 19 18.3978 19 18.7654 18.8478C19.2554 18.6448 19.6448 18.2554 19.8478 17.7654C20 17.3978 20 16.9319 20 16C20 15.0681 20 14.6022 19.8478 14.2346C19.6448 13.7446 19.2554 13.3552 18.7654 13.1522C18.7328 13.1387 18.6994 13.1264 18.665 13.1152V12.0025C18.665 10.5294 17.4698 9.33567 15.9966 9.33753C14.5261 9.33938 13.335 10.532 13.335 12.0025Z" fill="white"/>
</svg>
