<svg width="32" height="33" viewBox="0 0 32 33" fill="none" xmlns="http://www.w3.org/2000/svg">
<path d="M16.0988 19.1657L14.2578 17.3464L14.2843 17.3199C15.8244 15.6028 16.9219 13.6291 17.568 11.5403H19.2762C19.765 11.5403 20.1613 11.1441 20.1613 10.6552C20.1613 10.1664 19.765 9.77016 19.2762 9.77016H13.9657V8.88508C13.9657 8.39627 13.5694 8 13.0806 8C12.5918 8 12.1956 8.39627 12.1956 8.88508V9.77016H6.88065C6.3943 9.77016 6 10.1644 6 10.6508C6 11.1372 6.39428 11.5315 6.88065 11.5315H15.8863C15.2933 13.2397 14.3551 14.8594 13.0806 16.2755C12.4525 15.5798 11.9067 14.8325 11.4435 14.0494L11.283 13.7671C11.1272 13.4854 10.8306 13.3104 10.5086 13.3104H10.1511C9.8449 13.3104 9.59671 13.5586 9.59671 13.8648C9.59671 13.9526 9.6176 14.0392 9.65759 14.1173L9.73838 14.2719C10.3217 15.36 11.0462 16.393 11.9035 17.3464L8.0312 21.1654C7.71086 21.4814 7.6829 21.9818 7.94972 22.3299L8.02943 22.4205C8.37506 22.7661 8.93548 22.7661 9.28113 22.4205L13.0807 18.6209L15.1521 20.6923C15.3937 20.934 15.7856 20.934 16.0273 20.6923C16.0901 20.6295 16.1386 20.554 16.1696 20.4707L16.3061 20.1042C16.4278 19.7778 16.3466 19.4105 16.0989 19.1657L16.0988 19.1657ZM20.8755 15.0806H20.3321C19.9632 15.0806 19.6329 15.3095 19.5034 15.6549L16.0466 24.8729C15.9277 25.19 16.0884 25.5436 16.4056 25.6625C16.4744 25.6884 16.5474 25.7016 16.6209 25.7016H16.8917C17.2611 25.7016 17.5916 25.4722 17.7209 25.1261L18.4973 23.0463H22.7014L23.4857 25.1285C23.6156 25.4733 23.9455 25.7016 24.314 25.7016H24.5866C24.9254 25.7016 25.2 25.427 25.2 25.0882C25.2 25.0147 25.1868 24.9417 25.1609 24.8729L21.7042 15.6549C21.5747 15.3095 21.2444 15.0806 20.8755 15.0806H20.8755ZM20.6038 17.4438L22.0376 21.2762H19.17L20.6038 17.4438Z" fill="white"/>
</svg>
