<svg xmlns="http://www.w3.org/2000/svg" viewBox="0 0 32 32"><defs><style>.cls-1{fill:#fff}</style></defs><path d="M15.821 15.367c5.48 0 9.924-1.222 9.924-2.73 0-.94-1.731-1.77-4.364-2.26-.033-.535-.1-1.045-.118-1.39a8.7 8.7 0 0 0-.929-3.508c-.239-.471-.535-.935-.976-1.227s-1.055-.372-1.492-.075c-.59.401-.639 1.283-1.155 1.776-.238.228-.542.34-.862.428-.32-.088-.623-.2-.861-.428-.516-.493-.565-1.375-1.155-1.776-.437-.297-1.052-.216-1.493.075s-.736.756-.976 1.227a8.7 8.7 0 0 0-.929 3.508c-.017.342-.083.849-.117 1.38-2.664.49-4.42 1.323-4.42 2.27 0 1.508 4.443 2.73 9.923 2.73m12.225 2.487c-.956-1.02-1.874-2.075-2.81-3.114-.596.336-1.327.611-2.14.834l.003.13-.061 3.537c-3.775 1.212-6.969 4.125-8.522 7.773-.092.215-.179.438-.181.671s.098.482.302.594c.355.195.773-.091 1.082-.353a21.5 21.5 0 0 1 8.971-4.498c.224-.052.642-.19.306-.716-.198-.31-.692-.91-.878-1.228-.168-.288-.36-.404-.102-.614.332-.27.731-.482 1.034-.622.976-.455 1.717-.844 2.68-1.328.95-.477.717-.638.316-1.066" class="cls-1"/><path d="M17.533 18.326a2.7 2.7 0 0 0 2.346.451 2.5 2.5 0 0 0 1.15-.693c.426-.455.65-1.077.671-1.7.005-.153.01-.32.012-.489-1.742.335-3.645.486-5.242.517.118.754.496 1.478 1.063 1.914m-7.171-.785c.25.435.62.802 1.067 1.031 1.373.704 3.378.012 3.565-1.65a6 6 0 0 1 .096-.511c-1.552-.034-3.385-.182-5.073-.5a2.6 2.6 0 0 0-.005.547c.036.38.159.751.35 1.083m-.097 3.188c-1.116-1.52-1.866-3.346-1.96-5.224-.765-.224-1.448-.499-2.005-.83l-.296.328-2.035 2.25c-.202.223-.418.499-.352.792.054.238.275.393.48.525l3.577 2.31-1.116 1.411c2.568 1.51 4.556 2.599 7.268 3.741q.329-.684.725-1.33c-1.745-1.094-3.061-2.307-4.286-3.973" class="cls-1"/></svg>