<svg width="32" height="32" viewBox="0 0 32 32" fill="none" xmlns="http://www.w3.org/2000/svg">
<rect x="7.30762" y="8.41418" width="2" height="24" rx="1" transform="rotate(-45 7.30762 8.41418)" fill="white"/>
<path fill-rule="evenodd" clip-rule="evenodd" d="M13.6342 19.5007H11C8.79086 19.5007 7 17.7098 7 15.5007C7 14.2442 7.57935 13.123 8.48549 12.3897L17.6842 21.5883L16.0781 20.3391C15.8157 20.1351 15.6845 20.033 15.5464 19.9478C15.1662 19.7131 14.7384 19.5663 14.2941 19.5181C14.1329 19.5007 13.9667 19.5007 13.6342 19.5007ZM23.0425 24.1182L10.4609 11.5367C10.6372 11.5129 10.8172 11.5007 11 11.5007H13.6342C13.9667 11.5007 14.1329 11.5007 14.2941 11.4832C14.7384 11.435 15.1662 11.2882 15.5464 11.0535C15.6845 10.9683 15.8157 10.8663 16.0781 10.6622L18.8354 8.51757L18.8354 8.51757L18.8354 8.51756C20.4927 7.22858 21.3213 6.58409 22.017 6.59001C22.6222 6.59516 23.1926 6.8741 23.5682 7.34866C24 7.89419 24 8.94396 24 11.0435V19.9578C24 22.0573 24 23.1071 23.5682 23.6526C23.42 23.8399 23.2415 23.9967 23.0425 24.1182ZM11 22.3869C11 21.8675 11 21.6077 11.0941 21.4064C11.1934 21.1941 11.3641 21.0234 11.5764 20.9241C11.7778 20.83 12.0375 20.83 12.5569 20.83H13.4431C13.9625 20.83 14.2222 20.83 14.4236 20.9241C14.6359 21.0234 14.8066 21.1941 14.9059 21.4064C15 21.6077 15 21.8675 15 22.3869V23.5007C15 24.6052 14.1046 25.5007 13 25.5007C11.8954 25.5007 11 24.6052 11 23.5007V22.3869Z" fill="white"/>
</svg>
