<svg width="32" height="32" viewBox="0 0 32 32" fill="none" xmlns="http://www.w3.org/2000/svg">
<path fill-rule="evenodd" clip-rule="evenodd" d="M5.96766 9.73466C6.48238 9.34861 7.21261 9.45293 7.59866 9.96766L10.6667 14.0583L13.7347 9.96766C14.1207 9.45293 14.8509 9.34861 15.3657 9.73466C15.8804 10.1207 15.9847 10.8509 15.5987 11.3657L12.1229 16L15.5987 20.6343C15.9847 21.1491 15.8804 21.8793 15.3657 22.2653C14.8509 22.6514 14.1207 22.5471 13.7347 22.0323L10.6667 17.9417L7.59866 22.0323C7.21261 22.5471 6.48238 22.6514 5.96766 22.2653C5.45293 21.8793 5.34861 21.1491 5.73466 20.6343L9.21041 16L5.73466 11.3657C5.34861 10.8509 5.45293 10.1207 5.96766 9.73466ZM20.6667 9.50166C18.9187 9.50166 17.5017 10.9187 17.5017 12.6667V13.3333C17.5017 13.9767 18.0232 14.4983 18.6667 14.4983C19.3101 14.4983 19.8317 13.9767 19.8317 13.3333V12.6667C19.8317 12.2055 20.2055 11.8317 20.6667 11.8317H22.4492C23.3986 11.8317 24.1683 12.6013 24.1683 13.5508C24.1683 14.202 23.8004 14.7973 23.218 15.0885L19.6198 16.8876C18.3216 17.5367 17.5017 18.8634 17.5017 20.3147V21.3333C17.5017 21.9767 18.0232 22.4983 18.6667 22.4983L25.3333 22.4983C25.9767 22.4983 26.4983 21.9767 26.4983 21.3333C26.4983 20.6899 25.9767 20.1683 25.3333 20.1683L19.8388 20.1683C19.8887 19.658 20.197 19.204 20.6618 18.9716L24.26 17.1725C25.6318 16.4866 26.4983 15.0845 26.4983 13.5508C26.4983 11.3145 24.6855 9.50166 22.4492 9.50166H20.6667Z" fill="white"/>
</svg>
