<svg width="86" height="82" viewBox="0 0 86 82" fill="none" xmlns="http://www.w3.org/2000/svg">
<path d="M39.9088 68.9378L20.3308 80.9314C18.6875 81.9381 16.5392 81.422 15.5326 79.7787C15.0409 78.9762 14.8943 78.009 15.1261 77.0967L18.1567 65.1679C19.19 61.1011 21.9729 57.7015 25.7556 55.8854L47.1143 45.6307C48.5249 44.9534 49.1194 43.2608 48.4421 41.8502C47.8937 40.7078 46.6533 40.0685 45.4046 40.2847L21.6297 44.4007C17.0385 45.1956 12.3302 43.9278 8.75892 40.9349L1.24821 34.6407C-0.228835 33.4029 -0.422775 31.2021 0.815035 29.7251C1.41705 29.0067 2.28278 28.5607 3.21721 28.4876L26.1646 26.6917C28.0983 26.5404 29.7835 25.3166 30.5258 23.5247L39.3785 2.15483C40.116 0.374424 42.1572 -0.470976 43.9377 0.266584C44.7926 0.620724 45.4718 1.29994 45.8259 2.15483L54.6786 23.5247C55.4209 25.3166 57.1061 26.5404 59.0398 26.6917L82.1133 28.4974C84.0345 28.6478 85.4701 30.3272 85.3198 32.2484C85.2474 33.1727 84.8103 34.0301 84.1048 34.6316L66.5076 49.6336C65.03 50.8932 64.3854 52.8762 64.8398 54.764L70.2497 77.2379C70.7007 79.1115 69.5475 80.996 67.6739 81.447C66.7736 81.6637 65.8241 81.5137 65.0345 81.03L45.2956 68.9378C43.6427 67.9253 41.5617 67.9253 39.9088 68.9378Z" fill="url(#paint0_linear_18_56)"/>
<defs>
<linearGradient id="paint0_linear_18_56" x1="1.60231" y1="61.9586" x2="82.7498" y2="-2.864" gradientUnits="userSpaceOnUse">
<stop stop-color="#6B93FF"/>
<stop offset="0.439058" stop-color="#976FFF"/>
<stop offset="1" stop-color="#E46ACE"/>
</linearGradient>
</defs>
</svg>
