<svg width="32" height="33" viewBox="0 0 32 33" fill="none" xmlns="http://www.w3.org/2000/svg">
  <path fill-rule="evenodd" clip-rule="evenodd" d="M15.9999 26.1C21.3018 26.1 25.5999 21.802 25.5999 16.5C25.5999 11.1981 21.3018 6.90002 15.9999 6.90002C10.698 6.90002 6.3999 11.1981 6.3999 16.5C6.3999 21.802 10.698 26.1 15.9999 26.1ZM13.1208 14.6993C13.7164 14.6993 14.2007 14.2157 14.2007 13.6194C14.2007 13.0238 13.7167 12.5397 13.1208 12.5395C12.5241 12.5395 12.0409 13.0238 12.0409 13.6194C12.0409 14.2154 12.5241 14.6993 13.1208 14.6993ZM19.9607 13.6194C19.9607 14.2157 19.4764 14.6993 18.8808 14.6993C18.2839 14.6993 17.8009 14.2154 17.8009 13.6194C17.8009 13.0238 18.2841 12.5395 18.8808 12.5395C19.4764 12.5397 19.9607 13.0238 19.9607 13.6194ZM21.8698 17.1054C22.1434 17.0415 22.6904 16.9928 22.74 17.439L22.7402 17.439C22.783 17.8154 22.2661 19.2887 22.0914 19.6452C21.0193 21.8347 18.6955 23.2221 16.0017 23.2221C15.4689 23.2221 14.9355 23.1697 14.4131 23.0636C13.3228 22.8394 12.2781 22.3689 11.4203 21.6533C10.6396 21.002 10.0283 20.1505 9.67166 19.1976C9.48303 18.695 9.39646 18.2532 9.34121 17.72C9.31464 17.465 9.33892 17.1772 9.63893 17.1467C9.7801 17.1323 9.92136 17.1707 10.06 17.2085C10.1157 17.2237 10.171 17.2387 10.2257 17.2502C10.4242 17.2917 10.6224 17.3311 10.8231 17.363C11.3245 17.4413 11.831 17.4865 12.3376 17.5317C12.3887 17.5363 12.4399 17.5408 12.4911 17.5454C13.6579 17.6491 14.8305 17.6991 16.0016 17.6991C16.5239 17.6991 17.0462 17.6848 17.5679 17.6559C18.6284 17.5988 19.6882 17.492 20.7368 17.3232C21.1161 17.2618 21.4948 17.1925 21.8698 17.1054ZM21.6505 17.8205C20.3244 18.0546 17.9926 18.4191 16.0018 18.4191L16.0019 18.4192C14.1596 18.4192 11.6437 18.2313 10.2423 18.0264C10.0975 18.0053 10.0745 18.371 10.1607 18.4895C10.5945 19.0859 13.1112 20.0596 16 20.0596C18.9513 20.0596 21.3322 18.8914 21.8001 18.2789C21.8886 18.1635 21.7934 17.7947 21.6505 17.8205Z" fill="white" />
</svg>
