<svg width="32" height="32" viewBox="0 0 32 32" fill="none" xmlns="http://www.w3.org/2000/svg">
<path fill-rule="evenodd" clip-rule="evenodd" d="M6.86506 8.72963C6.40002 9.64232 6.40002 10.8371 6.40002 13.2267V19.6923C6.40002 21.2192 6.40002 21.9827 6.59322 22.6027C7.01037 23.9414 8.05865 24.9896 9.39734 25.4068C10.0173 25.6 10.7808 25.6 12.3077 25.6C14.0084 25.6 15.2881 25.6 16.3162 25.5473C16.4183 25.5304 16.4887 25.5096 16.5449 25.4863C16.8939 25.3417 17.1711 25.0645 17.3156 24.7156C17.3546 24.6215 17.3873 24.4841 17.4053 24.217C17.4236 23.9443 17.424 23.5926 17.424 23.077V23.05V23.05C17.424 22.3782 17.424 21.8221 17.4467 21.3581C16.9898 21.4601 16.5066 21.5093 16 21.5093C14.4712 21.5093 13.2611 20.8973 12.4495 20.307C12.0423 20.0109 11.7275 19.7148 11.5129 19.4908C11.4053 19.3785 11.322 19.2834 11.264 19.2143C11.2349 19.1798 11.2122 19.1516 11.1958 19.1309L11.176 19.1056L11.1697 19.0974L11.1675 19.0944L11.1666 19.0933L11.1662 19.0927C11.166 19.0925 11.1659 19.0923 11.7333 18.6667L12.3008 18.2411L12.3005 18.2406C12.3006 18.2409 12.3008 18.2411 11.7333 18.6667L11.1659 19.0923C10.9308 18.7789 10.9943 18.3343 11.3077 18.0992C11.621 17.8643 12.0652 17.9276 12.3004 18.2405L12.3002 18.2403L12.3 18.24L12.3081 18.2503C12.3165 18.2609 12.3307 18.2786 12.3506 18.3023C12.3905 18.3499 12.4531 18.4215 12.5371 18.5092C12.7058 18.6852 12.9577 18.9225 13.2839 19.1597C13.9389 19.636 14.8621 20.0907 16 20.0907C16.6721 20.0907 17.2491 19.9849 17.7424 19.7882C17.7483 19.7744 17.7542 19.7607 17.7603 19.747C18.1535 18.8615 18.8615 18.1535 19.747 17.7603C20.1643 17.5751 20.6139 17.4973 21.1323 17.4602C21.6389 17.424 22.2655 17.424 23.05 17.424H23.05H23.077C23.5926 17.424 23.9443 17.4236 24.217 17.4053C24.4841 17.3873 24.6215 17.3546 24.7156 17.3156C25.0645 17.1711 25.3417 16.8939 25.4863 16.5449C25.5096 16.4887 25.5305 16.4181 25.5473 16.3159C25.6 15.2879 25.6 14.0082 25.6 12.3077C25.6 10.7808 25.6 10.0173 25.4068 9.39731C24.9897 8.05862 23.9414 7.01034 22.6027 6.59319C21.9827 6.39999 21.2193 6.39999 19.6923 6.39999H13.2267C10.8371 6.39999 9.64236 6.39999 8.72967 6.86503C7.92684 7.27409 7.27412 7.92681 6.86506 8.72963ZM25.229 18.6383C24.94 18.7529 24.6378 18.7989 24.3121 18.8208C23.9862 18.8427 23.5867 18.8427 23.1012 18.8427H23.077C22.2594 18.8427 21.6835 18.8431 21.2335 18.8753C20.7896 18.907 20.5255 18.9669 20.3227 19.0569C19.7585 19.3074 19.3074 19.7585 19.0569 20.3227C18.9669 20.5255 18.907 20.7896 18.8753 21.2335C18.8431 21.6835 18.8427 22.2594 18.8427 23.077V23.1012C18.8427 23.5867 18.8427 23.9862 18.8208 24.3121C18.7989 24.6378 18.7529 24.9399 18.6383 25.2289C18.7118 25.2088 18.7844 25.1877 18.8561 25.1653C21.8681 24.2267 24.2267 21.8681 25.1653 18.856C25.1877 18.7844 25.2089 18.7118 25.229 18.6383ZM14.4 13.6667C14.4 14.5871 13.803 15.3333 13.0667 15.3333C12.3303 15.3333 11.7333 14.5871 11.7333 13.6667C11.7333 12.7462 12.3303 12 13.0667 12C13.803 12 14.4 12.7462 14.4 13.6667ZM20.2667 13.6667C20.2667 14.5871 19.6697 15.3333 18.9333 15.3333C18.1969 15.3333 17.6 14.5871 17.6 13.6667C17.6 12.7462 18.1969 12 18.9333 12C19.6697 12 20.2667 12.7462 20.2667 13.6667Z" fill="white"/>
</svg>
