<svg xmlns="http://www.w3.org/2000/svg" width="24" height="24" fill="none"><path fill="#717579" d="M9 6.2c0-.576-.001-.949-.024-1.232-.023-.272-.06-.373-.085-.422a1 1 0 0 0-.437-.437c-.05-.025-.15-.062-.422-.085A17 17 0 0 0 6.8 4h-.6c-.576 0-.949.001-1.232.024-.272.023-.373.06-.422.085a1 1 0 0 0-.437.437c-.025.05-.062.15-.085.422C4.001 5.25 4 5.624 4 6.2v.6c0 .576.001.949.024 1.232.023.272.06.373.085.422a1 1 0 0 0 .437.437c.05.025.15.062.422.085C5.25 8.999 5.624 9 6.2 9h.6c.576 0 .949-.001 1.232-.024.272-.023.373-.06.422-.085a1 1 0 0 0 .437-.437c.025-.05.062-.15.085-.422C8.999 7.75 9 7.376 9 6.8zm2 .6c0 .543.001 1.012-.03 1.395-.033.396-.104.789-.297 1.167a3 3 0 0 1-1.31 1.31c-.379.194-.772.265-1.168.298C7.812 11 7.343 11 6.8 11h-.6c-.543 0-1.012.001-1.395-.03-.396-.033-.789-.104-1.167-.297a3 3 0 0 1-1.31-1.31c-.194-.379-.265-.772-.298-1.168C2 7.812 2 7.343 2 6.8v-.6c0-.543-.001-1.012.03-1.395.033-.396.104-.789.297-1.167a3 3 0 0 1 1.31-1.31c.379-.194.772-.265 1.168-.298C5.188 2 5.657 2 6.2 2h.6c.543 0 1.012-.001 1.395.03.396.033.789.104 1.167.297a3 3 0 0 1 1.31 1.31c.194.379.265.772.298 1.168.031.383.03.852.03 1.395zM9 17.2c0-.576-.001-.949-.024-1.232-.023-.272-.06-.373-.085-.422a1 1 0 0 0-.437-.437c-.05-.025-.15-.062-.422-.085A17 17 0 0 0 6.8 15h-.6c-.576 0-.949.001-1.232.024-.272.023-.373.06-.422.085a1 1 0 0 0-.437.437c-.025.05-.062.15-.085.422C4.001 16.25 4 16.624 4 17.2v.6c0 .576.001.949.024 1.232.023.272.06.373.085.422.096.188.249.34.437.437.05.025.15.062.422.085.283.023.656.024 1.232.024h.6c.576 0 .949-.001 1.232-.024.272-.023.373-.06.422-.085a1 1 0 0 0 .437-.437c.025-.05.062-.15.085-.422.023-.283.024-.656.024-1.232zm2 .6c0 .543.001 1.012-.03 1.395-.033.396-.104.789-.297 1.167a3 3 0 0 1-1.31 1.31c-.379.194-.772.265-1.168.298C7.812 22 7.343 22 6.8 22h-.6c-.543 0-1.012.001-1.395-.03-.396-.033-.789-.104-1.167-.297a3 3 0 0 1-1.31-1.31c-.194-.379-.265-.772-.298-1.168C2 18.812 2 18.343 2 17.8v-.6c0-.543-.001-1.012.03-1.395.033-.396.104-.789.297-1.167a3 3 0 0 1 1.31-1.31c.379-.194.772-.265 1.168-.298C5.188 13 5.657 13 6.2 13h.6c.543 0 1.012-.001 1.395.03.396.033.789.104 1.167.297a3 3 0 0 1 1.31 1.31c.194.379.265.772.298 1.168.031.383.03.852.03 1.395zM20 6.2c0-.576-.001-.949-.024-1.232-.023-.272-.06-.373-.085-.422a1 1 0 0 0-.437-.437c-.05-.025-.15-.062-.422-.085A17 17 0 0 0 17.8 4h-.6c-.576 0-.949.001-1.232.024-.272.023-.373.06-.422.085a1 1 0 0 0-.437.437c-.025.05-.062.15-.085.422C15.001 5.25 15 5.624 15 6.2v.6c0 .576.001.949.024 1.232.023.272.06.373.085.422.096.188.249.34.437.437.05.025.15.062.422.085.283.023.656.024 1.232.024h.6c.576 0 .949-.001 1.232-.024.272-.023.373-.06.422-.085a1 1 0 0 0 .437-.437c.025-.05.062-.15.085-.422.023-.283.024-.656.024-1.232zm2 .6c0 .543.001 1.012-.03 1.395-.033.396-.104.789-.297 1.167a3 3 0 0 1-1.31 1.31c-.379.194-.772.265-1.168.298-.383.031-.852.03-1.395.03h-.6c-.543 0-1.012.001-1.395-.03-.396-.033-.789-.104-1.167-.297a3 3 0 0 1-1.31-1.31c-.194-.379-.265-.772-.298-1.168C13 7.812 13 7.343 13 6.8v-.6c0-.543-.001-1.012.03-1.395.033-.396.104-.789.297-1.167a3 3 0 0 1 1.31-1.31c.379-.194.772-.265 1.168-.298C16.188 2 16.657 2 17.2 2h.6c.543 0 1.012-.001 1.395.03.396.033.789.104 1.167.297a3 3 0 0 1 1.31 1.31c.194.379.265.772.298 1.168.031.383.03.852.03 1.395zM17.75 16.25h-.5a1 1 0 0 0-1 1v.5a1 1 0 0 0 1 1h.5a1 1 0 0 0 1-1v-.5a1 1 0 0 0-1-1M15 13.5h-.5a1 1 0 0 0-1 1v.5a1 1 0 0 0 1 1h.5a1 1 0 0 0 1-1v-.5a1 1 0 0 0-1-1M15 19h-.5a1 1 0 0 0-1 1v.5a1 1 0 0 0 1 1h.5a1 1 0 0 0 1-1V20a1 1 0 0 0-1-1M20.5 13.5H20a1 1 0 0 0-1 1v.5a1 1 0 0 0 1 1h.5a1 1 0 0 0 1-1v-.5a1 1 0 0 0-1-1M20.5 19H20a1 1 0 0 0-1 1v.5a1 1 0 0 0 1 1h.5a1 1 0 0 0 1-1V20a1 1 0 0 0-1-1"/></svg>