<svg width="72" height="72" xmlns="http://www.w3.org/2000/svg"><g fill="none" fill-rule="evenodd"><path d="M0 26.88c0-9.409 0-14.113 1.831-17.707a16.8 16.8 0 0 1 7.342-7.342C12.767 0 17.471 0 26.88 0h18.24c9.409 0 14.113 0 17.707 1.831a16.8 16.8 0 0 1 7.342 7.342C72 12.767 72 17.471 72 26.88v18.24c0 9.409 0 14.113-1.831 17.707a16.8 16.8 0 0 1-7.342 7.342C59.233 72 54.529 72 45.12 72H26.88c-9.409 0-14.113 0-17.707-1.831a16.8 16.8 0 0 1-7.342-7.342C0 59.233 0 54.529 0 45.12V26.88Z" fill="#007AFF"/><path d="M60 36c0 13.255-10.745 24-24 24S12 49.255 12 36s10.745-24 24-24 24 10.745 24 24Zm-16.487 2.47c-.56 1.304-.839 1.956-1.246 2.51a6 6 0 0 1-1.286 1.287c-.555.407-1.207.687-2.51 1.246l-6.441 2.76c-3.444 1.476-5.165 2.213-6.231 1.873a3 3 0 0 1-1.945-1.945c-.34-1.066.397-2.787 1.873-6.23l2.76-6.441c.56-1.304.839-1.956 1.246-2.51a6 6 0 0 1 1.286-1.287c.555-.407 1.207-.687 2.51-1.246l6.441-2.76c3.444-1.476 5.165-2.213 6.231-1.873a3 3 0 0 1 1.945 1.945c.34 1.066-.397 2.787-1.873 6.23l-2.76 6.441ZM36 39a3 3 0 1 0 0-6 3 3 0 0 0 0 6Z" fill="#FFF"/></g></svg>