<svg width="72" height="72" xmlns="http://www.w3.org/2000/svg"><g fill="none" fill-rule="evenodd"><path d="M0 26.88c0-9.409 0-14.113 1.831-17.707a16.8 16.8 0 0 1 7.342-7.342C12.767 0 17.471 0 26.88 0h18.24c9.409 0 14.113 0 17.707 1.831a16.8 16.8 0 0 1 7.342 7.342C72 12.767 72 17.471 72 26.88v18.24c0 9.409 0 14.113-1.831 17.707a16.8 16.8 0 0 1-7.342 7.342C59.233 72 54.529 72 45.12 72H26.88c-9.409 0-14.113 0-17.707-1.831a16.8 16.8 0 0 1-7.342-7.342C0 59.233 0 54.529 0 45.12V26.88Z" fill="#FF9500"/><path d="M43.626 13.237a4.8 4.8 0 1 1 8.747 3.957 4.8 4.8 0 0 1-8.747-3.957ZM12.491 40.775a4.8 4.8 0 1 0-.983-9.55 4.8 4.8 0 0 0 .983 9.55Zm39.098 12.82a4.802 4.802 0 0 0-7.746 5.59 4.8 4.8 0 1 0 7.746-5.59ZM36 12c1.542 0 3.05.145 4.51.423a7.994 7.994 0 0 0 13.65 7.886 23.898 23.898 0 0 1 5.759 13.699h-9.656C49.293 26.998 43.277 21.6 36 21.6a14.36 14.36 0 0 0-5.408 1.05l-4.828-8.364A23.907 23.907 0 0 1 36 12ZM19.992 36a7.994 7.994 0 0 1-6.667 7.883 24.064 24.064 0 0 0 8.99 11.836l4.829-8.364A14.375 14.375 0 0 1 21.6 36c0-4.613 2.17-8.72 5.544-11.355l-4.829-8.364a24.064 24.064 0 0 0-8.99 11.836A7.994 7.994 0 0 1 19.992 36Zm24.012 13.863a7.994 7.994 0 0 1 10.156 1.828 23.898 23.898 0 0 0 5.759-13.699h-9.656C49.293 45.002 43.277 50.4 36 50.4a14.36 14.36 0 0 1-5.408-1.05l-4.828 8.364A23.907 23.907 0 0 0 36 60c1.542 0 3.05-.145 4.51-.423a7.994 7.994 0 0 1 3.494-9.714Z" fill="#FFF"/></g></svg>