<svg width="24" height="24" viewBox="0 0 24 24" fill="none" xmlns="http://www.w3.org/2000/svg">
<rect width="24" height="24" rx="6" fill="#1A1F71"/>
<path d="M9.29224 9.01036L6.78531 14.9837H5.14497L3.90698 10.2174C3.84508 9.93886 3.75223 9.81505 3.53558 9.69126C3.16419 9.50556 2.54519 9.28891 2.01904 9.19606L2.04999 9.01036H4.68072C5.02117 9.01036 5.33067 9.22701 5.39257 9.62936L6.04251 13.0957L7.6519 9.04131H9.29224V9.01036ZM15.6988 13.0338C15.6988 11.4554 13.5324 11.3625 13.5324 10.6816C13.5324 10.465 13.749 10.2484 14.1823 10.1865C14.399 10.1555 15.0179 10.1246 15.6988 10.465L15.9774 9.19606C15.606 9.07226 15.1417 8.91751 14.5228 8.91751C13.0062 8.91751 11.923 9.72221 11.923 10.8983C11.923 11.7649 12.6967 12.2291 13.2848 12.5077C13.8728 12.7862 14.0895 12.9719 14.0895 13.2505C14.0895 13.6528 13.6252 13.8385 13.161 13.8385C12.3872 13.8385 11.923 13.6219 11.5825 13.4671L11.304 14.767C11.6754 14.9218 12.3253 15.0765 13.0062 15.0765C14.6156 15.0765 15.6679 14.2718 15.6988 13.0338ZM19.7223 14.9837H21.146L19.908 9.01036H18.5772C18.2677 9.01036 18.0201 9.19606 17.9272 9.44366L15.606 14.9837H17.2154L17.5249 14.0861H19.5057L19.7223 14.9837ZM17.9891 12.8791L18.7938 10.6507L19.2581 12.8791H17.9891ZM11.4897 9.01036L10.2207 14.9837H8.67324L9.94219 9.01036H11.4897Z" fill="white"/>
</svg>
