<svg width="72" height="72" xmlns="http://www.w3.org/2000/svg"><g fill="none" fill-rule="evenodd"><path d="M0 26.88c0-9.409 0-14.113 1.831-17.707a16.8 16.8 0 0 1 7.342-7.342C12.767 0 17.471 0 26.88 0h18.24c9.409 0 14.113 0 17.707 1.831a16.8 16.8 0 0 1 7.342 7.342C72 12.767 72 17.471 72 26.88v18.24c0 9.409 0 14.113-1.831 17.707a16.8 16.8 0 0 1-7.342 7.342C59.233 72 54.529 72 45.12 72H26.88c-9.409 0-14.113 0-17.707-1.831a16.8 16.8 0 0 1-7.342-7.342C0 59.233 0 54.529 0 45.12V26.88Z" fill="#FF3B30"/><path d="M48.78 23.206c-1.837-3.68.115-7.794 4.114-8.676 3.253-.723 6.623 1.663 7.05 4.967.187 1.446-.095 2.77-.818 4.02-5.929 10.282-11.865 20.556-17.78 30.838-1.098 1.909-2.703 3.066-4.894 3.225-2.459.173-4.39-.854-5.626-2.986-3.752-6.443-7.461-12.907-11.185-19.364-2.263-3.926-4.54-7.852-6.797-11.785-2.277-3.97.29-8.792 4.86-9.03 2.407-.124 4.272.99 5.494 3.08 1.67 2.855 3.312 5.733 4.968 8.596 1.193 2.068 2.364 4.15 3.593 6.19 1.772 2.971 4.39 4.641 7.86 4.851 4.924.29 9.493-3.268 10.086-8.488.043-.39.072-.781.087-.984-.022-1.692-.34-3.116-1.012-4.454Z" fill="#FFF"/></g></svg>