<svg width="72" height="72" xmlns="http://www.w3.org/2000/svg"><g fill="none" fill-rule="evenodd"><path d="M0 26.88c0-9.409 0-14.113 1.831-17.707a16.8 16.8 0 0 1 7.342-7.342C12.767 0 17.471 0 26.88 0h18.24c9.409 0 14.113 0 17.707 1.831a16.8 16.8 0 0 1 7.342 7.342C72 12.767 72 17.471 72 26.88v18.24c0 9.409 0 14.113-1.831 17.707a16.8 16.8 0 0 1-7.342 7.342C59.233 72 54.529 72 45.12 72H26.88c-9.409 0-14.113 0-17.707-1.831a16.8 16.8 0 0 1-7.342-7.342C0 59.233 0 54.529 0 45.12V26.88Z" fill="#007AFF"/><path d="M14.662 15.71c-.262.514-.262 1.186-.262 2.53v11.52c0 1.344 0 2.016.262 2.53a2.4 2.4 0 0 0 1.048 1.048c.514.262 1.186.262 2.53.262h11.52c1.344 0 2.016 0 2.53-.262a2.4 2.4 0 0 0 1.048-1.048c.262-.514.262-1.186.262-2.53V18.24c0-1.344 0-2.016-.262-2.53a2.4 2.4 0 0 0-1.048-1.048c-.514-.262-1.186-.262-2.53-.262H18.24c-1.344 0-2.016 0-2.53.262a2.4 2.4 0 0 0-1.048 1.048Zm0 24c-.262.514-.262 1.186-.262 2.53v11.52c0 1.344 0 2.016.262 2.53a2.4 2.4 0 0 0 1.048 1.048c.514.262 1.186.262 2.53.262h11.52c1.344 0 2.016 0 2.53-.262a2.4 2.4 0 0 0 1.048-1.048c.262-.514.262-1.186.262-2.53V42.24c0-1.344 0-2.016-.262-2.53a2.4 2.4 0 0 0-1.048-1.048c-.514-.262-1.186-.262-2.53-.262H18.24c-1.344 0-2.016 0-2.53.262a2.4 2.4 0 0 0-1.048 1.048ZM38.4 42.24c0-1.344 0-2.016.262-2.53a2.4 2.4 0 0 1 1.048-1.048c.514-.262 1.186-.262 2.53-.262h11.52c1.344 0 2.016 0 2.53.262a2.4 2.4 0 0 1 1.048 1.048c.262.514.262 1.186.262 2.53v11.52c0 1.344 0 2.016-.262 2.53a2.4 2.4 0 0 1-1.048 1.048c-.514.262-1.186.262-2.53.262H42.24c-1.344 0-2.016 0-2.53-.262a2.4 2.4 0 0 1-1.048-1.048c-.262-.514-.262-1.186-.262-2.53V42.24Zm.262-26.53c-.262.514-.262 1.186-.262 2.53v11.52c0 1.344 0 2.016.262 2.53a2.4 2.4 0 0 0 1.048 1.048c.514.262 1.186.262 2.53.262h11.52c1.344 0 2.016 0 2.53-.262a2.4 2.4 0 0 0 1.048-1.048c.262-.514.262-1.186.262-2.53V18.24c0-1.344 0-2.016-.262-2.53a2.4 2.4 0 0 0-1.048-1.048c-.514-.262-1.186-.262-2.53-.262H42.24c-1.344 0-2.016 0-2.53.262a2.4 2.4 0 0 0-1.048 1.048Z" fill="#FFF"/></g></svg>