<svg xmlns="http://www.w3.org/2000/svg" xmlns:xlink="http://www.w3.org/1999/xlink" viewBox="0 0 48 60" width="48" height="60" class="lottie-svg" preserveAspectRatio="xMidYMid meet" style="width: 100%; height: 100%; transform: translate3d(0px, 0px, 0px); content-visibility: visible;"><defs><clipPath id="__lottie_element_17"><rect width="48" height="60" x="0" y="0"></rect></clipPath><clipPath id="__lottie_element_19"><path d="M0,0 L512,0 L512,512 L0,512z"></path></clipPath></defs><g clip-path="url(#__lottie_element_17)"><g clip-path="url(#__lottie_element_19)" transform="matrix(0.0949999988079071,0,0,0.0949999988079071,-0.31999969482421875,18.68000030517578)" opacity="1" style="display: block;"><g transform="matrix(1,0,0,1,291,256)" opacity="1" style="display: block;"><g opacity="1" transform="matrix(1,0,0,1,0,0)"><path fill="rgb(0,0,0)" fill-opacity="1" d=" M102.4000015258789,-32 C120.072998046875,-32 134.39999389648438,-17.67300033569336 134.39999389648438,0 C134.39999389648438,17.67300033569336 120.072998046875,32 102.4000015258789,32 C84.72699737548828,32 70.4000015258789,17.67300033569336 70.4000015258789,0 C70.4000015258789,-17.67300033569336 84.72699737548828,-32 102.4000015258789,-32z"></path></g></g><g transform="matrix(1,0,0,1,256,256)" opacity="1" style="display: block;"><g opacity="1" transform="matrix(1,0,0,1,0,0)"><path fill="rgb(0,0,0)" fill-opacity="1" d=" M0,-32 C17.67300033569336,-32 32,-17.67300033569336 32,0 C32,17.67300033569336 17.67300033569336,32 0,32 C-17.67300033569336,32 -32,17.67300033569336 -32,0 C-32,-17.67300033569336 -17.67300033569336,-32 0,-32z"></path></g></g><g transform="matrix(1,0,0,1,221,256)" opacity="1" style="display: block;"><g opacity="1" transform="matrix(1,0,0,1,0,0)"><path fill="rgb(0,0,0)" fill-opacity="1" d=" M-102.4000015258789,-32 C-84.72699737548828,-32 -70.4000015258789,-17.67300033569336 -70.4000015258789,0 C-70.4000015258789,17.67300033569336 -84.72699737548828,32 -102.4000015258789,32 C-120.072998046875,32 -134.39999389648438,17.67300033569336 -134.39999389648438,0 C-134.39999389648438,-17.67300033569336 -120.072998046875,-32 -102.4000015258789,-32z"></path></g></g></g></g></svg>