<svg xmlns="http://www.w3.org/2000/svg" width="84" height="84"><defs><linearGradient id="a" x1="50%" x2="50%" y1="0%" y2="100%"><stop offset="0%" stop-color="#FFDB5C"/><stop offset="100%" stop-color="#EA5800"/></linearGradient><linearGradient id="b" x1="50%" x2="50%" y1="0%" y2="99.014%"><stop offset="0%" stop-color="#F2A807"/><stop offset="100%" stop-color="#D93A00"/></linearGradient></defs><g fill="none" fill-rule="evenodd"><path fill="url(#a)" stroke="url(#b)" stroke-width="2.842" d="M42 4.421c10.668 0 20.33 3.974 27.322 10.412C76.27 21.23 80.579 30.065 80.579 39.83c0 9.766-4.31 18.6-11.257 24.998C62.329 71.266 52.668 75.24 42 75.24a41.635 41.635 0 0 1-13.407-2.197l-.563.355c-1.823 1.139-3.428 2.067-4.816 2.782-3.231 1.666-7.317 2.767-12.24 3.33l-.636.07c2.004-4.03 3.32-6.75 3.84-8.348.586-1.794.88-3.57 1.006-5.203.018-.232.033-.467.044-.706a37.29 37.29 0 0 1-.5-.451C7.75 58.472 3.42 49.619 3.42 39.83c0-9.765 4.31-18.6 11.257-24.997C21.671 8.395 31.332 4.42 42 4.42Z"/><path fill="#F9FF71" d="M9.68 24.614a.501.501 0 0 0 .73-.006C20.518 13.728 31.314 8.501 42.8 8.93c11.46.427 22.125 6.44 31.995 18.037a.693.693 0 0 0 .941.106.705.705 0 0 0 .174-.944C67.782 13.338 56.745 6.691 42.8 6.188 28.822 5.686 17.759 11.55 9.607 23.78a.669.669 0 0 0 .074.834Z" opacity=".375"/></g></svg>