<svg xmlns="http://www.w3.org/2000/svg" xmlns:xlink="http://www.w3.org/1999/xlink" viewBox="0 0 512 512" width="512" height="512" class="lottie-svg" preserveAspectRatio="xMidYMid meet" style="width: 100%; height: 100%; transform: translate3d(0px, 0px, 0px); content-visibility: visible;"><defs><clipPath id="__lottie_element_31"><rect width="512" height="512" x="0" y="0"></rect></clipPath><clipPath id="__lottie_element_33"><path d="M0,0 L512,0 L512,512 L0,512z"></path></clipPath><clipPath id="__lottie_element_50"><path d="M0,0 L512,0 L512,512 L0,512z"></path></clipPath></defs><g clip-path="url(#__lottie_element_31)"><g class="2" clip-path="url(#__lottie_element_50)" transform="matrix(1,0,0,1,0,0)" opacity="1" style="display: block;"><g transform="matrix(1.0199999809265137,0,0,0.9900000095367432,255.99996948242188,258.27557373046875)" opacity="1" style="display: block;"><g opacity="1" transform="matrix(1,0,0,1,0,0)"><path fill="rgb(255,255,255)" fill-opacity="1" d=" M170.67100524902344,40.766998291015625 C170.67100524902344,40.766998291015625 170.66700744628906,170.66700744628906 170.66700744628906,170.66700744628906 C170.66700744628906,202.08599853515625 145.19700622558594,227.55599975585938 113.77799987792969,227.55599975585938 C113.77799987792969,227.55599975585938 -113.77799987792969,227.55599975585938 -113.77799987792969,227.55599975585938 C-145.19700622558594,227.55599975585938 -170.66700744628906,202.08599853515625 -170.66700744628906,170.66700744628906 C-170.66700744628906,170.66700744628906 -170.66700744628906,43.17900085449219 -170.66700744628906,43.17900085449219 C-170.66700744628906,43.17900085449219 166.18800354003906,41.362998962402344 166.18800354003906,41.362998962402344 C167.73699951171875,41.35499954223633 169.23899841308594,41.14799880981445 170.67100524902344,40.766998291015625z"></path></g></g><g transform="matrix(1.0199999809265137,0,0,0.9900000095367432,255.99996948242188,278.4794921875)" opacity="1" style="display: block;"><g opacity="1" transform="matrix(1,0,0,1,0,0)"><path fill="rgb(255,255,255)" fill-opacity="1" d=" M184.88900756835938,-106.66699981689453 C184.88900756835938,-106.66699981689453 127.552001953125,-106.67400360107422 127.552001953125,-106.67400360107422 C127.552001953125,-106.67400360107422 129.22799682617188,-108.29000091552734 129.22799682617188,-108.29000091552734 C134.68299865722656,-113.81199645996094 139.05599975585938,-120.13999938964844 142.3470001220703,-127.2760009765625 C146.0500030517578,-135.3040008544922 147.9010009765625,-144.10400390625 147.9010009765625,-153.67599487304688 C147.9010009765625,-167.72300720214844 144.37100219726562,-180.2220001220703 137.31100463867188,-191.17100524902344 C130.25100708007812,-202.1199951171875 120.78500366210938,-210.6840057373047 108.91100311279297,-216.86399841308594 C97.03700256347656,-223.04400634765625 83.74800109863281,-226.13299560546875 69.04100036621094,-226.13299560546875 C52.84199905395508,-226.13299560546875 38.4630012512207,-222.0030059814453 25.90399932861328,-213.7429962158203 C13.345000267028809,-205.48300170898438 4.269000053405762,-193.7969970703125 -1.3229999542236328,-178.68899536132812 C-6.914999961853027,-193.7969970703125 -16.027999877929688,-205.48300170898438 -28.65999984741211,-213.7429962158203 C-41.29199981689453,-222.0030059814453 -55.70600128173828,-226.13299560546875 -71.9020004272461,-226.13299560546875 C-86.46800231933594,-226.13299560546875 -99.7229995727539,-223.04400634765625 -111.66699981689453,-216.86399841308594 C-123.61100006103516,-210.6840057373047 -133.11300659179688,-202.1199951171875 -140.1739959716797,-191.17100524902344 C-147.23500061035156,-180.2220001220703 -150.76600646972656,-167.72300720214844 -150.76600646972656,-153.67599487304688 C-150.76600646972656,-144.10400390625 -148.9149932861328,-135.3040008544922 -145.21200561523438,-127.2760009765625 C-141.59300231933594,-119.43000030517578 -136.6649932861328,-112.55999755859375 -130.42799377441406,-106.66500091552734 C-130.42799377441406,-106.66500091552734 -184.88900756835938,-106.66699981689453 -184.88900756835938,-106.66699981689453 C-200.59800720214844,-106.66699981689453 -213.33299255371094,-93.93099975585938 -213.33299255371094,-78.22200012207031 C-213.33299255371094,-78.22200012207031 -213.33299255371094,-42.66699981689453 -213.33299255371094,-42.66699981689453 C-213.33299255371094,-26.95800018310547 -200.59800720214844,-14.222000122070312 -184.88900756835938,-14.222000122070312 C-184.88900756835938,-14.222000122070312 166.6280059814453,-14.222000122070312 166.6280059814453,-14.222000122070312 C166.6280059814453,-14.222000122070312 167.7969970703125,-14.184000015258789 167.7969970703125,-14.184000015258789 C168.7790069580078,-14.119999885559082 169.74000549316406,-13.97700023651123 170.6719970703125,-13.760000228881836 C170.6719970703125,-13.760000228881836 170.66700744628906,-14.222000122070312 170.66700744628906,-14.222000122070312 C170.66700744628906,-14.222000122070312 184.88900756835938,-14.222000122070312 184.88900756835938,-14.222000122070312 C200.59800720214844,-14.222000122070312 213.33299255371094,-26.95800018310547 213.33299255371094,-42.66699981689453 C213.33299255371094,-42.66699981689453 213.33299255371094,-78.22200012207031 213.33299255371094,-78.22200012207031 C213.33299255371094,-93.93099975585938 200.59800720214844,-106.66699981689453 184.88900756835938,-106.66699981689453z M-21.261999130249023,-106.67400360107422 C-21.261999130249023,-106.67400360107422 -64.24400329589844,-106.66300201416016 -64.24400329589844,-106.66300201416016 C-77.49099731445312,-107.93800354003906 -88.08499908447266,-112.21700286865234 -96.0270004272461,-119.4990005493164 C-105.65499877929688,-128.32699584960938 -110.46800231933594,-138.6909942626953 -110.46800231933594,-150.5919952392578 C-110.46800231933594,-162.23699951171875 -106.58899688720703,-171.35699462890625 -98.83000183105469,-177.95199584960938 C-91.07099914550781,-184.5469970703125 -81.0250015258789,-187.84500122070312 -68.69100189208984,-187.84500122070312 C-55.61199951171875,-187.84500122070312 -44.4370002746582,-183.25599670410156 -35.16600036621094,-174.0780029296875 C-35.16600036621094,-174.0780029296875 -33.74100112915039,-172.6020050048828 -33.74100112915039,-172.6020050048828 C-25.420000076293945,-163.593994140625 -21.260000228881836,-151.77200317382812 -21.260000228881836,-137.13499450683594 C-21.260000228881836,-137.13499450683594 -21.261999130249023,-106.67400360107422 -21.261999130249023,-106.67400360107422z M93.1510009765625,-119.4990005493164 C93.1510009765625,-119.4990005493164 91.6780014038086,-118.20800018310547 91.6780014038086,-118.20800018310547 C83.9209976196289,-111.70899963378906 73.8219985961914,-107.86100006103516 61.37900161743164,-106.66300201416016 C61.37900161743164,-106.66300201416016 21.33300018310547,-106.67400360107422 21.33300018310547,-106.67400360107422 C21.33300018310547,-106.67400360107422 21.34600067138672,-139.3209991455078 21.34600067138672,-139.3209991455078 C21.51300048828125,-153.75100708007812 23.47599983215332,-165.33700561523438 32.31399917602539,-174.0780029296875 C41.59400177001953,-183.25599670410156 52.83599853515625,-187.84500122070312 66.04000091552734,-187.84500122070312 C78.23300170898438,-187.84500122070312 88.20500183105469,-184.5469970703125 95.95500183105469,-177.95199584960938 C103.70500183105469,-171.35699462890625 107.58100128173828,-162.23699951171875 107.58100128173828,-150.5919952392578 C107.58100128173828,-138.6909942626953 102.77100372314453,-128.32699584960938 93.1510009765625,-119.4990005493164z"></path></g></g></g><g clip-path="url(#__lottie_element_33)" style="display: none;"><g style="display: none;"><g><path></path></g></g><g style="display: none;"><g><path></path></g></g><g style="display: none;"><g><path></path></g></g><g style="display: none;"><g><path></path></g></g></g></g></svg>