<svg width="42" height="42" viewBox="0 0 42 42" fill="none" xmlns="http://www.w3.org/2000/svg">
<g clip-path="url(#clip0_2257_22597)">
<g clip-path="url(#clip1_2257_22597)">
<circle cx="21" cy="21" r="21" fill="url(#paint0_linear_2257_22597)"/>
<path d="M19.8104 14.6024H18.0718C17.186 14.6024 16.4983 14.378 16.0088 13.9292C15.5193 13.4803 15.2745 12.9533 15.2745 12.3482C15.2745 11.7561 15.4718 11.2924 15.8663 10.9571C16.2608 10.6218 16.7716 10.4541 17.3987 10.4541C18.0637 10.4541 18.6319 10.6874 19.1033 11.1541C19.5747 11.6208 19.8104 12.2469 19.8104 13.0324V14.6024H21.976V13.0324C21.976 12.2469 22.0625 11.6208 22.5343 11.1541C23.0061 10.6874 23.5777 10.4541 24.2491 10.4541C24.8691 10.4541 25.3761 10.6218 25.7702 10.9571C26.1642 11.2924 26.3613 11.7561 26.3613 12.3482C26.3613 12.9533 26.1167 13.4803 25.6276 13.9292C25.1384 14.378 24.4509 14.6024 23.5651 14.6024H21.976H27.3553C27.6828 14.2981 27.9407 13.9419 28.1289 13.5337C28.3172 13.1255 28.4113 12.6781 28.4113 12.1914C28.4113 11.4772 28.2318 10.8417 27.8729 10.285C27.5139 9.72829 27.0326 9.29283 26.4289 8.97863C25.8252 8.66443 25.1494 8.50732 24.4017 8.50732C23.5781 8.50732 22.8469 8.71733 22.2084 9.13733C21.5698 9.55734 21.1083 10.1514 20.824 10.9196C20.5397 10.1514 20.0764 9.55734 19.4341 9.13733C18.7918 8.71733 18.0589 8.50732 17.2354 8.50732C16.4948 8.50732 15.8209 8.66443 15.2136 8.97863C14.6063 9.29283 14.1231 9.72829 13.7641 10.285C13.4051 10.8417 13.2256 11.4772 13.2256 12.1914C13.2256 12.6781 13.3197 13.1255 13.508 13.5337C13.6962 13.9419 13.9542 14.2981 14.2818 14.6024H19.8104Z" fill="white"/>
<path fill-rule="evenodd" clip-rule="evenodd" d="M19.8064 14.5815V17.6802C19.8064 17.7095 19.8136 17.7383 19.8271 17.7642C19.8735 17.8526 19.9828 17.8867 20.0712 17.8403L20.5552 17.5864C20.7656 17.476 21.0167 17.476 21.2271 17.5864L21.7111 17.8403C21.737 17.8539 21.7658 17.861 21.7951 17.861C21.8949 17.861 21.9758 17.7801 21.9758 17.6802V14.5815H30.2918C31.0906 14.5815 31.7381 15.2291 31.7381 16.0278V18.9203C31.7381 19.7191 31.0906 20.3666 30.2918 20.3666H29.5687L29.5689 20.3847C29.5104 20.3728 29.4499 20.3666 29.3879 20.3666L25.8529 20.366C26.5257 20.5657 26.9995 21.1976 26.9801 21.9201L26.9762 21.9965C26.9717 22.0565 26.9638 22.116 26.9526 22.1745L29.3879 22.1744C29.4499 22.1744 29.5104 22.1682 29.5689 22.1563L29.5687 28.6826C29.5687 30.2801 28.2737 31.5751 26.6762 31.5751H21.9758V28.6307C21.9758 28.4026 21.8683 28.1892 21.688 28.0533L21.6371 28.0182L21.0833 27.6707C20.9658 27.597 20.8165 27.597 20.699 27.6707L20.1452 28.0182C19.9344 28.1505 19.8064 28.3819 19.8064 28.6307V31.5751H15.1061C13.5086 31.5751 12.2136 30.2801 12.2136 28.6826V22.1744L14.8451 22.1744C14.7668 21.7644 14.8508 21.3259 15.1086 20.9637L15.1625 20.8923C15.3642 20.64 15.6365 20.4579 15.9408 20.3664L12.0328 20.3666H11.4905C10.6917 20.3666 10.0442 19.7191 10.0442 18.9203V16.0278C10.0442 15.2291 10.6917 14.5815 11.4905 14.5815H19.8064ZM20.4384 18.8781L19.4062 21.2551C19.3332 21.4233 19.173 21.5371 18.9902 21.5507L16.3585 21.7472C16.2217 21.7574 16.0954 21.8241 16.0097 21.9312C15.8395 22.1441 15.8741 22.4547 16.0871 22.6249L16.953 23.3172C17.3653 23.6467 17.8959 23.7903 18.418 23.7135L20.7654 23.3685C20.8642 23.3539 20.9609 23.4052 21.0043 23.4951C21.0591 23.6087 21.0115 23.7452 20.8979 23.8L18.8772 24.7754C18.4277 24.9924 18.0952 25.3947 17.9667 25.877L17.6241 27.1635C17.5902 27.2906 17.6085 27.4259 17.6749 27.5395C17.8124 27.7749 18.1147 27.8541 18.35 27.7166L20.6421 26.3771C20.796 26.2872 20.9863 26.2872 21.1402 26.3771L23.4512 27.7277C23.5628 27.7929 23.6956 27.8117 23.821 27.7801C24.0853 27.7134 24.2455 27.4451 24.1788 27.1808L23.5629 24.7403C23.516 24.5542 23.5812 24.3577 23.7301 24.2366L25.7137 22.6234C25.819 22.5378 25.8844 22.4126 25.8945 22.2773C25.9148 22.0054 25.7109 21.7686 25.439 21.7483L22.7921 21.5507C22.6093 21.5371 22.4491 21.4233 22.3761 21.2551L21.3439 18.8781C21.294 18.7634 21.2025 18.6718 21.0877 18.622C20.8377 18.5134 20.547 18.6281 20.4384 18.8781Z" fill="white"/>
</g>
</g>
<defs>
<linearGradient id="paint0_linear_2257_22597" x1="21" y1="0" x2="21" y2="42" gradientUnits="userSpaceOnUse">
<stop stop-color="#9AD164"/>
<stop offset="1" stop-color="#46BA43"/>
</linearGradient>
<clipPath id="clip0_2257_22597">
<rect width="42" height="42" fill="white"/>
</clipPath>
<clipPath id="clip1_2257_22597">
<rect width="42" height="42" fill="white"/>
</clipPath>
</defs>
</svg>
