<svg xmlns="http://www.w3.org/2000/svg" xmlns:xlink="http://www.w3.org/1999/xlink" viewBox="0 0 512 512" width="100%" height="100%" preserveAspectRatio="xMidYMid meet"><style><![CDATA[.B{fill-opacity:0}.C{stroke-width:8}.D{fill:#dbbf97}.E{fill:#9e763d}.F{stroke-linecap:round}.G{stroke-linejoin:round}.H{stroke-miterlimit:10}.I{stroke:#5e421f}]]></style><defs><clipPath id="A"><path d="M0 0h512v512H0z"/></clipPath><path id="B" d="M125.73-143.02c19.765-1.305 49.02-2.425 71.192 24.943 24.472 30.208 24.943 89.64-22.345 128.873C125.05 51.887 70.647-139.383 125.73-143.02z"/><path id="C" d="M-115.798-143.02c-19.765-1.305-49.02-2.425-71.192 24.943-24.472 30.208-24.943 89.64 22.345 128.873 49.528 41.092 103.93-150.178 48.847-153.816z"/><path id="D" d="M169.587-20.913c-22-43.995-10.358-46.015-23.56-89.9-15.205-50.54-63.475-96.28-140.723-96.28-78.08 0-125.518 45.74-140.723 96.28-13.203 43.885-1.562 45.905-23.56 89.9-24.154 48.305-34.354 180 164.284 180s188.438-131.695 164.284-180z"/><path id="E" d="M-38.523 9.822c0 19.516-11.867 35.336-25.26 35.336s-25.26-15.82-25.26-35.336 11.868-35.336 25.26-35.336 25.26 15.82 25.26 35.336z"/><path id="F" d="M-39.533 4.77c0 19.516-10.857 35.336-24.25 35.336s-24.25-15.82-24.25-35.336 10.857-35.336 24.25-35.336 24.25 15.82 24.25 35.336z"/><path id="G" d="M-50.46-12.676c0 5.7-5.964 1.14-13.322 1.14s-13.323 4.687-13.323-1.14c0-3.63 5.965-10.774 13.323-10.774s13.322 7.145 13.322 10.774z"/><path id="H" d="M-46.7 12.524c0 7.08-7.096 20.748-17.082 20.748s-17.082-13.67-17.082-20.748c0-11.357 7.096-.65 17.082-.65S-46.7.653-46.7 12.524z"/></defs><g clip-path="url(#A)"><g transform="matrix(.95 0 0 .95 256 256)"><use xlink:href="#B" class="E"/><path fill="#edacaa" d="M136.643-115.866s29.1-8.505 45.97 20.01c13.747 23.235 5.3 62.31-16.322 79.935-25.716 20.962-47.376-101.893-29.648-99.944z"/><path stroke="#bc9259" stroke-width="10" d="M203.905-80.406s-4.834-39.746-41.153-49.928" class="B F G"/><use xlink:href="#B" class="B C H I"/><path fill="#db9897" d="M130.917-89.29c42.636-22.157 58.402 27.867 58.402 27.867.01 0 .01-.01.02-.01 1.283-12.428-.607-24.785-6.306-34.425-16.864-28.514-45.964-20.006-45.964-20.006-5.547-.606-7.234 10.983-6.153 26.574z"/><use xlink:href="#C" class="E"/><path stroke="#bc9259" stroke-width="10" d="M-194.126-81.406s4.835-39.746 41.154-49.928" class="B F G"/><use xlink:href="#C" class="B C H I"/><path fill="#edacaa" d="M-126.71-115.866s-29.1-8.505-45.97 20.01c-13.747 23.235-5.3 62.31 16.322 79.935 25.716 20.962 47.377-101.893 29.65-99.944z"/><path fill="#db9897" d="M-120.56-89.29c-42.636-22.157-58.403 27.867-58.403 27.867-.01 0-.01-.01-.02-.01-1.283-12.428.606-24.785 6.305-34.425 16.864-28.514 45.964-20.006 45.964-20.006 5.547-.606 7.235 10.983 6.154 26.574z"/><use xlink:href="#D" class="E"/><path fill="#bc9259" d="M156.1-21.166c-20.194-40.385-9.508-42.24-21.628-82.526-13.957-46.393-58.268-88.38-129.18-88.38-71.675 0-115.22 41.988-129.18 88.38-12.12 40.285-1.434 42.14-21.628 82.526-22.173 44.342-31.536 165.233 150.807 165.233S178.283 23.176 156.1-21.166z"/><path fill="#c79f6b" d="M96.86-148.606C96.86-125.07 56.144-106 5.92-106s-90.937-19.08-90.937-42.616 40.714-42.616 90.937-42.616 90.938 19.08 90.938 42.616z"/><g stroke="#fff" stroke-width="6" class="F G B"><path d="M62.717-181.024l4.7 1.604m-25.837-7.02s4.866.76 12.5 2.832"/></g><use xlink:href="#D" class="B C H I"/><path fill="#f0d8b3" d="M88.58-75.95c-38.8-9.406-66.443 16.66-77.688 30.04-2.922 3.477-8.254 3.477-11.176 0C-11.53-59.3-39.173-85.355-77.973-75.95c-51.445 12.472-59.24 57.162-54.044 80.546 4.854 21.84 22.854 42.776 51.46 53.065 3.452 1.242 5.466 4.826 4.68 8.41-3.47 15.845-10.4 57.35 5.8 80.806 2.812 4.072 7.23 6.765 12.132 7.44 7.382 1.015 20.157 3.777 30.895 11.228 16.975 11.78 32.35 11.057 32.35 11.057s15.376.722 32.35-11.057c10.737-7.45 23.512-10.213 30.894-11.228 4.902-.674 9.32-3.367 12.132-7.44 16.2-23.457 9.27-64.96 5.8-80.806-.785-3.583 1.23-7.167 4.68-8.41 28.607-10.29 46.608-31.224 51.46-53.065 5.197-23.384-2.6-68.074-54.044-80.546z"/><path d="M134.093-35.97c2.546 6.053.112 13.09-5.635 16.267-39.7 21.954-91.39 12.648-113.884 8.057C7.9-13.01 1-12.95-5.62-11.396-61.748 1.767-99.513-12.5-116.496-21.256c-6.244-3.223-8.84-10.87-5.696-17.154 5.486-10.965 17.18-26.97 45.877-34.35C-37.65-82.703-11.532-59.293-.282-45.913a7.28 7.28 0 0 0 11.169 0c11.25-13.38 38.104-35.732 76.904-26.332 26.786 6.5 39.607 20.353 46.302 36.274z" class="D"/><path stroke="#f0d8b3" d="M88.58-75.95c-38.8-9.406-66.443 16.66-77.688 30.04-2.922 3.477-8.254 3.477-11.176 0C-11.53-59.3-39.173-85.355-77.973-75.95c-51.445 12.472-59.24 57.162-54.044 80.546 4.854 21.84 22.854 42.776 51.46 53.065 3.452 1.242 5.466 4.826 4.68 8.41-3.47 15.845-10.4 57.35 5.8 80.806 2.812 4.072 7.23 6.765 12.132 7.44 7.382 1.015 20.157 3.777 30.895 11.228 16.975 11.78 32.35 11.057 32.35 11.057s15.376.722 32.35-11.057c10.737-7.45 23.512-11.213 30.894-12.228 4.902-.674 9.32-2.367 12.132-6.44 16.2-23.457 9.27-64.96 5.8-80.806-.785-3.583 1.23-7.167 4.68-8.41 28.607-10.29 46.608-31.224 51.46-53.065 5.197-23.384-2.6-68.074-54.044-80.546z" class="B C H"/><g opacity=".1" class="E"><path d="M91.856 131.627c-1.67 6.6-5.247 13.887-8.057 17.957s-10.35 4.063-15.25 4.733c-7.38 1-20.16 3.78-30.9 11.23-16.97 11.78-32.35 11.05-32.35 11.05s-15.37.73-32.35-11.05c-10.73-7.45-23.5-10.22-30.9-11.23-4.9-.67-11.11-.62-14.516-4.206-3.84-4.04-7.174-13.34-8.744-18.44 12.3 3.4 49.68 14.097 64.1 22.367 17.93 10.3 37.65 5.66 46.05 0 7.9-5.32 38.057-18.4 62.907-22.4z"/></g><path stroke="#b29572" d="M-70.986 150.908c17.21 5.126 32.147 7.876 43.14 14.836 18.6 11.782 33.15 10.857 33.15 10.857s15.375.722 32.35-11.057c10.182-7.065 25.002-9.856 43.66-14.636" class="B C F G"/><path d="M35.88 85.862c-1.475-.65-6.077-.503-12.714-1.136a210.51 210.51 0 0 0-17.245-.781c-7.087 0-14.793.432-17.48.66-6.643.567-11.362.607-12.837 1.256-2 .88-.382 5.572 2.118 9.367 3.544 5.38 16.605 13.573 28.023 13.573s24.48-8.194 28.023-13.573c2.5-3.795 4.112-8.487 2.112-9.367z" class="D"/><path fill="#fff4e9" d="M34.242 89c-1.648-.214-4.707 1.767-11.59 1.08-2.783-.278-9.37-.795-16.728-.795s-14.228.43-17.014.68c-6.89.618-10.063-1.428-11.66-.964-3.048.885-1.67 8.152.926 11.947 3.678 5.38 15.704 14.734 27.556 14.734s24.142-9.093 27.82-14.472c2.595-3.795 3.876-11.796.688-12.21z"/><path fill="#3f0a24" d="M34.242 89c-1.475-.65-5.106-.575-11.743-1.208-2.684-.256-9.487-.71-16.574-.71s-14.15.366-16.838.595c-6.643.567-10.36.673-11.836 1.322-2 .88-.385 4.635 2.115 8.43 3.544 5.38 14.962 13.573 26.38 13.573s22.837-8.194 26.38-13.573c2.5-3.795 4.115-7.55 2.115-8.43z"/><path fill="#b24660" d="M23.022 105.56c-4.927 3.05-11.105 5.448-17.278 5.448-6.347 0-12.693-2.72-17.685-5.89-.236 0 2.39 1.575 3.8 1.575 6.404 0 13.706.9 13.706.9s7.7-1.777 13.93-.65c1.34.243 4.214-1.382 3.538-1.382z"/><path fill="#040001" d="M34.087 94.056c.378-1.404.247-2.468-.674-2.885-1.435-.65-5.408-.774-11.86-1.364-2.605-.238-8.75-.55-15.627-.55-6.884 0-13.304.233-15.917.446-6.452.525-10.494.816-11.928 1.468-.92.418-1.05 1.476-.68 2.88-1.188-2.44-1.544-4.437-.153-5.048 1.48-.65 5.195-.758 11.84-1.324 2.688-.23 9.75-.596 16.837-.596s13.887.455 16.572.71c6.64.632 10.267.564 11.742 1.21 1.396.61 1.035 2.614-.153 5.053z"/><path d="M23.934 29.85c-3.628-.094-9.037 1.614-12.085 2.965-3.153 1.398-8.817 1.398-11.97 0-3.048-1.35-8.457-3.06-12.085-2.965-11.287.292-16.524 6.726-16.42 17.193.08 7.902 4.66 23.614 34.49 23.614 29.532 0 34.044-15.454 34.49-23.614.57-10.452-5.132-16.9-16.42-17.193z" class="D"/><path fill="#f0d8b4" d="M-.27 46.986C2.24 51.9.223 57.953-3.725 59.968s-8.8-.178-11.602-4.925c-4.225-7.134-2.44-12.83 1.51-14.844s9.62-.912 13.55 6.787z"/><path fill="#674430" d="M-1.484 44.758C1.025 49.672-.14 55.3-4.09 57.305s-9.18-.335-11.7-5.25-1.343-10.532 2.605-12.547 9.18.335 11.7 5.25z"/><path fill="#361609" d="M-1.485 44.758c.47.92.815 1.87 1.028 2.812-2.52-4.85-8.08-6.273-11.825-4.362s-4.274 6.466-1.798 11.36a12.31 12.31 0 0 1-1.7-2.511c-2.51-4.918-1.345-10.533 2.603-12.55s9.18.333 11.692 5.25z"/><path fill="#f0d8b4" d="M12.11 46.986c-2.51 4.914-.492 10.967 3.456 12.982s8.8-.178 11.602-4.925c4.225-7.134 2.44-12.83-1.508-14.844s-9.62-.912-13.55 6.787z"/><path fill="#674430" d="M13.326 44.758c-2.51 4.914-1.343 10.532 2.605 12.547s9.18-.335 11.7-5.25 1.343-10.532-2.605-12.547-9.18.335-11.7 5.25z"/><path fill="#361609" d="M13.327 44.758c-.47.92-.814 1.87-1.027 2.812 2.52-4.85 8.08-6.273 11.825-4.362s4.273 6.466 1.797 11.36c.643-.734 1.223-1.575 1.7-2.51 2.51-4.918 1.344-10.533-2.604-12.55s-9.18.333-11.692 5.25z"/></g><g transform="matrix(-.95 0 0 .95 265.556061 256)"><use xlink:href="#E" class="D"/><use xlink:href="#F" fill="#111"/><use xlink:href="#G" fill="#f5f5f5"/><use xlink:href="#H" fill="#484949"/></g><g transform="matrix(.95 0 0 .95 256 256)"><use xlink:href="#E" class="D"/><use xlink:href="#F" fill="#111"/><use xlink:href="#G" fill="#f5f5f5"/><use xlink:href="#H" fill="#484949"/></g></g></svg>