<svg xmlns="http://www.w3.org/2000/svg" xmlns:xlink="http://www.w3.org/1999/xlink" viewBox="0 0 512 512" width="512" height="512" class="lottie-svg" preserveAspectRatio="xMidYMid meet" style="width: 100%; height: 100%; transform: translate3d(0px, 0px, 0px); content-visibility: visible;"><defs><clipPath id="__lottie_element_14"><rect width="512" height="512" x="0" y="0"></rect></clipPath></defs><g clip-path="url(#__lottie_element_14)"><g transform="matrix(1,0,0,1,0,6.0000152587890625)" opacity="1" style="display: block;"><g opacity="1" transform="matrix(1,0,0,1,120.46399688720703,274.0790100097656)"><path fill="rgb(255,255,255)" fill-opacity="1" d=" M70.68599700927734,31.479000091552734 C70.68599700927734,31.479000091552734 70.68599700927734,-34.143001556396484 70.68599700927734,-34.143001556396484 C70.68599700927734,-38.56399917602539 67.19400024414062,-42.14799880981445 62.88600158691406,-42.14799880981445 C62.88600158691406,-42.14799880981445 -62.88399887084961,-42.14699935913086 -62.88399887084961,-42.14699935913086 C-67.19200134277344,-42.14899826049805 -70.68599700927734,-38.56399917602539 -70.68599700927734,-34.143001556396484 C-70.68599700927734,-32.340999603271484 -70.09500122070312,-30.591999053955078 -69.00599670410156,-29.17799949645996 C-52.446998596191406,-7.690999984741211 -34.268001556396484,8.406000137329102 -14.467000007629395,19.11199951171875 C6.126999855041504,30.246000289916992 25.597999572753906,37.801998138427734 56.71799850463867,41.78200149536133 C56.71799850463867,41.78200149536133 59.0620002746582,42.073001861572266 59.0620002746582,42.073001861572266 C64.76599884033203,42.766998291015625 69.93699645996094,38.58399963378906 70.61299896240234,32.72999954223633 C70.61299896240234,32.72999954223633 70.66799926757812,32.10599899291992 70.66799926757812,32.10599899291992 C70.66799926757812,32.10599899291992 70.68599700927734,31.479000091552734 70.68599700927734,31.479000091552734z"></path></g><g opacity="1" transform="matrix(1,0,0,1,322.78399658203125,329.29998779296875)"><path fill="rgb(255,255,255)" fill-opacity="1" d=" M-103.19400024414062,-97.36699676513672 C-103.19400024414062,-97.36699676513672 103.19400024414062,-97.36699676513672 103.19400024414062,-97.36699676513672 C107.50199890136719,-97.36699676513672 110.99400329589844,-93.78299713134766 110.99400329589844,-89.36199951171875 C110.99400329589844,-89.36199951171875 110.99400329589844,-70.16500091552734 110.99400329589844,-70.16500091552734 C110.99600219726562,-66.03700256347656 107.94000244140625,-62.58399963378906 103.93699645996094,-62.191001892089844 C85.34200286865234,-60.349998474121094 69.52100372314453,-54.41699981689453 56.474998474121094,-44.39400100708008 C34.474998474121094,-27.492000579833984 27.3439998626709,-13.256999969482422 26.909000396728516,12.04699993133545 C26.643999099731445,27.468000411987305 33.71200180053711,42.31700134277344 48.11399841308594,56.59400177001953 C48.11399841308594,56.59400177001953 49.104000091552734,57.569000244140625 49.104000091552734,57.569000244140625 C51.185001373291016,59.584999084472656 52.3650016784668,62.393001556396484 52.3650016784668,65.33100128173828 C52.3650016784668,65.33100128173828 52.3650016784668,86.69300079345703 52.3650016784668,86.69300079345703 C52.3650016784668,92.58799743652344 47.709999084472656,97.36699676513672 41.965999603271484,97.36699676513672 C41.965999603271484,97.36699676513672 -100.59400177001953,97.36699676513672 -100.59400177001953,97.36699676513672 C-106.33799743652344,97.36699676513672 -110.99400329589844,92.58799743652344 -110.99400329589844,86.69300079345703 C-110.99400329589844,86.69300079345703 -110.99400329589844,67.3239974975586 -110.99400329589844,67.3239974975586 C-110.99400329589844,63.439998626708984 -108.93699645996094,59.86199951171875 -105.6240005493164,57.98400115966797 C-93.73799896240234,51.25199890136719 -87.79299926757812,40.84600067138672 -87.79299926757812,26.763999938964844 C-87.79299926757812,12.305000305175781 -94.05899810791016,1.9579999446868896 -106.59200286865234,-4.2769999504089355 C-109.28199768066406,-5.60699987411499 -110.98999786376953,-8.401000022888184 -110.99400329589844,-11.46500015258789 C-110.99400329589844,-11.46500015258789 -110.99400329589844,-89.36199951171875 -110.99400329589844,-89.36199951171875 C-110.99400329589844,-93.78299713134766 -107.50199890136719,-97.36699676513672 -103.19400024414062,-97.36699676513672z"></path></g></g><g transform="matrix(1,0,0,1,0,6)" opacity="1" style="display: block;"><g opacity="1" transform="matrix(1,0,0,1,314.97100830078125,113.67500305175781)"><path fill="rgb(255,255,255)" fill-opacity="1" d=" M-107.05899810791016,30.756000518798828 C-107.05899810791016,30.756000518798828 -111.23799896240234,12.859000205993652 -111.23799896240234,12.859000205993652 C-112.5770034790039,7.125999927520752 -109.13400268554688,1.3660000562667847 -103.54900360107422,-0.00800000037997961 C-103.54900360107422,-0.00800000037997961 -103.13300323486328,-0.10100000351667404 -103.13300323486328,-0.10100000351667404 C-103.13300323486328,-0.10100000351667404 88.23100280761719,-38.5629997253418 88.23100280761719,-38.5629997253418 C98.50499725341797,-40.63800048828125 108.54900360107422,-34.03900146484375 111.01499938964844,-23.5939998626709 C113.36100006103516,-13.657999992370605 107.41600036621094,-3.6519999504089355 97.73500061035156,-1.24399995803833 C97.73500061035156,-1.24399995803833 97.40499877929688,-1.1649999618530273 97.40499877929688,-1.1649999618530273 C97.40499877929688,-1.1649999618530273 -94.87799835205078,38.729000091552734 -94.87799835205078,38.729000091552734 C-100.19599914550781,39.83700180053711 -105.41699981689453,36.5629997253418 -106.92500305175781,31.27400016784668 C-106.92500305175781,31.27400016784668 -107.05899810791016,30.756000518798828 -107.05899810791016,30.756000518798828z"></path></g><g opacity="1" transform="matrix(1,0,0,1,156.59300231933594,140.33999633789062)"><path fill="rgb(255,255,255)" fill-opacity="1" d=" M-6.935999870300293,68.74199676513672 C-6.935999870300293,68.74199676513672 27.148000717163086,59.88199996948242 27.148000717163086,59.88199996948242 C36.7400016784668,57.38800048828125 42.632999420166016,47.48400115966797 40.41400146484375,37.58700180053711 C40.41400146484375,37.58700180053711 29.415000915527344,-11.465999603271484 29.415000915527344,-11.465999603271484 C28.273000717163086,-16.55699920654297 26.231000900268555,-21.388999938964844 23.388999938964844,-25.722999572753906 C23.388999938964844,-25.722999572753906 21.7549991607666,-28.19700050354004 21.7549991607666,-28.19700050354004 C2.0169999599456787,-57.85300064086914 -12.277000427246094,-71.43499755859375 -21.135000228881836,-68.93800354003906 C-30.177000045776367,-66.38899993896484 -36.632999420166016,-46.62300109863281 -40.50199890136719,-9.640000343322754 C-40.50199890136719,-9.640000343322754 -40.65700149536133,-8.130999565124512 -40.65700149536133,-8.130999565124512 C-41.13399887084961,-3.430000066757202 -40.84700012207031,1.3200000524520874 -39.80799865722656,5.923999786376953 C-39.80799865722656,5.923999786376953 -28.774999618530273,54.76300048828125 -28.774999618530273,54.76300048828125 C-26.5049991607666,64.81300354003906 -16.72800064086914,71.0719985961914 -6.935999870300293,68.74199676513672z"></path></g></g><g style="display: none;"><g><path stroke-linecap="round" stroke-linejoin="round" fill-opacity="0"></path></g><g><path stroke-linecap="round" stroke-linejoin="round" fill-opacity="0"></path></g><g><path stroke-linecap="round" stroke-linejoin="round" fill-opacity="0"></path></g><g><path stroke-linecap="round" stroke-linejoin="round" fill-opacity="0"></path></g></g></g></svg>