<svg xmlns="http://www.w3.org/2000/svg" viewBox="0 0 120 120"><path fill="#50A2E9" fill-rule="evenodd" d="M60 0c33.137 0 60 26.863 60 60s-26.863 60-60 60S0 93.137 0 60 26.863 0 60 0zm25.593 34.839c-2.346.041-5.946 1.293-23.269 8.497-6.067 2.523-18.192 7.745-36.377 15.666-2.953 1.174-4.5 2.322-4.64 3.445-.27 2.157 2.834 2.828 6.74 4.097 3.185 1.036 7.47 2.246 9.697 2.295 2.02.043 4.275-.79 6.764-2.499C61.498 54.874 70.27 49.078 70.82 48.953c.388-.088.926-.199 1.291.125.365.324.329.938.29 1.103-.309 1.316-16.269 15.83-17.187 16.785-3.51 3.644-7.503 5.874-1.344 9.932 5.33 3.511 8.43 5.751 13.92 9.35 3.51 2.298 6.26 5.025 9.882 4.692 1.667-.153 3.389-1.72 4.263-6.394 2.067-11.045 6.128-34.976 7.067-44.838.082-.864-.021-1.97-.104-2.455-.083-.485-.257-1.177-.888-1.689-.747-.606-1.901-.734-2.417-.725z"/></svg>