<svg width="86" height="82" viewBox="0 0 86 82" fill="none" xmlns="http://www.w3.org/2000/svg">
<path d="M39.908 68.9386L20.33 80.9306C19.7381 81.293 19.0517 81.4706 18.3584 81.4409C17.665 81.4112 16.9963 81.1755 16.4376 80.7638C15.8789 80.3522 15.4556 79.7833 15.2218 79.1299C14.988 78.4765 14.9543 77.7683 15.125 77.0956L18.155 65.1666C18.6658 63.1578 19.6111 61.2854 20.9243 59.6817C22.2374 58.0779 23.8864 56.7817 25.755 55.8846L47.113 45.6296C47.7285 45.3329 48.2161 44.8238 48.4859 44.196C48.7558 43.5683 48.7897 42.8642 48.5816 42.2134C48.3734 41.5626 47.9371 41.0089 47.353 40.6543C46.769 40.2997 46.0764 40.1681 45.403 40.2836L21.629 44.3996C17.037 45.1946 12.329 43.9266 8.758 40.9336L1.247 34.6396C0.716175 34.1943 0.32991 33.6011 0.137406 32.9355C-0.0550987 32.2699 -0.0451286 31.5621 0.166046 30.9022C0.377221 30.2422 0.780042 29.6601 1.3232 29.23C1.86636 28.7998 2.52527 28.541 3.216 28.4866L26.163 26.6906C27.1114 26.6161 28.0206 26.2809 28.7904 25.722C29.5602 25.1631 30.1605 24.4023 30.525 23.5236L39.377 2.15362C39.6413 1.51611 40.0886 0.971254 40.6624 0.587925C41.2363 0.204595 41.9109 0 42.601 0C43.2911 0 43.9657 0.204595 44.5396 0.587925C45.1134 0.971254 45.5607 1.51611 45.825 2.15362L54.677 23.5236C55.0415 24.4023 55.6418 25.1631 56.4116 25.722C57.1814 26.2809 58.0907 26.6161 59.039 26.6906L82.112 28.4966C82.8003 28.5507 83.4571 28.8078 83.9992 29.2352C84.5414 29.6626 84.9446 30.2413 85.1579 30.8979C85.3711 31.5546 85.3848 32.2597 85.1972 32.9241C85.0096 33.5886 84.6292 34.1824 84.104 34.6306L66.507 49.6336C65.7828 50.2516 65.2436 51.0579 64.9493 51.9633C64.6549 52.8687 64.6167 53.8379 64.839 54.7636L70.249 77.2376C70.4104 77.9088 70.3691 78.6127 70.1303 79.2604C69.8916 79.908 69.4662 80.4704 68.9079 80.8763C68.3496 81.2821 67.6834 81.5134 66.9937 81.5407C66.304 81.568 65.6217 81.3901 65.033 81.0296L45.294 68.9386C44.4833 68.4426 43.5514 68.1801 42.601 68.1801C41.6506 68.1801 40.7187 68.4426 39.908 68.9386Z" fill="url(#paint0_linear_16_52)"/>
<defs>
<linearGradient id="paint0_linear_16_52" x1="-8.399" y1="100.459" x2="79.17" y2="-6.03838" gradientUnits="userSpaceOnUse">
<stop stop-color="#FDEB32"/>
<stop offset="0.439" stop-color="#FEBD04"/>
<stop offset="1" stop-color="#D75902"/>
</linearGradient>
</defs>
</svg>
