<svg width="13" height="11" viewBox="0 0 13 11" fill="none" xmlns="http://www.w3.org/2000/svg">
<path d="M2.61661 7.97555C2.68902 7.90314 2.78858 7.8609 2.89418 7.8609H12.4703C12.6453 7.8609 12.7328 8.07209 12.6091 8.19579L10.7174 10.0875C10.645 10.1599 10.5454 10.2021 10.4398 10.2021H0.863708C0.68872 10.2021 0.601225 9.99093 0.724924 9.86724L2.61661 7.97555Z" fill="#686A6D"/>
<path d="M2.61661 0.912591C2.69204 0.840182 2.7916 0.797943 2.89418 0.797943H12.4703C12.6453 0.797943 12.7328 1.00914 12.6091 1.13284L10.7174 3.02452C10.645 3.09693 10.5454 3.13917 10.4398 3.13917H0.863708C0.68872 3.13917 0.601225 2.92798 0.724924 2.80428L2.61661 0.912591Z" fill="#686A6D"/>
<path d="M10.7174 4.42144C10.645 4.34903 10.5454 4.30679 10.4398 4.30679H0.863708C0.68872 4.30679 0.601225 4.51799 0.724924 4.64169L2.61661 6.53337C2.68902 6.60578 2.78858 6.64802 2.89418 6.64802H12.4703C12.6453 6.64802 12.7328 6.43683 12.6091 6.31313L10.7174 4.42144Z" fill="#686A6D"/>
</svg>
