<svg width="12" height="10" viewBox="0 0 12 10" fill="none" xmlns="http://www.w3.org/2000/svg">
<path d="M1.94962 7.47555C2.02203 7.40314 2.12159 7.3609 2.22719 7.3609H11.8033C11.9783 7.3609 12.0658 7.57209 11.9421 7.69579L10.0504 9.58748C9.97797 9.65989 9.87841 9.70213 9.77281 9.70213H0.196716C0.0217275 9.70213 -0.0657668 9.49093 0.057932 9.36724L1.94962 7.47555Z" fill="url(#paint0_linear_547_25396)"/>
<path d="M1.94962 7.47555C2.02203 7.40314 2.12159 7.3609 2.22719 7.3609H11.8033C11.9783 7.3609 12.0658 7.57209 11.9421 7.69579L10.0504 9.58748C9.97797 9.65989 9.87841 9.70213 9.77281 9.70213H0.196716C0.0217275 9.70213 -0.0657668 9.49093 0.057932 9.36724L1.94962 7.47555Z" fill="white" fill-opacity="0.8"/>
<path d="M1.94962 0.412591C2.02504 0.340182 2.12461 0.297943 2.22719 0.297943H11.8033C11.9783 0.297943 12.0658 0.509136 11.9421 0.632835L10.0504 2.52452C9.97797 2.59693 9.87841 2.63917 9.77281 2.63917H0.196716C0.0217275 2.63917 -0.0657668 2.42798 0.057932 2.30428L1.94962 0.412591Z" fill="url(#paint1_linear_547_25396)"/>
<path d="M1.94962 0.412591C2.02504 0.340182 2.12461 0.297943 2.22719 0.297943H11.8033C11.9783 0.297943 12.0658 0.509136 11.9421 0.632835L10.0504 2.52452C9.97797 2.59693 9.87841 2.63917 9.77281 2.63917H0.196716C0.0217275 2.63917 -0.0657668 2.42798 0.057932 2.30428L1.94962 0.412591Z" fill="white" fill-opacity="0.8"/>
<path d="M10.0504 3.92159C9.97797 3.84918 9.87841 3.80695 9.77281 3.80695H0.196716C0.0217275 3.80695 -0.0657668 4.01814 0.057932 4.14184L1.94962 6.03352C2.02203 6.10593 2.12159 6.14817 2.22719 6.14817H11.8033C11.9783 6.14817 12.0658 5.93698 11.9421 5.81328L10.0504 3.92159Z" fill="url(#paint2_linear_547_25396)"/>
<path d="M10.0504 3.92159C9.97797 3.84918 9.87841 3.80695 9.77281 3.80695H0.196716C0.0217275 3.80695 -0.0657668 4.01814 0.057932 4.14184L1.94962 6.03352C2.02203 6.10593 2.12159 6.14817 2.22719 6.14817H11.8033C11.9783 6.14817 12.0658 5.93698 11.9421 5.81328L10.0504 3.92159Z" fill="white" fill-opacity="0.8"/>
<defs>
<linearGradient id="paint0_linear_547_25396" x1="-21.6436" y1="-1.47855" x2="-21.8984" y2="11.3423" gradientUnits="userSpaceOnUse">
<stop stop-color="#00FFA3"/>
<stop offset="1" stop-color="#DC1FFF"/>
</linearGradient>
<linearGradient id="paint1_linear_547_25396" x1="-24.5415" y1="-2.99154" x2="-24.7963" y2="9.82928" gradientUnits="userSpaceOnUse">
<stop stop-color="#00FFA3"/>
<stop offset="1" stop-color="#DC1FFF"/>
</linearGradient>
<linearGradient id="paint2_linear_547_25396" x1="-23.1018" y1="-2.23971" x2="-23.3566" y2="10.5811" gradientUnits="userSpaceOnUse">
<stop stop-color="#00FFA3"/>
<stop offset="1" stop-color="#DC1FFF"/>
</linearGradient>
</defs>
</svg>
